<svg xmlns="http://www.w3.org/2000/svg" width="1459" height="1940" viewBox="0 0 1459 1940"><g transform="translate(-9707 -10118)"><rect width="1459" height="1940" transform="translate(9707 10118)" fill="#fffdf1"/><path d="M1,1V1939H1458V1H1M0,0H1459V1940H0Z" transform="translate(9707 10118)" fill="#707070"/><g transform="translate(120.847 254.661)"><path d="M29.154,26.584l-20.676.323q-1.373,0-1.615-.323a2.782,2.782,0,0,1-.242-1.454V13.339a2.746,2.746,0,0,1,.323-1.7A3.015,3.015,0,0,1,8.479,11.4l20.676.323H70.99V.9H49.1l-22.937.323q-1.858,0-1.858-1.615l.323-12.438V-26.4l-.323-12.034a2.945,2.945,0,0,1,.323-1.777,3.015,3.015,0,0,1,1.535-.242l22.937.323H70.99V-50.384H67.356l-18.818.4q-1.373,0-1.615-.323a2.782,2.782,0,0,1-.242-1.454L47-67.587v-4.281H29.477L8.8-71.544a2.945,2.945,0,0,1-1.777-.323,2.782,2.782,0,0,1-.242-1.454v-11.63q0-1.373.4-1.7A3.258,3.258,0,0,1,8.8-86.89l20.676.323H47a88.909,88.909,0,0,0-1.05-14.215q10.742.323,16.557.969,2.342.242,2.342,1.7a3.728,3.728,0,0,1-.4,1.454q-.485,1.05-.565,1.292-.727,1.777-.727,8.8H96.593a93.106,93.106,0,0,0-.969-14.215q10.742.323,16.476.969,2.342.242,2.342,1.7a13.667,13.667,0,0,1-.969,2.746q-.646,1.373-.646,8.8H131l20.676-.323q1.454,0,1.7.4a2.373,2.373,0,0,1,.323,1.535v11.63q0,1.292-.4,1.535a3.258,3.258,0,0,1-1.615.242L131-71.868H112.826v4.281l.323,15.83q0,1.292-.323,1.535a3.823,3.823,0,0,1-1.7.242l-18.657-.4H87.709v10.257H111.13l23.018-.323q1.454,0,1.777.4a3.258,3.258,0,0,1,.242,1.615l-.4,12.034v13.568l.4,12.438q0,1.131-.323,1.373a3.512,3.512,0,0,1-1.7.242L111.13.9H87.709V11.724h43.613L152,11.4q1.454,0,1.777.4a3.015,3.015,0,0,1,.242,1.535V25.131q0,1.211-.323,1.494a3.07,3.07,0,0,1-1.7.283l-20.676-.323H87.709v.323l.323,23.179q0,1.292-.323,1.535a3.015,3.015,0,0,1-1.535.242H72.283q-1.615,0-1.615-1.777l.323-23.179v-.323Zm90.133-38.605V-27.2H87.709v15.184Zm-78.1,0h29.8V-27.2h-29.8Zm55.4-50.236v-9.611H63.156v9.611ZM236.8,41.687A80.375,80.375,0,0,0,253.838,8.17q3.311-13.73,3.311-47.651v-18.01q0-16.557-.969-28.268A82.279,82.279,0,0,1,271.364-81.8,114.057,114.057,0,0,0,300.035-93.27a45.962,45.962,0,0,0,8.723-6.057A65.979,65.979,0,0,1,319.58-87.617a5.506,5.506,0,0,1,1.131,3.15q0,1.7-2.5,2.019a20.363,20.363,0,0,0-6.461,1.938,177.231,177.231,0,0,1-38.525,13.568V-46.75h28.268l22.533-.323q1.292,0,1.535.323A2.781,2.781,0,0,1,325.8-45.3v12.115q0,1.292-.323,1.535a2.782,2.782,0,0,1-1.454.242q-.242,0-2.181-.081-6.461-.162-14.538-.242V26.5l.323,22.856a2.746,2.746,0,0,1-.323,1.7,2.109,2.109,0,0,1-1.292.242H292.363q-1.292,0-1.535-.323a3.258,3.258,0,0,1-.242-1.615l.323-22.856V-31.728H273.222q-.242,31.5-4.281,47.813a96.2,96.2,0,0,1-14.3,31.417q-2.342,3.15-3.473,3.15-.808,0-3.634-2.342A36.573,36.573,0,0,0,236.8,41.687ZM195.849-30.839l-20.353.323q-1.615,0-1.615-1.777V-44.246q0-1.777,1.615-1.777l20.353.323h21.322a108.391,108.391,0,0,0,6.3-15.749,28.575,28.575,0,0,0,1.131-7.269q3.392.646,7.915,1.777,5.734,1.535,6.461,1.7Q241-64.6,241-62.9a3.3,3.3,0,0,1-1.292,2.5,9.851,9.851,0,0,0-2.5,3.8q-3.069,6.946-5.169,10.9l17.93-.323q1.292,0,1.535.323a2.782,2.782,0,0,1,.242,1.454v11.953q0,1.292-.323,1.535a2.782,2.782,0,0,1-1.454.242l-20.353-.323h-7.592q-.4,1.211-.4,9.126v2.988h5.654l19.868-.323q1.292,0,1.535.323a2.782,2.782,0,0,1,.242,1.454V-5.56q0,1.373-.323,1.615a2.782,2.782,0,0,1-1.454.242l-19.868-.323h-1.131A77.9,77.9,0,0,0,247.3,13.339a54.532,54.532,0,0,0-5.815,10.58q-1.05,2.665-1.938,2.665-1.211,0-3.473-2.342a82.988,82.988,0,0,1-14.78-17.2q.162,13.811.565,28.752.323,11.307.323,13.084,0,1.292-.4,1.615a3.258,3.258,0,0,1-1.615.242H207.075q-1.292,0-1.535-.4a2.523,2.523,0,0,1-.242-1.454q0-1.373.323-14.7.242-12.034.323-23.5Q198.272,23.6,184.461,37.407q-2.584,2.342-3.473,2.342-1.373,0-2.665-3.311a45.754,45.754,0,0,0-6.461-11.065A101.4,101.4,0,0,0,201.1-4.025H196.98L176.95-3.7q-1.292,0-1.535-.323a3.014,3.014,0,0,1-.242-1.535V-17.271q0-1.292.323-1.535a2.782,2.782,0,0,1,1.454-.242l20.03.323h8.642v-2.988q0-6.623-.162-9.126Zm31.9-39.736H198.676l-19.545.323q-1.292,0-1.535-.323a2.782,2.782,0,0,1-.242-1.454V-83.5q0-1.292.323-1.535a2.782,2.782,0,0,1,1.454-.242l19.545.323h6.461v-4.442a46.723,46.723,0,0,0-1.05-10.984q10.984.323,17.2.888,2.665.242,2.665,1.454a8.088,8.088,0,0,1-.969,2.827q-.808,1.454-.808,5.977v4.281h5.573l19.383-.323q1.454,0,1.7.323a2.782,2.782,0,0,1,.242,1.454v11.469q0,1.292-.323,1.535a3.258,3.258,0,0,1-1.615.242ZM188.257-62.9a3.841,3.841,0,0,1-.565-1.535q0-.888,2.019-1.292l8.48-2.5a5.649,5.649,0,0,1,1.373-.242q.888,0,1.535,1.373a68.284,68.284,0,0,1,6.138,14.941,3.874,3.874,0,0,1,.242,1.131q0,.969-1.858,1.535l-9.449,2.423a5.641,5.641,0,0,1-1.7.4q-1.131,0-1.615-1.7Q190.2-58.945,188.257-62.9Zm239.948-.323Q421.987-17.271,407.53,8.009q-10.9,19.06-28.187,19.06-12.518,0-21.16-12.6-8.076-11.953-8.076-29.883,0-24.31,18.657-43.047,21.16-21.16,53.789-21.16,31.094,0,48.459,18.414Q485.548-45.7,485.548-22.278q0,44.905-50.962,60.25a9.392,9.392,0,0,1-2.423.4q-2.423,0-4.684-3.392-3.554-5.573-11.549-10.419,25.522-6.057,37.152-17.041Q465.842-4.51,465.842-24.863a37.723,37.723,0,0,0-11.549-27.945,34.784,34.784,0,0,0-25.441-10.419Zm-19.222.969Q391.3-58.7,380.716-47.234,367.794-32.7,367.794-16.625q0,11.388,4.119,18.334,3.231,5.33,7.107,5.33,6.784,0,12.438-10.1,6.057-11.065,11.065-28.429A207.92,207.92,0,0,0,408.984-62.257ZM664.842-35.281a49.657,49.657,0,0,0-9.53,12.357q-2.181,3.634-3.15,3.634-.808,0-3.473-2.181A139.474,139.474,0,0,1,632.94-34.8q0,.646-.485,16.4a360.654,360.654,0,0,1-4.119,46.278q-1.858,10.984-7.834,15.749-5.9,4.6-16.8,4.6-7.269,0-11.307-.323-3.957-.242-4.684-1.131-.565-.727-1.373-4.684-1.858-8.723-5.169-13.245a134.377,134.377,0,0,0,18.9,1.535q5.492,0,7.915-2.584,2.181-2.342,3.15-7.673,2.665-15.588,3.15-41.028H584.8q-4.765,49.993-50.236,70.184a12.35,12.35,0,0,1-4.038,1.292q-1.131,0-3.473-3.957a28.807,28.807,0,0,0-8.4-9.934q24.068-8.723,35.536-23.906,10.1-13.245,12.276-33.679h-2.019l-21.806.323a2.556,2.556,0,0,1-1.615-.323,2.781,2.781,0,0,1-.242-1.454V-34.474A171.275,171.275,0,0,1,524.8-20.744q-2.988,2.181-3.634,2.181-1.05,0-3.473-3.634-4.523-7.027-9.288-10.176,32.467-20.918,47.813-54.6a53,53,0,0,0,3.311-10.58,106.1,106.1,0,0,1,17.122,5.815q2.342,1.05,2.342,2.827a3.883,3.883,0,0,1-1.292,2.5,13.653,13.653,0,0,0-3.8,5.25A151.312,151.312,0,0,1,543.615-37.3q4.684.323,20.837.323h44.5q18.172,0,21.483-.323A173.572,173.572,0,0,1,594.9-89.717a4.363,4.363,0,0,1-.323-1.292q0-.727,1.858-1.535l11.711-4.684A5.492,5.492,0,0,1,610-97.793q.727,0,1.292,1.454a130.963,130.963,0,0,0,24.229,37.232A125.83,125.83,0,0,0,664.842-35.281ZM767.814-62.1l-21.726.323q-1.292,0-1.534-.323a3.014,3.014,0,0,1-.242-1.535V-75.987q0-1.373.323-1.615a2.782,2.782,0,0,1,1.454-.242l21.726.323h8.4V-81.64a118.657,118.657,0,0,0-1.131-18.657A167,167,0,0,1,792.609-99q2.5.242,2.5,1.615a6.583,6.583,0,0,1-.485,2.261,14.72,14.72,0,0,0-.727,1.938q-.646,2.827-.646,11.226v4.442h14.376l21.726-.323q1.292,0,1.534.323a3.014,3.014,0,0,1,.242,1.535V-63.63q0,1.373-.323,1.615a2.781,2.781,0,0,1-1.454.242L807.631-62.1H793.255v21.16h15.426a5.735,5.735,0,0,0,3.231-.727,8.6,8.6,0,0,1,2.019-.808q1.777,0,6.3,4.281,4.927,4.765,4.927,6.461a3.63,3.63,0,0,1-1.615,3.15q-1.777,1.535-3.715,6.3A128.078,128.078,0,0,1,797.7,14.308q15.345,13.084,37.071,19.3a52.146,52.146,0,0,0-7.43,12.438q-1.615,4.119-2.988,4.119a18.809,18.809,0,0,1-3.8-1.131A122.179,122.179,0,0,1,785.5,26.5a124.616,124.616,0,0,1-40.867,23.745,27.094,27.094,0,0,1-3.957,1.131q-1.373,0-3.473-3.957a34.928,34.928,0,0,0-7.673-9.611q26.895-8.076,45.228-23.341Q761.837-2.41,754.73-26.236l-7.834.162q-1.292,0-1.534-.323a2.781,2.781,0,0,1-.242-1.454v-11.63q0-1.292.323-1.535a2.782,2.782,0,0,1,1.454-.242l20.676.323h8.642V-62.1Zm35.7,35.7H771.448A89.825,89.825,0,0,0,786.471,2.678,95.934,95.934,0,0,0,803.512-26.4ZM724.766-70.333a132.568,132.568,0,0,1,13.649.969q2.342.565,2.342,2.019a5.931,5.931,0,0,1-.4,1.938,14.493,14.493,0,0,0-.565,1.7q-.646,2.665-.646,17.041V-5.156l.323,23.826a2.427,2.427,0,0,1-.283,1.494,2.428,2.428,0,0,1-1.494.283H727.674q-1.292,0-1.535-.323a2.781,2.781,0,0,1-.242-1.454V12.531H699.083V26.423a2.556,2.556,0,0,1-.323,1.615,2.781,2.781,0,0,1-1.454.242H686.646q-1.292,0-1.535-.4a2.524,2.524,0,0,1-.242-1.454L685.192.659V-46.669a232.848,232.848,0,0,0-.969-23.664q10.661.485,14.134.969,2.019.242,2.019,1.858a7.34,7.34,0,0,1-.646,2.423q-.646,2.181-.646,16.234V-2.491h6.3V-75.5a204.092,204.092,0,0,0-1.131-23.583q9.773.323,14.7.969,2.342.242,2.342,1.615a8.232,8.232,0,0,1-.4,2.181q-.485,1.535-.646,2.019-.646,2.988-.646,16.637V-2.491h6.3V-46.669A196.086,196.086,0,0,0,724.766-70.333ZM910.36-100.539a155.884,155.884,0,0,1,18.334,1.373q2.5.242,2.5,1.615a9.728,9.728,0,0,1-.646,3.311q-1.211,2.342-1.211,11.63v1.292h37.394L988.3-81.64q1.292,0,1.534.323a3.014,3.014,0,0,1,.242,1.535v13.245q0,1.615-1.777,1.615l-21.564-.323H929.34v14.861h22.049l22.937-.323q1.858,0,1.858,1.615l-.323,14.941v22.937l.323,14.7a2.628,2.628,0,0,1-.283,1.575,2.628,2.628,0,0,1-1.575.283L951.389,5.02h-54.92l-22.937.323q-1.373,0-1.615-.323a3.014,3.014,0,0,1-.242-1.535l.323-14.7V-34.151l-.323-14.941q0-1.615,1.858-1.615l22.937.323h15.184V-79.136A167.506,167.506,0,0,0,910.36-100.539Zm-20.837,65.9v23.906h68.811V-34.635Zm-21.483,47q.485-1.454,1.292-1.454a8.391,8.391,0,0,1,2.181.565l9.53,3.634q2.1.888,2.1,1.615a3.844,3.844,0,0,1-.242,1.05,106.534,106.534,0,0,1-17.364,31.094q-.727,1.131-1.534,1.131a3.982,3.982,0,0,1-2.1-.808l-10.419-5.734q-1.938-1.131-1.938-1.858a2.271,2.271,0,0,1,.727-1.292A91.8,91.8,0,0,0,868.039,12.37Zm109.6-1.535A145.505,145.505,0,0,1,995,40.8a3.66,3.66,0,0,1,.4,1.292q0,.808-1.858,1.7l-11.065,4.6a11.266,11.266,0,0,1-1.938.485q-.646,0-1.05-1.131A154.31,154.31,0,0,0,963.422,16.65a1.994,1.994,0,0,1-.485-1.131q0-.727,2.019-1.535L974,10.351a7.8,7.8,0,0,1,2.1-.646Q976.829,9.7,977.637,10.835ZM943.8,14.147a159.063,159.063,0,0,1,9.692,29.479,5.53,5.53,0,0,1,.162,1.05q0,1.05-2.1,1.535l-11.792,2.5q-1.292.162-1.7.162-1.131,0-1.454-1.535a138.711,138.711,0,0,0-8.4-29.883,3.049,3.049,0,0,1-.323-1.05q0-.808,2.342-1.292l10.58-2.423a5.651,5.651,0,0,1,1.373-.242Q943.07,12.451,943.8,14.147Zm-34.81,0q.808-.081,1.05-.081,1.454,0,1.777,1.858,2.988,11.469,4.523,29.8v.646q0,1.7-2.342,1.858l-12.276.646a9.261,9.261,0,0,1-1.131.081,1.5,1.5,0,0,1-1.7-1.7A181.708,181.708,0,0,0,895.9,17.3a5.077,5.077,0,0,1-.081-.808q0-1.292,2.423-1.535Z" transform="translate(9919 10994.675)" fill="#557ec0"/></g><path d="M5.68-47.357V0h7.242V-47.357ZM23.643,0H30.6V-14.342C30.6-24,33.8-24.424,36.92-24.424c2.627,0,5.467.213,5.467,7.81V0h6.958V-18.318c0-4.615-.71-6.674-1.846-8.307-.923-1.278-3.266-4.047-8.8-4.047a10.3,10.3,0,0,0-8.094,3.55v-2.769H23.643ZM58.788,0h6.958V-14.342c0-9.656,3.195-10.082,6.319-10.082,2.627,0,5.467.213,5.467,7.81V0H84.49V-18.318c0-4.615-.71-6.674-1.846-8.307-.923-1.278-3.266-4.047-8.8-4.047a10.3,10.3,0,0,0-8.094,3.55v-2.769H58.788Zm49.629-30.672c-9.017,0-15.975,6.532-15.975,15.762C92.442-5.751,99.4.923,108.417.923s15.975-6.674,15.975-15.833C124.392-24.14,117.434-30.672,108.417-30.672Zm0,25.347c-5.467,0-8.875-3.763-8.875-9.514,0-6.816,4.473-9.585,8.875-9.585s8.875,2.769,8.875,9.585C117.292-9.088,113.884-5.325,108.417-5.325Zm19.951-24.566L143.846,2.13l15.478-32.021h-7.81l-7.668,17.04-7.668-17.04Zm57.652,3.479a10.9,10.9,0,0,0-8.875-4.26c-7.881,0-14.555,5.964-14.555,15.691,0,8.236,5.254,15.9,14.484,15.9a11.479,11.479,0,0,0,8.946-4.047V0h6.958V-29.891H186.02ZM178-24.424c4.4,0,8.449,3.124,8.449,9.656,0,6.248-4.047,9.443-8.449,9.443-5.041,0-8.307-4.331-8.307-9.514C169.69-20.164,172.956-24.424,178-24.424Zm36.991.923v-6.39h-5.325V-40.825h-6.958v10.934h-2.911v6.39h2.911V0h6.958V-23.5Zm5.4-6.39V0h6.958V-29.891Zm-.994-12.354a4.368,4.368,0,0,0,4.473,4.473,4.368,4.368,0,0,0,4.473-4.473,4.368,4.368,0,0,0-4.473-4.473A4.368,4.368,0,0,0,219.39-42.245Zm31.879,11.573c-9.017,0-15.975,6.532-15.975,15.762,0,9.159,6.958,15.833,15.975,15.833s15.975-6.674,15.975-15.833C267.244-24.14,260.286-30.672,251.269-30.672Zm0,25.347c-5.467,0-8.875-3.763-8.875-9.514,0-6.816,4.473-9.585,8.875-9.585s8.875,2.769,8.875,9.585C260.144-9.088,256.736-5.325,251.269-5.325ZM275.125,0h6.958V-14.342c0-9.656,3.2-10.082,6.319-10.082,2.627,0,5.467.213,5.467,7.81V0h6.958V-18.318c0-4.615-.71-6.674-1.846-8.307-.923-1.278-3.266-4.047-8.8-4.047a10.3,10.3,0,0,0-8.094,3.55v-2.769h-6.958ZM310.2-3.408a4.273,4.273,0,0,0,4.26,4.26,4.273,4.273,0,0,0,4.26-4.26,4.273,4.273,0,0,0-4.26-4.26A4.273,4.273,0,0,0,310.2-3.408ZM352.586,0l4.97-28.613L371.188,2.2l13.774-30.743L389.79,0h7.384l-8.946-50.907L371.614-14.129,355.142-50.907,345.2,0Zm75.828-26.412a10.9,10.9,0,0,0-8.875-4.26c-7.881,0-14.555,5.964-14.555,15.691,0,8.236,5.254,15.9,14.484,15.9a11.479,11.479,0,0,0,8.946-4.047V0h6.958V-29.891h-6.958Zm-8.023,1.988c4.4,0,8.449,3.124,8.449,9.656,0,6.248-4.047,9.443-8.449,9.443-5.041,0-8.307-4.331-8.307-9.514C412.084-20.164,415.35-24.424,420.391-24.424ZM444.886,0h6.958V-15.478c0-1.988,0-4.828,1.917-6.887A5.421,5.421,0,0,1,458.092-24a6.3,6.3,0,0,1,3.55,1.065l2.84-6.319a10.322,10.322,0,0,0-5.467-1.42,8.036,8.036,0,0,0-4.26.994,12.034,12.034,0,0,0-2.911,2.485v-2.7h-6.958Zm24.282-51.759V0h6.958V-11.5L477.4-12.78,487.2,0h8.8L482.232-17.466l12.851-12.425h-9.23L476.126-19.88V-51.759ZM531.009-23.5v-6.39h-5.325V-40.825h-6.958v10.934h-2.911v6.39h2.911V0h6.958V-23.5Zm5.4,23.5h6.958V-14.413c0-3.834.426-6.106,1.42-7.526a6.173,6.173,0,0,1,5.112-2.485,5.245,5.245,0,0,1,3.9,1.562c1.349,1.491,1.349,3.408,1.349,5.183V0h6.958V-18.318c0-2.13-.071-5.609-1.917-8.307-.852-1.207-3.337-4.047-8.8-4.047a10.745,10.745,0,0,0-8.023,3.337V-51.759h-6.958Zm55.38-10.082a10.8,10.8,0,0,1-2.769,3.266,7.326,7.326,0,0,1-4.757,1.491,7.109,7.109,0,0,1-5.325-1.917,9.88,9.88,0,0,1-2.556-6.035H597.82v-.852c0-3.124-.355-8.662-4.189-12.638a12.869,12.869,0,0,0-9.585-3.905,13.617,13.617,0,0,0-10.011,4.047,17.521,17.521,0,0,0-4.757,12.283,16.044,16.044,0,0,0,4.4,11.431c2.84,2.84,6.106,3.834,10.082,3.834a16.444,16.444,0,0,0,8.8-2.272,15.673,15.673,0,0,0,5.041-5.467Zm-14.91-8.875a7.833,7.833,0,0,1,2.13-3.834,6.7,6.7,0,0,1,4.9-1.917A6.673,6.673,0,0,1,588.59-23a7.229,7.229,0,0,1,2.13,4.047ZM648.3-40.541v-6.816H619.333v6.816H630.2V0h7.242V-40.541Zm3.692,10.65v17.324c0,3.834.426,7.029,3.2,9.8A13.132,13.132,0,0,0,664.631.923a13.632,13.632,0,0,0,9.727-3.692c2.769-2.769,3.195-5.964,3.195-9.8V-29.891H670.6V-12.78c0,1.775-.071,3.834-1.278,5.4a5.655,5.655,0,0,1-4.544,2.059,5.655,5.655,0,0,1-4.544-2.059c-1.207-1.562-1.278-3.621-1.278-5.4V-29.891ZM687.067,0h6.958V-15.478c0-1.988,0-4.828,1.917-6.887A5.421,5.421,0,0,1,700.273-24a6.3,6.3,0,0,1,3.55,1.065l2.84-6.319a10.322,10.322,0,0,0-5.467-1.42,8.036,8.036,0,0,0-4.26.994,12.034,12.034,0,0,0-2.911,2.485v-2.7h-6.958Zm24.211,0h6.958V-14.342c0-9.656,3.2-10.082,6.319-10.082,2.627,0,5.467.213,5.467,7.81V0h6.958V-18.318c0-4.615-.71-6.674-1.846-8.307-.923-1.278-3.266-4.047-8.8-4.047a10.3,10.3,0,0,0-8.094,3.55v-2.769h-6.958Zm35.216-29.891V0h6.958V-29.891ZM745.5-42.245a4.368,4.368,0,0,0,4.473,4.473,4.368,4.368,0,0,0,4.473-4.473,4.368,4.368,0,0,0-4.473-4.473A4.368,4.368,0,0,0,745.5-42.245ZM762.9,0h6.958V-14.342c0-9.656,3.2-10.082,6.319-10.082,2.627,0,5.467.213,5.467,7.81V0H788.6V-18.318c0-4.615-.71-6.674-1.846-8.307-.923-1.278-3.266-4.047-8.8-4.047a10.3,10.3,0,0,0-8.094,3.55v-2.769H762.9Zm57.084-26.625a11.244,11.244,0,0,0-8.875-4.047,13.6,13.6,0,0,0-10.153,4.118,15.874,15.874,0,0,0-4.4,11.573,16.9,16.9,0,0,0,4.473,11.857A12.679,12.679,0,0,0,810.891.923a10.826,10.826,0,0,0,9.088-4.26V.568c0,2.2,0,5.325-2.272,7.526a7.469,7.469,0,0,1-5.467,1.988,7.116,7.116,0,0,1-5.4-2.059,9.9,9.9,0,0,1-2.2-4.686H797.9a16.811,16.811,0,0,0,4.4,9.3,13.207,13.207,0,0,0,9.8,3.692,15.183,15.183,0,0,0,9.94-3.195c4.118-3.479,4.9-8.52,4.9-15.549V-29.891h-6.958Zm-8.023,2.2a7.39,7.39,0,0,1,5.609,2.13,10,10,0,0,1,2.84,7.526,9.936,9.936,0,0,1-2.627,7.029,7.574,7.574,0,0,1-5.822,2.414,8.14,8.14,0,0,1-5.325-1.988,10.26,10.26,0,0,1-2.982-7.526,10.393,10.393,0,0,1,3.053-7.6A7.2,7.2,0,0,1,811.956-24.424Zm43.026-22.933V0h7.242V-19.241h3.266c3.479,0,7.81-.5,11.573-3.692A13.263,13.263,0,0,0,881.678-33.3a13.707,13.707,0,0,0-5.893-11.5c-3.408-2.272-7.455-2.556-10.366-2.556Zm7.242,6.674h3.2c8.236,0,9.3,4.686,9.3,7.313,0,4.4-2.982,7.455-9.23,7.455h-3.266ZM902.2-30.672c-9.017,0-15.975,6.532-15.975,15.762C886.222-5.751,893.18.923,902.2.923s15.975-6.674,15.975-15.833C918.172-24.14,911.214-30.672,902.2-30.672Zm0,25.347c-5.467,0-8.875-3.763-8.875-9.514,0-6.816,4.473-9.585,8.875-9.585s8.875,2.769,8.875,9.585C911.072-9.088,907.664-5.325,902.2-5.325Zm23.927-24.566V0h6.958V-29.891Zm-.994-12.354a4.368,4.368,0,0,0,4.473,4.473,4.368,4.368,0,0,0,4.473-4.473,4.368,4.368,0,0,0-4.473-4.473A4.368,4.368,0,0,0,925.13-42.245ZM942.525,0h6.958V-14.342c0-9.656,3.2-10.082,6.319-10.082,2.627,0,5.467.213,5.467,7.81V0h6.958V-18.318c0-4.615-.71-6.674-1.846-8.307-.923-1.278-3.266-4.047-8.8-4.047a10.3,10.3,0,0,0-8.094,3.55v-2.769h-6.958Zm47.712-23.5v-6.39h-5.325V-40.825h-6.958v10.934h-2.911v6.39h2.911V0h6.958V-23.5Zm5.254,20.093a4.273,4.273,0,0,0,4.26,4.26,4.273,4.273,0,0,0,4.26-4.26,4.273,4.273,0,0,0-4.26-4.26A4.273,4.273,0,0,0,995.491-3.408Z" transform="translate(10041 11397)" fill="#557ec0"/></g></svg>