<svg xmlns="http://www.w3.org/2000/svg" width="1384.981" height="1021.1" viewBox="0 0 1384.981 1021.1"><g transform="translate(-916.6 -3829)"><path d="M-1196.827,820.01-464.179,0h-1193.9V1021H-273.1Z" transform="translate(2574.682 3829)" fill="#fff"/><g transform="translate(2.6 0.1)"><path d="M460.2,819.9h0L0,596.4v83.4l134.8,41Z" transform="translate(914 3829)" fill="#f0047f"/><path d="M460.2,819.9,0,1018.4v2.6H23.8L460.2,819.9Z" transform="translate(914 3829)" fill="#f0047f"/><path d="M460.2,819.9,134.8,720.8,0,679.8v59.3l460.2,80.8Z" transform="translate(914 3829)" fill="#e6f306"/><path d="M134.8,720.8l325.4,99.1h0Z" transform="translate(914 3829)" fill="#e6f306"/><path d="M460.2,819.9h0L0,882.5v26.8Z" transform="translate(914 3829)" fill="#0d0157"/><path d="M460.2,819.9,0,909.3v46.5L460.2,819.9Z" transform="translate(914 3829)" fill="#5168af"/><path d="M460.2,819.9h0L0,1004.5v13.9Z" transform="translate(914 3829)" fill="#99cf16"/><path d="M460.2,819.9,163.5,1021h13.9L460.2,819.9Z" transform="translate(914 3829)" fill="#5168af"/><path d="M460.2,819.9,0,558.7v6.7L460.2,819.9Z" transform="translate(914 3829)" fill="#99cf16"/></g><g transform="translate(2572.8 3829)"><path d="M-654.9,0h-31.5L-1196,820Z" fill="#e6f306"/><path d="M-425.5,1021h154l-922.7-200.5Z" fill="#99cf16"/><path d="M-1196,820l707,201h63.5Z" fill="#e6f306"/><path d="M-1196,820l642.2,201H-489Z" fill="#f0047f"/><path d="M-557.4,0-1196,820l1.7-2.1L-516.2,0Z" fill="#0d0157"/><path d="M-557.4,0h-13.5L-1196,820Z" fill="#f0047f"/><path d="M-1196,820-462.8,0H-490l-705.5,819.4Z" fill="#99cf16"/><path d="M-516.2,0h0l-678.1,817.9-1.7,2.1.5-.6L-490,0Z" fill="#f0047f"/><path d="M-594.1,0-1196,820-585.4,0Z" fill="#5168af"/><path d="M-1196,820l586.8,201h14.1L-1196,820Z" fill="#5168af"/></g></g></svg>