<svg xmlns="http://www.w3.org/2000/svg" width="740.288" height="225" viewBox="0 0 740.288 225"><g transform="translate(-921.712 -7539)"><g transform="translate(934.482 7553.565)"><path d="M22.96-62.571q1.453.726,4.086,2.225.5.272.5.636a1.037,1.037,0,0,1-.227.59,14.373,14.373,0,0,0-2.5,7.264q0,11.35,23.789,11.35A114.311,114.311,0,0,0,75.3-43.231a2.483,2.483,0,0,1,.545-.091q.545,0,.726.726a35.011,35.011,0,0,1,.863,4.858v.227q0,.726-1.226,1a142.841,142.841,0,0,1-28.147,2.406q-14.845,0-22.2-4.858a14.2,14.2,0,0,1-6.719-12.621A19.61,19.61,0,0,1,22.96-62.571Zm2.588-34.685a108.609,108.609,0,0,0,23.244,2.134q10.941,0,20.566-.817h.318a.913.913,0,0,1,1,.863,28.434,28.434,0,0,1,.272,4.177,1.286,1.286,0,0,1-1.317,1.407q-10.623,1.5-24.061,10.578a2.415,2.415,0,0,1-1.453.545,2.236,2.236,0,0,1-1.18-.363,10.633,10.633,0,0,0-3.814-1.861A123.057,123.057,0,0,1,55.148-89.9q-4.177.363-10.079.363a92.034,92.034,0,0,1-18.886-1.68q-.817-.136-.817-1.271Q25.366-94.078,25.548-97.256Zm120.669,4.313a119.5,119.5,0,0,1-4.994,24.016,73.821,73.821,0,0,1-7.264,16.616q-5.629,9.579-13.665,9.579-5.947,0-9.9-6.22-3.677-5.856-3.677-14.891A31.659,31.659,0,0,1,109.9-77.507a34.426,34.426,0,0,1,7.627-10.442Q128.556-98.254,145.4-98.254q16.48,0,25.514,9.4,7.672,7.99,7.672,20.566a29.2,29.2,0,0,1-8.217,21.065q-7.582,7.9-21.337,11.35a3.249,3.249,0,0,1-.817.136,1.843,1.843,0,0,1-1.589-1.135,10.515,10.515,0,0,0-3.632-3.45q14.936-2.951,22.382-11.077Q172-58.667,172-69.426a22.324,22.324,0,0,0-7.9-17.751,23.925,23.925,0,0,0-16.117-5.766Zm-6.492.363a30.232,30.232,0,0,0-18.114,8.535q-8.944,8.807-8.944,20.112,0,7.445,2.815,11.531,2.088,3,4.721,3,4.767,0,8.626-6.81A82.461,82.461,0,0,0,136-73.694,98.121,98.121,0,0,0,139.724-92.58Zm79.764,55.387q0,.772-.726.772h-3.541q-.726,0-.726-.772v-3.9H204.007v7.627q0,.772-.726.772H199.6q-.726,0-.726-.772l.182-31.961V-83.364l-.182-23.653a.642.642,0,0,1,.726-.726l6.9.227h5.584l6.674-.227a.642.642,0,0,1,.726.726l-.182,20.293V-67.2Zm-4.994-8.626V-62.48H204.007v16.661Zm0-40.9v-16.071H204.007v16.071Zm0,19.885V-82.274H204.007v15.436ZM279.233-43.5a.682.682,0,0,1-.772.772l-8.717-.182v2.769l.182,12.076q0,.772-.726.772h-3.632q-.726,0-.726-.772l.182-12.076v-2.769h-8.717l-9.9.182a.682.682,0,0,1-.772-.772v-3.541q0-.726.772-.726l6.764.182V-64.432l-2.315.091q-.772,0-.772-.726v-3.541q0-.726.772-.726l8.444.182h5.72v-.363a52.914,52.914,0,0,0-.545-9.034,35.5,35.5,0,0,1,5.175.545q.908.272.908.772a6.885,6.885,0,0,1-.454,1.407q-.363.817-.363,6.129v.545l6.4-.182q.772,0,.772.726v3.541q0,.726-.772.726l-1.952-.045q-2-.091-4.449-.136v16.934l8.717-.182q.772,0,.772.726Zm-14.21-4.086V-64.523H257.8v16.934ZM248.907-66.475a1.474,1.474,0,0,1-.636,1.044,5.615,5.615,0,0,0-1.407,2.951q-5.221,22.064-22.7,33.868a2.873,2.873,0,0,1-1.317.636q-.545,0-1.18-.908a9.937,9.937,0,0,0-2.815-2.315A47.569,47.569,0,0,0,235.6-47.317a36.237,36.237,0,0,0-6.31-5.766q-.409-.272-.409-.454,0-.272.681-1l1.18-1.226q.636-.636.953-.636a.876.876,0,0,1,.454.136q2.951,2.179,5.766,4.676A59.078,59.078,0,0,0,242.6-65.431h-8.58A56.244,56.244,0,0,1,225.3-52.992q-.726.863-1.135.863-.363,0-1.226-.863a8.421,8.421,0,0,0-2.5-1.771,45.488,45.488,0,0,0,12.485-19.612,23.1,23.1,0,0,0,.726-4.631,31.048,31.048,0,0,1,4.54,1.226q1.135.363,1.135,1a1.894,1.894,0,0,1-.636,1.135,5.711,5.711,0,0,0-1.317,2.406l-1.317,3.45h6.9a2.19,2.19,0,0,0,1.271-.409,2.436,2.436,0,0,1,.953-.272q.772,0,2.406,1.861A3.6,3.6,0,0,1,248.907-66.475Zm29.1-7.9a.682.682,0,0,1-.772.772h-3.814q-.726,0-.726-.772v-8.172H229.022v8.172a.682.682,0,0,1-.772.772h-3.723q-.817,0-.817-.772l.182-7.264v-1.634l-.182-3.36q0-.726.817-.726l12.939.182h22.609a68.568,68.568,0,0,0,4.267-9.4,22.414,22.414,0,0,0,1.18-4.721,35.718,35.718,0,0,1,4.948,1.271q.817.318.817.953a1.57,1.57,0,0,1-.726,1.09,5.548,5.548,0,0,0-1.226,1.952,69.61,69.61,0,0,1-4.177,8.853l12.121-.182a.642.642,0,0,1,.726.726l-.182,3v2Zm-3.9-31.6q0,.908-1.5.908a18.819,18.819,0,0,0-3.359.5A289.367,289.367,0,0,1,229.2-99.3q-.545.045-.863.045-1.135,0-1.861-1.816a9.26,9.26,0,0,0-1.68-2.679,243.727,243.727,0,0,0,40-4.721,14.082,14.082,0,0,0,4.631-1.68,20.857,20.857,0,0,1,4.04,2.951A1.923,1.923,0,0,1,274.1-105.972ZM254.127-90.355a1.494,1.494,0,0,1,.091.454q0,.409-.863.681l-2.5.636a7.106,7.106,0,0,1-1,.182q-.454,0-.59-.681a38.425,38.425,0,0,0-3.178-8.626,1.215,1.215,0,0,1-.227-.59q0-.363,1-.681l2.225-.59a3.147,3.147,0,0,1,.726-.136q.409,0,.772.636A39.294,39.294,0,0,1,254.127-90.355Zm-15.844.182a2.16,2.16,0,0,1,.136.59q0,.363-.772.636l-2.5.817a3.211,3.211,0,0,1-.908.272q-.363,0-.59-.636A39.658,39.658,0,0,0,230.2-96.3a1.394,1.394,0,0,1-.182-.545q0-.409.953-.772l2.225-.726a2.177,2.177,0,0,1,.636-.136.887.887,0,0,1,.726.5A45.144,45.144,0,0,1,238.283-90.173ZM369.666-38.419q0,5.175-2.406,7.082a7.867,7.867,0,0,1-4.04,1.544,62.89,62.89,0,0,1-7.582.318,2.716,2.716,0,0,1-1.589-.272,4.25,4.25,0,0,1-.545-1.5,15.79,15.79,0,0,0-1.68-4.086,64.462,64.462,0,0,0,7.173.363q3.223,0,4.131-.953.772-.863.772-3.5V-79.5H346.966l-10.033.182q-.817,0-.817-.726l.182-7.99V-99.208l-.182-7.99q0-.726.817-.726l10.033.182h11.8l10.079-.182a.642.642,0,0,1,.726.726l-.182,13.3v42.221ZM363.9-83.954V-91.49H341.609v7.536Zm0-11.985V-103.2H341.609v7.264Zm-36.5,15.89a.642.642,0,0,1-.726.726l-9.307-.182h-16.48v31.144l.182,19.34a.642.642,0,0,1-.726.726h-4.4a.642.642,0,0,1-.726-.726l.182-19.34V-87.676l-.182-19.522a.642.642,0,0,1,.726-.726l10.533.182h10.9l9.307-.182a.642.642,0,0,1,.726.726l-.182,8.58v10.033Zm-5.493-3.9V-91.49h-21.02v7.536Zm0-11.985V-103.2h-21.02v7.264Zm25.877,58.882q0,.726-.772.726H343.2a.642.642,0,0,1-.726-.726v-3.9h-21.02v4.812q0,.863-.726.863h-3.814q-.772,0-.772-.863l.182-16.344V-60.3l-.182-10.8a.642.642,0,0,1,.726-.726l9.715.182h10.76l9.715-.182a.642.642,0,0,1,.726.726l-.182,9.4v8.58Zm-5.312-8.353v-8.944h-21.02v8.944Zm0-13.3V-67.2h-21.02v8.49Zm78.9-50.438a27.91,27.91,0,0,1,6.946,2.043,1.134,1.134,0,0,1,.726,1.044,1.3,1.3,0,0,1-.545,1,10.722,10.722,0,0,0-1.68,2.633q-1.044,2.225-3.133,7.037A161.977,161.977,0,0,0,443.3-98.481a3.827,3.827,0,0,1,.636-.091q.318,0,.5.5.545,3.768.545,4.086,0,.908-1.226,1.135Q433.4-91.036,421.1-89.81a81.318,81.318,0,0,1-9.488,13.847l.091.227a19.561,19.561,0,0,1,11.622-4.041q10.578,0,11.713,10.9,8.626-3.859,14.482-6.674a25.975,25.975,0,0,0,7.082-4.767,18.743,18.743,0,0,1,4.54,5.4,2.212,2.212,0,0,1,.318,1q0,.908-1.226,1.135a24.76,24.76,0,0,0-5.13,1.5q-3.36,1.407-10.578,4.268-5.72,2.27-9.125,3.723V-47.68a1.031,1.031,0,0,1-1,1.135,21.113,21.113,0,0,1-4.04.363q-.817,0-.817-1.135,0-8.626.091-13.393-15.254,7.627-15.254,15.436,0,4.313,4.449,6.174,3.814,1.544,11.441,1.544a174.91,174.91,0,0,0,22.155-1.816,1.242,1.242,0,0,1,.272-.045q.545,0,.772.681a24.5,24.5,0,0,1,.545,4.54q0,1.09-.726,1.271a182.085,182.085,0,0,1-23.017,1.317q-21.474,0-21.474-13.3a16.066,16.066,0,0,1,5.175-11.622q4.812-4.858,15.39-10.033-.136-5.085-2.179-7.082-1.816-1.725-5.629-1.68-6.674.136-15.254,7.536-2.769,2.633-8.853,9.08a1.092,1.092,0,0,1-.772.5.886.886,0,0,1-.59-.318,23.338,23.338,0,0,1-3.269-3.632,1.769,1.769,0,0,1-.227-.636,1.115,1.115,0,0,1,.409-.681,99.751,99.751,0,0,0,21.564-25.832q-4.812.272-10.079.272-3.36,0-7.218-.136a.93.93,0,0,1-1-.908,35.271,35.271,0,0,1-.545-4.631q4.858.227,9.9.227,5.811,0,11.668-.318a94.785,94.785,0,0,0,3.314-9.307,15.861,15.861,0,0,0,.772-4.4ZM72.081,39.945q-.091,1.544-.182,4.858-.091,3.178-.182,4.994a175.562,175.562,0,0,1-2.225,23.426q-1,5.448-3.814,7.99Q62.82,83.8,57.554,83.8q-4.812,0-7.4-.272-1.453-.091-1.725-.409a4.212,4.212,0,0,1-.545-1.725,10.632,10.632,0,0,0-1.861-4.358,68.051,68.051,0,0,0,10.623.908,6.57,6.57,0,0,0,5.13-1.861,10.257,10.257,0,0,0,2.043-5.13,178.647,178.647,0,0,0,2.043-26.468H45.114q-1.907,28.329-27.966,40.45a5.792,5.792,0,0,1-1.317.454q-.5,0-1.407-1.407a10.093,10.093,0,0,0-2.951-3.042q25.7-10.079,27.784-36.455H35.081L22.6,44.666a.642.642,0,0,1-.726-.726V39.809a.642.642,0,0,1,.726-.726l12.485.182H58.6l12.666-.182Q72.081,39.082,72.081,39.945ZM42.118,7.939q0,.454-.726,1.044a5.369,5.369,0,0,0-1.68,2.043A92.417,92.417,0,0,1,26.183,31.682,97.607,97.607,0,0,1,10.43,45.711a3.744,3.744,0,0,1-1.407.817q-.5,0-1.271-1.226A10.644,10.644,0,0,0,4.482,42.26,74.988,74.988,0,0,0,23.141,26.144,69.871,69.871,0,0,0,33.492,9.8a22.43,22.43,0,0,0,1.5-5.493,32.829,32.829,0,0,1,5.9,2.225Q42.118,7.076,42.118,7.939Zm49.212,33.1a13.348,13.348,0,0,0-3.269,3.723q-.863,1.317-1.09,1.317a3.837,3.837,0,0,1-1.317-.726A97.815,97.815,0,0,1,53.831,7.122a1.378,1.378,0,0,1-.136-.5q0-.227,1-.726l2.769-1.5a2.856,2.856,0,0,1,1-.363q.272,0,.5.636A80.166,80.166,0,0,0,73.353,26.507,77.67,77.67,0,0,0,91.331,41.035Zm95.654,39.134a14.832,14.832,0,0,0-2.679,3.632q-.636,1.5-1.135,1.5a5.143,5.143,0,0,1-1.407-.454,71.058,71.058,0,0,1-22.382-14.982A80.148,80.148,0,0,1,133.5,85.48a3.8,3.8,0,0,1-1.362.363q-.545,0-1.407-1.407a14.137,14.137,0,0,0-2.815-3.042q16.616-5.266,27.83-15.617-7.945-9.761-12.485-24.288-2.27.045-4.268.136-1.317.045-1.407.045a.642.642,0,0,1-.726-.726V37.221a.642.642,0,0,1,.726-.726l11.622.182h7.082V22.285h-7.627l-12.439.182q-.772,0-.772-.726V17.79q0-.726.772-.726l12.439.182h7.627V12.3a43.694,43.694,0,0,0-.817-10.124,43.2,43.2,0,0,1,6.31.772q1.135.136,1.135.726a4.5,4.5,0,0,1-.545,1.771q-.59,1.09-.59,6.855v4.948h9.852l12.485-.182a.642.642,0,0,1,.726.726v3.95a.642.642,0,0,1-.726.726l-12.485-.182h-9.852V36.676h10.9a4.52,4.52,0,0,0,1.861-.272,2.857,2.857,0,0,1,1-.363q.726,0,2.406,1.589,1.771,1.725,1.771,2.5a1.6,1.6,0,0,1-.726,1.18,6.925,6.925,0,0,0-1.589,2.588,75.864,75.864,0,0,1-14.119,21.973Q172.593,75.038,186.984,80.168Zm-14.709-38.68H148.758a58.507,58.507,0,0,0,10.9,20.475A62.608,62.608,0,0,0,172.275,41.489ZM133.141,21.331a8.387,8.387,0,0,1-.454,1.407q-.454,1.271-.454,9.488V54.79l.182,12.939a.642.642,0,0,1-.726.726h-3.677a.642.642,0,0,1-.726-.726v-4H109.534V72.36a.682.682,0,0,1-.772.772H105.13q-.726,0-.726-.772l.182-14.21V32.318a80.67,80.67,0,0,0-.636-12.394,43.07,43.07,0,0,1,5.493.59q1,.091,1,.817,0,.091-.454,1.5-.454,1.18-.454,8.989V58.876h6.4V15.384a73.7,73.7,0,0,0-.726-12.576,33.388,33.388,0,0,1,5.675.681q1.09.318,1.09.817a2.4,2.4,0,0,1-.227.817q-.227.636-.318.863-.454,1.407-.454,9.307V58.876h6.31V32.227q0-9.579-.636-12.3a43.6,43.6,0,0,1,5.493.59Q133.141,20.65,133.141,21.331Zm140.553-2a.642.642,0,0,1-.726.726l-12.848-.182H238.646V31h13.12l13.12-.182q.726,0,.726.636l-.182,8.217V50.614l.182,8.217a.642.642,0,0,1-.726.726l-13.12-.182H223.483l-13.029.182a.642.642,0,0,1-.726-.726l.182-8.217V39.673l-.182-8.217q0-.636.726-.636L223.483,31h9.4V13.432a76.579,76.579,0,0,0-.636-11.3,55.227,55.227,0,0,1,6.31.545q1.135.136,1.135.726a5.1,5.1,0,0,1-.363,1.68q-.681,1.634-.681,7.536v1.952H260.12l12.848-.182a.642.642,0,0,1,.726.726ZM259.666,54.155V36.222H215.675V54.155ZM276.237,81.3a1.149,1.149,0,0,1,.182.545q0,.318-1.044.863l-2.588,1.18a4.25,4.25,0,0,1-1.271.5q-.272,0-.5-.5A75.91,75.91,0,0,0,260.3,66.5a.789.789,0,0,1-.227-.454q0-.318,1.09-.817l2.043-1.044a2.5,2.5,0,0,1,1.044-.363,1.1,1.1,0,0,1,.726.454A74.92,74.92,0,0,1,276.237,81.3Zm-62.7-13.665A55.474,55.474,0,0,1,203.054,84.3a1.119,1.119,0,0,1-.863.545,2.651,2.651,0,0,1-1.18-.545L198.7,82.983q-1.18-.681-1.18-1.044,0-.182.318-.454a47.474,47.474,0,0,0,10.714-15.8q.227-.681.726-.681a3.094,3.094,0,0,1,1.135.318l2.225.908q1.044.454,1.044.908A1.378,1.378,0,0,1,213.541,67.638Zm38.861,14.3a1.948,1.948,0,0,1,.091.5q0,.454-1,.726l-2.906.636a5.535,5.535,0,0,1-1.18.272q-.409,0-.59-.636a66.459,66.459,0,0,0-5.4-16.071,1.766,1.766,0,0,1-.136-.5q0-.363,1.09-.726l2.679-.817a1.948,1.948,0,0,1,.5-.091q.5,0,.817.726A68.5,68.5,0,0,1,252.4,81.939Zm-20.52.681v.272q0,.726-1.135.817l-3.042.272a7.467,7.467,0,0,1-.863.091q-.636,0-.636-.726a85.411,85.411,0,0,0-2.769-16.253,1.441,1.441,0,0,1-.091-.409q0-.454,1.18-.636l2.679-.272a4.968,4.968,0,0,1,.59-.045q.636,0,.817.772A94.969,94.969,0,0,1,231.882,82.62Zm72.909-72.23a28.226,28.226,0,0,1,6.083,2.5q1.317.772,1.317,1.5a2.911,2.911,0,0,1-.636,1.589,14.171,14.171,0,0,0-1.861,4.9q-4.358,18.387-4.358,32.1a75.291,75.291,0,0,0,1.407,15.98q.681-1.589,3.45-7.9,1.952-4.268,3.4-7.809a41.582,41.582,0,0,0,2.225,3.723,1.267,1.267,0,0,1,.5.908,3.812,3.812,0,0,1-.454,1.5q-3.95,9.08-5.993,14.755a5.481,5.481,0,0,0-.363,2.315l.182,2.043a.773.773,0,0,1-.636.863,23.214,23.214,0,0,1-4.177.908q-.726,0-1.044-.908a58.214,58.214,0,0,1-3.223-13.393,100.457,100.457,0,0,1-.953-13.574q0-12.3,3.814-31.688A61.46,61.46,0,0,0,304.791,10.39ZM325.13,57.514l5.039-.363a.185.185,0,0,1,.136-.045q.5,0,.5.953.409,10.215,16.934,10.215A144.325,144.325,0,0,0,366.034,67a2.784,2.784,0,0,1,.363-.045q.59,0,.681.953.272,3.314.272,4.358,0,.681-.182.817a2.29,2.29,0,0,1-1.044.318,146.993,146.993,0,0,1-16.616,1q-8.49,0-13.257-1.5a15.745,15.745,0,0,1-7.218-4.358Q325.266,64.778,325.13,57.514ZM328.4,27.642q0-4,.091-5.085a1.225,1.225,0,0,1,1.09-1.317,126.108,126.108,0,0,1,19.7-1.68q9.034,0,13.211.454,1.407.136,1.407.953,0,2.951-.091,4.358,0,.863-.681.863h-.363q-4.494-.5-14.936-.5A114.919,114.919,0,0,0,328.4,27.642Z" transform="translate(-4.482 110.149)" fill="#5168af"/><path d="M269.349-117.715l3.347,1.947a27,27,0,0,1,5.3,3.9,8.455,8.455,0,0,1,2.608,5.89,7.279,7.279,0,0,1-2.889,5.842,7.514,7.514,0,0,1,.074,1.058,7.617,7.617,0,0,1-2.161,5.238l1.556-.023a7.171,7.171,0,0,1,7.324,7.226l-.194,3.39.012,1.6.18,7.1a7.616,7.616,0,0,1-1.27,4.284,7.428,7.428,0,0,1,.182,1.644v3.541a7.169,7.169,0,0,1-7.173,7.226v3.616l2.081-.043a7.186,7.186,0,0,1,7.407,7.225V-43.5a7.194,7.194,0,0,1-7.272,7.272l-2.158-.045.122,8.111A7.194,7.194,0,0,1,269.2-20.8h-3.632a7.172,7.172,0,0,1-7.226-7.272l.125-8.345h-2.16l-9.778.181a7.453,7.453,0,0,1-4-1.107A58.861,58.861,0,0,1,227.8-23.226a8.686,8.686,0,0,1-4.954,1.749,7.842,7.842,0,0,1-6.506-3.681c.07.122-.254-.143-.646-.361l-6.557-3.643a7.156,7.156,0,0,1-5.858,2.963H199.6a7.172,7.172,0,0,1-7.226-7.272l.182-32v-17.9l-.181-23.6a7.161,7.161,0,0,1,7.226-7.276l.214,0,6.9.227,5.37,0,6.453-.223a7.32,7.32,0,0,1,6.693,3.967,237.408,237.408,0,0,0,38.223-4.558,7.931,7.931,0,0,0,2.586-.869ZM258.273-76.046h-9.512q.312.167.608.357a7.62,7.62,0,0,1,1.489-.145l7.45.159Q258.291-75.873,258.273-76.046ZM225.94-45.206q.4-.444.78-.9a7.092,7.092,0,0,1-.783.252Zm188.934-71.051,7.626.705a33.971,33.971,0,0,1,8.574,2.557,7.639,7.639,0,0,1,4.473,6.932,7.559,7.559,0,0,1-.449,2.581q3.465-.6,6.788-1.343l.7-.156,1.352-.091a7.042,7.042,0,0,1,6.608,4.778l.229.629.1.662c.445,3.08.612,4.756.612,5.016a7.616,7.616,0,0,1-6.542,7.526c-4.088.717-8.407,1.369-12.928,1.951a15.37,15.37,0,0,1,7.061,6.67q4.278-1.96,7.635-3.574a19.735,19.735,0,0,0,5.3-3.5l4.3-4.3,4.577,4a24.774,24.774,0,0,1,6.073,7.387,8.317,8.317,0,0,1,1,3.906,7.616,7.616,0,0,1-6.542,7.526,18.762,18.762,0,0,0-3.916,1.149c-2.15.9-5.715,2.341-10.581,4.269q-2.789,1.107-5.02,2.016V-47.68a7.894,7.894,0,0,1-.593,3.038q4.686-.43,10.258-1.173l1.131-.1a7.277,7.277,0,0,1,6.938,5.126,31.583,31.583,0,0,1,.878,6.6,7.489,7.489,0,0,1-5.649,7.577,183.445,183.445,0,0,1-24.595,1.511c-24.339,0-27.974-12.407-27.974-19.8,0-6.064,2.382-11.521,7.079-16.218a47.91,47.91,0,0,1,9.251-7.014,28.664,28.664,0,0,0-8.082,5.274c-1.561,1.495-4.428,4.44-8.371,8.619l-1.924,2.039-3.575.5a7.328,7.328,0,0,1-5.186-2.222,28.6,28.6,0,0,1-3.929-4.405l-.316-.435-.927-1.854-.227-2.17a7.351,7.351,0,0,1,2.313-5.278,103.815,103.815,0,0,0,13.822-14.477q-2.474-.03-5.188-.126a7.335,7.335,0,0,1-7.2-6.439,40.493,40.493,0,0,1-.611-5.313l-.309-7.107,7.106.332c5.426.254,11.073.291,16.73.1q1.109-2.978,1.563-4.67a10.436,10.436,0,0,0,.554-2.735Zm8.632,71.71a8.346,8.346,0,0,1-.46-2.77q0-.695,0-1.365c-1.6,1.553-2.164,2.734-2.164,3.408A13.532,13.532,0,0,0,423.506-44.547ZM295.938-114.424h.112l10.533.182h10.784l9.18-.18a7.5,7.5,0,0,1,5.226,2.075,7.281,7.281,0,0,1,5.161-2.076h.118l10.033.182H358.77l9.961-.181a7.214,7.214,0,0,1,7.344,7.225l-.182,13.391v42.132l.271,13.123c0,5.653-1.637,9.75-4.868,12.31a14.1,14.1,0,0,1-7.189,2.888,68.951,68.951,0,0,1-8.47.379,8.465,8.465,0,0,1-6.185-2.176,9.133,9.133,0,0,1-2.254-4.518q-.022-.082-.045-.163H343.2a7.14,7.14,0,0,1-6.763-4.631h-8.666a7.165,7.165,0,0,1-7.043,5.675h-3.814a7.24,7.24,0,0,1-7.272-7.363l.182-16.416V-60.3L309.641-71a7.786,7.786,0,0,1,.259-2.009h-2.514v24.644l.181,19.279a7.163,7.163,0,0,1-7.226,7.288h-4.4a7.15,7.15,0,0,1-7.226-7.226l.182-19.4V-87.676l-.181-19.461A7.163,7.163,0,0,1,295.938-114.424ZM357.393-73h-3.353a7.445,7.445,0,0,1,.243,1.9l-.183,9.523v8.455l.13,11.494q1.488.112,3.128.148Zm-337.9-32.259,7.466,1.663a102.766,102.766,0,0,0,21.831,1.978c7.077,0,13.812-.267,20.016-.794,4.641-.023,7.7,2.587,8.287,6.325a34.973,34.973,0,0,1,.352,5.191A7.734,7.734,0,0,1,70.3-83.027c-5.824.826-13,4.031-21.091,9.5a8.6,8.6,0,0,1-5.092,1.659A8.765,8.765,0,0,1,39.529-73.2a5.894,5.894,0,0,0-1.983-1.091L23.488-77.8l8.651-5.9q-3.91-.437-7.309-1.159a7.476,7.476,0,0,1-5.965-7.629q0-1.713.192-5.138Zm125.9.509c12.772,0,22.932,3.833,30.2,11.393,6.3,6.556,9.487,14.99,9.487,25.07a35.624,35.624,0,0,1-10.035,25.573c-5.883,6.129-14.108,10.555-24.439,13.146l-.779.2-1.62.136a8.228,8.228,0,0,1-7.26-4.459,4.929,4.929,0,0,0-1.32-1.062l-8.259-4.987a19.23,19.23,0,0,1-11.08,3.516c-4.343,0-10.537-1.6-15.384-9.235-3.118-4.966-4.69-11.139-4.69-18.375a38.25,38.25,0,0,1,3.8-16.444A41.085,41.085,0,0,1,113.089-92.7C121.65-100.7,132.521-104.754,145.4-104.754Zm-7.892,58.887,4.226-.835c8.523-1.684,14.864-4.743,18.849-9.092,3.308-3.626,4.921-8.088,4.921-13.632,0-5.433-1.793-9.509-5.643-12.828a16.786,16.786,0,0,0-7.974-3.839,124.745,124.745,0,0,1-4.473,19.148,80.494,80.494,0,0,1-7.928,18.055Q138.52-47.246,137.507-45.867ZM120.741-56.228a11.337,11.337,0,0,0,2.432-3.191,76.46,76.46,0,0,0,6.6-16.122q1.2-4.057,2.019-7.988a22.141,22.141,0,0,0-5.582,4.081c-4.749,4.677-7.04,9.74-7.04,15.516C119.166-59.631,120-57.379,120.741-56.228Zm-99.969-14.7,5.094,2.547Q27.428-67.6,30.26-66l3.286,1.869.5,4.416a7.5,7.5,0,0,1-1.438,4.369,7.41,7.41,0,0,0-1.286,3.485c0,2.946,6.786,4.85,17.289,4.85a108.465,108.465,0,0,0,25.16-2.54l.756-.184,1.323-.091a7.231,7.231,0,0,1,7.032,5.65,41.118,41.118,0,0,1,1.007,5.628l.05.4v.632a7.508,7.508,0,0,1-6.316,7.344,149.938,149.938,0,0,1-29.557,2.561c-11.3,0-19.737-1.941-25.782-5.934a20.66,20.66,0,0,1-9.637-18.045,26.03,26.03,0,0,1,4.932-14.632ZM146.9-4.718l8.872.4a49.7,49.7,0,0,1,7.26.885,7.137,7.137,0,0,1,6.394,7.107,10.276,10.276,0,0,1-1.108,4.42,13.964,13.964,0,0,1-.015,2.654h3.34l12.39-.181a7.17,7.17,0,0,1,7.321,7.226v3.95a7.149,7.149,0,0,1-7.226,7.226l-12.579-.182h-3.257v1.392h4.253a7.86,7.86,0,0,1,3-.636c2.92,0,5.113,1.7,6.873,3.367,1.916,1.866,3.8,4.123,3.8,7.219a7.933,7.933,0,0,1-3.128,6.225A76.152,76.152,0,0,1,172.4,65.18a61.535,61.535,0,0,0,16.768,8.866l5.11,1.822a41.173,41.173,0,0,0,8.269-12.679l.963-2.315a7.434,7.434,0,0,1-.282-2.043l.183-8.361,0-10.8-.327-14.717,7.372-.636,13.12.182h2.807V13.432a71.026,71.026,0,0,0-.555-10.283l-1.242-7.809,7.9.293a61.671,61.671,0,0,1,7.066.617A7.232,7.232,0,0,1,246.191,3.4a11.338,11.338,0,0,1-.754,3.9,5.276,5.276,0,0,0-.118.767h14.8l12.756-.181a7.17,7.17,0,0,1,7.318,7.226v4.222a7.149,7.149,0,0,1-7.226,7.226l-1.349-.019.494,4.914-.183,8.361,0,10.8.18,8.074a7.693,7.693,0,0,1-.659,3.157,82.961,82.961,0,0,1,10.625,16.607l.659,1.35.182,2.047c0,1.942-.787,4.669-4.538,6.625l-2.9,1.331a8.72,8.72,0,0,1-3.969,1.086H267.33L265.1,86.581a69.708,69.708,0,0,0-9.115-15.075,80.323,80.323,0,0,1,2.731,8.879l.188.765.091,1.287c0,2.619-1.521,5.833-5.788,7l-3.227.715a8.428,8.428,0,0,1-2.569.423h-4.9l-1.937-5.35a66.3,66.3,0,0,0-3.576-11.88q.722,3.779,1.335,8.431l.055.421v.7a7.375,7.375,0,0,1-7.116,7.3l-4.423.384a7.105,7.105,0,0,1-7.136-7.226,73.332,73.332,0,0,0-1.5-10.184,61.273,61.273,0,0,1-10.38,15.546,7.159,7.159,0,0,1-5.639,2.636,8.616,8.616,0,0,1-4.786-1.636l-1.923-1.075a8.966,8.966,0,0,1-3.872-3.9l-.03.03a8.294,8.294,0,0,0-1.514,2.047c-1.691,4.04-4.7,4.987-6.9,4.987a9.92,9.92,0,0,1-3.907-.954,82.208,82.208,0,0,1-20.087-12.31A88.554,88.554,0,0,1,135.8,91.56a9.493,9.493,0,0,1-3.66.783c-2.777,0-5.115-1.518-6.949-4.511a7.761,7.761,0,0,0-1.35-1.376l-9.433-7.6,11.547-3.66q.494-.157.983-.318a7.11,7.11,0,0,1-5.724-4.646h-5.181V72.36a7.194,7.194,0,0,1-7.272,7.272H105.13A7.172,7.172,0,0,1,97.9,72.36l.182-14.293V44.112l-2.876,2.139a6.969,6.969,0,0,0-1.629,1.942c-.985,1.507-2.868,4.381-6.607,4.381a8.594,8.594,0,0,1-5.028-1.89Q80.087,49.348,78.3,47.95q-.046,1.255-.092,2.171a182.02,182.02,0,0,1-2.3,24.127c-.952,5.2-2.92,9.119-5.875,11.788C66.911,88.864,62.71,90.3,57.554,90.3c-3.5,0-6.2-.11-8.081-.308a8.268,8.268,0,0,1-5.98-2.642,8.985,8.985,0,0,1-2-4.758,4.312,4.312,0,0,0-.64-1.613l-2.5-3.271A57.952,57.952,0,0,1,19.89,90.829a10.08,10.08,0,0,1-4.058,1.06c-4.041,0-6.17-3.3-6.869-4.384a3.711,3.711,0,0,0-1.125-1.178L-2.417,79.406,9.1,74.889c12.3-4.825,19.731-12.664,22.545-23.854l-8.955.131a7.31,7.31,0,0,1-5.5-2.395q-1.439,1.11-2.942,2.2a8.56,8.56,0,0,1-5.224,2.056c-2.713,0-4.991-1.434-6.772-4.263a4.215,4.215,0,0,0-1.008-.87l-9.53-5.48,9.394-5.71A68.848,68.848,0,0,0,18.156,21.973a63.712,63.712,0,0,0,9.4-14.825,16.015,16.015,0,0,0,1-3.8l1.085-7.271L36.73-1.956A39.48,39.48,0,0,1,43.8.718a8.134,8.134,0,0,1,3.844,3.454A8.007,8.007,0,0,1,51.787.082l2.583-1.4a8.935,8.935,0,0,1,4.092-1.146h4.58l2.04,4.949A73.92,73.92,0,0,0,78.133,22.1a71.535,71.535,0,0,0,16.477,13.32l3.475,2.031V32.318c0-7.232-.332-10.141-.531-11.231l-1.483-8.155,8.274.5c2.092.128,3.786.294,5.084.484a58.552,58.552,0,0,0-.595-9.837L107.2-4.111l8.346.428a39.767,39.767,0,0,1,6.823.844c4.593,1.33,6.108,4.548,6.108,7.146v1.3L127.464,8.4c.192-.519.051.578.017,5.062q1.465.089,2.728.222a7.223,7.223,0,0,1,6.019-3.119l12.534.182h1.021a31.394,31.394,0,0,0-.583-6.887ZM62.514,32.708A105.461,105.461,0,0,1,48.188,10.39a8.362,8.362,0,0,1-2.7,3.638A102.926,102.926,0,0,1,33.775,32.744l1.4.02H58.6Zm87.281-3.923h-1.127l-9.913.145q-.007.5-.012,1.082l10.572.165h.481ZM253.166,42.722H222.175v4.933h30.992Zm-91.183,5.266H158.3q.8,1.616,1.682,3.143Q161.037,49.592,161.983,47.988Zm-15.078,16.7a80.215,80.215,0,0,1-8.172-16.361V54.79l.181,12.847a7.679,7.679,0,0,1-.355,2.328A62.941,62.941,0,0,0,146.905,64.692ZM59.177,50.985H50.918A52.427,52.427,0,0,1,44.06,70.143l2.981.473a61.887,61.887,0,0,0,9.6.828c.2.41.513-.089.764-1.573A149.425,149.425,0,0,0,59.177,50.985ZM298.291,1.644l8.375,2.523a34.227,34.227,0,0,1,7.5,3.118c3.932,2.305,4.521,5.439,4.521,7.1A9.208,9.208,0,0,1,316.88,19.7a8.942,8.942,0,0,0-.841,2.585q-1.893,7.989-2.936,15.041l.04-.1,6.319,13.211c.112.234.285.543.515.927l7.308-.527.191-.191,2.829-.045a7.074,7.074,0,0,1,7,7.453c.034.723.154,3.715,10.434,3.715a138.518,138.518,0,0,0,17.468-1.218l.412-.053.779-.045a7.239,7.239,0,0,1,7.152,6.837c.211,2.562.3,4.193.3,4.974v3.25l-2.781,2.767c-.79.882-2.557,1.322-3.931,1.539a154.371,154.371,0,0,1-17.63,1.078c-6.384,0-11.358-.588-15.205-1.8a22.122,22.122,0,0,1-10.04-6.145,17.955,17.955,0,0,1-4.216-6.847c-1.657,3.924-3.007,7.315-4.009,10.09l.131,1.709c.026,4.1-2.349,7.065-5.748,7.794a22.882,22.882,0,0,1-4.18.923l-1.457,3.4-.768-3.445A7.539,7.539,0,0,1,297.7,81.5a63.255,63.255,0,0,1-3.522-14.616,107.606,107.606,0,0,1-1.019-14.5c0-8.584,1.324-19.667,3.936-32.943a53.751,53.751,0,0,0,1.194-9.051Zm50.991,11.417c6.316,0,10.868.161,13.914.492a7.5,7.5,0,0,1,7.2,7.415c0,2.156-.038,3.748-.1,4.777a7.087,7.087,0,0,1-7.168,6.944l-1.081-.04c-2.745-.305-7.529-.46-14.218-.46a109.081,109.081,0,0,0-18.312,1.855L321.9,35.377V27.642c0-2.946.046-4.821.113-5.625a7.522,7.522,0,0,1,6.242-7.14A133.588,133.588,0,0,1,349.282,13.061Z" transform="translate(-4.482 110.149)" fill="#fff"/><path d="M22.96-62.571q1.453.726,4.086,2.225.5.272.5.636a1.037,1.037,0,0,1-.227.59,14.373,14.373,0,0,0-2.5,7.264q0,11.35,23.789,11.35A114.311,114.311,0,0,0,75.3-43.231a2.483,2.483,0,0,1,.545-.091q.545,0,.726.726a35.011,35.011,0,0,1,.863,4.858v.227q0,.726-1.226,1a142.841,142.841,0,0,1-28.147,2.406q-14.845,0-22.2-4.858a14.2,14.2,0,0,1-6.719-12.621A19.61,19.61,0,0,1,22.96-62.571Zm2.588-34.685a108.609,108.609,0,0,0,23.244,2.134q10.941,0,20.566-.817h.318a.913.913,0,0,1,1,.863,28.434,28.434,0,0,1,.272,4.177,1.286,1.286,0,0,1-1.317,1.407q-10.623,1.5-24.061,10.578a2.415,2.415,0,0,1-1.453.545,2.236,2.236,0,0,1-1.18-.363,10.633,10.633,0,0,0-3.814-1.861A123.057,123.057,0,0,1,55.148-89.9q-4.177.363-10.079.363a92.034,92.034,0,0,1-18.886-1.68q-.817-.136-.817-1.271Q25.366-94.078,25.548-97.256Zm120.669,4.313a119.5,119.5,0,0,1-4.994,24.016,73.821,73.821,0,0,1-7.264,16.616q-5.629,9.579-13.665,9.579-5.947,0-9.9-6.22-3.677-5.856-3.677-14.891A31.659,31.659,0,0,1,109.9-77.507a34.426,34.426,0,0,1,7.627-10.442Q128.556-98.254,145.4-98.254q16.48,0,25.514,9.4,7.672,7.99,7.672,20.566a29.2,29.2,0,0,1-8.217,21.065q-7.582,7.9-21.337,11.35a3.249,3.249,0,0,1-.817.136,1.843,1.843,0,0,1-1.589-1.135,10.515,10.515,0,0,0-3.632-3.45q14.936-2.951,22.382-11.077Q172-58.667,172-69.426a22.324,22.324,0,0,0-7.9-17.751,23.925,23.925,0,0,0-16.117-5.766Zm-6.492.363a30.232,30.232,0,0,0-18.114,8.535q-8.944,8.807-8.944,20.112,0,7.445,2.815,11.531,2.088,3,4.721,3,4.767,0,8.626-6.81A82.461,82.461,0,0,0,136-73.694,98.121,98.121,0,0,0,139.724-92.58Zm79.764,55.387q0,.772-.726.772h-3.541q-.726,0-.726-.772v-3.9H204.007v7.627q0,.772-.726.772H199.6q-.726,0-.726-.772l.182-31.961V-83.364l-.182-23.653a.642.642,0,0,1,.726-.726l6.9.227h5.584l6.674-.227a.642.642,0,0,1,.726.726l-.182,20.293V-67.2Zm-4.994-8.626V-62.48H204.007v16.661Zm0-40.9v-16.071H204.007v16.071Zm0,19.885V-82.274H204.007v15.436ZM279.233-43.5a.682.682,0,0,1-.772.772l-8.717-.182v2.769l.182,12.076q0,.772-.726.772h-3.632q-.726,0-.726-.772l.182-12.076v-2.769h-8.717l-9.9.182a.682.682,0,0,1-.772-.772v-3.541q0-.726.772-.726l6.764.182V-64.432l-2.315.091q-.772,0-.772-.726v-3.541q0-.726.772-.726l8.444.182h5.72v-.363a52.914,52.914,0,0,0-.545-9.034,35.5,35.5,0,0,1,5.175.545q.908.272.908.772a6.885,6.885,0,0,1-.454,1.407q-.363.817-.363,6.129v.545l6.4-.182q.772,0,.772.726v3.541q0,.726-.772.726l-1.952-.045q-2-.091-4.449-.136v16.934l8.717-.182q.772,0,.772.726Zm-14.21-4.086V-64.523H257.8v16.934ZM248.907-66.475a1.474,1.474,0,0,1-.636,1.044,5.615,5.615,0,0,0-1.407,2.951q-5.221,22.064-22.7,33.868a2.873,2.873,0,0,1-1.317.636q-.545,0-1.18-.908a9.937,9.937,0,0,0-2.815-2.315A47.569,47.569,0,0,0,235.6-47.317a36.237,36.237,0,0,0-6.31-5.766q-.409-.272-.409-.454,0-.272.681-1l1.18-1.226q.636-.636.953-.636a.876.876,0,0,1,.454.136q2.951,2.179,5.766,4.676A59.078,59.078,0,0,0,242.6-65.431h-8.58A56.244,56.244,0,0,1,225.3-52.992q-.726.863-1.135.863-.363,0-1.226-.863a8.421,8.421,0,0,0-2.5-1.771,45.488,45.488,0,0,0,12.485-19.612,23.1,23.1,0,0,0,.726-4.631,31.048,31.048,0,0,1,4.54,1.226q1.135.363,1.135,1a1.894,1.894,0,0,1-.636,1.135,5.711,5.711,0,0,0-1.317,2.406l-1.317,3.45h6.9a2.19,2.19,0,0,0,1.271-.409,2.436,2.436,0,0,1,.953-.272q.772,0,2.406,1.861A3.6,3.6,0,0,1,248.907-66.475Zm29.1-7.9a.682.682,0,0,1-.772.772h-3.814q-.726,0-.726-.772v-8.172H229.022v8.172a.682.682,0,0,1-.772.772h-3.723q-.817,0-.817-.772l.182-7.264v-1.634l-.182-3.36q0-.726.817-.726l12.939.182h22.609a68.568,68.568,0,0,0,4.267-9.4,22.414,22.414,0,0,0,1.18-4.721,35.718,35.718,0,0,1,4.948,1.271q.817.318.817.953a1.57,1.57,0,0,1-.726,1.09,5.548,5.548,0,0,0-1.226,1.952,69.61,69.61,0,0,1-4.177,8.853l12.121-.182a.642.642,0,0,1,.726.726l-.182,3v2Zm-3.9-31.6q0,.908-1.5.908a18.819,18.819,0,0,0-3.359.5A289.367,289.367,0,0,1,229.2-99.3q-.545.045-.863.045-1.135,0-1.861-1.816a9.26,9.26,0,0,0-1.68-2.679,243.727,243.727,0,0,0,40-4.721,14.082,14.082,0,0,0,4.631-1.68,20.857,20.857,0,0,1,4.04,2.951A1.923,1.923,0,0,1,274.1-105.972ZM254.127-90.355a1.494,1.494,0,0,1,.091.454q0,.409-.863.681l-2.5.636a7.106,7.106,0,0,1-1,.182q-.454,0-.59-.681a38.425,38.425,0,0,0-3.178-8.626,1.215,1.215,0,0,1-.227-.59q0-.363,1-.681l2.225-.59a3.147,3.147,0,0,1,.726-.136q.409,0,.772.636A39.294,39.294,0,0,1,254.127-90.355Zm-15.844.182a2.16,2.16,0,0,1,.136.59q0,.363-.772.636l-2.5.817a3.211,3.211,0,0,1-.908.272q-.363,0-.59-.636A39.658,39.658,0,0,0,230.2-96.3a1.394,1.394,0,0,1-.182-.545q0-.409.953-.772l2.225-.726a2.177,2.177,0,0,1,.636-.136.887.887,0,0,1,.726.5A45.144,45.144,0,0,1,238.283-90.173ZM369.666-38.419q0,5.175-2.406,7.082a7.867,7.867,0,0,1-4.04,1.544,62.89,62.89,0,0,1-7.582.318,2.716,2.716,0,0,1-1.589-.272,4.25,4.25,0,0,1-.545-1.5,15.79,15.79,0,0,0-1.68-4.086,64.462,64.462,0,0,0,7.173.363q3.223,0,4.131-.953.772-.863.772-3.5V-79.5H346.966l-10.033.182q-.817,0-.817-.726l.182-7.99V-99.208l-.182-7.99q0-.726.817-.726l10.033.182h11.8l10.079-.182a.642.642,0,0,1,.726.726l-.182,13.3v42.221ZM363.9-83.954V-91.49H341.609v7.536Zm0-11.985V-103.2H341.609v7.264Zm-36.5,15.89a.642.642,0,0,1-.726.726l-9.307-.182h-16.48v31.144l.182,19.34a.642.642,0,0,1-.726.726h-4.4a.642.642,0,0,1-.726-.726l.182-19.34V-87.676l-.182-19.522a.642.642,0,0,1,.726-.726l10.533.182h10.9l9.307-.182a.642.642,0,0,1,.726.726l-.182,8.58v10.033Zm-5.493-3.9V-91.49h-21.02v7.536Zm0-11.985V-103.2h-21.02v7.264Zm25.877,58.882q0,.726-.772.726H343.2a.642.642,0,0,1-.726-.726v-3.9h-21.02v4.812q0,.863-.726.863h-3.814q-.772,0-.772-.863l.182-16.344V-60.3l-.182-10.8a.642.642,0,0,1,.726-.726l9.715.182h10.76l9.715-.182a.642.642,0,0,1,.726.726l-.182,9.4v8.58Zm-5.312-8.353v-8.944h-21.02v8.944Zm0-13.3V-67.2h-21.02v8.49Zm78.9-50.438a27.91,27.91,0,0,1,6.946,2.043,1.134,1.134,0,0,1,.726,1.044,1.3,1.3,0,0,1-.545,1,10.722,10.722,0,0,0-1.68,2.633q-1.044,2.225-3.133,7.037A161.977,161.977,0,0,0,443.3-98.481a3.827,3.827,0,0,1,.636-.091q.318,0,.5.5.545,3.768.545,4.086,0,.908-1.226,1.135Q433.4-91.036,421.1-89.81a81.318,81.318,0,0,1-9.488,13.847l.091.227a19.561,19.561,0,0,1,11.622-4.041q10.578,0,11.713,10.9,8.626-3.859,14.482-6.674a25.975,25.975,0,0,0,7.082-4.767,18.743,18.743,0,0,1,4.54,5.4,2.212,2.212,0,0,1,.318,1q0,.908-1.226,1.135a24.76,24.76,0,0,0-5.13,1.5q-3.36,1.407-10.578,4.268-5.72,2.27-9.125,3.723V-47.68a1.031,1.031,0,0,1-1,1.135,21.113,21.113,0,0,1-4.04.363q-.817,0-.817-1.135,0-8.626.091-13.393-15.254,7.627-15.254,15.436,0,4.313,4.449,6.174,3.814,1.544,11.441,1.544a174.91,174.91,0,0,0,22.155-1.816,1.242,1.242,0,0,1,.272-.045q.545,0,.772.681a24.5,24.5,0,0,1,.545,4.54q0,1.09-.726,1.271a182.085,182.085,0,0,1-23.017,1.317q-21.474,0-21.474-13.3a16.066,16.066,0,0,1,5.175-11.622q4.812-4.858,15.39-10.033-.136-5.085-2.179-7.082-1.816-1.725-5.629-1.68-6.674.136-15.254,7.536-2.769,2.633-8.853,9.08a1.092,1.092,0,0,1-.772.5.886.886,0,0,1-.59-.318,23.338,23.338,0,0,1-3.269-3.632,1.769,1.769,0,0,1-.227-.636,1.115,1.115,0,0,1,.409-.681,99.751,99.751,0,0,0,21.564-25.832q-4.812.272-10.079.272-3.36,0-7.218-.136a.93.93,0,0,1-1-.908,35.271,35.271,0,0,1-.545-4.631q4.858.227,9.9.227,5.811,0,11.668-.318a94.785,94.785,0,0,0,3.314-9.307,15.861,15.861,0,0,0,.772-4.4ZM72.081,39.945q-.091,1.544-.182,4.858-.091,3.178-.182,4.994a175.562,175.562,0,0,1-2.225,23.426q-1,5.448-3.814,7.99Q62.82,83.8,57.554,83.8q-4.812,0-7.4-.272-1.453-.091-1.725-.409a4.212,4.212,0,0,1-.545-1.725,10.632,10.632,0,0,0-1.861-4.358,68.051,68.051,0,0,0,10.623.908,6.57,6.57,0,0,0,5.13-1.861,10.257,10.257,0,0,0,2.043-5.13,178.647,178.647,0,0,0,2.043-26.468H45.114q-1.907,28.329-27.966,40.45a5.792,5.792,0,0,1-1.317.454q-.5,0-1.407-1.407a10.093,10.093,0,0,0-2.951-3.042q25.7-10.079,27.784-36.455H35.081L22.6,44.666a.642.642,0,0,1-.726-.726V39.809a.642.642,0,0,1,.726-.726l12.485.182H58.6l12.666-.182Q72.081,39.082,72.081,39.945ZM42.118,7.939q0,.454-.726,1.044a5.369,5.369,0,0,0-1.68,2.043A92.417,92.417,0,0,1,26.183,31.682,97.607,97.607,0,0,1,10.43,45.711a3.744,3.744,0,0,1-1.407.817q-.5,0-1.271-1.226A10.644,10.644,0,0,0,4.482,42.26,74.988,74.988,0,0,0,23.141,26.144,69.871,69.871,0,0,0,33.492,9.8a22.43,22.43,0,0,0,1.5-5.493,32.829,32.829,0,0,1,5.9,2.225Q42.118,7.076,42.118,7.939Zm49.212,33.1a13.348,13.348,0,0,0-3.269,3.723q-.863,1.317-1.09,1.317a3.837,3.837,0,0,1-1.317-.726A97.815,97.815,0,0,1,53.831,7.122a1.378,1.378,0,0,1-.136-.5q0-.227,1-.726l2.769-1.5a2.856,2.856,0,0,1,1-.363q.272,0,.5.636A80.166,80.166,0,0,0,73.353,26.507,77.67,77.67,0,0,0,91.331,41.035Zm95.654,39.134a14.832,14.832,0,0,0-2.679,3.632q-.636,1.5-1.135,1.5a5.143,5.143,0,0,1-1.407-.454,71.058,71.058,0,0,1-22.382-14.982A80.148,80.148,0,0,1,133.5,85.48a3.8,3.8,0,0,1-1.362.363q-.545,0-1.407-1.407a14.137,14.137,0,0,0-2.815-3.042q16.616-5.266,27.83-15.617-7.945-9.761-12.485-24.288-2.27.045-4.268.136-1.317.045-1.407.045a.642.642,0,0,1-.726-.726V37.221a.642.642,0,0,1,.726-.726l11.622.182h7.082V22.285h-7.627l-12.439.182q-.772,0-.772-.726V17.79q0-.726.772-.726l12.439.182h7.627V12.3a43.694,43.694,0,0,0-.817-10.124,43.2,43.2,0,0,1,6.31.772q1.135.136,1.135.726a4.5,4.5,0,0,1-.545,1.771q-.59,1.09-.59,6.855v4.948h9.852l12.485-.182a.642.642,0,0,1,.726.726v3.95a.642.642,0,0,1-.726.726l-12.485-.182h-9.852V36.676h10.9a4.52,4.52,0,0,0,1.861-.272,2.857,2.857,0,0,1,1-.363q.726,0,2.406,1.589,1.771,1.725,1.771,2.5a1.6,1.6,0,0,1-.726,1.18,6.925,6.925,0,0,0-1.589,2.588,75.864,75.864,0,0,1-14.119,21.973Q172.593,75.038,186.984,80.168Zm-14.709-38.68H148.758a58.507,58.507,0,0,0,10.9,20.475A62.608,62.608,0,0,0,172.275,41.489ZM133.141,21.331a8.387,8.387,0,0,1-.454,1.407q-.454,1.271-.454,9.488V54.79l.182,12.939a.642.642,0,0,1-.726.726h-3.677a.642.642,0,0,1-.726-.726v-4H109.534V72.36a.682.682,0,0,1-.772.772H105.13q-.726,0-.726-.772l.182-14.21V32.318a80.67,80.67,0,0,0-.636-12.394,43.07,43.07,0,0,1,5.493.59q1,.091,1,.817,0,.091-.454,1.5-.454,1.18-.454,8.989V58.876h6.4V15.384a73.7,73.7,0,0,0-.726-12.576,33.388,33.388,0,0,1,5.675.681q1.09.318,1.09.817a2.4,2.4,0,0,1-.227.817q-.227.636-.318.863-.454,1.407-.454,9.307V58.876h6.31V32.227q0-9.579-.636-12.3a43.6,43.6,0,0,1,5.493.59Q133.141,20.65,133.141,21.331Zm140.553-2a.642.642,0,0,1-.726.726l-12.848-.182H238.646V31h13.12l13.12-.182q.726,0,.726.636l-.182,8.217V50.614l.182,8.217a.642.642,0,0,1-.726.726l-13.12-.182H223.483l-13.029.182a.642.642,0,0,1-.726-.726l.182-8.217V39.673l-.182-8.217q0-.636.726-.636L223.483,31h9.4V13.432a76.579,76.579,0,0,0-.636-11.3,55.227,55.227,0,0,1,6.31.545q1.135.136,1.135.726a5.1,5.1,0,0,1-.363,1.68q-.681,1.634-.681,7.536v1.952H260.12l12.848-.182a.642.642,0,0,1,.726.726ZM259.666,54.155V36.222H215.675V54.155ZM276.237,81.3a1.149,1.149,0,0,1,.182.545q0,.318-1.044.863l-2.588,1.18a4.25,4.25,0,0,1-1.271.5q-.272,0-.5-.5A75.91,75.91,0,0,0,260.3,66.5a.789.789,0,0,1-.227-.454q0-.318,1.09-.817l2.043-1.044a2.5,2.5,0,0,1,1.044-.363,1.1,1.1,0,0,1,.726.454A74.92,74.92,0,0,1,276.237,81.3Zm-62.7-13.665A55.474,55.474,0,0,1,203.054,84.3a1.119,1.119,0,0,1-.863.545,2.651,2.651,0,0,1-1.18-.545L198.7,82.983q-1.18-.681-1.18-1.044,0-.182.318-.454a47.474,47.474,0,0,0,10.714-15.8q.227-.681.726-.681a3.094,3.094,0,0,1,1.135.318l2.225.908q1.044.454,1.044.908A1.378,1.378,0,0,1,213.541,67.638Zm38.861,14.3a1.948,1.948,0,0,1,.091.5q0,.454-1,.726l-2.906.636a5.535,5.535,0,0,1-1.18.272q-.409,0-.59-.636a66.459,66.459,0,0,0-5.4-16.071,1.766,1.766,0,0,1-.136-.5q0-.363,1.09-.726l2.679-.817a1.948,1.948,0,0,1,.5-.091q.5,0,.817.726A68.5,68.5,0,0,1,252.4,81.939Zm-20.52.681v.272q0,.726-1.135.817l-3.042.272a7.467,7.467,0,0,1-.863.091q-.636,0-.636-.726a85.411,85.411,0,0,0-2.769-16.253,1.441,1.441,0,0,1-.091-.409q0-.454,1.18-.636l2.679-.272a4.968,4.968,0,0,1,.59-.045q.636,0,.817.772A94.969,94.969,0,0,1,231.882,82.62Zm72.909-72.23a28.226,28.226,0,0,1,6.083,2.5q1.317.772,1.317,1.5a2.911,2.911,0,0,1-.636,1.589,14.171,14.171,0,0,0-1.861,4.9q-4.358,18.387-4.358,32.1a75.291,75.291,0,0,0,1.407,15.98q.681-1.589,3.45-7.9,1.952-4.268,3.4-7.809a41.582,41.582,0,0,0,2.225,3.723,1.267,1.267,0,0,1,.5.908,3.812,3.812,0,0,1-.454,1.5q-3.95,9.08-5.993,14.755a5.481,5.481,0,0,0-.363,2.315l.182,2.043a.773.773,0,0,1-.636.863,23.214,23.214,0,0,1-4.177.908q-.726,0-1.044-.908a58.214,58.214,0,0,1-3.223-13.393,100.457,100.457,0,0,1-.953-13.574q0-12.3,3.814-31.688A61.46,61.46,0,0,0,304.791,10.39ZM325.13,57.514l5.039-.363a.185.185,0,0,1,.136-.045q.5,0,.5.953.409,10.215,16.934,10.215A144.325,144.325,0,0,0,366.034,67a2.784,2.784,0,0,1,.363-.045q.59,0,.681.953.272,3.314.272,4.358,0,.681-.182.817a2.29,2.29,0,0,1-1.044.318,146.993,146.993,0,0,1-16.616,1q-8.49,0-13.257-1.5a15.745,15.745,0,0,1-7.218-4.358Q325.266,64.778,325.13,57.514ZM328.4,27.642q0-4,.091-5.085a1.225,1.225,0,0,1,1.09-1.317,126.108,126.108,0,0,1,19.7-1.68q9.034,0,13.211.454,1.407.136,1.407.953,0,2.951-.091,4.358,0,.863-.681.863h-.363q-4.494-.5-14.936-.5A114.919,114.919,0,0,0,328.4,27.642Z" transform="translate(-4.482 110.149)" fill="#5168af"/></g><rect width="740" height="225" transform="translate(922 7539)" fill="none"/></g></svg>