<svg xmlns="http://www.w3.org/2000/svg" width="1459" height="1940" viewBox="0 0 1459 1940"><g transform="translate(-9707 -10118)"><rect width="1459" height="1940" transform="translate(9707 10118)" fill="#fffdf1"/><path d="M1,1V1939H1458V1H1M0,0H1459V1940H0Z" transform="translate(9707 10118)" fill="#707070"/><g transform="translate(10042 11005.12)"><path d="M10.435,85.07A54.721,54.721,0,0,1,2.943,98.287,27.931,27.931,0,0,0,0,92.776c3.853-5.4,5.244-7.92,7.17-12.736a44.04,44.04,0,0,0,2.247-6.689H1.338V68.161c1.231.054,3.532.054,4.441.054h4.655c-.054-6.154-.161-9.953-.375-11.344l5.833.428c.482.053.8.214.8.535,0,.268-.268.589-1.017,1.07-.054,2.194-.054,5.03-.107,9.311h4.013c.963,0,3.211,0,4.334-.054v5.191c-1.338-.107-3.478,0-4.334,0H15.572v5.458a43.382,43.382,0,0,1,8.294,5.94L20.6,89.726a44.546,44.546,0,0,0-5.03-5.03v7.117c0,7.384.107,12.575.268,16.107H10.114c.161-3.585.268-8.99.268-16.107V85.07M44.9,87.906c0,2.568.054,5.779.107,10.007,0,.963.054,2.836.054,3.478,0,2.729-.535,4.013-1.98,4.923-1.766,1.07-3.371,1.284-9.632,1.338a17.126,17.126,0,0,0-1.124-5.833c2.14.161,3.371.214,4.816.214,2.087,0,2.3-.214,2.3-2.3V73.351H30.073c-.91,0-3.157-.053-4.441,0V68.161c.91,0,3.211.054,4.441.054h9.364c-.054-5.993-.161-9.792-.321-11.13l5.993.375c.482.053.749.268.749.535,0,.321-.268.589-1.017,1.07,0,1.605,0,1.873-.054,9.15H48.16c.749,0,2.622-.054,4.441-.054v5.191H44.788V87.96ZM30.02,78.916a36.882,36.882,0,0,1,7.92,9.15l-4.441,3.8a44.6,44.6,0,0,0-7.117-9.578l3.639-3.425Z" transform="translate(0 247.489)" fill="#557ec0"/><path d="M19.545,103.566H13.98q.161-3.291.161-10.274V66.376c0-4.548-.054-6.956-.161-8.776,1.5.054,2.836.107,4.709.107h33.6c1.926,0,3.264-.053,4.709-.107-.054,1.766-.161,5.458-.161,8.776V92.543c0,4.655.054,7.545.161,9.739H51.438V98.429H19.6v5.191M32.762,62.791H19.545v12.2H32.762Zm0,17.284H19.545V93.345H32.762Zm5.3-5.084H51.384v-12.2H38.06Zm0,18.3H51.384V80.021H38.06Z" transform="translate(60.828 250.665)" fill="#557ec0"/><path d="M33.111,87.612a54.733,54.733,0,0,1-4.12,9.632,12.1,12.1,0,0,0-3.211-4.762,58.6,58.6,0,0,0,4.976-12.575,65.59,65.59,0,0,0,1.552-6.528h-.535c-1.5,0-3.211,0-4.388.107V68.509c1.231.054,3.211.107,4.388.107h1.391c0-2.033,0-4.013-.054-6.047a36.216,36.216,0,0,0-.268-5.4l5.458.428c.482.054.8.214.8.535,0,.268-.268.589-1.07,1.07,0,3.157,0,6.314-.054,9.418h.91c1.177,0,3.211-.054,4.441-.107v4.977c-1.177-.054-2.943-.107-4.441-.107h-.91v4.495a34.419,34.419,0,0,1,5.3,5.672l-3.211,4.12a32.157,32.157,0,0,0-2.087-3.318v7.706c0,7.224.107,12.575.268,16.107H32.9c.161-3.585.214-8.99.214-16.107V87.505m42.434-5.833c-.214-1.017-.428-1.926-.7-2.89-1.552.268-3.05.535-4.548.749a35.98,35.98,0,0,1,4.548,2.836l-1.338,1.819c1.605-.053,3.264-.053,4.869-.107V89c-2.033-.107-5.565-.161-7.652-.161H64.468a36.324,36.324,0,0,0,2.194,5.833,34.269,34.269,0,0,0,4.816-5.565l4.12,2.3c.375.214.589.482.589.749,0,.482-.321.642-1.391.8a42.836,42.836,0,0,1-5.512,5.993c1.338,1.712,2.89,3.05,3.478,3.05.91,0,1.766-2.3,2.3-6.528a21.388,21.388,0,0,0,4.227,2.194,32.58,32.58,0,0,1-1.926,7.706,3.6,3.6,0,0,1-3.8,2.515c-2.89,0-5.886-2.14-8.562-5.833-4.869,2.943-10.221,4.6-15.625,5.993l-.268-1.017a12.284,12.284,0,0,0-1.552-3.8c5.137-1.284,10.274-2.783,14.769-5.512A44.586,44.586,0,0,1,59.759,91.3c-.268-.91-.482-1.766-.7-2.622H51.2c-.107.963-.214,1.873-.375,2.729A38.8,38.8,0,0,1,55.1,94.14a35.024,35.024,0,0,1,3,2.622l-3.05,3.532a26.655,26.655,0,0,0-5.191-4.6,22.865,22.865,0,0,1-8.348,12.254,10.624,10.624,0,0,0-2.836-4.067,21.014,21.014,0,0,0,5.779-7.384,27.07,27.07,0,0,0,1.873-7.706c-1.177,0-2.3.053-3.478.107V83.973c2.087,0,5.244.107,7.652.107h7.545c-.161-.91-.268-1.819-.375-2.729l-3.264,1.391-.642-2.462c-3.05.535-6.047,1.07-9.15,1.5-.428.589-.7.8-.963.8-.321,0-.482-.214-.749-.8L41.3,77.606c.91,0,1.873-.054,2.783-.107A44.688,44.688,0,0,0,47.4,72.522a41.441,41.441,0,0,0-5.94-5.512l2.354-3.1c.321.214.642.375.963.589A32.305,32.305,0,0,0,48.094,57l4.548,2.033a.835.835,0,0,1,.589.7c0,.321-.268.535-1.284.856-2.3,4.013-2.783,4.869-3.8,6.421a21.967,21.967,0,0,1,1.605,1.552c.7-1.338,1.391-2.729,2.033-4.013L55.96,66.8c.428.214.642.482.642.7,0,.428-.268.642-1.338.856a104.615,104.615,0,0,1-6.154,8.883c1.231-.053,2.354-.161,3.532-.321-.214-.642-.535-1.338-.8-1.98l3.211-1.5a38.174,38.174,0,0,1,2.408,5.726c-.321-4.067-.535-9.043-.589-15.679A51.409,51.409,0,0,0,56.549,57l5.512.589c.589.053.856.268.856.589,0,.375-.268.7-1.07,1.124-.107,1.391-.107,1.98-.107,3.1,0,2.943.161,7.813.428,12.9a2.2,2.2,0,0,0,.054.589c.91-.054,1.926-.107,2.89-.107C66.127,74.4,67.037,73,67.947,71.613a45.324,45.324,0,0,0-5.993-5.565l2.354-3.1,1.391.91a36.1,36.1,0,0,0,3.05-7.063l4.495,2.033c.375.161.589.375.589.642,0,.375-.214.535-1.284.856-2.14,3.746-2.676,4.709-3.585,6.1.428.375.8.749,1.284,1.231.749-1.445,1.445-2.89,2.14-4.281l4.227,2.247c.375.214.642.482.642.7,0,.428-.268.642-1.338.856-1.98,3.1-3.639,5.512-5.779,8.348L73.4,75.2c-.268-.642-.482-1.284-.8-1.926l3.211-1.552a40.538,40.538,0,0,1,3.157,8.187l-3.639,1.605Zm-13.11-5.137a59.781,59.781,0,0,0,.91,7.652h7.117a26.565,26.565,0,0,0-3.8-2.14l1.5-2.14c-.91.161-1.712.268-2.622.375-.428.535-.749.749-1.017.749-.321,0-.482-.214-.7-.749l-1.445-3.746Z" transform="translate(112.171 247.141)" fill="#557ec0"/><path d="M47.808,86.408a43.42,43.42,0,0,1-5.619,10.97,28.78,28.78,0,0,0-2.89-5.351A53.362,53.362,0,0,0,47.434,73.3H45.561c-1.5,0-3.264,0-4.441.053V68.161c1.07.054,3,.054,4.441.054h2.247v-5.94a45.136,45.136,0,0,0-.268-5.4l5.565.428c.482.053.8.214.8.535,0,.268-.268.589-1.07,1.07,0,3.1,0,6.261-.054,9.311h1.659c.482,0,3.1-.054,4.334-.054v5.191C57.6,73.3,55.835,73.3,54.444,73.3H52.785v7.17a61.754,61.754,0,0,1,6.528,5.886l-2.89,4.227a47.954,47.954,0,0,0-3.639-4.388v5.512c0,7.224.107,12.575.268,16.107H47.541c.161-3.585.268-8.99.268-16.107V86.3m20.869-5.672c0-3.532-.053-5.565-.161-6.956l4.762.375c.589.053.963.214.963.535s-.321.642-1.07,1.124c-.053.8-.053.856-.053,4.923h3.425v4.6c-.8-.053-2.247-.107-3.318-.107h-.107v4.12c0,3.692,0,6.368.107,8.08H68.517c.107-1.926.161-4.441.161-8.08v-4.12h-3c-.214,4.977-.91,7.759-2.408,10.649a19.548,19.548,0,0,1-5.191,6.1c-1.445-2.247-1.766-2.729-2.943-3.532,4.227-3.8,5.779-6.956,6.207-13.217-1.017,0-2.194.054-2.943.107v-4.6h3c0-4.548-.053-5.779-.321-7.01l4.816.268c.535.054.963.321.963.642s-.214.535-1.124.963v5.084h2.943Zm22.1-2.515c.482.161.8.482.8.749,0,.375-.268.535-1.338.91a51.521,51.521,0,0,1-6.1,13.859c1.177,4.067,3.1,7.759,4.174,7.759.7,0,.856-.963,1.284-6.1.482.268.91.428,1.124.535a18.559,18.559,0,0,0,2.836,1.231c-.482,8.187-1.5,10.381-4.6,10.381-3.318,0-6.421-3.318-8.508-9.043-3.318,3.639-7.01,6.1-14.02,9.471a9.893,9.893,0,0,0-2.89-4.067c7.492-3.478,10.756-5.779,14.5-10.221a5.4,5.4,0,0,0,.7-.856c-1.5-6.689-1.605-13.538-1.819-20.388H66.483c-1.819,0-4.923,0-6.635.107V67.251c1.659.054,4.548.107,6.635.107H76.865V62.81a33.97,33.97,0,0,0-.321-5.619l5.565.589c.589.054.91.268.91.589,0,.375-.321.7-1.124,1.124-.053,1.552-.053,1.98-.053,5.833V67.3h3.585c2.14,0,4.976-.054,6.635-.107v5.191c-1.712-.054-4.816-.107-6.635-.107H81.895c0,2.515.107,5.03.268,7.545q.161,3.291.482,6.582a54.144,54.144,0,0,0,3.211-10.221L90.67,78.06ZM85.587,58.422a35.686,35.686,0,0,1,5.993,5.726L88.209,67.2A39.558,39.558,0,0,0,82.59,61.2Z" transform="translate(170.997 247.489)" fill="#557ec0"/><path d="M63.189,58.534c.482.107.856.428.856.8,0,.428-.268.749-1.338,1.177a96.343,96.343,0,0,0-.642,41.792c-.963.214-4.762,1.177-5.94,1.552A104.243,104.243,0,0,1,54.36,83.631c0-6.261.428-11.13,2.3-23.705.053-.535.161-1.284.268-2.408l6.261,1.07M90,57.785c.535.053.91.321.91.749a.726.726,0,0,1-.375.7l-.428.375c0,2.14,0,3.264.161,5.351.054,1.391.054,1.605.107,2.943a59.854,59.854,0,0,0,9.578-1.5l.214,5.458a85.974,85.974,0,0,1-9.739,1.284c.054,1.873.107,2.89.268,10.167.054,1.177.054,3.05.161,5.137a42.715,42.715,0,0,1,12.414,7.759,25.217,25.217,0,0,0-3.8,4.548,41.459,41.459,0,0,0-8.615-6.582c-.589,6.475-4.013,9.2-11.291,9.2s-11.558-3.05-11.558-8.455,4.388-8.669,10.916-8.669a34.915,34.915,0,0,1,6.207.642c0-3.853-.107-9.471-.321-13.538-2.247.054-3.211.107-4.655.107-4.013,0-5.565-.107-10.328-.482l.214-5.458a62.671,62.671,0,0,0,8.99.642c.321,0,2.14-.053,5.619-.107a60.138,60.138,0,0,0-.8-10.809l6.047.482ZM78.975,91.069c-3.371,0-5.458,1.445-5.458,3.692S75.5,98.4,79.028,98.4a7.249,7.249,0,0,0,4.495-1.231,4.549,4.549,0,0,0,1.605-3.425c.054-.375.107-1.391.107-1.659a18.713,18.713,0,0,0-6.207-1.07Z" transform="translate(236.524 249.142)" fill="#557ec0"/><path d="M72.884,63.3A72.586,72.586,0,0,1,83.694,75.714l-5.03,3.8A65.333,65.333,0,0,0,68.55,67.046L72.884,63.3" transform="translate(298.266 275.466)" fill="#557ec0"/><path d="M94.9,78.808a37.2,37.2,0,0,1,8.829-1.177c9.632,0,15.893,5.03,15.893,12.9,0,5.94-3.425,10.114-9.9,12.147a50.1,50.1,0,0,1-5.94,1.338,21.278,21.278,0,0,0-2.087-5.672c8.615-.749,12.04-3.05,12.04-7.92s-4.013-8.027-10.863-8.027a21.242,21.242,0,0,0-7.813,1.338v2.033c0,10.328-.107,12.361-.963,14.234-1.231,2.676-3.425,3.853-7.438,3.853-5.993,0-9.578-3.264-9.578-8.829,0-4.441,2.355-8.615,6.635-11.665a27.589,27.589,0,0,1,5.94-3.157c-.107-4.067-.161-6.956-.214-8.669-2.14.053-6.047.107-7.224.107H79.006V66.18c2.461.161,5.137.268,6.8.268a32.657,32.657,0,0,0,3.532-.161v-1.07c0-2.515-.161-6.154-.321-8.027l5.619.214c.535,0,1.017.321,1.017.642s-.214.589-.8,1.017c0,.8-.054,1.873-.054,2.783v1.5c0,.535.054,1.873.054,2.622l3.211-.535a73.026,73.026,0,0,0,7.384-1.712l.642,5.191c-2.836.749-3.264.856-4.923,1.231-.856.161-2.89.482-4.334.749l-1.98.375.161,7.438m-5.4,6.956c-4.655,2.461-6.8,5.351-6.8,9.043,0,2.569,1.338,4.067,3.639,4.067,1.98,0,2.89-1.124,3.05-3.8.054-.535,0-2.943.054-6.368v-3Zm23.866-23.545c4.334,2.676,7.277,5.3,11.665,10.381l-4.227,3.853a50.292,50.292,0,0,0-10.863-10.328l3.478-3.906Z" transform="translate(335.381 248.881)" fill="#557ec0"/><path d="M110,58.056c.482.053.8.321.8.7s-.161.535-1.124,1.07c-.749,3.585-.963,4.548-2.033,8.348.91-.053,2.783-.107,4.067-.107a12.093,12.093,0,0,1,6.154,1.284c2.89,1.605,3.853,3.96,3.853,9.311,0,10.167-1.124,16.8-3.478,20.548-1.712,2.729-4.709,4.067-8.829,4.067-1.605,0-3.639-.107-4.6-.214a28.6,28.6,0,0,0-.482-5.993,26.574,26.574,0,0,0,4.762.482c2.194,0,3.639-.7,4.495-2.14,1.231-2.033,1.873-4.923,2.3-9.632.161-1.873.268-3.639.268-5.03,0-6.421-.749-7.545-4.441-7.545a32.776,32.776,0,0,0-4.923.268c-.642,2.408-2.3,7.384-3.692,11.077A93.367,93.367,0,0,1,94.213,102.9a17.116,17.116,0,0,0-4.923-3.05,75.074,75.074,0,0,0,8.348-16.321,82.335,82.335,0,0,0,3.211-9.418c-3.746.535-3.853.482-6.9,1.07-1.605.268-1.659.321-3.478.589L89.29,69.775c4.441-.321,9.525-.8,12.682-1.124a69.749,69.749,0,0,0,2.3-11.451l5.619.91m14.5,4.655c5.886,4.067,9.15,7.438,14.287,14.715l-4.816,3.906a44.073,44.073,0,0,0-13.271-14.93l3.746-3.692Z" transform="translate(388.507 248.925)" fill="#557ec0"/><path d="M110.109,61.663c.535.107.856.428.856.8,0,.428-.268.7-1.338,1.177-1.873,10.007-2.462,15.037-2.462,21.3a104.463,104.463,0,0,0,1.659,19.21,22.593,22.593,0,0,0-5.833,1.605,106.626,106.626,0,0,1-1.552-19.21c0-7.17.375-10.916,2.033-21.4.268-1.712.428-3.211.589-4.655l5.993,1.177M132.8,77.824c-3.8.214-6.314.321-9.311.321-1.5,0-4.869-.054-7.277-.107V72.1c2.3.161,5.993.268,9.1.268,1.98,0,4.548-.107,7.438-.268-.054-2.354-.054-3.478-.214-7.759-.053-1.391-.053-2.3-.214-3.96l6.047.321c.589.053,1.07.321,1.07.749s-.214.7-1.177,1.231l.107,9.15a60.182,60.182,0,0,0,9.793-1.338l.642,5.779a94.273,94.273,0,0,1-10.435,1.284,109.373,109.373,0,0,1-.856,15.411,20.937,20.937,0,0,1-6.849,11.933,34.953,34.953,0,0,1-5.565,3.853c-1.552-3-1.926-3.532-3.478-5.03a25.1,25.1,0,0,0,6.207-4.334c3.746-3.853,4.977-8.776,4.977-20.227V77.824Zm8.348-15.946a36.638,36.638,0,0,1,7.01,5.512l-2.729,3.05a32.774,32.774,0,0,0-6.689-5.672l2.408-2.89Zm2.943-5.3a38.36,38.36,0,0,1,7.01,5.512l-2.783,3.05a28.792,28.792,0,0,0-6.689-5.672l2.408-2.89Z" transform="translate(441.373 246.227)" fill="#557ec0"/><path d="M132.664,56.964a.763.763,0,0,1,.749.749c0,.268-.161.482-.589.963.963,2.3,1.5,3.8,3.478,8.187a87.886,87.886,0,0,0,13.645-2.729l1.659,5.137a127.018,127.018,0,0,1-12.9,2.408,74.528,74.528,0,0,0,9.739,13.592l-3.8,3.639c-2.783-1.552-4.12-1.926-6.689-1.926-1.124,0-1.926,0-3.264.107A14.543,14.543,0,0,0,133.36,82.6a23.829,23.829,0,0,1,3.1-.214,24.356,24.356,0,0,1,2.569.161,108.649,108.649,0,0,1-5.886-9.9,145.943,145.943,0,0,1-18.087,1.391l-.749-5.4a147.757,147.757,0,0,0,16.374-.963c-.589-1.231-1.231-2.943-2.194-5.512-.749-2.087-1.124-2.943-1.873-4.762l6.1-.482m-8.776,32.267c-2.408,1.605-3.532,3.157-3.532,5.084,0,4.227,6.154,6.421,18.354,6.421a57.559,57.559,0,0,0,7.759-.482c.054,1.07.268,3.1.589,5.779a80.718,80.718,0,0,1-8.562.321c-16.267,0-23.866-3.585-23.866-11.344A9.971,9.971,0,0,1,116.5,89.23c1.124-1.552,2.14-2.461,4.869-4.013l2.462,4.013Z" transform="translate(497.371 247.663)" fill="#557ec0"/><path d="M126.271,64.629a80.965,80.965,0,0,0,10.542.482c.482,0,2.783-.054,6.849-.161a53.851,53.851,0,0,0-.482-8.08l6.261.535c.589.054.856.214.856.589,0,.321-.214.589-.963,1.07,0,2.89-.053,4.067-.107,5.726a103.612,103.612,0,0,0,13.324-1.124l.7,5.244c-5.191.535-7.384.7-14.02,1.07v1.873c0,1.5,0,2.89.107,5.512a85.388,85.388,0,0,0,11.5-1.552L162.123,81a97.39,97.39,0,0,1-12.629,1.659c.107,3,.268,5.886.428,8.883a60.2,60.2,0,0,1,13.431,6.849,21.134,21.134,0,0,0-3.1,4.709A42.975,42.975,0,0,0,149.816,96.9a9.6,9.6,0,0,1-2.247,6.1c-2.14,2.354-4.923,3.371-9.418,3.371-7.331,0-11.826-3.157-11.826-8.294s4.12-8.4,11.184-8.4a50.77,50.77,0,0,1,6.8.589c-.053-.8-.107-1.5-.107-1.926,0-.107-.107-1.926-.268-5.512-1.338.054-2.14.107-2.89.107-4.495,0-7.813-.8-10.274-2.461a10.278,10.278,0,0,1-2.569-2.676l3.906-3.318c2.087,2.408,4.227,3.157,9.15,3.157.642,0,.856,0,2.569-.053-.053-2.194-.053-2.783-.107-7.492-4.227.107-6.742.107-7.491.107-3.853,0-7.492-.107-10.274-.375l.375-5.244m11.183,29.805c-3.746,0-5.779,1.284-5.779,3.585,0,2.14,2.3,3.532,5.94,3.532,2.3,0,4.013-.482,5.084-1.445a4.262,4.262,0,0,0,1.552-3.425,12.606,12.606,0,0,0,.053-1.338,31.9,31.9,0,0,0-6.849-.963Z" transform="translate(548.018 247.489)" fill="#557ec0"/><path d="M136.87,61.285h.589c6.314,0,21.244-.856,30.394-1.766,4.976-.482,6.742-.91,8.562-1.819l2.836,3.639c.321.428.375.535.375.856,0,.535-.107.535-1.712.749-1.391.161-4.6,1.926-8.883,4.869-4.174,2.89-6.8,5.619-8.562,8.99a13.509,13.509,0,0,0-1.605,6.849c0,5.619,2.622,8.883,8.669,10.863a58.678,58.678,0,0,0,10.221,1.873,17,17,0,0,0-1.926,5.993c-8.348-1.017-12.575-2.3-16.374-5.03a15.61,15.61,0,0,1-6.689-13.431c0-7.866,4.013-13.806,13.485-19.692-20.12,2.354-26.22,3.211-28.628,3.8l-.7-6.8M173.1,72.9a38.138,38.138,0,0,1,6.956,5.512l-2.783,3.05a29.908,29.908,0,0,0-6.635-5.672l2.408-2.89Zm4.281-4.762a38.14,38.14,0,0,1,6.956,5.512l-2.729,3.05a30.215,30.215,0,0,0-6.689-5.726l2.408-2.836Z" transform="translate(595.531 251.1)" fill="#557ec0"/><path d="M155.926,101.088c6.368-6.261,10.221-11.237,13-16.856a12.324,12.324,0,0,1-6.154,1.5c-7.491,0-12.575-5.512-12.575-13.645,0-8.615,5.672-14.555,13.913-14.555s13.645,5.726,13.645,15.411c0,6.8-2.3,13-7.491,20.227a52.075,52.075,0,0,1-6.849,7.92h-7.438m.749-29.163c0,5.3,2.783,8.669,7.17,8.669s7.224-3.264,7.224-8.669-2.729-8.883-7.063-8.883S156.728,66.573,156.728,71.924Z" transform="translate(653.531 250.361)" fill="#557ec0"/><path d="M187.533,79.212c0,13.592-5.458,21.672-14.555,21.672S158.37,92.75,158.37,79.212s5.458-21.672,14.608-21.672,14.555,8.134,14.555,21.672M167.627,66.048c-1.766,3.1-2.729,7.759-2.729,13.217s.91,10.114,2.729,13.164a6.03,6.03,0,0,0,5.351,3.1,5.947,5.947,0,0,0,5.3-3.1c1.766-3.1,2.783-7.813,2.783-13.164s-1.07-10.274-2.783-13.217a6.119,6.119,0,0,0-10.649,0Z" transform="translate(689.08 250.404)" fill="#557ec0"/><path d="M195.183,65.812h4.227c1.605,0,3.96-.053,5.512-.107v4.976c-1.552,0-3.906-.107-5.512-.107h-4.227V74.32h5.726c1.605,0,3.906-.054,5.512-.107v5.03c-1.605-.054-3.906-.107-5.512-.107H184.7c-1.605,0-3.906.054-5.458.107v-5.03c1.552.053,3.853.107,5.458.107h5.191V70.574H186.3c-1.605,0-3.906.053-5.458.107V65.7c1.552.053,3.853.107,5.458.107h3.585V62.333h-12.2V75.39c0,8.294-.214,13.592-1.177,17.98a28.479,28.479,0,0,1-6.261,12.736l-.963-1.07a18.5,18.5,0,0,0-3.264-3.1c5.191-6.314,6.314-11.077,6.314-26.434V66.026c0-3.264-.054-7.063-.161-8.776,2.568.053,3.692.053,8.99.053h24.883c3.96,0,5.672,0,7.706-.053-.107,1.712-.161,4.174-.161,8.776v25.15c0,1.017,0,3.211.054,5.137.053,1.177.053,2.14.053,2.729,0,2.89-.482,4.388-1.819,5.351-1.5,1.124-3.318,1.445-7.652,1.445H202.3a18.927,18.927,0,0,0-.91-5.779c1.926.107,2.943.161,4.548.161,2.087,0,2.3-.214,2.3-2.247V62.28H195.183v3.478M187,99.1h-5.244c.107-1.284.161-3.157.161-5.833V86.841c0-1.766-.053-3.906-.161-4.869,1.926.053,3.639.053,6.1.053H197c2.408,0,4.12,0,6.047-.053-.107.963-.161,3.1-.161,4.869V92.46c0,2.622.054,4.441.161,5.726h-5.244v-2.14H186.943V99.1Zm0-7.706h10.863V86.627H187Z" transform="translate(722.365 249.142)" fill="#557ec0"/><path d="M203.545,68.994H191.719c-.589.91-1.231,1.873-1.926,2.943a48.641,48.641,0,0,1-8.241,9.525A18.537,18.537,0,0,0,178.02,77.4c6.8-6.742,10.06-11.719,13.431-20.655l4.923,1.873c.749.268,1.177.642,1.177.91,0,.428-.268.535-1.552.8-.535,1.391-1.124,2.515-1.605,3.639h22.421c3.318,0,8.187-.107,11.023-.214v5.4c-2.889-.107-7.706-.214-11.023-.214h-7.866v7.384h8.776c1.98,0,5.03-.053,6.582-.107v5.191c-1.659-.107-4.763-.161-6.582-.161h-8.776v8.936h9.739c4.548,0,7.224-.054,10.97-.214v5.458c-2.943-.107-7.6-.161-10.97-.161h-9.739V96.98c0,5.083.054,8.829.161,11.291h-5.726c.107-2.461.16-6.261.16-11.291V95.268H189.685c-3.05,0-8.027.053-10.97.161V89.97c2.355.107,6.261.161,9.311.214v-9.1c0-2.087-.053-3.906-.107-4.869,1.5.053,3.853.107,6.475.107h9.15V68.94m0,12.361H193.217v8.936h10.328Z" transform="translate(774.578 246.923)" fill="#557ec0"/><path d="M4.95,83.574a3.346,3.346,0,0,0-.856,2.3,2.4,2.4,0,0,0,1.445,2.247,18.412,18.412,0,0,0,7.01,1.017,30.159,30.159,0,0,0,8.187-.963c-.054.963-.107,1.819-.107,2.515v1.07a47.627,47.627,0,0,1-8.08.535c-4.762,0-7.759-.535-9.632-1.819A5.023,5.023,0,0,1,.83,86.3c0-1.552.375-2.515,1.712-4.281L4.9,83.52m-1.338-12.9c2.033.107,5.137.214,7.759.214a61.155,61.155,0,0,0,7.545-.428l.161,3.157c-3.318.214-5.137.268-8.241.268-2.14,0-3.746,0-7.331-.161Z" transform="translate(3.611 306.403)" fill="#557ec0"/><path d="M14.856,80.839c1.98-2.194,2.89-3.211,3.96-4.334,1.873-1.926,3.532-2.783,5.458-2.783a3.386,3.386,0,0,1,2.943,1.338,6.149,6.149,0,0,1,.8,3.532c0,1.284-.161,5.3-.375,9.846v.749c0,1.605.161,1.926,1.07,1.926,1.07,0,1.819-.963,2.676-3.425.749.482,1.926,1.124,2.569,1.5C32.408,92.879,31.177,94,28.395,94a3.976,3.976,0,0,1-3.371-1.338,4.63,4.63,0,0,1-.535-2.783c0-1.124.054-2.569.214-5.191.161-2.676.214-4.923.214-5.726a3.208,3.208,0,0,0-.482-2.087,1.538,1.538,0,0,0-.963-.375c-.856,0-2.247,1.017-4.548,3.532a57.3,57.3,0,0,0-4.174,4.923c0,5.351.107,8.829.161,10.381l-3.264.107c.161-2.676.161-3.8.214-7.706-.268.482-.321.535-.7,1.124a43.491,43.491,0,0,1-3.318,4.6L5.92,90.9a60.033,60.033,0,0,0,6.047-8.455V77.95c-.7.107-3.371.7-4.762,1.017L6.883,75.7c2.729-.161,2.729-.161,5.137-.428a48.989,48.989,0,0,0-.161-5.244l3.1.161s.375.107.375.268-.107.214-.375.428c0,.749-.107,2.087-.161,3.96a3.007,3.007,0,0,0,1.177-.589L17.1,75.7s.321.268.321.375c0,.161-.161.268-.589.321L14.8,79.287v1.605" transform="translate(25.758 304.749)" fill="#557ec0"/><path d="M23.113,70.345s.428.161.428.375-.107.321-.589.535c-.428,1.926-.535,2.408-1.07,4.441.482,0,1.5-.054,2.194-.054a6.3,6.3,0,0,1,3.264.7c1.552.856,2.087,2.087,2.087,4.976,0,5.4-.589,8.936-1.873,10.97-.91,1.445-2.515,2.194-4.709,2.194-.856,0-1.926-.054-2.461-.107a14.685,14.685,0,0,0-.268-3.211,14.935,14.935,0,0,0,2.515.268A2.585,2.585,0,0,0,25.04,90.3a12.08,12.08,0,0,0,1.231-5.137,26.235,26.235,0,0,0,.161-2.676c0-3.425-.375-4.013-2.354-4.013a12.723,12.723,0,0,0-2.622.161c-.375,1.284-1.231,3.96-1.98,5.94a47.189,47.189,0,0,1-4.762,9.792,9.05,9.05,0,0,0-2.622-1.605,39.067,39.067,0,0,0,4.441-8.722,46.957,46.957,0,0,0,1.712-5.03c-1.98.268-2.033.268-3.692.535-.856.161-.856.161-1.873.321l-.589-3.211c2.408-.161,5.084-.428,6.742-.589a39.163,39.163,0,0,0,1.231-6.1l3,.482m7.759,2.408a26.8,26.8,0,0,1,7.6,7.866l-2.569,2.087a23.623,23.623,0,0,0-7.063-7.973l1.98-1.98Z" transform="translate(52.604 304.488)" fill="#557ec0"/><path d="M22.892,75.024c.321.107.482.214.482.428s-.268.428-.7.482a46.9,46.9,0,0,0-1.391,8.936,11.808,11.808,0,0,1,2.836-2.087,12.872,12.872,0,0,1,6.742-1.926,8.275,8.275,0,0,1,6.421,2.515,5.969,5.969,0,0,1,1.177,3.906,7.467,7.467,0,0,1-3.746,6.849c-2.836,1.605-5.4,2.033-11.933,2.194a19.269,19.269,0,0,0-.482-3.264c.91,0,1.659.054,2.087.054,6.849,0,10.809-2.087,10.809-5.726,0-2.3-1.766-3.8-4.6-3.8a12.551,12.551,0,0,0-9.471,5.083H18.344v-.535c0-.482-.054-1.017-.054-1.284a50.709,50.709,0,0,1,.91-8.776c.268-1.766.375-2.408.482-3.853l3.211.8m.642-5.191a28.351,28.351,0,0,1,9.15,3.211l-1.552,2.783a27.541,27.541,0,0,0-8.776-3.318l1.177-2.729Z" transform="translate(79.581 303.661)" fill="#557ec0"/><path d="M38.731,84.151a24.281,24.281,0,0,1-7.063,1.659,27.454,27.454,0,0,0-.375,3.532c0,2.569,1.659,3.8,4.977,3.8s5.458-1.712,5.458-4.6a7.285,7.285,0,0,0-.856-3.318,7.181,7.181,0,0,0,3-.642,10.644,10.644,0,0,1,.963,4.281c0,4.548-3.318,7.331-8.776,7.331-3.05,0-5.244-.8-6.635-2.461a6.171,6.171,0,0,1-1.231-4.174,20.592,20.592,0,0,1,.428-3.692c-2.783-.054-4.281-1.124-5.137-3.8l2.3-1.017c.482,1.445,1.231,1.926,3.264,1.926.054-.428.161-.8.214-1.445.161-1.07.214-1.177.375-2.033.107-.589.107-.7.214-1.445a19.74,19.74,0,0,1-5.672-1.07l.7-2.729a22.459,22.459,0,0,0,5.458,1.017,36.428,36.428,0,0,0,.7-5.458l3.1.589c.375.054.482.161.482.321s-.161.375-.482.535c-.214,1.338-.642,2.676-.856,4.013a19.587,19.587,0,0,0,4.977-.7l.7,2.622a19.249,19.249,0,0,1-6.1.91c-.161.749-.535,2.783-.856,4.816a19.12,19.12,0,0,0,5.565-1.5l1.124,2.729" transform="translate(102.163 303.792)" fill="#557ec0"/><path d="M41.473,76.268s.428.321.428.482c0,.214-.161.321-.8.428-.268.7-.749,1.659-1.231,2.622h.321c1.124,0,2.622,0,3.532-.054v2.783c-.91-.054-2.569-.107-3.532-.107h-2.3v1.819h1.926c1.124,0,2.622,0,3.532-.054V86.97c-.91,0-2.515-.107-3.532-.107H37.887v.7A18.265,18.265,0,0,1,42.6,90.288l-1.605,2.461a20.093,20.093,0,0,0-3.1-2.461h0c0,3.05,0,5.458.107,6.956H35c.054-1.605.107-3.906.107-6.8a27.625,27.625,0,0,1-4.816,4.923A9.6,9.6,0,0,0,28.63,92.91a21.4,21.4,0,0,0,5.833-5.993H33.125c-.963,0-2.622.053-3.532.107V84.241c.91,0,2.408.054,3.532.054H35.1V82.475H32.75c-.963,0-2.622,0-3.532.107V79.8c.856,0,2.408.054,3.532.054H32.8a29.357,29.357,0,0,0-1.284-3.532l1.926-.749c-1.017,0-2.569,0-3.478.054V72.844c.856,0,2.408.054,3.532.054h1.552V69.74l2.836.214c.375,0,.535.107.535.268s-.161.375-.535.589V72.9h1.552c1.124,0,2.622,0,3.478-.054v2.783c-.856,0-2.408-.054-3.371-.054l1.926.749m-7.438-.8a21.751,21.751,0,0,1,1.552,3.425l-2.247.8h3.853a40.889,40.889,0,0,0,1.552-4.281H34.035Zm12.9-3.157a28.215,28.215,0,0,0,7.224-2.033l1.98,1.926s.214.268.214.375c0,.161-.161.268-.428.268h-.589a37.919,37.919,0,0,1-7.92,1.712v4.334h6.207c.856,0,2.087,0,2.943-.054v2.836c-.8,0-2.033-.054-2.89-.054v9.364c0,2.729,0,4.709.107,6.047H50.837c.053-1.338.107-3.318.107-6.047V81.673H47.466v.107c0,7.92-1.177,11.291-5.4,15.358a11.79,11.79,0,0,0-1.926-2.194c2.461-2.354,3.371-3.8,4.013-6.849a31.907,31.907,0,0,0,.589-7.438c0-3.05,0-6.314-.107-9.043l2.3.7Z" transform="translate(124.571 303.487)" fill="#557ec0"/><path d="M49.117,77.141a42.28,42.28,0,0,1-6.368.8A134.341,134.341,0,0,1,37.88,95.709a8.927,8.927,0,0,0-3.05-1.231C36.6,90.572,38.148,85.435,39.807,78h-1.5c-.8,0-1.98-.054-3.05-.161V75c1.338.107,2.033.161,3.264.161h1.766c0-.107.107-.535.428-2.247.161-.8.161-1.07.321-2.354a3.613,3.613,0,0,1,.107-.749l3.1.589s.375.214.375.375-.161.268-.535.428c-.161.963-.214,1.124-.749,3.96a26.984,26.984,0,0,0,5.4-.8l.375,2.89m-1.98,11.344v.589a2.885,2.885,0,0,0,.535,2.033c.7.856,2.461,1.284,5.351,1.284a44.175,44.175,0,0,0,6.314-.428,10.793,10.793,0,0,0-.482,3.1,42.086,42.086,0,0,1-5.084.268c-4.281,0-6.368-.375-7.706-1.445A5.077,5.077,0,0,1,44.3,89.555v-.963h2.783Zm-.856-7.277a24.416,24.416,0,0,1,8.294-1.445,23.133,23.133,0,0,1,4.12.321l-.482,2.89a29.927,29.927,0,0,0-3.746-.268A18.564,18.564,0,0,0,47.351,84.1l-1.017-2.783Z" transform="translate(151.548 303.792)" fill="#557ec0"/><path d="M51.982,70.67s.375.214.375.375c0,.214-.107.321-.482.482-.482,1.124-.589,1.338-.963,2.354-.107.214-.161.428-.268.7a5.624,5.624,0,0,0,.7-.107,29.9,29.9,0,0,0,3.425-.7l.428,2.729a27.523,27.523,0,0,1-3.692.7c-.589.054-1.231.161-1.819.214a81.607,81.607,0,0,1-6.475,13.164,7.113,7.113,0,0,0-2.836-1.552,51.561,51.561,0,0,0,6.154-11.4c-.535,0-1.819.107-2.194.107-.268,0-.428,0-2.14-.107V74.683a30.413,30.413,0,0,0,3.157.161c.375,0,1.017,0,2.14-.054l.107-.375a26.3,26.3,0,0,0,1.391-4.655l3.05.91m7.973,10.6a2.53,2.53,0,0,0-1.07,2.087,23.743,23.743,0,0,0,.428,3.425,15.934,15.934,0,0,1,.268,2.087A37.147,37.147,0,0,1,66,92.342a7.119,7.119,0,0,0-1.659,2.622,36.734,36.734,0,0,0-4.762-3.157,6.489,6.489,0,0,1-.482,2.3C58.4,95.659,56.9,96.3,54.122,96.3c-3.585,0-6.047-1.873-6.047-4.548,0-2.515,2.14-4.227,5.244-4.227a11.613,11.613,0,0,1,3.1.428l-.375-2.3a15.071,15.071,0,0,1-.214-2.3,4.873,4.873,0,0,1,1.926-3.692l2.14,1.659ZM56.8,90.736a9.457,9.457,0,0,0-3.157-.642c-1.552,0-2.515.642-2.515,1.659,0,1.231,1.177,1.926,3.211,1.926,1.712,0,2.461-.8,2.461-2.729v-.214ZM58.831,74.9a18.711,18.711,0,0,1,7.706,2.89l-1.445,2.676a20.162,20.162,0,0,0-7.277-2.89L58.831,74.9Z" transform="translate(175.653 303.574)" fill="#557ec0"/><path d="M57.361,71.419c.375.161.535.268.535.535s-.214.375-1.017.535a25.289,25.289,0,0,1-3.639,6.689,22.532,22.532,0,0,1-5.3,5.512,14.4,14.4,0,0,0-1.873-2.408,23.415,23.415,0,0,0,4.923-5.137,22.139,22.139,0,0,0,3.532-6.9l2.783,1.07m2.087,13.271a17.558,17.558,0,0,1-1.766,4.869c-1.926,3.639-4.495,5.619-10.06,7.759A10.165,10.165,0,0,0,46.284,94.7c3.8-1.5,5.672-2.569,7.277-4.334A12.227,12.227,0,0,0,56.4,84.582c-1.552,0-3.8.054-5.03.107V81.8c1.284.054,3.746.107,5.3.107H66.886l.482-.642,1.873,1.873s.268.321.268.482c0,.214-.107.268-.482.428l-.214.107c-.428,4.762-.535,6.047-1.07,8.187-.535,2.247-1.07,3.1-2.408,3.746a8.085,8.085,0,0,1-3.532.589,9.3,9.3,0,0,1-1.552-.107,10.649,10.649,0,0,0-.589-3.05c.321,0,1.231.107,1.766.107,1.873,0,2.3-.107,2.783-.749a11.331,11.331,0,0,0,1.284-4.495c.161-1.017.214-1.98.375-3.853H59.394ZM64.959,69.76a21.507,21.507,0,0,0,3.425,6.528c1.445,1.926,2.622,2.89,5.726,4.869a9.521,9.521,0,0,0-1.98,2.408A21.655,21.655,0,0,1,66.03,78a22.851,22.851,0,0,1-3.639-7.331Z" transform="translate(200.454 303.574)" fill="#557ec0"/><path d="M55.942,73.847c0-1.338,0-1.712-.053-2.729l2.89.214c.321,0,.535.107.535.268s-.161.375-.535.589V87.92h.963V80.7a41.259,41.259,0,0,0-.107-4.388l2.836.214c.321,0,.482.107.482.268s-.161.321-.535.535V87.76c0,1.98,0,3.478.054,4.281H59.742V90.489H55.033v2.943H52.3c0-1.017.053-2.461.053-4.334V80.7a41.27,41.27,0,0,0-.107-4.388l2.836.214c.321,0,.482.107.482.268s-.161.321-.535.535V87.867H56V73.793m13.164,2.675H66.591c-.963,0-2.622,0-3.532.107V73.793c.91.054,2.408.107,3.532.107h2.569V72.509c0-1.338,0-1.712-.053-2.729l3.05.214c.321,0,.535.107.535.268s-.161.375-.589.589V73.9h3.585c1.124,0,2.622,0,3.532-.107v2.783c-.91-.054-2.568-.107-3.532-.107H72.1v4.12h3.264l.375-.375,1.819,1.766a1.025,1.025,0,0,1,.214.428c0,.214,0,.268-.91.535a20.8,20.8,0,0,1-4.441,7.492c1.605,1.284,3.746,2.3,7.384,3.639A9.63,9.63,0,0,0,77.989,96.8a24.706,24.706,0,0,1-7.759-4.495,7.832,7.832,0,0,1-.7.482,28.865,28.865,0,0,1-10.7,4.12,9.158,9.158,0,0,0-1.284-2.729c4.495-.91,7.973-2.14,10.274-3.692l.482-.321a19.246,19.246,0,0,1-2.462-4.548c-.268-.749-.535-1.445-.8-2.461a9.91,9.91,0,0,0-1.338.054V80.429c.856,0,2.354.054,3.532.054h1.98v-4.12Zm-1.338,6.742A17.647,17.647,0,0,0,69.48,86.8,16.318,16.318,0,0,0,70.5,88.4a14.915,14.915,0,0,0,2.247-3.05,18.913,18.913,0,0,0,1.017-2.087H67.875Z" transform="translate(227.344 303.661)" fill="#557ec0"/><path d="M64.21,90.616s.268.161.268.321-.107.268-.482.375a11.591,11.591,0,0,1-3.532,5.512,5.948,5.948,0,0,0-2.194-1.98,10.465,10.465,0,0,0,3.425-5.351l2.515,1.124m1.712-1.605H62.979c.054-.7.107-1.659.107-3.157V81.2a17.793,17.793,0,0,0-.107-2.569c1.017,0,1.926.054,3.264.054h4.281V72.529c0-1.338,0-1.712-.054-2.729l2.89.214c.321,0,.535.107.535.321s-.161.321-.535.589v2.354h4.976c1.177,0,3,0,4.067-.107v2.836c-1.07,0-2.89-.054-4.067-.054H73.36v2.783H78.23c1.338,0,2.194,0,3.211-.054,0,.535-.107,1.659-.107,2.569v4.441a22.551,22.551,0,0,0,.107,3.05h-2.89v-1.07H65.869v1.391Zm0-4.12H78.6V81.412H65.922Zm2.569,4.976a24.107,24.107,0,0,1,2.836,5.619l-2.569,1.231A36.006,36.006,0,0,0,66.35,91.1Zm6.207-.321a23.407,23.407,0,0,1,3.532,5.3l-2.515,1.445a30.951,30.951,0,0,0-3.05-5.3L74.7,89.6Zm6.1-.161a20.669,20.669,0,0,1,5.137,5.244l-2.354,1.98a21.242,21.242,0,0,0-4.655-5.458L80.8,89.331Z" transform="translate(253.537 303.748)" fill="#557ec0"/><path d="M77.173,70.536s.268.161.268.321-.107.321-.535.482a16.677,16.677,0,0,1-1.338,2.622,37.249,37.249,0,0,0,6.635-.91l.7,2.622a69.872,69.872,0,0,1-8.776.963c-.642,1.07-1.659,2.676-2.194,3.425a6.29,6.29,0,0,1,2.729-.589,3.773,3.773,0,0,1,3.96,3.318c1.391-.589,3.906-1.712,6.368-2.943l2.087,2.087a1.173,1.173,0,0,1,.161.428c0,.161-.161.268-.428.268h-.375c-2.729.963-4.227,1.605-7.6,3.1v5.619h-2.89V86.91A14.76,14.76,0,0,0,73,88.783a3.925,3.925,0,0,0-1.605,2.836c0,1.605,1.338,2.14,5.137,2.14A40.271,40.271,0,0,0,86,92.8a21.657,21.657,0,0,0-.161,2.3,5.21,5.21,0,0,0,.054.856,58.239,58.239,0,0,1-8.936.7c-3.211,0-4.816-.214-6.1-.8a4.261,4.261,0,0,1-2.515-4.174,5.507,5.507,0,0,1,1.605-3.906c1.177-1.284,2.461-2.14,5.833-3.906-.268-1.659-.749-2.194-2.14-2.194-2.087,0-4.709,1.873-6.9,4.869L64.17,84.342a33.594,33.594,0,0,0,6.8-7.759c-1.177.054-1.5.054-2.14.054a14.681,14.681,0,0,1-2.622-.161l.107-2.783a23.594,23.594,0,0,0,3.96.214A11.043,11.043,0,0,0,72.3,73.8a16.978,16.978,0,0,0,1.873-4.12l3,.589" transform="translate(279.208 303.226)" fill="#557ec0"/><path d="M82.292,86.743H79.777c-1.605,0-4.281.054-5.833.107V83.907c1.552.054,4.174.107,5.833.107h2.515V79.144H75.6a7.578,7.578,0,0,1-.428.963A22.576,22.576,0,0,1,71.8,85.94,24.094,24.094,0,0,0,69.61,83.8a29.138,29.138,0,0,0,5.244-12.575l2.783.749c.482.107.7.321.7.589s-.214.375-.8.589a32.184,32.184,0,0,1-.91,3.318h5.672v-2.3a41.27,41.27,0,0,0-.107-4.388l3.1.161c.321,0,.482.161.482.268,0,.161-.161.375-.535.589v5.672h4.227c1.766,0,4.334-.054,5.886-.107v3c-1.552-.054-4.12-.107-5.886-.107H85.235v4.869h2.783c1.873,0,4.334,0,5.833-.107v2.943c-1.552-.054-4.067-.107-5.833-.107H85.235V92.9h5.94c1.873,0,4.388-.054,5.886-.107v3c-1.605-.107-4.067-.107-5.886-.107H75.71c-1.605,0-4.281.054-5.833.107v-3c1.5.054,4.174.107,5.833.107h6.582V86.85" transform="translate(302.878 303.661)" fill="#557ec0"/><path d="M98.117,75.4c.268.054.428.161.428.321s-.053.161-.428.428a49.1,49.1,0,0,1-.91,7.224,44.108,44.108,0,0,1,5.458,2.783,15.163,15.163,0,0,0-1.5,2.729,39.367,39.367,0,0,0-4.709-2.729,27.371,27.371,0,0,1-1.07,2.622,20.587,20.587,0,0,1-4.227,5.993A7.948,7.948,0,0,0,88.7,92.842a19.009,19.009,0,0,0,5.084-7.759,43.271,43.271,0,0,0-6.849-1.926,38.381,38.381,0,0,1-2.14,5.672c-1.177,2.408-2.836,3.585-4.923,3.585-2.569,0-4.12-1.712-4.12-4.495,0-4.388,3.692-7.438,8.936-7.438A49.183,49.183,0,0,0,86.4,73.15c-1.873.161-4.923.589-7.331,1.017l-.642-3.1a61.118,61.118,0,0,0,7.438-.428,3.289,3.289,0,0,0,1.819-.535l2.14,1.391s.321.321.321.482-.161.321-.589.482c-.749,3.692-1.07,4.977-1.98,8.187a39.758,39.758,0,0,1,6.956,1.712,32.98,32.98,0,0,0,.7-6.047v-1.5l2.89.642m-16.16,7.866a4.475,4.475,0,0,0-3.425,4.334q0,1.926,1.284,1.926c1.445,0,2.569-1.819,4.174-6.582a6.925,6.925,0,0,0-1.98.321Z" transform="translate(329.594 305.054)" fill="#557ec0"/><path d="M92.144,79.5V74.2a42.442,42.442,0,0,0-.107-4.388l3.1.214c.321,0,.482.107.482.268s-.161.321-.535.589V79.5h6.154V76.285a41.282,41.282,0,0,0-.107-4.388l3.05.161c.321,0,.535.161.535.321s-.161.375-.535.589v5.886c0,1.98,0,3.478.054,4.334h-2.943v-.91H95.141V92.392h7.224V89.074a41.264,41.264,0,0,0-.107-4.388l3.05.161c.321,0,.482.161.482.321s-.161.321-.535.589V91.8c0,1.98,0,3.478.053,4.334h-2.943V95.121h-17.5v1.605H81.924c0-1.017.053-2.408.053-4.281V89.127a41.282,41.282,0,0,0-.107-4.388l3.05.161c.321,0,.482.161.482.321s-.161.321-.535.589V92.5H92.2V82.385H85.937v1.284H82.994c0-1.017.054-2.461.054-4.281V76.445a41.264,41.264,0,0,0-.107-4.388l3.05.161c.268,0,.482.161.482.321s-.161.375-.535.589v6.582H92.2" transform="translate(356.222 303.792)" fill="#557ec0"/><path d="M91.605,70.231c.321,0,.535.161.535.375,0,.268-.161.482-.535.642,0,.856,0,1.338-.107,3.585,0,1.5-.107,3.746-.161,6.475-.053,1.926-.107,3.371-.107,4.281a12.789,12.789,0,0,0,.428,4.334q.722,1.926,3.692,1.926a9.81,9.81,0,0,0,4.923-1.391c2.033-1.231,3.157-2.569,4.655-5.619.7.749,1.391,1.445,2.569,2.515a15.577,15.577,0,0,1-3.639,4.548,13.2,13.2,0,0,1-8.883,3.157,6.848,6.848,0,0,1-4.762-1.391c-1.552-1.284-2.194-3.211-2.194-6.689,0-1.5,0-3.264.107-5.191.107-3.906.161-4.869.161-6.849,0-1.819,0-2.836-.053-4.869l3.318.161" transform="translate(382.982 304.923)" fill="#557ec0"/><path d="M104.512,70.67s.375.214.375.375c0,.214-.107.321-.482.482-.482,1.124-.589,1.338-.963,2.354-.107.214-.161.428-.268.7a5.625,5.625,0,0,0,.7-.107,29.9,29.9,0,0,0,3.425-.7l.428,2.729a27.522,27.522,0,0,1-3.692.7c-.589.054-1.231.161-1.819.214a81.6,81.6,0,0,1-6.475,13.164A7.113,7.113,0,0,0,92.9,89.024a51.563,51.563,0,0,0,6.154-11.4c-.535,0-1.819.107-2.194.107-.321,0-.428,0-2.14-.107V74.683a30.413,30.413,0,0,0,3.157.161c.375,0,1.017,0,2.14-.054l.107-.375a26.3,26.3,0,0,0,1.391-4.655l3.05.91m7.973,10.6a2.53,2.53,0,0,0-1.07,2.087,23.742,23.742,0,0,0,.428,3.425,15.941,15.941,0,0,1,.268,2.087,37.148,37.148,0,0,1,6.368,3.478,7.119,7.119,0,0,0-1.659,2.622,36.734,36.734,0,0,0-4.762-3.157,6.49,6.49,0,0,1-.482,2.3c-.7,1.552-2.194,2.194-4.977,2.194-3.585,0-6.047-1.873-6.047-4.548,0-2.515,2.14-4.227,5.244-4.227a11.612,11.612,0,0,1,3.1.428l-.375-2.3a15.074,15.074,0,0,1-.214-2.3,4.873,4.873,0,0,1,1.926-3.692l2.14,1.659Zm-3.211,9.471a9.456,9.456,0,0,0-3.157-.642c-1.552,0-2.515.642-2.515,1.659,0,1.231,1.177,1.926,3.211,1.926,1.712,0,2.461-.8,2.461-2.729v-.214ZM111.361,74.9a18.712,18.712,0,0,1,7.706,2.89l-1.445,2.676a20.162,20.162,0,0,0-7.277-2.89Z" transform="translate(404.215 303.574)" fill="#557ec0"/><path d="M110.067,72s.428.161.428.375-.107.268-.589.535c-.428,1.926-.535,2.408-1.07,4.441h2.194a6.3,6.3,0,0,1,3.264.7c1.552.856,2.087,2.087,2.087,4.976,0,5.4-.589,8.936-1.873,10.97-.91,1.445-2.515,2.194-4.709,2.194-.856,0-1.926-.054-2.462-.107a14.684,14.684,0,0,0-.268-3.211,14.933,14.933,0,0,0,2.515.268,2.585,2.585,0,0,0,2.408-1.124,12.08,12.08,0,0,0,1.231-5.137,26.248,26.248,0,0,0,.161-2.676c0-3.425-.375-4.013-2.354-4.013a12.725,12.725,0,0,0-2.622.161c-.375,1.284-1.231,3.96-1.98,5.94a47.191,47.191,0,0,1-4.762,9.792,9.05,9.05,0,0,0-2.622-1.605,36.941,36.941,0,0,0,4.441-8.722,46.958,46.958,0,0,0,1.712-5.03c-1.98.268-2.087.268-3.692.535-.856.161-.856.161-1.873.321l-.642-3.211c2.408-.161,5.083-.428,6.742-.589a40.417,40.417,0,0,0,1.231-6.1l3,.482m7.224,2.89c3.157,2.194,4.869,4.013,7.6,7.866L122.214,85a23.623,23.623,0,0,0-7.063-7.973l1.98-1.98Zm1.552-2.943a21.651,21.651,0,0,1,3.692,2.943l-1.5,1.605A18.751,18.751,0,0,0,117.4,73.6l1.284-1.552Zm2.3-2.515a19.3,19.3,0,0,1,3.692,2.943l-1.5,1.605a16.992,16.992,0,0,0-3.532-3.05l1.284-1.5Z" transform="translate(430.713 302.835)" fill="#557ec0"/><path d="M109.665,75.024c.321.107.482.214.482.428s-.268.428-.7.482a46.9,46.9,0,0,0-1.391,8.936,11.808,11.808,0,0,1,2.836-2.087,13.048,13.048,0,0,1,6.8-1.926,8.275,8.275,0,0,1,6.421,2.515,5.706,5.706,0,0,1,1.231,3.906,7.467,7.467,0,0,1-3.746,6.849c-2.836,1.605-5.4,2.033-11.933,2.194a19.266,19.266,0,0,0-.482-3.264c.91,0,1.659.054,2.087.054,6.849,0,10.809-2.087,10.809-5.726,0-2.3-1.766-3.8-4.6-3.8a12.551,12.551,0,0,0-9.471,5.083h-2.783v-.535c0-.482-.053-1.017-.053-1.284a55.242,55.242,0,0,1,.856-8.776c.268-1.766.375-2.408.482-3.853l3.211.8m.535-5.191a28.352,28.352,0,0,1,9.15,3.211l-1.552,2.783a27.541,27.541,0,0,0-8.776-3.318l1.177-2.729Z" transform="translate(457.602 303.661)" fill="#557ec0"/><path d="M112.461,73.21a40.5,40.5,0,0,1,5.779,6.635l-2.676,2.033a34.251,34.251,0,0,0-5.4-6.635l2.3-1.98" transform="translate(479.314 318.586)" fill="#557ec0"/><path d="M118.287,74.231a43.68,43.68,0,0,0-.107-4.441l2.943.214c.321,0,.482.107.482.268s-.161.375-.535.589v2.515h6.475V76.1c-.642,0-1.552-.054-2.3-.054H121.07v4.067c2.462-.482,4.816-1.07,6.956-1.712l.375,2.515c-2.14.7-7.277,1.926-12.254,2.943-.214.428-.428.589-.589.589s-.321-.161-.428-.375l-1.07-2.783c1.338-.161,2.783-.375,4.174-.642V74.285m3.318,22.635h-2.89c.053-.7.107-1.659.107-3.1v-6.8a17.42,17.42,0,0,0-.107-2.569h7.277a18.434,18.434,0,0,0,.856-2.836l3,.482s.428.161.428.375-.107.268-.642.428c-.375.749-.535,1.177-.749,1.552h8.936c-.054.535-.107,1.659-.107,2.569v6.8a22.553,22.553,0,0,0,.107,3.05h-2.89v-.91H121.5v.963Zm13.378-9.9H121.552v2.033h13.378Zm0,4.441H121.552V93.5h13.378Zm-2.515-17.177a21.356,21.356,0,0,0,5.351-3.425l2.354,1.605s.321.268.321.428c0,.268-.268.375-1.07.375a39.3,39.3,0,0,1-6.956,3.585V78.78c0,1.017.375,1.231,1.98,1.231,4.388,0,4.441,0,4.495-3.425.963.268,1.98.589,2.783.749-.107,3.318-.428,4.12-1.712,4.816-.856.428-1.873.535-5.244.535-2.515,0-3.478-.161-4.12-.642-.7-.482-.963-1.338-.963-2.836V74.285a43.7,43.7,0,0,0-.107-4.441l2.943.214c.321,0,.482.107.482.268s-.161.375-.535.589v3.371Z" transform="translate(496.283 303.705)" fill="#557ec0"/><path d="M130.339,69.81s.428.161.428.428c0,.161-.107.268-.321.482.535,1.231.8,2.033,1.873,4.334a51.328,51.328,0,0,0,7.277-1.445l.856,2.729c-2.462.589-3.264.7-6.9,1.284a36.852,36.852,0,0,0,5.191,7.224l-2.033,1.926a6.184,6.184,0,0,0-3.532-1.017c-.589,0-1.017,0-1.712.054a9.537,9.537,0,0,0-.7-2.408,9.513,9.513,0,0,1,1.659-.107,6.839,6.839,0,0,1,1.391.107c-1.124-1.659-2.408-3.853-3.157-5.244a87.34,87.34,0,0,1-9.632.749l-.428-2.89c4.281-.107,6.047-.214,8.722-.482-.321-.642-.642-1.552-1.177-2.943-.428-1.124-.589-1.552-1.017-2.515l3.264-.268m-4.709,17.177c-1.284.856-1.873,1.659-1.873,2.729,0,2.247,3.264,3.425,9.793,3.425a25.819,25.819,0,0,0,4.174-.268c0,.589.16,1.659.321,3.1a38.709,38.709,0,0,1-4.548.161c-8.669,0-12.736-1.926-12.736-6.047a5.567,5.567,0,0,1,.963-3.05,6.758,6.758,0,0,1,2.569-2.14l1.338,2.14Z" transform="translate(524.74 303.792)" fill="#557ec0"/><path d="M126.234,73.9a40.024,40.024,0,0,0,5.619.268c.268,0,1.5,0,3.639-.107a25.2,25.2,0,0,0-.268-4.281l3.318.268q.482,0,.482.321c0,.161-.107.321-.535.535,0,1.552,0,2.194-.053,3.05a54.982,54.982,0,0,0,7.117-.589l.375,2.783c-2.783.268-3.96.375-7.491.589v1.017c0,.8,0,1.552.053,2.943a51.663,51.663,0,0,0,6.1-.8l.7,2.783a61.536,61.536,0,0,1-6.742.91c.053,1.605.161,3.157.268,4.709a32.335,32.335,0,0,1,7.17,3.639,10.8,10.8,0,0,0-1.659,2.515,22.189,22.189,0,0,0-5.565-3.318,4.867,4.867,0,0,1-1.231,3.264c-1.124,1.284-2.622,1.819-5.03,1.819-3.906,0-6.314-1.659-6.314-4.388s2.194-4.495,5.993-4.495a30.319,30.319,0,0,1,3.639.321c0-.428-.054-.8-.054-1.017,0-.054-.053-1.017-.161-2.943-.7,0-1.177.054-1.552.054a9.355,9.355,0,0,1-5.458-1.338,6.685,6.685,0,0,1-1.391-1.391l2.087-1.766c1.124,1.284,2.247,1.659,4.87,1.659h1.391c0-1.177,0-1.5-.053-4.013-2.247.054-3.585.054-4.013.054a53.225,53.225,0,0,1-5.458-.214l.214-2.783m5.993,15.839c-1.98,0-3.1.7-3.1,1.926,0,1.124,1.231,1.873,3.157,1.873a4.26,4.26,0,0,0,2.729-.749,2.253,2.253,0,0,0,.8-1.819v-.7a16.431,16.431,0,0,0-3.639-.482Z" transform="translate(548.322 303.661)" fill="#557ec0"/><path d="M150.42,77.381a1.372,1.372,0,0,1,.214.482c0,.214-.214.268-.91.321-12.093,6.047-15.036,8.134-15.036,10.916,0,1.926,1.926,2.729,6.528,2.729a43.465,43.465,0,0,0,10.006-1.07,12.373,12.373,0,0,0-.107,1.819v1.5a56.1,56.1,0,0,1-9.953.856c-3.746,0-6.1-.482-7.6-1.5a4.973,4.973,0,0,1-2.194-4.281c0-2.783,1.5-4.655,5.993-7.6a2.644,2.644,0,0,0-.214-.482c-.7-1.873-.856-2.622-1.391-7.92a18.077,18.077,0,0,0-.482-3.1h3.478s.482.161.482.375-.107.375-.375.589c0,4.441.268,6.635,1.124,8.99l4.87-2.783q.883-.482,3.692-2.247l1.819,2.462" transform="translate(571.6 304.836)" fill="#557ec0"/><path d="M155.766,77.381a1.372,1.372,0,0,1,.214.482c0,.214-.214.268-.91.321-12.093,6.047-15.037,8.134-15.037,10.916,0,1.926,1.926,2.729,6.528,2.729a43.465,43.465,0,0,0,10.007-1.07,12.366,12.366,0,0,0-.107,1.819c0,.482,0,.8.053,1.5a56.1,56.1,0,0,1-9.953.856c-3.746,0-6.1-.482-7.6-1.5a4.973,4.973,0,0,1-2.194-4.281c0-2.783,1.5-4.655,5.993-7.6a2.641,2.641,0,0,0-.214-.482c-.7-1.873-.856-2.622-1.391-7.92a18.068,18.068,0,0,0-.482-3.1h3.478a.432.432,0,0,1,.482.375c0,.214-.107.375-.375.589,0,4.441.268,6.635,1.124,8.99l4.87-2.783q.883-.482,3.692-2.247l1.819,2.462" transform="translate(595.096 304.836)" fill="#557ec0"/><path d="M157.194,84.151a24.281,24.281,0,0,1-7.063,1.659,27.464,27.464,0,0,0-.375,3.532c0,2.569,1.659,3.8,4.976,3.8s5.458-1.712,5.458-4.6a7.285,7.285,0,0,0-.856-3.318,6.768,6.768,0,0,0,2.943-.642,9.823,9.823,0,0,1,.963,4.281c0,4.548-3.318,7.331-8.776,7.331-3.05,0-5.244-.8-6.635-2.461a6.171,6.171,0,0,1-1.231-4.174,20.592,20.592,0,0,1,.428-3.692c-2.783-.054-4.281-1.124-5.137-3.8l2.3-1.017c.482,1.445,1.231,1.926,3.264,1.926.053-.428.161-.8.214-1.445.161-1.07.214-1.177.375-2.033.107-.589.107-.7.214-1.445a19.04,19.04,0,0,1-5.619-1.07l.7-2.729a22.458,22.458,0,0,0,5.458,1.017,36.435,36.435,0,0,0,.7-5.458l3.1.589c.375.054.482.161.482.321s-.161.375-.482.535c-.214,1.338-.642,2.676-.8,4.013a19.586,19.586,0,0,0,4.976-.7l.7,2.622a19.012,19.012,0,0,1-6.1.91c-.161.749-.535,2.783-.91,4.816a19.12,19.12,0,0,0,5.565-1.5l1.124,2.729" transform="translate(617.374 303.792)" fill="#557ec0"/><path d="M151.587,70.628a.472.472,0,0,1,.482.428c0,.268-.16.375-.642.589a73.474,73.474,0,0,0-.963,11.451,27.623,27.623,0,0,0,1.231,9.2,18.2,18.2,0,0,0-3.264.91,34.377,34.377,0,0,1-1.07-8.936,103.29,103.29,0,0,1,.749-11.772,19.975,19.975,0,0,0,.16-2.3l3.318.482m6.261,13.378c0,4.441,1.017,5.191,7.277,5.191a47.446,47.446,0,0,0,5.886-.482,11.167,11.167,0,0,0-.428,3.264,52.959,52.959,0,0,1-5.993.375c-4.762,0-7.117-.642-8.348-2.247a7.135,7.135,0,0,1-1.284-4.281V84.22h2.836Zm-1.124-11.077c1.819.161,3,.161,5.512.161a48.319,48.319,0,0,0,7.063-.482l.107,3a62.883,62.883,0,0,1-7.331.428c-1.98,0-3.906-.054-5.512-.107l.107-3Z" transform="translate(641.174 305.489)" fill="#557ec0"/><path d="M174.268,85.322H177.8v2.836c-.91-.054-2.569-.107-3.532-.107h-6.047v5.565a25.009,25.009,0,0,0,3.05.161c2.943,0,7.063-.107,9.311-.268a9.233,9.233,0,0,0-.589,2.89c-4.816.107-5.726.107-7.6.107a34.1,34.1,0,0,1-4.923-.214,9.4,9.4,0,0,1-7.117-4.709c-.161-.268-.321-.535-.428-.749a10.629,10.629,0,0,1-.589,1.07,16.606,16.606,0,0,1-4.709,5.244,9.672,9.672,0,0,0-1.819-2.194c3.906-3.1,5.3-5.672,6.421-11.665l2.569.7c.428.107.535.214.535.482s-.161.321-.7.428c-.214,1.124-.482,2.14-.749,3.05a10.112,10.112,0,0,0,2.3,3.371,8.161,8.161,0,0,0,2.14,1.5V84.84c0-1.338,0-1.659-.053-2.676h-6.261c-1.605,0-4.281.054-5.833.107V79.328c1.5.054,4.174.107,5.833.107h6.314V76.118h-5.619c-1.552,0-3.478.054-4.709.107v-2.89c1.231.054,3.157.107,4.709.107h5.619v-.963c0-1.338,0-1.712-.053-2.729l2.89.161c.375,0,.535.107.535.321,0,.161-.161.375-.535.589v2.622h5.726c1.338,0,3.425,0,4.709-.107v2.89c-1.284,0-3.318-.107-4.709-.107h-5.726v3.318h6.314c1.873,0,4.388-.054,5.833-.107v2.943c-1.552-.107-4.067-.107-5.833-.107h-8.348l2.033.214c.321,0,.482.161.482.375s-.161.321-.535.535v2.14h6.047" transform="translate(664.888 303.531)" fill="#557ec0"/><path d="M163.62,70.555s.375.161.375.375-.161.375-.642.482a31.191,31.191,0,0,0-.749,7.331,20.366,20.366,0,0,0,1.017,7.01l-3.1.963a23.128,23.128,0,0,1-1.017-7.6,51.427,51.427,0,0,1,.642-8.241c.053-.268.053-.482.107-.856l3.425.589m11.5-.428s.482.161.482.375c0,.268-.161.428-.589.642.268,2.89.482,6.8.482,8.883,0,6.475-1.231,9.846-4.548,12.307a24.64,24.64,0,0,1-7.224,3.371,9.771,9.771,0,0,0-1.605-3c3.532-.963,5.351-1.819,6.956-3.157,2.354-2.033,3.157-4.441,3.157-9.9,0-2.087-.214-5.565-.428-7.866a15.3,15.3,0,0,1-.161-1.712l3.585.107Z" transform="translate(693.996 304.706)" fill="#557ec0"/><path d="M167.482,86.572s.375.161.375.321c0,.214-.268.375-.428.482a30.492,30.492,0,0,1-1.124,7.6,12.521,12.521,0,0,0-2.354-1.017,23.131,23.131,0,0,0,1.07-7.438v-.428l2.515.428m5.4-1.338c-.161-.589-.268-1.017-.428-1.5-.482.107-1.017.161-1.5.268v6.9c0,2.729,0,4.762.107,6.047h-3.05c.107-1.284.107-3.318.107-6.047V84.325c-.8.107-1.605.214-2.354.321-.268.268-.375.428-.535.428s-.321-.161-.375-.428l-.749-2.783h2.087c.589-.856,1.177-1.659,1.712-2.515a28.076,28.076,0,0,0-3.8-3.1l1.284-2.087a8.71,8.71,0,0,0,.91.589,30.9,30.9,0,0,0,2.247-4.923l2.354.963s.268.268.268.375c0,.161-.214.321-.589.428a37.343,37.343,0,0,1-2.408,4.495c.428.321.8.589,1.231.963a29.137,29.137,0,0,0,2.033-4.12L174.01,74.1s.321.268.321.428c0,.214-.214.321-.642.428A55.061,55.061,0,0,1,169.3,81.7c.856,0,1.712-.107,2.568-.161a10.282,10.282,0,0,0-.749-1.552l1.926-1.017a23.71,23.71,0,0,1,2.3,5.244l-2.354.963Zm.642.642a21.225,21.225,0,0,1,2.194,5.993l-2.569,1.07a26.507,26.507,0,0,0-1.712-6.1l2.14-.963Zm8.348-1.284c.428,0,.7.161.7.375,0,.161-.161.321-.589.589-.214,4.762-.642,6.261-2.247,8.134-1.338,1.552-2.676,2.408-5.458,3.425a12.243,12.243,0,0,0-1.5-2.3c2.569-1.017,3.746-1.712,4.816-3,1.124-1.338,1.605-3,1.605-5.565,0-.642,0-1.124-.053-1.873l2.783.214Zm2.408-7.6h2.89c.856,0,2.087,0,2.943-.054v2.729c-.856,0-2.087-.054-2.943-.054h-8.241c-.856,0-2.087,0-2.943.054V76.887c.856,0,2.087.054,2.943.054h2.568V75.282h-3.318c-.963,0-2.622,0-3.532.054V72.553c.856.054,2.408.107,3.532.107h3.318V72.5c0-1.338,0-1.659-.053-2.729l2.889.161c.321,0,.535.161.535.268,0,.161-.161.375-.589.589v1.819h3.853c1.124,0,2.622,0,3.532-.107v2.783c-.91,0-2.568-.054-3.532-.054h-3.853v1.659Zm2.943,3.906c1.284,0,1.712,0,3.639-.107v4.976h-2.836v-2.3H178.13v2.3h-2.836V80.793c1.231.054,2.729.107,3.906.107h8.08Zm-1.07,11.879c0,1.07.321,1.231,1.926,1.231,1.391,0,1.552-.321,1.552-3.746.749.268,1.124.428,2.622.856-.161,5.137-.482,5.512-4.816,5.512-3.318,0-4.12-.428-4.12-2.3V84.432l2.836.214c.375,0,.535.107.535.268s-.161.321-.535.589v7.17Z" transform="translate(713.359 303.618)" fill="#557ec0"/><path d="M174.952,70.7c.268.054.482.214.482.428s-.161.375-.7.589A54.63,54.63,0,0,0,173.4,83.057a58.8,58.8,0,0,0,.856,10.221,11.975,11.975,0,0,0-3.1.856,60.465,60.465,0,0,1-.8-10.221,62.759,62.759,0,0,1,1.07-11.4c.16-.91.214-1.712.321-2.461l3.211.589m12.093,8.669c-2.033.107-3.371.161-4.976.161-.8,0-2.569,0-3.906-.054V76.261a29.247,29.247,0,0,0,4.869.161c1.07,0,2.408-.054,3.96-.161,0-.8-.053-1.284-.107-4.12a15.442,15.442,0,0,0-.107-2.14l3.264.161c.321,0,.535.161.535.428s-.107.375-.642.642V76.1a34.864,34.864,0,0,0,5.244-.7l.375,3.1a42.692,42.692,0,0,1-5.565.7,55.006,55.006,0,0,1-.482,8.187,11.288,11.288,0,0,1-3.639,6.368,18.12,18.12,0,0,1-3,2.087A7,7,0,0,0,181,93.17a14.677,14.677,0,0,0,3.318-2.3c1.98-2.033,2.676-4.655,2.676-10.756v-.7Z" transform="translate(741.205 304.619)" fill="#557ec0"/><path d="M176.688,73.9a40.024,40.024,0,0,0,5.619.268c.268,0,1.5,0,3.639-.107a25.187,25.187,0,0,0-.268-4.281l3.318.268q.482,0,.482.321c0,.161-.107.321-.535.535,0,1.552,0,2.194-.054,3.05A54.984,54.984,0,0,0,196,73.365l.375,2.783c-2.783.268-3.96.375-7.491.589v1.017c0,.8,0,1.552.053,2.943a51.661,51.661,0,0,0,6.1-.8l.7,2.783a61.535,61.535,0,0,1-6.742.91c.053,1.605.161,3.157.214,4.709a32.335,32.335,0,0,1,7.17,3.639,10.8,10.8,0,0,0-1.659,2.515,22.188,22.188,0,0,0-5.565-3.318,4.867,4.867,0,0,1-1.231,3.264c-1.124,1.284-2.622,1.819-5.03,1.819-3.906,0-6.314-1.659-6.314-4.388s2.194-4.495,5.993-4.495a30.317,30.317,0,0,1,3.639.321c0-.428-.054-.8-.054-1.017,0-.054-.053-1.017-.161-2.943-.7,0-1.124.054-1.552.054a9.355,9.355,0,0,1-5.458-1.338,6.688,6.688,0,0,1-1.391-1.391l2.087-1.766c1.124,1.284,2.247,1.659,4.869,1.659h1.391c0-1.177,0-1.5-.053-4.013-2.248.054-3.585.054-4.013.054a53.224,53.224,0,0,1-5.458-.214l.214-2.783m5.993,15.839c-1.98,0-3.1.7-3.1,1.926,0,1.124,1.231,1.873,3.157,1.873a4.26,4.26,0,0,0,2.729-.749,2.253,2.253,0,0,0,.8-1.819v-.7a16.431,16.431,0,0,0-3.639-.482Z" transform="translate(767.616 303.661)" fill="#557ec0"/><path d="M197.914,69.844c.375,0,.589.161.589.375s-.107.375-.482.642c0,1.338,0,2.033-.053,3.639,3.532-.107,6.742-.268,8.936-.482l.107,3.05h-3.318c-.8,0-2.676.054-5.672.161V82.9a11.981,11.981,0,0,1,.428,3.157,10.115,10.115,0,0,1-3.211,7.813,18.944,18.944,0,0,1-6.047,3.157,10.464,10.464,0,0,0-1.5-3,21.85,21.85,0,0,0,4.067-1.5,6.712,6.712,0,0,0,3.211-3.1,3.953,3.953,0,0,1-2.408.7c-3.05,0-5.351-2.676-5.351-6.154,0-2.729,1.766-4.709,4.227-4.709a5.882,5.882,0,0,1,3.425,1.07V77.389c-1.552.054-2.3.107-4.441.161-4.12.161-4.281.161-8.669.375l-.214-3.1c1.659,0,2.515.054,3.8.054,3.264,0,6.047-.054,9.525-.214,0-2.729,0-3.853-.107-4.87l3.211.161m-4.923,17.5a2.121,2.121,0,0,0,2.194-2.247,3.534,3.534,0,0,0-3.318-3.371,1.843,1.843,0,0,0-1.766,2.087c0,1.926,1.338,3.532,2.943,3.532Z" transform="translate(789.894 303.705)" fill="#557ec0"/><path d="M195.51,77.645a4.495,4.495,0,1,1-4.495-4.495,4.454,4.454,0,0,1,4.495,4.495m-6.849,0a2.355,2.355,0,1,0,4.709,0,2.341,2.341,0,0,0-2.354-2.354A2.375,2.375,0,0,0,188.66,77.645Z" transform="translate(811.562 318.325)" fill="#557ec0"/><path d="M194.362,61.208v35.21H182.215V61.208H176.65V51.041h5.565V40.66h12.147V51.041h5.565V61.208h-5.565" transform="translate(768.617 176.958)" fill="#557ec0"/><path d="M182.04,40.66h12.147V66.345a13.078,13.078,0,0,1,5.03-4.067,15.8,15.8,0,0,1,5.993-1.017c4.334,0,7.6,1.177,9.846,3.585,2.194,2.408,3.318,5.619,3.318,9.685V96.418H206.227V79.027a18.119,18.119,0,0,0-.375-4.227,4.766,4.766,0,0,0-1.338-2.461,5.559,5.559,0,0,0-3.906-1.391,5.911,5.911,0,0,0-4.762,1.873,7.58,7.58,0,0,0-1.659,5.3V96.525H182.04V40.767" transform="translate(792.069 176.958)" fill="#557ec0"/><path d="M192.447,86.193h1.445L174.039,47.772a33.573,33.573,0,0,1-5.512-4.762L167.35,81.27a65.207,65.207,0,0,0,25.1,4.976" transform="translate(728.152 187.183)" fill="#f0e900"/><path d="M168.61,43.89l19.853,38.421a64.417,64.417,0,0,0,16.16-2.354v-17.5L186.7,49.509A32.737,32.737,0,0,1,168.61,43.89" transform="translate(733.634 191.012)" fill="#abcd03"/><path d="M172.258,49.117h-.268l17.926,12.95V43.98a32.559,32.559,0,0,1-17.659,5.191" transform="translate(748.341 191.404)" fill="#e4007f"/><path d="M203.448,31.34,176.8,50.55a32.86,32.86,0,0,1,7.384,20.762H217.04A65.415,65.415,0,0,0,203.448,31.34" transform="translate(769.27 136.406)" fill="#557ec0"/><path d="M186.525,26.79,171.81,58.308c.428,0,.856-.054,1.284-.054a32.629,32.629,0,0,1,25.418,12.093l26.648-19.21a65.91,65.91,0,0,0-38.635-24.294" transform="translate(747.558 116.609)" fill="#1f286f"/><path d="M189.009,26.584a66.948,66.948,0,0,0-17.444,2.354L168.14,66.877a32.526,32.526,0,0,1,19.638-7.438l14.715-31.518a65.351,65.351,0,0,0-13.431-1.391" transform="translate(731.589 115.477)" fill="#e4007f"/><path d="M187.274,78.013a34.415,34.415,0,0,1,.963-7.866L175.555,29.8A65.88,65.88,0,0,0,161,49.438l26.755,33.872a34.2,34.2,0,0,1-.482-5.3" transform="translate(700.523 129.706)" fill="#1f286f"/><path d="M192.455,67.332,165.7,33.46a66.4,66.4,0,0,0-5.779,18.568l34.193,21.458a29.729,29.729,0,0,1-1.605-6.154" transform="translate(695.824 145.63)" fill="#abcd03"/><path d="M194.713,58.388,160.519,36.93a68.827,68.827,0,0,0-.749,10.007,70.447,70.447,0,0,0,.856,10.7l35.638,4.281a35.435,35.435,0,0,1-1.605-3.532" transform="translate(695.171 160.729)" fill="#f0e900"/><path d="M195.578,45.081,159.94,40.8a64.359,64.359,0,0,0,8.4,22.956l28.521-16.374c-.428-.749-.856-1.5-1.231-2.3" transform="translate(695.911 177.567)" fill="#e4007f"/><path d="M163.72,42.017,176.4,82.364a32.658,32.658,0,0,1,10.97-17.444L190.8,26.98A65.649,65.649,0,0,0,163.72,42.07" transform="translate(712.358 117.435)" fill="#f0e900"/><path d="M185.506,45.524a35.924,35.924,0,0,1-2.569-3.1c-2.354,3.371-17.338,24.561-19.478,27.5a65.865,65.865,0,0,0,20.869,13.859l1.177-38.26" transform="translate(711.227 184.616)" fill="#1f286f"/><path d="M190.021,42.03,161.5,58.4a65.654,65.654,0,0,0,10.435,13.217c2.194-2.943,17.123-24.187,19.478-27.5-.482-.7-1.017-1.391-1.445-2.087" transform="translate(702.698 182.919)" fill="#557ec0"/><path d="M250.851,65.472a52.542,52.542,0,1,0-57.685,57.952L143.99,192.185h32.588L219.44,132.2c-.161-1.873-.214-3.746-.214-5.672A74.778,74.778,0,0,1,250.8,65.472M198.678,97.418a26.274,26.274,0,1,1,26.274-26.274A26.286,26.286,0,0,1,198.678,97.418Z" transform="translate(626.511 81.191)" fill="#557ec0"/><path d="M130.716,18.693c-27.076,0-49.069,17.07-58.541,40.775H.15v132.76H39.373V97.408H80.1v94.821h39.384V107.575a17.324,17.324,0,0,0-4.441-11.826,22.526,22.526,0,1,1,38.9-15.465,21.7,21.7,0,0,1-6.261,15.251c-10.916,10.863,4.709,15.411,4.709,30.18v66.514h40.187V80.338c0-35.21-27.4-61.7-61.8-61.7" transform="translate(0.653 81.148)" fill="#557ec0"/><path d="M58.83,62.978v96.212H77.666V63.246c0-11.879,5.458-18.14,18.461-18.14V26.27c-23.384,0-37.3,15.625-37.3,36.655" transform="translate(255.974 114.346)" fill="#557ec0"/><path d="M103.26,124.462c0,10.542-11.719,17.873-22.421,17.873s-22.421-7.277-22.421-17.873V26.27H39.85v96.961c0,20.655,16.642,38.26,40.936,38.26s40.989-17.605,40.989-38.26V26.27H103.207v98.192" transform="translate(173.39 114.346)" fill="#557ec0"/><path d="M125.005,26.314H83.535V45.256h43.344c7.492,0,15.625,8.241,15.625,17.552V78.219h-38.8c-21.725,0-37.618,17.659-37.618,34.675v10.381c0,19.745,15.465,35.852,35.21,35.852h25.1c21.244,0,35.21-18.782,35.21-38.207V63.664c0-20.869-16.642-37.4-36.548-37.4m1.284,113.924H101.675c-9.311,0-16.107-6.849-16.107-16.16V112.947c0-9.311,8.241-16,17.552-16H142.5v26.006c0,9.311-6.9,17.284-16.214,17.284" transform="translate(287.562 114.303)" fill="#557ec0"/><path d="M106.442,21.17H87.82V181.328h18.622L106.388,66.28h24.775V48.407H106.388l.054-27.237" transform="translate(382.111 92.156)" fill="#557ec0"/><path d="M152.882,140.194a16.357,16.357,0,0,1-16.7-16.428V61.908a16.581,16.581,0,0,1,16.7-16.7h40.24V26.27h-37.4c-23.866,0-38.528,19.05-38.528,40.294v52.119c0,24.508,14.822,40.508,40.187,40.508h35.745v-19.05H152.828" transform="translate(509.902 114.346)" fill="#557ec0"/><path d="M156.217,26.26H131.6c-16,0-34.782,16.214-34.782,37.3v59.022c0,19.745,16.642,36.655,36.548,36.655H181.1v-19.05H133.368c-7.492,0-17.712-8.829-17.712-18.14V103.315H156c20.762,0,35.371-16.107,35.371-33.123V60.881c0-19.745-15.411-34.568-35.21-34.568m16.749,41.364V69.5c0,9.311-8.4,15.572-17.712,15.572H115.709V63.718c0-9.311,9.1-18.461,18.408-18.461h22.689c9.311,0,16.107,5.3,16.107,14.608v7.813" transform="translate(421.271 114.303)" fill="#557ec0"/></g></g></svg>