<svg xmlns="http://www.w3.org/2000/svg" width="740" height="102" viewBox="0 0 740 102"><g transform="translate(57 -7562)"><rect width="740" height="102" transform="translate(-57 7562)" fill="none"/><g transform="translate(10.928 -55.321)"><path d="M16.385-16.093q1.223.612,3.441,1.873.421.229.421.535a.874.874,0,0,1-.191.5,12.1,12.1,0,0,0-2.1,6.117q0,9.559,20.035,9.559A96.271,96.271,0,0,0,60.469.195a2.091,2.091,0,0,1,.459-.076q.459,0,.612.612a29.485,29.485,0,0,1,.726,4.091v.191q0,.612-1.032.841A120.3,120.3,0,0,1,37.528,7.88q-12.5,0-18.7-4.091A11.959,11.959,0,0,1,13.173-6.84,16.515,16.515,0,0,1,16.385-16.093ZM18.564-45.3a91.468,91.468,0,0,0,19.576,1.8q9.214,0,17.32-.688h.268a.769.769,0,0,1,.841.726,23.947,23.947,0,0,1,.229,3.518,1.083,1.083,0,0,1-1.109,1.185Q46.743-37.5,35.426-29.857A2.034,2.034,0,0,1,34.2-29.4a1.883,1.883,0,0,1-.994-.306A8.955,8.955,0,0,0,30-31.272a103.636,103.636,0,0,1,13.5-7.838Q39.975-38.8,35-38.8A77.51,77.51,0,0,1,19.1-40.218q-.688-.115-.688-1.071Q18.411-42.627,18.564-45.3Zm101.625,3.632a100.644,100.644,0,0,1-4.206,20.226,62.17,62.17,0,0,1-6.117,13.994Q105.125.615,98.357.615q-5.009,0-8.335-5.238-3.1-4.932-3.1-12.541A26.663,26.663,0,0,1,89.6-28.672a28.992,28.992,0,0,1,6.423-8.794q9.291-8.679,23.476-8.679,13.879,0,21.488,7.914,6.462,6.729,6.462,17.32a24.592,24.592,0,0,1-6.92,17.741q-6.385,6.653-17.97,9.559a2.736,2.736,0,0,1-.688.115,1.552,1.552,0,0,1-1.338-.956,8.856,8.856,0,0,0-3.059-2.906Q130.053.157,136.324-6.687a21.676,21.676,0,0,0,5.582-15.179,18.8,18.8,0,0,0-6.653-14.95,20.149,20.149,0,0,0-13.573-4.856Zm-5.467.306a25.461,25.461,0,0,0-15.255,7.188Q91.934-26.76,91.934-17.24q0,6.27,2.371,9.711Q96.063-5,98.281-5q4.015,0,7.264-5.735a69.446,69.446,0,0,0,6.041-14.72A82.635,82.635,0,0,0,114.721-41.365ZM181.9,5.28q0,.65-.612.65H178.3q-.612,0-.612-.65V1.992h-8.832V8.415q0,.65-.612.65h-3.1q-.612,0-.612-.65l.153-26.917V-33.6l-.153-19.92a.541.541,0,0,1,.612-.612l5.812.191h4.7l5.62-.191a.541.541,0,0,1,.612.612l-.153,17.091v16.441Zm-4.206-7.264V-16.016h-8.832V-1.984Zm0-34.449V-49.968h-8.832v13.535Zm0,16.747v-13h-8.832v13ZM232.213-.034a.575.575,0,0,1-.65.65L224.222.463V2.795l.153,10.17q0,.65-.612.65H220.7q-.612,0-.612-.65l.153-10.17V.463H212.9L204.57.615a.575.575,0,0,1-.65-.65V-3.017q0-.612.65-.612l5.7.153V-17.66l-1.95.076q-.65,0-.65-.612v-2.982q0-.612.65-.612l7.112.153h4.817v-.306a44.565,44.565,0,0,0-.459-7.609,29.9,29.9,0,0,1,4.359.459q.765.229.765.65a5.8,5.8,0,0,1-.382,1.185,22,22,0,0,0-.306,5.162v.459l5.391-.153q.65,0,.65.612V-18.2q0,.612-.65.612l-1.644-.038q-1.682-.076-3.747-.115V-3.476l7.341-.153q.65,0,.65.612ZM220.246-3.476V-17.737h-6.079V-3.476ZM206.673-19.381a1.241,1.241,0,0,1-.535.879,4.729,4.729,0,0,0-1.185,2.485q-4.4,18.582-19.117,28.523a2.419,2.419,0,0,1-1.109.535q-.459,0-.994-.765a8.369,8.369,0,0,0-2.37-1.95A40.062,40.062,0,0,0,195.47-3.246,30.518,30.518,0,0,0,190.156-8.1q-.344-.229-.344-.382,0-.229.574-.841l.994-1.032q.535-.535.8-.535a.738.738,0,0,1,.382.115q2.485,1.835,4.856,3.938A49.754,49.754,0,0,0,201.358-18.5h-7.226a47.367,47.367,0,0,1-7.341,10.476q-.612.726-.956.726-.306,0-1.032-.726a7.092,7.092,0,0,0-2.1-1.491,38.309,38.309,0,0,0,10.514-16.517,19.457,19.457,0,0,0,.612-3.9A26.148,26.148,0,0,1,197.65-28.9q.956.306.956.841a1.6,1.6,0,0,1-.535.956,4.81,4.81,0,0,0-1.109,2.026l-1.109,2.906h5.812a1.845,1.845,0,0,0,1.071-.344,2.051,2.051,0,0,1,.8-.229q.65,0,2.026,1.568A3.031,3.031,0,0,1,206.673-19.381Zm24.508-6.653a.575.575,0,0,1-.65.65h-3.212q-.612,0-.612-.65v-6.882H189.926v6.882a.575.575,0,0,1-.65.65h-3.135q-.688,0-.688-.65l.153-6.117v-1.376l-.153-2.829q0-.612.688-.612l10.9.153h19.041a57.746,57.746,0,0,0,3.594-7.914,18.875,18.875,0,0,0,.994-3.976,30.082,30.082,0,0,1,4.168,1.071q.688.268.688.8a1.322,1.322,0,0,1-.612.918,4.673,4.673,0,0,0-1.032,1.644,58.624,58.624,0,0,1-3.518,7.456l10.208-.153a.541.541,0,0,1,.612.612l-.153,2.523v1.682Zm-3.288-26.611q0,.765-1.262.765a15.849,15.849,0,0,0-2.829.421,243.7,243.7,0,0,1-33.722,4.435q-.459.038-.726.038-.956,0-1.568-1.529a7.8,7.8,0,0,0-1.415-2.256,205.263,205.263,0,0,0,33.684-3.976,11.86,11.86,0,0,0,3.9-1.415,17.567,17.567,0,0,1,3.4,2.485A1.62,1.62,0,0,1,227.893-52.645ZM211.07-39.492a1.258,1.258,0,0,1,.076.382q0,.344-.726.574l-2.1.535a5.985,5.985,0,0,1-.841.153q-.382,0-.5-.574a32.361,32.361,0,0,0-2.676-7.264,1.023,1.023,0,0,1-.191-.5q0-.306.841-.574l1.873-.5a2.651,2.651,0,0,1,.612-.115q.344,0,.65.535A33.092,33.092,0,0,1,211.07-39.492Zm-13.344.153a1.819,1.819,0,0,1,.115.5q0,.306-.65.535l-2.1.688a2.7,2.7,0,0,1-.765.229q-.306,0-.5-.535A33.4,33.4,0,0,0,190.92-44.5a1.174,1.174,0,0,1-.153-.459q0-.344.8-.65l1.873-.612a1.834,1.834,0,0,1,.535-.115.747.747,0,0,1,.612.421A38.019,38.019,0,0,1,197.726-39.339ZM308.374,4.248q0,4.359-2.026,5.965a6.625,6.625,0,0,1-3.4,1.3,52.964,52.964,0,0,1-6.385.268,2.287,2.287,0,0,1-1.338-.229,3.579,3.579,0,0,1-.459-1.262,13.3,13.3,0,0,0-1.415-3.441,54.288,54.288,0,0,0,6.041.306q2.715,0,3.479-.8a4.658,4.658,0,0,0,.65-2.944V-30.354H289.257l-8.45.153q-.688,0-.688-.612l.153-6.729v-9.406l-.153-6.729q0-.612.688-.612l8.45.153H299.2l8.488-.153a.541.541,0,0,1,.612.612l-.153,11.2V-6.917ZM303.518-34.1v-6.347H284.745V-34.1Zm0-10.094v-6.117H284.745v6.117Zm-30.74,13.382a.541.541,0,0,1-.612.612l-7.838-.153H250.449V-4.126l.153,16.288a.541.541,0,0,1-.612.612h-3.709a.541.541,0,0,1-.612-.612l.153-16.288V-37.236l-.153-16.441a.541.541,0,0,1,.612-.612l8.87.153h9.176l7.838-.153a.541.541,0,0,1,.612.612l-.153,7.226V-38ZM268.152-34.1v-6.347h-17.7V-34.1Zm0-10.094v-6.117h-17.7v6.117Zm21.793,49.59q0,.612-.65.612h-3.212a.541.541,0,0,1-.612-.612V2.107h-17.7V6.159q0,.726-.612.726h-3.212q-.65,0-.65-.726L263.449-7.6v-6.576l-.153-9.1a.541.541,0,0,1,.612-.612l8.182.153h9.061l8.182-.153a.541.541,0,0,1,.612.612l-.153,7.914V-8.14ZM285.472-1.64V-9.172h-17.7V-1.64Zm0-11.2v-7.15h-17.7v7.15Zm66.449-42.478a23.506,23.506,0,0,1,5.85,1.721.955.955,0,0,1,.612.879,1.094,1.094,0,0,1-.459.841,9.031,9.031,0,0,0-1.415,2.218q-.879,1.873-2.638,5.926a136.411,136.411,0,0,0,16.517-2.6,3.223,3.223,0,0,1,.535-.076q.268,0,.421.421.459,3.173.459,3.441,0,.765-1.032.956-8.717,1.529-19.079,2.562A68.484,68.484,0,0,1,343.7-27.372l.076.191a16.474,16.474,0,0,1,9.788-3.4q8.909,0,9.864,9.176,7.264-3.25,12.2-5.62a21.876,21.876,0,0,0,5.965-4.015,15.785,15.785,0,0,1,3.823,4.55,1.863,1.863,0,0,1,.268.841q0,.765-1.032.956a20.852,20.852,0,0,0-4.32,1.262q-2.829,1.185-8.909,3.594-4.818,1.912-7.685,3.135V-3.552a.868.868,0,0,1-.841.956,17.781,17.781,0,0,1-3.4.306q-.688,0-.688-.956,0-7.264.076-11.279-12.847,6.423-12.847,13,0,3.632,3.747,5.2,3.212,1.3,9.635,1.3a147.305,147.305,0,0,0,18.658-1.529,1.046,1.046,0,0,1,.229-.038q.459,0,.65.574a20.633,20.633,0,0,1,.459,3.823q0,.918-.612,1.071a153.349,153.349,0,0,1-19.385,1.109q-18.085,0-18.085-11.2a13.53,13.53,0,0,1,4.359-9.788q4.053-4.091,12.961-8.45-.115-4.282-1.835-5.965a6.562,6.562,0,0,0-4.741-1.415q-5.62.115-12.847,6.347-2.332,2.218-7.456,7.647a.92.92,0,0,1-.65.421.746.746,0,0,1-.5-.268,19.655,19.655,0,0,1-2.753-3.059,1.489,1.489,0,0,1-.191-.535.939.939,0,0,1,.344-.574,84.008,84.008,0,0,0,18.161-21.755q-4.053.229-8.488.229-2.829,0-6.079-.115a.783.783,0,0,1-.841-.765,29.709,29.709,0,0,1-.459-3.9q4.091.191,8.335.191,4.894,0,9.826-.268a79.829,79.829,0,0,0,2.791-7.838,13.358,13.358,0,0,0,.65-3.709ZM457.1-25.46q-.076,1.3-.153,4.091-.076,2.676-.153,4.206a147.858,147.858,0,0,1-1.873,19.729q-.841,4.588-3.212,6.729-2.409,2.179-6.844,2.179-4.053,0-6.232-.229-1.224-.076-1.453-.344a3.548,3.548,0,0,1-.459-1.453,8.954,8.954,0,0,0-1.568-3.67,57.311,57.311,0,0,0,8.947.765,5.533,5.533,0,0,0,4.32-1.568,8.638,8.638,0,0,0,1.721-4.32,150.452,150.452,0,0,0,1.721-22.29H434.39Q432.784,2.221,410.838,12.43a4.878,4.878,0,0,1-1.109.382q-.421,0-1.185-1.185a8.5,8.5,0,0,0-2.485-2.562q21.64-8.488,23.4-30.7H425.94l-10.514.153a.541.541,0,0,1-.612-.612v-3.479a.541.541,0,0,1,.612-.612l10.514.153h19.805l10.667-.153Q457.1-26.187,457.1-25.46ZM431.867-52.415q0,.382-.612.879a4.521,4.521,0,0,0-1.415,1.721,77.83,77.83,0,0,1-11.394,17.4A82.2,82.2,0,0,1,405.179-20.6a3.153,3.153,0,0,1-1.185.688q-.421,0-1.071-1.032a8.964,8.964,0,0,0-2.753-2.562,63.154,63.154,0,0,0,15.714-13.573A58.844,58.844,0,0,0,424.6-50.848a18.892,18.892,0,0,0,1.262-4.626,27.648,27.648,0,0,1,4.97,1.873Q431.867-53.142,431.867-52.415Zm41.446,27.873a11.242,11.242,0,0,0-2.753,3.135q-.726,1.109-.918,1.109a3.231,3.231,0,0,1-1.109-.612,82.378,82.378,0,0,1-26.8-32.193,1.16,1.16,0,0,1-.115-.421q0-.191.841-.612L444.79-55.4a2.406,2.406,0,0,1,.841-.306q.229,0,.421.535a67.515,67.515,0,0,0,12.12,18.391A65.412,65.412,0,0,0,473.312-24.543ZM553.87,8.415a12.491,12.491,0,0,0-2.256,3.059q-.535,1.262-.956,1.262a4.332,4.332,0,0,1-1.185-.382A59.844,59.844,0,0,1,530.624-.264,67.5,67.5,0,0,1,508.83,12.889a3.2,3.2,0,0,1-1.147.306q-.459,0-1.185-1.185a11.907,11.907,0,0,0-2.371-2.562A61.259,61.259,0,0,0,527.565-3.7,60.712,60.712,0,0,1,517.051-24.16q-1.912.038-3.594.115-1.109.038-1.185.038a.541.541,0,0,1-.612-.612v-3.135a.541.541,0,0,1,.612-.612l9.788.153h5.964v-12.12H521.6l-10.476.153q-.65,0-.65-.612v-3.326q0-.612.65-.612l10.476.153h6.423v-4.168a36.8,36.8,0,0,0-.688-8.526,36.386,36.386,0,0,1,5.315.65q.956.115.956.612a3.793,3.793,0,0,1-.459,1.491q-.5.918-.5,5.773v4.168h8.3l10.514-.153a.541.541,0,0,1,.612.612v3.326a.541.541,0,0,1-.612.612l-10.514-.153h-8.3v12.12h9.176a3.807,3.807,0,0,0,1.568-.229,2.406,2.406,0,0,1,.841-.306q.612,0,2.026,1.338,1.491,1.453,1.491,2.1a1.35,1.35,0,0,1-.612.994,5.832,5.832,0,0,0-1.338,2.179A63.891,63.891,0,0,1,533.912-3.628,53.557,53.557,0,0,0,553.87,8.415ZM541.482-24.16H521.677a49.274,49.274,0,0,0,9.176,17.244A52.728,52.728,0,0,0,541.482-24.16ZM508.524-41.136a7.06,7.06,0,0,1-.382,1.185q-.382,1.071-.382,7.991v19l.153,10.9a.541.541,0,0,1-.612.612h-3.1a.541.541,0,0,1-.612-.612V-5.425h-14.95V1.839a.574.574,0,0,1-.65.65h-3.059q-.612,0-.612-.65l.153-11.967V-31.883a67.936,67.936,0,0,0-.535-10.438,36.272,36.272,0,0,1,4.626.5q.841.076.841.688,0,.076-.382,1.262-.382.994-.382,7.57V-9.517h5.391V-46.145a62.068,62.068,0,0,0-.612-10.591,28.119,28.119,0,0,1,4.779.574q.918.268.918.688a2.018,2.018,0,0,1-.191.688q-.191.535-.268.726-.382,1.185-.382,7.838v36.7h5.315V-31.96q0-8.067-.535-10.361a36.717,36.717,0,0,1,4.626.5Q508.524-41.71,508.524-41.136ZM626.9-42.818a.541.541,0,0,1-.612.612l-10.82-.153H597.379v9.367h11.05l11.05-.153q.612,0,.612.535l-.153,6.92v9.214l.153,6.92a.541.541,0,0,1-.612.612L608.428-9.1h-23.82l-10.973.153a.541.541,0,0,1-.612-.612l.153-6.92V-25.69l-.153-6.92q0-.535.612-.535l10.973.153h7.914v-14.8a64.526,64.526,0,0,0-.535-9.52,46.511,46.511,0,0,1,5.315.459q.956.115.956.612a4.3,4.3,0,0,1-.306,1.415q-.573,1.376-.573,6.347v1.644h18.085l10.82-.153a.541.541,0,0,1,.612.612ZM615.081-13.493V-28.6H578.032v15.1ZM629.037,9.371a.968.968,0,0,1,.153.459q0,.268-.879.726l-2.179.994a3.58,3.58,0,0,1-1.07.421q-.229,0-.421-.421a63.936,63.936,0,0,0-9.023-14.644.665.665,0,0,1-.191-.382q0-.268.918-.688l1.721-.879a2.106,2.106,0,0,1,.879-.306.923.923,0,0,1,.612.382A63.1,63.1,0,0,1,629.037,9.371Zm-52.8-11.508A46.718,46.718,0,0,1,567.4,11.895a.943.943,0,0,1-.726.459,2.232,2.232,0,0,1-.994-.459l-1.95-1.109q-.994-.574-.994-.879,0-.153.268-.382A39.981,39.981,0,0,0,572.03-3.781q.191-.574.612-.574a2.606,2.606,0,0,1,.956.268l1.873.765q.879.382.879.765A1.161,1.161,0,0,1,576.235-2.137ZM608.964,9.906a1.646,1.646,0,0,1,.076.421q0,.382-.841.612l-2.447.535a4.661,4.661,0,0,1-.994.229q-.344,0-.5-.535a55.976,55.976,0,0,0-4.55-13.535,1.488,1.488,0,0,1-.115-.421q0-.306.918-.612l2.256-.688a1.64,1.64,0,0,1,.421-.076q.42,0,.688.612A57.7,57.7,0,0,1,608.964,9.906Zm-17.282.574v.229q0,.612-.956.688l-2.562.229a6.291,6.291,0,0,1-.726.076q-.535,0-.535-.612A71.942,71.942,0,0,0,584.57-2.6a1.208,1.208,0,0,1-.076-.344q0-.382.994-.535l2.256-.229a4.181,4.181,0,0,1,.5-.038q.535,0,.688.65A79.992,79.992,0,0,1,591.682,10.48Zm61.4-60.83a23.772,23.772,0,0,1,5.123,2.1q1.109.65,1.109,1.262a2.452,2.452,0,0,1-.535,1.338,11.934,11.934,0,0,0-1.568,4.129,119.366,119.366,0,0,0-3.67,27.031,63.41,63.41,0,0,0,1.185,13.458q.574-1.338,2.906-6.653,1.644-3.594,2.868-6.576a35.019,35.019,0,0,0,1.873,3.135,1.067,1.067,0,0,1,.421.765,3.21,3.21,0,0,1-.382,1.262q-3.326,7.647-5.047,12.426a4.616,4.616,0,0,0-.306,1.95L657.213,7a.651.651,0,0,1-.535.726,19.55,19.55,0,0,1-3.518.765q-.612,0-.879-.765a49.024,49.024,0,0,1-2.715-11.279,84.6,84.6,0,0,1-.8-11.432q0-10.361,3.212-26.687A51.76,51.76,0,0,0,653.084-50.35Zm17.129,39.687,4.244-.306a.156.156,0,0,1,.115-.038q.421,0,.421.8.344,8.6,14.261,8.6a121.546,121.546,0,0,0,15.408-1.071,2.347,2.347,0,0,1,.306-.038q.5,0,.573.8.229,2.791.229,3.67,0,.574-.153.688a1.928,1.928,0,0,1-.879.268,123.793,123.793,0,0,1-13.994.841A38.824,38.824,0,0,1,679.58,2.3a13.26,13.26,0,0,1-6.079-3.67Q670.328-4.546,670.213-10.664Zm2.753-25.158q0-3.365.076-4.282a1.031,1.031,0,0,1,.918-1.109,106.205,106.205,0,0,1,16.594-1.415q7.609,0,11.126.382,1.185.115,1.185.8,0,2.485-.076,3.67,0,.726-.573.726h-.306q-3.785-.421-12.579-.421A96.782,96.782,0,0,0,672.966-35.822Z" transform="translate(-69.393 7687.639)" fill="#5168af"/><path d="M224.37,19.36H216.2l-.612-5.757.111-7.4h-2.192l-12.545.231A49.278,49.278,0,0,1,189.3,17.377a6.973,6.973,0,0,1-3.967,1.41,6.246,6.246,0,0,1-5.178-2.943c.011.043-.3-.208-.666-.414L174.573,12.7v1.461l-5.718.65h-8.2l-.612-5.757.153-26.946V-32.965L160-57.992l5.758-.612,5.98.194,4.535,0L187-58.78l.365,3.52a200.3,200.3,0,0,0,32.245-3.846,7.019,7.019,0,0,0,2.293-.778l2.6-1.584,2.629,1.53a22.378,22.378,0,0,1,4.392,3.235,6.748,6.748,0,0,1,2.085,4.7,5.752,5.752,0,0,1-2.528,4.791l.157,1.021a6.131,6.131,0,0,1-2.39,4.792l7.437-.111.612,5.8-.162,2.832.009,1.373.282,11.224-1.047.116v7.722l-5.757.612-.284-.006v3.794l7.341-.153.65,5.826V5.711l-5.757.65-2.191-.045.187,12.395ZM187.565-1.667l.011,1.773q.977-1.033,1.859-2.139-.134-.116-.269-.228A5.7,5.7,0,0,1,187.565-1.667Zm21.359-24.591,6.682.143c-.03-.385-.064-.736-.1-1.055H204.85a6.354,6.354,0,0,1,2.738,1.055ZM508.29,18.94c-2.2,0-4.065-1.219-5.539-3.623a6.821,6.821,0,0,0-1.22-1.254l-7.411-5.97,9.072-2.875q1.382-.438,2.717-.922h-6.2L499.279.32h-4.922V7.584l-5.757.65h-8.165l-.612-5.757.153-12.033V-22.043l-3.009,2.237A6.223,6.223,0,0,0,475.5-18.07c-.846,1.294-2.3,3.516-5.253,3.516a6.915,6.915,0,0,1-4.025-1.527q-1.857-1.335-3.628-2.745L462.5-16.27a153,153,0,0,1-1.931,20.28c-.785,4.291-2.4,7.521-4.831,9.713-2.563,2.319-6.018,3.5-10.267,3.5-2.934,0-5.189-.091-6.767-.258a6.642,6.642,0,0,1-4.8-2.1,7.27,7.27,0,0,1-1.6-3.836,3.94,3.94,0,0,0-.608-1.513L429.33,6.406A48.2,48.2,0,0,1,413.6,17.7a8.161,8.161,0,0,1-3.263.859c-3.2,0-4.914-2.652-5.476-3.523a3.518,3.518,0,0,0-1.051-1.1L395.752,8.5,404.8,4.95C415.454.771,421.819-6.064,424.124-15.856l-13.2.192-.172-1.632q-.968.737-1.969,1.463a6.834,6.834,0,0,1-4.184,1.661c-2.15,0-3.964-1.15-5.392-3.418a3.84,3.84,0,0,0-.977-.856l-7.311-4.2a6.236,6.236,0,0,1-4.734,3.613,16.125,16.125,0,0,0-3.367.987c-1.816.762-4.817,1.973-8.911,3.6q-2.495.99-4.46,1.793v9.747A6.18,6.18,0,0,1,368.7.069Q372.917-.3,378-.978h3.681L384.4,3a26.163,26.163,0,0,1,.721,5.438,5.949,5.949,0,0,1-4.479,6.025,154.4,154.4,0,0,1-20.624,1.261c-20.178,0-23.191-10.218-23.191-16.309a18.518,18.518,0,0,1,5.854-13.4,44.141,44.141,0,0,1,9.865-7.1c-1.82.128-4.814,1.157-9.38,5.095-1.331,1.274-3.75,3.759-7.077,7.284l-1.512,1.6-2.852.421A5.807,5.807,0,0,1,327.62-8.44a23.793,23.793,0,0,1-3.272-3.666l-.977-1.343-.191-2.2v-2.115l1.84-2.069a87.031,87.031,0,0,0,12.122-12.813q-2.409-.019-5.1-.113a5.823,5.823,0,0,1-5.711-5.11,33.811,33.811,0,0,1-.51-4.436l-.243-5.584,5.583.261c4.658.217,9.507.247,14.365.073q1.011-2.7,1.414-4.2a9.069,9.069,0,0,0,.479-2.4V-60.23l5.991.518a28.256,28.256,0,0,1,7.129,2.124l2.943,1.377.612,4.129a5.979,5.979,0,0,1-.612,2.649q3.272-.55,6.4-1.248l.55-.123,1.1-.077h3.577L376.75-47.1c.625,3.575.766,4.97.766,5.186a6.056,6.056,0,0,1-5.209,5.977q-5.805,1.019-12.267,1.817a12.716,12.716,0,0,1,7.224,6.286q3.8-1.739,6.756-3.159a16.981,16.981,0,0,0,4.566-3.023l3.378-3.378,3.6,3.146a20.506,20.506,0,0,1,5.028,6.109l.539,1.078.268,2.046a6.036,6.036,0,0,1-.365,2.09l7.1-4.312a58.352,58.352,0,0,0,14.449-12.486,54.028,54.028,0,0,0,7.972-12.571,13.851,13.851,0,0,0,.873-3.3l.853-5.713,5.565,1.546a32.743,32.743,0,0,1,5.887,2.226,6.423,6.423,0,0,1,3.482,3.637,5.954,5.954,0,0,1,3.573-4.172l3.324-1.8,2.134-.306a5.543,5.543,0,0,1,5.23,3.925A62.629,62.629,0,0,0,462.534-39.6,60.613,60.613,0,0,0,476.5-28.313l3.479,2.034v-4.966a61.314,61.314,0,0,0-.453-9.524l-1.165-6.407,6.5.4c1.988.121,3.545.284,4.674.47a51.8,51.8,0,0,0-.511-8.785l-1.287-6.438,6.556.336a33.125,33.125,0,0,1,5.682.7c3.653,1.057,4.861,3.605,4.861,5.661v1.021l-.584,1.631a33.854,33.854,0,0,0-.255,5.4q1.05.058,1.981.143v-1.95l5.757-.612,10.551.154h1.237a27.958,27.958,0,0,0-.509-6.262l-1.81-6.739,6.971.312a41.505,41.505,0,0,1,6.061.739l4.132.8.956,4.821a8.334,8.334,0,0,1-.914,3.6,22.4,22.4,0,0,1-.037,2.725h3.185l15.621-.228.612,5.793v8.433l-5.718.612-10.589-.154h-3.116v1.907h4.069l1.078-.539,1.33,0c2.33,0,4.106,1.383,5.536,2.735,1.555,1.514,3.088,3.341,3.088,5.813a6.32,6.32,0,0,1-2.5,4.958A65.479,65.479,0,0,1,541.676-3.5a51.924,51.924,0,0,0,14.516,7.748l4.525,1.613a35,35,0,0,0,7.205-10.962l.8-1.925-.2-1.886.154-7.033v-9.1l-.267-12.027,5.833-.535,11.044.153h2.737v-9.69a59.577,59.577,0,0,0-.472-8.718L586.576-62l6.208.23a51.539,51.539,0,0,1,5.909.516l4.324.671.956,4.987a9.19,9.19,0,0,1-.613,3.16A6.388,6.388,0,0,0,603.2-51.3H616.07L632-51.527l.612,5.791v8.662l-5.719.612-1.57-.022.483,4.512-.154,7.033v9.1l.23,10.364a69.9,69.9,0,0,1,8.352,13.241l.518,1.06.153,1.639c0,1.534-.629,3.691-3.623,5.254l-2.423,1.113a7.041,7.041,0,0,1-3.19.881h-3.288L620.6,14.3A59.235,59.235,0,0,0,612.266.773l-.9-1.109a65.816,65.816,0,0,1,3.168,9.661l.147.6.077,1.037a5.729,5.729,0,0,1-4.6,5.543l-3.239.715-1.546.229h-3.852l-1.555-4.24A52.683,52.683,0,0,0,595.739.533L595.545.14c.672,2.848,1.28,6.3,1.807,10.314.043,3.541-1.9,6.375-5.612,6.673l-3.7.322h-5.108l-.534-5.72A63.879,63.879,0,0,0,580.9,2,51.505,51.505,0,0,1,571.762,16l-1.516,1.643-2.962.459h-1.546l-3.922-2.235a6.832,6.832,0,0,1-3.305-3.621l-.422.422a7.346,7.346,0,0,0-1.341,1.813c-1.359,3.244-3.748,4-5.482,4a8.031,8.031,0,0,1-3.149-.775A68.629,68.629,0,0,1,531.067,7.2a74.132,74.132,0,0,1-19.824,11.1A7.66,7.66,0,0,1,508.29,18.94ZM433.5.887l3.06.486a52.228,52.228,0,0,0,8.146.7c.474.182.774-.258,1.006-1.631a127.577,127.577,0,0,0,1.509-16.334H439.57A43.728,43.728,0,0,1,433.5.887ZM513.473-18.28v5.961L513.659.9A53.316,53.316,0,0,0,521.221-3.9a67.228,67.228,0,0,1-7.187-14.4ZM354.3-4.594c-1.814,1.579-2.558,2.866-2.558,3.707A9.27,9.27,0,0,0,354.9.161a6.519,6.519,0,0,1-.6-2.768Q354.3-3.632,354.3-4.594ZM610-3.337q.562,1.144,1.088,2.356l-.161-1.856c0-.157.006-.32.021-.487Zm-15.4-.014q.282.889.551,1.9l-.05-.7a5.476,5.476,0,0,1,.136-1.2ZM529.736-18.415q.914,1.92,1.978,3.7,1.258-1.8,2.346-3.7Zm54.01.454h26.835V-22.85H583.746ZM424.688-30.529l1.934.028h19.731l4.08-.059a88.455,88.455,0,0,1-12.712-19.722l-.141-.3v1.235l-2.5,2.412A87.869,87.869,0,0,1,424.688-30.529Zm88.788-2.3,9.27.144h.778v-1.907h-1.317l-8.722.128C513.481-33.967,513.478-33.42,513.476-32.825ZM250.6,18.519h-8.815L241.17,12.8l.153-16.336V-36.6l-.2-21.547,5.766-.612,8.958.154h9.088l12.945-.254.048.461,3.486-.361,8.542.154H299.8L313.4-58.85l.612,5.811-.153,11.272V-6.278l.228,11.059c0,4.635-1.332,7.989-3.96,10.072a11.522,11.522,0,0,1-5.877,2.356,57.724,57.724,0,0,1-7.083.315,6.692,6.692,0,0,1-4.95-1.726,7.369,7.369,0,0,1-1.8-3.633q-.062-.23-.134-.454l-.379.04h-8.318l-.417-3.9h-7.683V11.9l-5.719.726h-8.318L258.8,6.8l.153-13.821v-6.52l-.187-11.067h-2.6V-3.487l.2,21.394Zm45.022-16q1.576.132,3.359.159l.034-27.286h-3.56l.207,1.967-.154,8.013V-7.5ZM653.8,16.167l-.433-1.943a6.062,6.062,0,0,1-5.294-4.17,52.954,52.954,0,0,1-2.95-12.241,90.254,90.254,0,0,1-.855-12.158c0-7.206,1.113-16.516,3.308-27.673a45.589,45.589,0,0,0,1.013-7.693v-6.871l6.579,1.982a28.47,28.47,0,0,1,6.24,2.591c3.154,1.849,3.626,4.342,3.626,5.663a7.4,7.4,0,0,1-1.459,4.267,7.54,7.54,0,0,0-.766,2.308,143.577,143.577,0,0,0-2.863,15.541l.809-1.971,4.964,10.379c.116.242.306.576.568,1l6.52-.47.15-.15,2.224-.038h5.107l.421,5.91c.032.711.144,3.5,9.155,3.5A117.031,117.031,0,0,0,704.618-7.1c3.511-.08,6.274,1.784,6.614,5.346.176,2.138.252,3.5.252,4.155V4.954l-2.194,2.22A5.841,5.841,0,0,1,706.142,8.4a129.629,129.629,0,0,1-14.79.9,43.214,43.214,0,0,1-12.7-1.5,18.273,18.273,0,0,1-8.3-5.074,15.134,15.134,0,0,1-3.773-6.57c-1.6,3.756-2.884,6.964-3.809,9.534l.529,5.987-4.951,1.673a20.047,20.047,0,0,1-3.7.8ZM38.135,13.625c-9.445,0-16.482-1.615-21.511-4.937A17.047,17.047,0,0,1,8.673-6.2a21.563,21.563,0,0,1,4.09-12.117l2.509-3.7,4,2q1.309.654,3.683,2l2.581,1.469.421,3.505v1.637L24.817-9.579a6.615,6.615,0,0,0-1.151,3.148c0,4.131,11.426,4.452,14.928,4.452A91.7,91.7,0,0,0,59.87-4.129l.594-.144,1.07-.076A5.728,5.728,0,0,1,67.1.129a34.3,34.3,0,0,1,.84,4.7c.039,3-1.278,5.826-4.992,6.651A125.921,125.921,0,0,1,38.135,13.625Zm84.343-1.376a6.571,6.571,0,0,1-5.794-3.568,4.225,4.225,0,0,0-1.243-1.029l-7.163-4.325a15.858,15.858,0,0,1-9.314,3.034c-3.565,0-8.653-1.32-12.646-7.607C83.73-5.367,82.425-10.5,82.425-16.525a31.85,31.85,0,0,1,3.167-13.692A34.233,34.233,0,0,1,93.147-40.56c7.14-6.67,16.211-10.053,26.96-10.053,10.652,0,19.12,3.19,25.169,9.482,5.234,5.451,7.887,12.468,7.887,20.859a29.646,29.646,0,0,1-8.348,21.283c-4.906,5.112-11.774,8.8-20.407,10.97l-.612.153Zm2.785-47.941a104.8,104.8,0,0,1-3.81,16.442,67.429,67.429,0,0,1-6.639,15.125,29.069,29.069,0,0,1-2.232,3.287l4.509-.891c7.256-1.434,12.664-4.047,16.074-7.769a16.6,16.6,0,0,0,4.241-11.729,13.632,13.632,0,0,0-4.88-11.082A14.522,14.522,0,0,0,125.263-35.692Zm-16.109,1.928a19,19,0,0,0-5.471,3.836c-4.071,4.009-6.036,8.359-6.036,13.327,0,3.063.508,5.419,1.469,6.814.06.314,1.13-.251,2.592-2.832A64.756,64.756,0,0,0,107.3-26.273C108.046-28.814,108.667-31.317,109.155-33.764ZM34.809-23.653H33.363l-2.225-1.064a5.19,5.19,0,0,0-1.774-.962L18.321-28.44l7.436-5.07a65.128,65.128,0,0,1-7.113-1.075,5.866,5.866,0,0,1-4.733-6.066q0-1.435.161-4.306l.343-6,5.866,1.307a86.91,86.91,0,0,0,18.465,1.675q8.984,0,16.888-.67c3.7-.019,6.117,2.053,6.585,5.018a29.092,29.092,0,0,1,.292,4.314,6.155,6.155,0,0,1-5.69,6.265c-4.974.7-11.07,3.425-17.931,8.06A6.892,6.892,0,0,1,34.809-23.653Zm633.657-5.453v-6.077c0-2.465.038-4.034.094-4.706a5.985,5.985,0,0,1,4.966-5.684A112.124,112.124,0,0,1,691.16-47.1c5.324,0,9.217.145,11.678.412a5.961,5.961,0,0,1,5.74,5.88c0,1.805-.032,3.138-.087,4l-.308,4.778-5.361.726c-3.28-.3-7.285-.421-12.885-.421a92.231,92.231,0,0,0-15.485,1.568Z" transform="translate(-70 7687)" fill="#fff"/><path d="M16.385-16.093q1.223.612,3.441,1.873.421.229.421.535a.874.874,0,0,1-.191.5,12.1,12.1,0,0,0-2.1,6.117q0,9.559,20.035,9.559A96.271,96.271,0,0,0,60.469.195a2.091,2.091,0,0,1,.459-.076q.459,0,.612.612a29.485,29.485,0,0,1,.726,4.091v.191q0,.612-1.032.841A120.3,120.3,0,0,1,37.528,7.88q-12.5,0-18.7-4.091A11.959,11.959,0,0,1,13.173-6.84,16.515,16.515,0,0,1,16.385-16.093ZM18.564-45.3a91.468,91.468,0,0,0,19.576,1.8q9.214,0,17.32-.688h.268a.769.769,0,0,1,.841.726,23.947,23.947,0,0,1,.229,3.518,1.083,1.083,0,0,1-1.109,1.185Q46.743-37.5,35.426-29.857A2.034,2.034,0,0,1,34.2-29.4a1.883,1.883,0,0,1-.994-.306A8.955,8.955,0,0,0,30-31.272a103.636,103.636,0,0,1,13.5-7.838Q39.975-38.8,35-38.8A77.51,77.51,0,0,1,19.1-40.218q-.688-.115-.688-1.071Q18.411-42.627,18.564-45.3Zm101.625,3.632a100.644,100.644,0,0,1-4.206,20.226,62.17,62.17,0,0,1-6.117,13.994Q105.125.615,98.357.615q-5.009,0-8.335-5.238-3.1-4.932-3.1-12.541A26.663,26.663,0,0,1,89.6-28.672a28.992,28.992,0,0,1,6.423-8.794q9.291-8.679,23.476-8.679,13.879,0,21.488,7.914,6.462,6.729,6.462,17.32a24.592,24.592,0,0,1-6.92,17.741q-6.385,6.653-17.97,9.559a2.736,2.736,0,0,1-.688.115,1.552,1.552,0,0,1-1.338-.956,8.856,8.856,0,0,0-3.059-2.906Q130.053.157,136.324-6.687a21.676,21.676,0,0,0,5.582-15.179,18.8,18.8,0,0,0-6.653-14.95,20.149,20.149,0,0,0-13.573-4.856Zm-5.467.306a25.461,25.461,0,0,0-15.255,7.188Q91.934-26.76,91.934-17.24q0,6.27,2.371,9.711Q96.063-5,98.281-5q4.015,0,7.264-5.735a69.446,69.446,0,0,0,6.041-14.72A82.635,82.635,0,0,0,114.721-41.365ZM181.9,5.28q0,.65-.612.65H178.3q-.612,0-.612-.65V1.992h-8.832V8.415q0,.65-.612.65h-3.1q-.612,0-.612-.65l.153-26.917V-33.6l-.153-19.92a.541.541,0,0,1,.612-.612l5.812.191h4.7l5.62-.191a.541.541,0,0,1,.612.612l-.153,17.091v16.441Zm-4.206-7.264V-16.016h-8.832V-1.984Zm0-34.449V-49.968h-8.832v13.535Zm0,16.747v-13h-8.832v13ZM232.213-.034a.575.575,0,0,1-.65.65L224.222.463V2.795l.153,10.17q0,.65-.612.65H220.7q-.612,0-.612-.65l.153-10.17V.463H212.9L204.57.615a.575.575,0,0,1-.65-.65V-3.017q0-.612.65-.612l5.7.153V-17.66l-1.95.076q-.65,0-.65-.612v-2.982q0-.612.65-.612l7.112.153h4.817v-.306a44.565,44.565,0,0,0-.459-7.609,29.9,29.9,0,0,1,4.359.459q.765.229.765.65a5.8,5.8,0,0,1-.382,1.185,22,22,0,0,0-.306,5.162v.459l5.391-.153q.65,0,.65.612V-18.2q0,.612-.65.612l-1.644-.038q-1.682-.076-3.747-.115V-3.476l7.341-.153q.65,0,.65.612ZM220.246-3.476V-17.737h-6.079V-3.476ZM206.673-19.381a1.241,1.241,0,0,1-.535.879,4.729,4.729,0,0,0-1.185,2.485q-4.4,18.582-19.117,28.523a2.419,2.419,0,0,1-1.109.535q-.459,0-.994-.765a8.369,8.369,0,0,0-2.37-1.95A40.062,40.062,0,0,0,195.47-3.246,30.518,30.518,0,0,0,190.156-8.1q-.344-.229-.344-.382,0-.229.574-.841l.994-1.032q.535-.535.8-.535a.738.738,0,0,1,.382.115q2.485,1.835,4.856,3.938A49.754,49.754,0,0,0,201.358-18.5h-7.226a47.367,47.367,0,0,1-7.341,10.476q-.612.726-.956.726-.306,0-1.032-.726a7.092,7.092,0,0,0-2.1-1.491,38.309,38.309,0,0,0,10.514-16.517,19.457,19.457,0,0,0,.612-3.9A26.148,26.148,0,0,1,197.65-28.9q.956.306.956.841a1.6,1.6,0,0,1-.535.956,4.81,4.81,0,0,0-1.109,2.026l-1.109,2.906h5.812a1.845,1.845,0,0,0,1.071-.344,2.051,2.051,0,0,1,.8-.229q.65,0,2.026,1.568A3.031,3.031,0,0,1,206.673-19.381Zm24.508-6.653a.575.575,0,0,1-.65.65h-3.212q-.612,0-.612-.65v-6.882H189.926v6.882a.575.575,0,0,1-.65.65h-3.135q-.688,0-.688-.65l.153-6.117v-1.376l-.153-2.829q0-.612.688-.612l10.9.153h19.041a57.746,57.746,0,0,0,3.594-7.914,18.875,18.875,0,0,0,.994-3.976,30.082,30.082,0,0,1,4.168,1.071q.688.268.688.8a1.322,1.322,0,0,1-.612.918,4.673,4.673,0,0,0-1.032,1.644,58.624,58.624,0,0,1-3.518,7.456l10.208-.153a.541.541,0,0,1,.612.612l-.153,2.523v1.682Zm-3.288-26.611q0,.765-1.262.765a15.849,15.849,0,0,0-2.829.421,243.7,243.7,0,0,1-33.722,4.435q-.459.038-.726.038-.956,0-1.568-1.529a7.8,7.8,0,0,0-1.415-2.256,205.263,205.263,0,0,0,33.684-3.976,11.86,11.86,0,0,0,3.9-1.415,17.567,17.567,0,0,1,3.4,2.485A1.62,1.62,0,0,1,227.893-52.645ZM211.07-39.492a1.258,1.258,0,0,1,.076.382q0,.344-.726.574l-2.1.535a5.985,5.985,0,0,1-.841.153q-.382,0-.5-.574a32.361,32.361,0,0,0-2.676-7.264,1.023,1.023,0,0,1-.191-.5q0-.306.841-.574l1.873-.5a2.651,2.651,0,0,1,.612-.115q.344,0,.65.535A33.092,33.092,0,0,1,211.07-39.492Zm-13.344.153a1.819,1.819,0,0,1,.115.5q0,.306-.65.535l-2.1.688a2.7,2.7,0,0,1-.765.229q-.306,0-.5-.535A33.4,33.4,0,0,0,190.92-44.5a1.174,1.174,0,0,1-.153-.459q0-.344.8-.65l1.873-.612a1.834,1.834,0,0,1,.535-.115.747.747,0,0,1,.612.421A38.019,38.019,0,0,1,197.726-39.339ZM308.374,4.248q0,4.359-2.026,5.965a6.625,6.625,0,0,1-3.4,1.3,52.964,52.964,0,0,1-6.385.268,2.287,2.287,0,0,1-1.338-.229,3.579,3.579,0,0,1-.459-1.262,13.3,13.3,0,0,0-1.415-3.441,54.288,54.288,0,0,0,6.041.306q2.715,0,3.479-.8a4.658,4.658,0,0,0,.65-2.944V-30.354H289.257l-8.45.153q-.688,0-.688-.612l.153-6.729v-9.406l-.153-6.729q0-.612.688-.612l8.45.153H299.2l8.488-.153a.541.541,0,0,1,.612.612l-.153,11.2V-6.917ZM303.518-34.1v-6.347H284.745V-34.1Zm0-10.094v-6.117H284.745v6.117Zm-30.74,13.382a.541.541,0,0,1-.612.612l-7.838-.153H250.449V-4.126l.153,16.288a.541.541,0,0,1-.612.612h-3.709a.541.541,0,0,1-.612-.612l.153-16.288V-37.236l-.153-16.441a.541.541,0,0,1,.612-.612l8.87.153h9.176l7.838-.153a.541.541,0,0,1,.612.612l-.153,7.226V-38ZM268.152-34.1v-6.347h-17.7V-34.1Zm0-10.094v-6.117h-17.7v6.117Zm21.793,49.59q0,.612-.65.612h-3.212a.541.541,0,0,1-.612-.612V2.107h-17.7V6.159q0,.726-.612.726h-3.212q-.65,0-.65-.726L263.449-7.6v-6.576l-.153-9.1a.541.541,0,0,1,.612-.612l8.182.153h9.061l8.182-.153a.541.541,0,0,1,.612.612l-.153,7.914V-8.14ZM285.472-1.64V-9.172h-17.7V-1.64Zm0-11.2v-7.15h-17.7v7.15Zm66.449-42.478a23.506,23.506,0,0,1,5.85,1.721.955.955,0,0,1,.612.879,1.094,1.094,0,0,1-.459.841,9.031,9.031,0,0,0-1.415,2.218q-.879,1.873-2.638,5.926a136.411,136.411,0,0,0,16.517-2.6,3.223,3.223,0,0,1,.535-.076q.268,0,.421.421.459,3.173.459,3.441,0,.765-1.032.956-8.717,1.529-19.079,2.562A68.484,68.484,0,0,1,343.7-27.372l.076.191a16.474,16.474,0,0,1,9.788-3.4q8.909,0,9.864,9.176,7.264-3.25,12.2-5.62a21.876,21.876,0,0,0,5.965-4.015,15.785,15.785,0,0,1,3.823,4.55,1.863,1.863,0,0,1,.268.841q0,.765-1.032.956a20.852,20.852,0,0,0-4.32,1.262q-2.829,1.185-8.909,3.594-4.818,1.912-7.685,3.135V-3.552a.868.868,0,0,1-.841.956,17.781,17.781,0,0,1-3.4.306q-.688,0-.688-.956,0-7.264.076-11.279-12.847,6.423-12.847,13,0,3.632,3.747,5.2,3.212,1.3,9.635,1.3a147.305,147.305,0,0,0,18.658-1.529,1.046,1.046,0,0,1,.229-.038q.459,0,.65.574a20.633,20.633,0,0,1,.459,3.823q0,.918-.612,1.071a153.349,153.349,0,0,1-19.385,1.109q-18.085,0-18.085-11.2a13.53,13.53,0,0,1,4.359-9.788q4.053-4.091,12.961-8.45-.115-4.282-1.835-5.965a6.562,6.562,0,0,0-4.741-1.415q-5.62.115-12.847,6.347-2.332,2.218-7.456,7.647a.92.92,0,0,1-.65.421.746.746,0,0,1-.5-.268,19.655,19.655,0,0,1-2.753-3.059,1.489,1.489,0,0,1-.191-.535.939.939,0,0,1,.344-.574,84.008,84.008,0,0,0,18.161-21.755q-4.053.229-8.488.229-2.829,0-6.079-.115a.783.783,0,0,1-.841-.765,29.709,29.709,0,0,1-.459-3.9q4.091.191,8.335.191,4.894,0,9.826-.268a79.829,79.829,0,0,0,2.791-7.838,13.358,13.358,0,0,0,.65-3.709ZM457.1-25.46q-.076,1.3-.153,4.091-.076,2.676-.153,4.206a147.858,147.858,0,0,1-1.873,19.729q-.841,4.588-3.212,6.729-2.409,2.179-6.844,2.179-4.053,0-6.232-.229-1.224-.076-1.453-.344a3.548,3.548,0,0,1-.459-1.453,8.954,8.954,0,0,0-1.568-3.67,57.311,57.311,0,0,0,8.947.765,5.533,5.533,0,0,0,4.32-1.568,8.638,8.638,0,0,0,1.721-4.32,150.452,150.452,0,0,0,1.721-22.29H434.39Q432.784,2.221,410.838,12.43a4.878,4.878,0,0,1-1.109.382q-.421,0-1.185-1.185a8.5,8.5,0,0,0-2.485-2.562q21.64-8.488,23.4-30.7H425.94l-10.514.153a.541.541,0,0,1-.612-.612v-3.479a.541.541,0,0,1,.612-.612l10.514.153h19.805l10.667-.153Q457.1-26.187,457.1-25.46ZM431.867-52.415q0,.382-.612.879a4.521,4.521,0,0,0-1.415,1.721,77.83,77.83,0,0,1-11.394,17.4A82.2,82.2,0,0,1,405.179-20.6a3.153,3.153,0,0,1-1.185.688q-.421,0-1.071-1.032a8.964,8.964,0,0,0-2.753-2.562,63.154,63.154,0,0,0,15.714-13.573A58.844,58.844,0,0,0,424.6-50.848a18.892,18.892,0,0,0,1.262-4.626,27.648,27.648,0,0,1,4.97,1.873Q431.867-53.142,431.867-52.415Zm41.446,27.873a11.242,11.242,0,0,0-2.753,3.135q-.726,1.109-.918,1.109a3.231,3.231,0,0,1-1.109-.612,82.378,82.378,0,0,1-26.8-32.193,1.16,1.16,0,0,1-.115-.421q0-.191.841-.612L444.79-55.4a2.406,2.406,0,0,1,.841-.306q.229,0,.421.535a67.515,67.515,0,0,0,12.12,18.391A65.412,65.412,0,0,0,473.312-24.543ZM553.87,8.415a12.491,12.491,0,0,0-2.256,3.059q-.535,1.262-.956,1.262a4.332,4.332,0,0,1-1.185-.382A59.844,59.844,0,0,1,530.624-.264,67.5,67.5,0,0,1,508.83,12.889a3.2,3.2,0,0,1-1.147.306q-.459,0-1.185-1.185a11.907,11.907,0,0,0-2.371-2.562A61.259,61.259,0,0,0,527.565-3.7,60.712,60.712,0,0,1,517.051-24.16q-1.912.038-3.594.115-1.109.038-1.185.038a.541.541,0,0,1-.612-.612v-3.135a.541.541,0,0,1,.612-.612l9.788.153h5.964v-12.12H521.6l-10.476.153q-.65,0-.65-.612v-3.326q0-.612.65-.612l10.476.153h6.423v-4.168a36.8,36.8,0,0,0-.688-8.526,36.386,36.386,0,0,1,5.315.65q.956.115.956.612a3.793,3.793,0,0,1-.459,1.491q-.5.918-.5,5.773v4.168h8.3l10.514-.153a.541.541,0,0,1,.612.612v3.326a.541.541,0,0,1-.612.612l-10.514-.153h-8.3v12.12h9.176a3.807,3.807,0,0,0,1.568-.229,2.406,2.406,0,0,1,.841-.306q.612,0,2.026,1.338,1.491,1.453,1.491,2.1a1.35,1.35,0,0,1-.612.994,5.832,5.832,0,0,0-1.338,2.179A63.891,63.891,0,0,1,533.912-3.628,53.557,53.557,0,0,0,553.87,8.415ZM541.482-24.16H521.677a49.274,49.274,0,0,0,9.176,17.244A52.728,52.728,0,0,0,541.482-24.16ZM508.524-41.136a7.06,7.06,0,0,1-.382,1.185q-.382,1.071-.382,7.991v19l.153,10.9a.541.541,0,0,1-.612.612h-3.1a.541.541,0,0,1-.612-.612V-5.425h-14.95V1.839a.574.574,0,0,1-.65.65h-3.059q-.612,0-.612-.65l.153-11.967V-31.883a67.936,67.936,0,0,0-.535-10.438,36.272,36.272,0,0,1,4.626.5q.841.076.841.688,0,.076-.382,1.262-.382.994-.382,7.57V-9.517h5.391V-46.145a62.068,62.068,0,0,0-.612-10.591,28.119,28.119,0,0,1,4.779.574q.918.268.918.688a2.018,2.018,0,0,1-.191.688q-.191.535-.268.726-.382,1.185-.382,7.838v36.7h5.315V-31.96q0-8.067-.535-10.361a36.717,36.717,0,0,1,4.626.5Q508.524-41.71,508.524-41.136ZM626.9-42.818a.541.541,0,0,1-.612.612l-10.82-.153H597.379v9.367h11.05l11.05-.153q.612,0,.612.535l-.153,6.92v9.214l.153,6.92a.541.541,0,0,1-.612.612L608.428-9.1h-23.82l-10.973.153a.541.541,0,0,1-.612-.612l.153-6.92V-25.69l-.153-6.92q0-.535.612-.535l10.973.153h7.914v-14.8a64.526,64.526,0,0,0-.535-9.52,46.511,46.511,0,0,1,5.315.459q.956.115.956.612a4.3,4.3,0,0,1-.306,1.415q-.573,1.376-.573,6.347v1.644h18.085l10.82-.153a.541.541,0,0,1,.612.612ZM615.081-13.493V-28.6H578.032v15.1ZM629.037,9.371a.968.968,0,0,1,.153.459q0,.268-.879.726l-2.179.994a3.58,3.58,0,0,1-1.07.421q-.229,0-.421-.421a63.936,63.936,0,0,0-9.023-14.644.665.665,0,0,1-.191-.382q0-.268.918-.688l1.721-.879a2.106,2.106,0,0,1,.879-.306.923.923,0,0,1,.612.382A63.1,63.1,0,0,1,629.037,9.371Zm-52.8-11.508A46.718,46.718,0,0,1,567.4,11.895a.943.943,0,0,1-.726.459,2.232,2.232,0,0,1-.994-.459l-1.95-1.109q-.994-.574-.994-.879,0-.153.268-.382A39.981,39.981,0,0,0,572.03-3.781q.191-.574.612-.574a2.606,2.606,0,0,1,.956.268l1.873.765q.879.382.879.765A1.161,1.161,0,0,1,576.235-2.137ZM608.964,9.906a1.646,1.646,0,0,1,.076.421q0,.382-.841.612l-2.447.535a4.661,4.661,0,0,1-.994.229q-.344,0-.5-.535a55.976,55.976,0,0,0-4.55-13.535,1.488,1.488,0,0,1-.115-.421q0-.306.918-.612l2.256-.688a1.64,1.64,0,0,1,.421-.076q.42,0,.688.612A57.7,57.7,0,0,1,608.964,9.906Zm-17.282.574v.229q0,.612-.956.688l-2.562.229a6.291,6.291,0,0,1-.726.076q-.535,0-.535-.612A71.942,71.942,0,0,0,584.57-2.6a1.208,1.208,0,0,1-.076-.344q0-.382.994-.535l2.256-.229a4.181,4.181,0,0,1,.5-.038q.535,0,.688.65A79.992,79.992,0,0,1,591.682,10.48Zm61.4-60.83a23.772,23.772,0,0,1,5.123,2.1q1.109.65,1.109,1.262a2.452,2.452,0,0,1-.535,1.338,11.934,11.934,0,0,0-1.568,4.129,119.366,119.366,0,0,0-3.67,27.031,63.41,63.41,0,0,0,1.185,13.458q.574-1.338,2.906-6.653,1.644-3.594,2.868-6.576a35.019,35.019,0,0,0,1.873,3.135,1.067,1.067,0,0,1,.421.765,3.21,3.21,0,0,1-.382,1.262q-3.326,7.647-5.047,12.426a4.616,4.616,0,0,0-.306,1.95L657.213,7a.651.651,0,0,1-.535.726,19.55,19.55,0,0,1-3.518.765q-.612,0-.879-.765a49.024,49.024,0,0,1-2.715-11.279,84.6,84.6,0,0,1-.8-11.432q0-10.361,3.212-26.687A51.76,51.76,0,0,0,653.084-50.35Zm17.129,39.687,4.244-.306a.156.156,0,0,1,.115-.038q.421,0,.421.8.344,8.6,14.261,8.6a121.546,121.546,0,0,0,15.408-1.071,2.347,2.347,0,0,1,.306-.038q.5,0,.573.8.229,2.791.229,3.67,0,.574-.153.688a1.928,1.928,0,0,1-.879.268,123.793,123.793,0,0,1-13.994.841A38.824,38.824,0,0,1,679.58,2.3a13.26,13.26,0,0,1-6.079-3.67Q670.328-4.546,670.213-10.664Zm2.753-25.158q0-3.365.076-4.282a1.031,1.031,0,0,1,.918-1.109,106.205,106.205,0,0,1,16.594-1.415q7.609,0,11.126.382,1.185.115,1.185.8,0,2.485-.076,3.67,0,.726-.573.726h-.306q-3.785-.421-12.579-.421A96.782,96.782,0,0,0,672.966-35.822Z" transform="translate(-69.393 7687.639)" fill="#5168af"/></g></g></svg>