<svg xmlns="http://www.w3.org/2000/svg" xmlns:xlink="http://www.w3.org/1999/xlink" width="1916" height="1650" viewBox="0 0 1916 1650"><defs><clipPath id="a"><rect width="1916" height="1650" transform="translate(-457)" fill="#fff" stroke="#707070" stroke-width="1"/></clipPath></defs><g transform="translate(457)" clip-path="url(#a)"><path d="M6352.52-311.14H7487.8L6816.65,1019.993l950.273,334.186H6356.517Z" transform="translate(-6814 304.451)" fill="#fff"/><g transform="translate(1.76 -1389.168)"><path d="M556.639,2713.73,1665.32,0h-64.561Z" transform="translate(-556.639)" fill="#e6f306"/><path d="M556.639,936.748l1502.24,520.359v112.727Z" transform="translate(-556.639 1776.993)" fill="#99cf16"/><path d="M556.639,936.748l1502.24,876.018v-44.823Z" transform="translate(-556.639 1776.993)" fill="#5168af"/><path d="M556.639,936.748,2058.88,1626.71v-56.876Z" transform="translate(-556.639 1776.993)" fill="#e6f306"/><path d="M556.639,936.748,2058.88,1626.71v69.528Z" transform="translate(-556.639 1776.993)" fill="#f0047f"/><path d="M556.639,2713.73,1865.12,0h84.3Z" transform="translate(-556.639)" fill="#0d0157"/><path d="M556.639,2713.73,1865.12,0h-27.757Z" transform="translate(-556.639)" fill="#f0047f"/><path d="M556.639,2713.73,2058.88,0h-55.665Z" transform="translate(-556.639)" fill="#99cf16"/><path d="M556.639,2713.73,2003.21,0h-53.792Z" transform="translate(-556.639)" fill="#f0047f"/><path d="M556.639,2713.73,1789.8,0h17.933Z" transform="translate(-556.639)" fill="#5168af"/></g><g transform="translate(-540.3 -5775.8)"><path d="M460.6,1324.4.4,1645.2v4.8H23.3l437.3-325.6Z" transform="translate(81.4 5776)" fill="#f0047f"/><path d="M460.6,1324.4h0L.4,1622.7v22.5Z" transform="translate(81.4 5776)" fill="#99cf16"/><g transform="translate(81.4 5776)"><path d="M460.6,1324.4h0L.4,963.4v134.8l272.7,134Z" fill="#f0047f"/><path d="M460.6,1324.4h0l-187.5-92.2L.4,1098.2V1194l460.2,130.4Z" fill="#e6f306"/><path d="M460.6,1324.4h0L.4,1425.6v43.3Z" fill="#0d0157"/><path d="M460.6,1324.4.4,1468.9v75l460.2-219.5Z" fill="#5168af"/><path d="M460.6,1324.4,163.3,1650h13.9l283.4-325.6Z" fill="#5168af"/></g><path d="M460.6,1324.4.4,902.5v10.9l460.2,411Z" transform="translate(81.4 5776)" fill="#99cf16"/></g></g></svg>