<svg xmlns="http://www.w3.org/2000/svg" width="520" height="149" viewBox="0 0 520 149"><g transform="translate(-2888 -1139)"><rect width="520" height="149" transform="translate(2888 1139)" fill="none"/><g transform="translate(17)"><path d="M-117.189-22.75l7.438,18.563,7.438-18.562h3.891V0h-3V-8.859l.281-9.562L-108.611,0h-2.3l-7.453-18.375.3,9.516V0h-3V-22.75Zm35.9,21.078A6.14,6.14,0,0,1-86.239.313a5.256,5.256,0,0,1-4.117-1.57,6.8,6.8,0,0,1-1.43-4.648v-11H-88.9V-5.984q0,3.844,3.125,3.844,3.313,0,4.406-2.469v-12.3h2.891V0h-2.75Zm17.231-12.641a8.662,8.662,0,0,0-1.422-.109A3.809,3.809,0,0,0-69.336-12V0h-2.891V-16.906h2.813l.047,1.953a4.5,4.5,0,0,1,4.031-2.266A2.953,2.953,0,0,1-64.055-17ZM-49.73,0a6.072,6.072,0,0,1-.406-1.781A6.45,6.45,0,0,1-54.949.313a5.968,5.968,0,0,1-4.1-1.414,4.575,4.575,0,0,1-1.6-3.586,4.779,4.779,0,0,1,2.008-4.1A9.466,9.466,0,0,1-53-10.25h2.813v-1.328a3.246,3.246,0,0,0-.906-2.414,3.642,3.642,0,0,0-2.672-.9,4.215,4.215,0,0,0-2.594.781A2.3,2.3,0,0,0-57.4-12.219h-2.906a3.989,3.989,0,0,1,.9-2.445,6.132,6.132,0,0,1,2.438-1.867,8.2,8.2,0,0,1,3.383-.687,6.684,6.684,0,0,1,4.578,1.461,5.27,5.27,0,0,1,1.719,4.023v7.781A9.513,9.513,0,0,0-46.7-.25V0Zm-4.8-2.2a5.08,5.08,0,0,0,2.578-.7,4.253,4.253,0,0,0,1.766-1.828V-8.2h-2.266q-5.313,0-5.312,3.109a2.631,2.631,0,0,0,.906,2.125A3.483,3.483,0,0,0-54.527-2.2ZM-36.984-21v4.094h3.156v2.234h-3.156v10.5a2.347,2.347,0,0,0,.422,1.525,1.776,1.776,0,0,0,1.438.508,7,7,0,0,0,1.375-.187V0a8.429,8.429,0,0,1-2.219.311A3.6,3.6,0,0,1-38.89-.859a5.034,5.034,0,0,1-.984-3.328V-14.672h-3.078v-2.234h3.078V-21ZM-21.581.313a7.387,7.387,0,0,1-5.594-2.258,8.38,8.38,0,0,1-2.156-6.039v-.531a10.145,10.145,0,0,1,.961-4.492A7.5,7.5,0,0,1-25.682-16.1a6.757,6.757,0,0,1,3.742-1.117,6.332,6.332,0,0,1,5.125,2.172,9.4,9.4,0,0,1,1.828,6.219v1.2H-26.44a6.01,6.01,0,0,0,1.461,4.039,4.592,4.592,0,0,0,3.555,1.539,5.035,5.035,0,0,0,2.594-.625,6.517,6.517,0,0,0,1.859-1.656l1.766,1.375A7.1,7.1,0,0,1-21.581.313Zm-.359-15.156a3.856,3.856,0,0,0-2.937,1.273A6.19,6.19,0,0,0-26.347-10h8.469v-.219a5.506,5.506,0,0,0-1.187-3.414A3.63,3.63,0,0,0-21.94-14.844Zm18.934,12.8A4.164,4.164,0,0,0-.3-2.984,3.3,3.3,0,0,0,.978-5.328H3.713a5.242,5.242,0,0,1-1,2.766A6.586,6.586,0,0,1,.252-.469,7.1,7.1,0,0,1-3.006.313,6.964,6.964,0,0,1-8.5-1.992a9.179,9.179,0,0,1-2.039-6.3v-.484a10.178,10.178,0,0,1,.906-4.391,6.9,6.9,0,0,1,2.6-2.984,7.39,7.39,0,0,1,4.008-1.062,6.78,6.78,0,0,1,4.727,1.7,6.087,6.087,0,0,1,2.008,4.422H.978a3.984,3.984,0,0,0-1.242-2.7,3.864,3.864,0,0,0-2.758-1.055,4.046,4.046,0,0,0-3.414,1.586A7.448,7.448,0,0,0-7.647-8.672v.547a7.3,7.3,0,0,0,1.2,4.5A4.065,4.065,0,0,0-3.006-2.047Zm28.759-8.094a14.107,14.107,0,0,1-5.617-2.727,5.209,5.209,0,0,1-1.758-3.992A5.5,5.5,0,0,1,20.526-21.3a8.538,8.538,0,0,1,5.586-1.758,9.32,9.32,0,0,1,4.18.906,6.873,6.873,0,0,1,2.844,2.5,6.393,6.393,0,0,1,1.008,3.484H31.128a4.16,4.16,0,0,0-1.312-3.254,5.337,5.337,0,0,0-3.7-1.184,5.464,5.464,0,0,0-3.461.978,3.264,3.264,0,0,0-1.242,2.716,2.936,2.936,0,0,0,1.18,2.356A11.571,11.571,0,0,0,26.6-12.8a18.632,18.632,0,0,1,4.438,1.759A6.734,6.734,0,0,1,33.417-8.8a5.723,5.723,0,0,1,.773,3.016,5.315,5.315,0,0,1-2.156,4.43A9.194,9.194,0,0,1,26.268.313a10.693,10.693,0,0,1-4.375-.9,7.363,7.363,0,0,1-3.133-2.461,6.006,6.006,0,0,1-1.1-3.547h3.016A3.918,3.918,0,0,0,22.2-3.336a6.415,6.415,0,0,0,4.07,1.2,5.9,5.9,0,0,0,3.641-.969A3.147,3.147,0,0,0,31.175-5.75,3.089,3.089,0,0,0,30-8.336,13.511,13.511,0,0,0,25.753-10.141ZM42.577,0H39.687V-24h2.891Zm5.715-8.609a9.986,9.986,0,0,1,.977-4.469,7.285,7.285,0,0,1,2.719-3.062,7.4,7.4,0,0,1,3.977-1.078,7.13,7.13,0,0,1,5.586,2.391,9.2,9.2,0,0,1,2.133,6.359v.2a10.073,10.073,0,0,1-.945,4.43,7.178,7.178,0,0,1-2.7,3.055A7.486,7.486,0,0,1,56,.313a7.112,7.112,0,0,1-5.57-2.391,9.151,9.151,0,0,1-2.133-6.328Zm2.906.344A7.233,7.233,0,0,0,52.5-3.75,4.175,4.175,0,0,0,56-2.047a4.15,4.15,0,0,0,3.5-1.727,7.909,7.909,0,0,0,1.3-4.836,7.22,7.22,0,0,0-1.32-4.508,4.2,4.2,0,0,0-3.508-1.727,4.151,4.151,0,0,0-3.453,1.7A7.85,7.85,0,0,0,51.2-8.266Zm17.278-.328a9.936,9.936,0,0,1,1.828-6.289,5.846,5.846,0,0,1,4.844-2.336,5.816,5.816,0,0,1,4.828,2.188l.141-1.875h2.641v16.5a6.878,6.878,0,0,1-1.945,5.172,7.179,7.179,0,0,1-5.227,1.891,8.7,8.7,0,0,1-3.578-.781,6.159,6.159,0,0,1-2.672-2.141L70.836,2a5.653,5.653,0,0,0,4.547,2.3,4.429,4.429,0,0,0,3.289-1.187,4.539,4.539,0,0,0,1.18-3.344V-1.687a5.941,5.941,0,0,1-4.734,2,5.775,5.775,0,0,1-4.8-2.391A10.447,10.447,0,0,1,68.477-8.594Zm2.906.328a7.58,7.58,0,0,0,1.172,4.492,3.808,3.808,0,0,0,3.281,1.633,4.234,4.234,0,0,0,4.016-2.484v-7.719a4.284,4.284,0,0,0-3.984-2.422,3.842,3.842,0,0,0-3.3,1.641A8.256,8.256,0,0,0,71.383-8.266ZM99.411,0A6.072,6.072,0,0,1,99-1.781,6.45,6.45,0,0,1,94.192.313a5.968,5.968,0,0,1-4.1-1.414,4.575,4.575,0,0,1-1.6-3.586,4.779,4.779,0,0,1,2.008-4.1,9.466,9.466,0,0,1,5.648-1.461h2.813v-1.328a3.247,3.247,0,0,0-.906-2.414,3.642,3.642,0,0,0-2.672-.9,4.215,4.215,0,0,0-2.594.781,2.3,2.3,0,0,0-1.047,1.891H88.833a3.989,3.989,0,0,1,.9-2.445,6.132,6.132,0,0,1,2.438-1.867,8.2,8.2,0,0,1,3.383-.687,6.684,6.684,0,0,1,4.578,1.461,5.27,5.27,0,0,1,1.719,4.023v7.781a9.513,9.513,0,0,0,.594,3.7V0Zm-4.8-2.2a5.08,5.08,0,0,0,2.578-.7,4.253,4.253,0,0,0,1.766-1.828V-8.2H96.692q-5.312,0-5.312,3.109a2.631,2.631,0,0,0,.906,2.125A3.483,3.483,0,0,0,94.614-2.2Zm16.356-14.7.094,2.125a6.161,6.161,0,0,1,5.063-2.437q5.359,0,5.406,6.047V0h-2.891V-11.187a3.892,3.892,0,0,0-.836-2.7,3.35,3.35,0,0,0-2.555-.875,4.172,4.172,0,0,0-2.469.75,5.093,5.093,0,0,0-1.656,1.969V0h-2.891V-16.906Z" transform="translate(3130 1176)" fill="#557ec0"/><path d="M45.356-59.644H66.274v3.076H48.706V.479h-3.35ZM107.425-38.35V-32.2h10.186l10.015-.137a.423.423,0,0,1,.479.479l-.137,5.127v4.819l.137,5.2a.423.423,0,0,1-.479.479l-10.015-.137H107.425v6.7h19.79l9.229-.137a.423.423,0,0,1,.479.479v2.256a.423.423,0,0,1-.479.479l-9.229-.137h-19.79V-5.2l.137,10.083q0,.41-.479.41h-2.461q-.479,0-.479-.41L104.281-5.2V-6.733h-18.7L76.356-6.6a.423.423,0,0,1-.479-.479V-9.331a.423.423,0,0,1,.479-.479l9.229.137h18.7v-6.7H95.189l-10.015.137a.423.423,0,0,1-.479-.479l.137-5.2v-4.819L84.7-31.855a.423.423,0,0,1,.479-.479l10.015.137h9.092V-38.35h-2.222l-7.417.137a.423.423,0,0,1-.479-.479l.137-6.392v-2.666H85.824l-9.263.137a.423.423,0,0,1-.479-.479v-2.187q0-.547.479-.547l9.263.137H94.3a34.267,34.267,0,0,0-.513-7.349q1.88.1,3.521.342.752.1.752.513a5,5,0,0,1-.41,1.23,21.989,21.989,0,0,0-.342,5.264H115.15a36.036,36.036,0,0,0-.479-7.349,33.319,33.319,0,0,1,3.486.342q.786.1.786.513a4.452,4.452,0,0,1-.41,1.23q-.376.82-.376,5.264h8.75l9.263-.137q.479,0,.479.547v2.188a.423.423,0,0,1-.479.479l-9.263-.137h-8.75v2.666l.137,6.392a.423.423,0,0,1-.479.479l-7.52-.137Zm-3.145,8.887h-16.3v10.356h16.3Zm3.145,0v10.356h17.4V-29.463ZM97.308-47.749v6.8H115.15v-6.8Zm67.059,29.907q.1,6.187.342,14.834.137,5.537.137,7.007,0,.479-.581.479h-2.358A.423.423,0,0,1,161.428,4q0-1.06.171-8.169.171-6.87.239-13.057A47.02,47.02,0,0,1,149.089-1.88a2.242,2.242,0,0,1-.854.444q-.239,0-.615-.718a5.328,5.328,0,0,0-1.538-1.777A45.1,45.1,0,0,0,160.573-19.38H156.3l-8.545.137q-.479,0-.479-.513v-2.085a.423.423,0,0,1,.479-.479l8.545.137h5.332v-.786a32.953,32.953,0,0,0-.444-6.631,27.9,27.9,0,0,1,3.384.342q.684.1.684.479a2.854,2.854,0,0,1-.342,1.06,20.978,20.978,0,0,0-.273,4.751v.786h3.691l8.477-.137a.423.423,0,0,1,.479.479v2.085q0,.513-.479.513l-8.477-.137h-2.666a26.277,26.277,0,0,0,4.854,5.537A43.87,43.87,0,0,0,176.4-9.81,4.969,4.969,0,0,0,175-8.135q-.308.649-.547.649a1.687,1.687,0,0,1-.786-.41A33.624,33.624,0,0,1,164.367-17.842Zm35.547-13.228V-6.357l.137,10.7q0,.513-.479.513h-2.529q-.479,0-.479-.513l.137-10.7V-31.069H185.149q0,13.877-1.743,20.576A34.627,34.627,0,0,1,175.92,3.589q-.547.649-.786.649-.205,0-.752-.513a7.726,7.726,0,0,0-2.051-1.2A31.094,31.094,0,0,0,180.6-12.3q1.4-6.05,1.4-19.551v-8.887a72.122,72.122,0,0,0-.479-9.16,18.109,18.109,0,0,1,3.9,1.265,61.732,61.732,0,0,0,14.561-5.674,15.29,15.29,0,0,0,3.35-2.461A13.8,13.8,0,0,1,206-54.243a1.53,1.53,0,0,1,.342.854q0,.444-.854.547a10.461,10.461,0,0,0-2.5.854,94.884,94.884,0,0,1-17.842,6.494v11.484h16.1l8.135-.137a.423.423,0,0,1,.479.479v2.256a.423.423,0,0,1-.479.479l-8.135-.137Zm-34.59-3.008a59.644,59.644,0,0,0,3.521-8.477,13.053,13.053,0,0,0,.615-2.939,26.907,26.907,0,0,1,3.076.854q.718.239.718.752a1.307,1.307,0,0,1-.479.786,5.058,5.058,0,0,0-1.06,1.606,79.79,79.79,0,0,1-3.521,7.417h1.06l8.75-.137a.423.423,0,0,1,.479.479v2.119a.423.423,0,0,1-.479.479l-8.75-.137H156.028l-8.682.137a.423.423,0,0,1-.479-.479v-2.119a.423.423,0,0,1,.479-.479l8.682.137Zm-3.691-16.406v-2.222a20.159,20.159,0,0,0-.513-5.2,20.832,20.832,0,0,1,3.657.273q.82.137.82.513a3.148,3.148,0,0,1-.41,1.23,9.1,9.1,0,0,0-.342,3.179v2.222h3.691l8.34-.137a.423.423,0,0,1,.479.479v2.119a.423.423,0,0,1-.479.479l-8.34-.137H157.155l-8.408.137q-.513,0-.513-.479v-2.119q0-.479.513-.479l8.408.137Zm-8,6.6a.787.787,0,0,1-.1-.308q0-.205.82-.615l.957-.41a1.639,1.639,0,0,1,.479-.1q.239,0,.444.342a34.443,34.443,0,0,1,3.213,7.314,1.085,1.085,0,0,1,.068.308q0,.273-.684.547l-1.06.479a3.467,3.467,0,0,1-.82.239q-.239,0-.376-.444A31.8,31.8,0,0,0,153.635-43.887Zm97.753-.854a96.072,96.072,0,0,1-3.76,18.218,53.92,53.92,0,0,1-5.435,12.578q-4.375,7.007-9.98,7.007-4.033,0-6.87-4.478a19.866,19.866,0,0,1-2.666-10.7A23.926,23.926,0,0,1,225.1-32.437a24.012,24.012,0,0,1,5.776-7.9q8.135-7.349,20.269-7.349,12.2,0,18.833,6.87,5.674,5.845,5.674,15.107a21.724,21.724,0,0,1-5.947,15.518q-5.64,6.016-16.1,8.511a2.826,2.826,0,0,1-.376.034,1.142,1.142,0,0,1-1.025-.752,4.963,4.963,0,0,0-1.88-1.88q11.416-2.358,16.851-8.75a19.941,19.941,0,0,0,4.614-13.364A17.354,17.354,0,0,0,265.5-40.4a18.872,18.872,0,0,0-12.51-4.341Zm-3.726.205a23.575,23.575,0,0,0-14.424,6.46,22.792,22.792,0,0,0-5.674,8.579,21.136,21.136,0,0,0-1.4,7.417q0,5.913,2.393,9.126a4.92,4.92,0,0,0,3.9,2.29q3.623,0,6.87-5.537a60.24,60.24,0,0,0,5.537-13.672A80.078,80.078,0,0,0,247.662-44.536Zm67.2,17.876h-3.965l-9.468.137a.423.423,0,0,1-.479-.479v-2.324a.423.423,0,0,1,.479-.479l9.468.137h17.363l9.5-.137a.483.483,0,0,1,.547.547q-.068,1.2-.137,3.657-.068,2.529-.137,3.9a126.276,126.276,0,0,1-1.675,16.953q-1.367,7.759-8.408,7.759-3.9,0-5.947-.205-.889-.1-1.025-.273a3.3,3.3,0,0,1-.308-1.06,6.1,6.1,0,0,0-1.094-2.529,47.04,47.04,0,0,0,7.9.718,5.112,5.112,0,0,0,4.033-1.5,8.541,8.541,0,0,0,1.641-4.033A136.534,136.534,0,0,0,334.75-26.66H318.173Q316.738-5.229,297.084,4a3.512,3.512,0,0,1-.82.308q-.308,0-.854-.889A5.394,5.394,0,0,0,293.6,1.743Q313.388-6.05,314.858-26.66Zm-26.8-.649a56.957,56.957,0,0,0,14.492-12.441,52.287,52.287,0,0,0,7.9-12.476,13.438,13.438,0,0,0,1.06-3.828,14.476,14.476,0,0,1,3.486,1.23q.855.376.854.923,0,.239-.547.718a4.316,4.316,0,0,0-1.128,1.367A72.794,72.794,0,0,1,303.886-36.2a71.479,71.479,0,0,1-12.1,10.7,2.03,2.03,0,0,1-.923.479q-.308,0-.854-.684A4.507,4.507,0,0,0,288.061-27.31Zm65.112-.82a6.777,6.777,0,0,0-1.914,1.948q-.479.786-.718.786a2.392,2.392,0,0,1-.82-.444,69.673,69.673,0,0,1-24.268-28.677,1.034,1.034,0,0,1-.1-.342q0-.137.718-.513l1.333-.615a2.236,2.236,0,0,1,.718-.273q.137,0,.342.41A59.448,59.448,0,0,0,353.173-28.13Zm19,13.3V-48.228a57.119,57.119,0,0,0-.479-9.16,20.635,20.635,0,0,1,3.418.41q.786.137.786.581a1.882,1.882,0,0,1-.137.513,2.884,2.884,0,0,0-.205.649,31.288,31.288,0,0,0-.444,6.938v33.462h5.742V-35.342a49.552,49.552,0,0,0-.479-9.023,29.819,29.819,0,0,1,3.35.342q.615.137.615.649a2.129,2.129,0,0,1-.273.889q-.342.854-.342,7.144v16.816l.137,9.57a.423.423,0,0,1-.479.479h-2.051a.423.423,0,0,1-.479-.479v-3.076H366.5v6.665a.423.423,0,0,1-.479.479H363.9a.423.423,0,0,1-.479-.479l.137-10.664V-35.273a54.559,54.559,0,0,0-.479-9.092,25.861,25.861,0,0,1,3.418.342q.684.1.684.649,0,.034-.342,1.094-.342.889-.342,6.8v20.645ZM404.441-8A60.129,60.129,0,0,1,384.207,4.375a3.138,3.138,0,0,1-.82.273q-.308,0-.923-.889a6.5,6.5,0,0,0-1.675-1.675,57.582,57.582,0,0,0,21.567-12.441q-5.811-6.9-9.673-18.56-1.948.034-3.521.1l-1.094.034a.423.423,0,0,1-.479-.479v-2.119a.423.423,0,0,1,.479-.479l8.75.137h5.811V-43.2H396.2l-9.468.137a.423.423,0,0,1-.479-.479v-2.187a.423.423,0,0,1,.479-.479l9.468.137h6.426v-4.341a33.529,33.529,0,0,0-.547-7.554,19.2,19.2,0,0,1,3.691.479q.786.239.786.513a2.8,2.8,0,0,1-.342,1.23q-.444.854-.444,5.332v4.341H413.6l9.468-.137a.423.423,0,0,1,.479.479v2.188a.423.423,0,0,1-.479.479L413.6-43.2h-7.827v11.484h8.887a3.177,3.177,0,0,0,1.333-.205,1.612,1.612,0,0,1,.684-.205q.513,0,1.538,1.06,1.06,1.025,1.06,1.47a.947.947,0,0,1-.479.752,4.243,4.243,0,0,0-1.128,1.743A61.084,61.084,0,0,1,406.7-10.22,51.3,51.3,0,0,0,425.223,1.4a6.291,6.291,0,0,0-1.675,1.948q-.444.889-.752.889a3.208,3.208,0,0,1-.854-.308A54.1,54.1,0,0,1,404.441-8ZM395.76-28.916a49.851,49.851,0,0,0,8.818,16.372,49.743,49.743,0,0,0,10.288-16.372Zm67.982-7.212h10.083l9.878-.137q.479,0,.479.41l-.137,6.152v7.725l.137,6.152a.423.423,0,0,1-.479.479l-9.878-.137H453.18l-9.81.137a.423.423,0,0,1-.479-.479l.137-6.152V-29.7l-.137-6.152q0-.41.479-.41l9.81.137h7.28V-49.7a55.066,55.066,0,0,0-.479-8.408,21.276,21.276,0,0,1,3.76.444q.786.1.786.479a3.746,3.746,0,0,1-.273,1.2,20.952,20.952,0,0,0-.513,5.947V-48.3h16.235l9.878-.137a.423.423,0,0,1,.479.479v2.393a.423.423,0,0,1-.479.479l-9.878-.137H463.742ZM446.31-33.12v14.629h34.453V-33.12Zm8.784,22.832a2.879,2.879,0,0,1,.513-.068q.376,0,.513.479a72.331,72.331,0,0,1,2.7,12.031v.171q0,.376-.854.547l-1.333.205q-.547.068-.718.068-.41,0-.41-.513a54.037,54.037,0,0,0-2.358-12.065,1.119,1.119,0,0,1-.068-.273q0-.308.889-.444Zm-9.946,1.2a40.23,40.23,0,0,1-8.2,12.51q-.273.342-.479.342a2.784,2.784,0,0,1-.923-.41l-.957-.547q-.889-.513-.889-.718,0-.137.239-.342a35.219,35.219,0,0,0,8.34-11.963q.137-.376.444-.376a2.316,2.316,0,0,1,.82.239l.889.41q.82.342.82.547A.787.787,0,0,1,445.148-9.092ZM468.6-10.425a1.31,1.31,0,0,1,.41-.1q.273,0,.479.376A48.815,48.815,0,0,1,474.1,1.812a1.119,1.119,0,0,1,.068.273q0,.308-.684.513l-1.265.342a4.29,4.29,0,0,1-.889.239q-.239,0-.342-.444A48.257,48.257,0,0,0,466.647-9.3a.787.787,0,0,1-.1-.308q0-.205.854-.479Zm14.766-.923a57.464,57.464,0,0,1,8.818,12.886.787.787,0,0,1,.1.308q0,.273-.718.684l-1.06.547a3.876,3.876,0,0,1-.991.41q-.205,0-.342-.342a53.9,53.9,0,0,0-8.477-13.091.468.468,0,0,1-.171-.273q0-.171.82-.615l.82-.444a2,2,0,0,1,.752-.308A.667.667,0,0,1,483.361-11.348ZM524.444,6.426H503.526V3.35h17.568V-53.7h3.35Z" transform="translate(2844 1267)" fill="#414141"/></g></g></svg>