<svg xmlns="http://www.w3.org/2000/svg" width="477.675" height="149" viewBox="0 0 477.675 149"><g transform="translate(-2211.325 -1139)"><path d="M42.325,0H520V149H42.325Z" transform="translate(2169 1139)" fill="none"/><g transform="translate(-11.62)"><path d="M32.847-17.637V-28.916H26.421l-9.331.137a.423.423,0,0,1-.479-.479v-2.256a.423.423,0,0,1,.479-.479l9.331.137H43.066l9.365-.137q.444,0,.444.479v2.256q0,.479-.444.479l-9.365-.137H36.06v11.279h8.75l9.6-.137a.423.423,0,0,1,.479.479v2.256a.423.423,0,0,1-.479.479l-9.6-.137H36.06V-2.017H54.414l9.434-.137a.423.423,0,0,1,.479.479V.649a.423.423,0,0,1-.479.479L54.414.991H15.757l-9.5.137q-.513,0-.513-.479V-1.675q0-.479.513-.479l9.5.137h17.09V-14.7H25.293l-9.6.137a.423.423,0,0,1-.479-.479v-2.256a.423.423,0,0,1,.479-.479l9.6.137ZM36.47-56.123A65.048,65.048,0,0,0,68.257-31.65a7.387,7.387,0,0,0-1.675,2.188q-.342.82-.649.82a3.214,3.214,0,0,1-.957-.308A66.885,66.885,0,0,1,34.795-53.628,69.517,69.517,0,0,1,20.986-38.315a85.717,85.717,0,0,1-15.244,9.81,2.171,2.171,0,0,1-.82.308q-.376,0-.854-.786a5.139,5.139,0,0,0-1.743-1.675,73.932,73.932,0,0,0,18.56-11.86A54.881,54.881,0,0,0,31.65-55.029a13.2,13.2,0,0,0,1.675-3.76,33.263,33.263,0,0,1,3.35.752q.854.273.854.786a.7.7,0,0,1-.41.615A2.719,2.719,0,0,0,36.47-56.123Zm71.024,15.107v11.553h5.332L121.4-29.6q.513,0,.513.479v2.051q0,.479-.513.479l-8.579-.137h-5.332v13.569h8.477l9.5-.137q.513,0,.513.479v2.188q0,.479-.513.479l-9.5-.137H96.8l-9.536.137a.423.423,0,0,1-.479-.479v-2.187a.423.423,0,0,1,.479-.479l9.536.137h7.554V-26.729H99.94l-8.682.137a.423.423,0,0,1-.479-.479v-2.051a.423.423,0,0,1,.479-.479l8.682.137h4.409V-41.016H98.06l-9.4.137a.423.423,0,0,1-.479-.479v-2.051a.423.423,0,0,1,.479-.479l9.4.137h16.987l9.331-.137a.423.423,0,0,1,.479.479v2.051a.423.423,0,0,1-.479.479l-9.331-.137Zm8.066,17.021a39.23,39.23,0,0,1,6.016,7.28.928.928,0,0,1,.137.308q0,.205-.547.581l-.786.581a2.178,2.178,0,0,1-.786.444q-.171,0-.376-.376a38.456,38.456,0,0,0-5.811-7.349.56.56,0,0,1-.205-.342q0-.171.615-.581l.684-.479a2.158,2.158,0,0,1,.615-.342Q115.253-24.268,115.56-23.994ZM82.508.273v4.2a.423.423,0,0,1-.479.479H79.569a.423.423,0,0,1-.479-.479l.137-25.771V-35.41L79.09-53.833a.423.423,0,0,1,.479-.479l9.878.137h33.8l9.878-.137a.423.423,0,0,1,.479.479l-.137,16.509v16.03l.137,25.771a.423.423,0,0,1-.479.479h-2.461a.423.423,0,0,1-.479-.479V.273Zm0-2.871h47.681V-51.167H82.508Zm89.344-37.222h25.669l9.4-.137q.479,0,.479.547v2.393a.423.423,0,0,1-.479.479l-9.4-.137h-3.076q-2.8,14.492-10.562,23.652A239.026,239.026,0,0,1,204.323-.41a.38.38,0,0,1,.205.308,1.573,1.573,0,0,1-.41.718L203.2,1.743q-.649.82-.854.82a.83.83,0,0,1-.41-.205,235.071,235.071,0,0,0-20.3-12.92Q171-.034,151.96,3.076q-.615.068-.718.068-.479,0-.957-.991A5.671,5.671,0,0,0,148.611,0q19.243-2.222,29.873-12.3a133.544,133.544,0,0,0-16.509-7.451q-.649,1.128-2.666,4.067a.6.6,0,0,1-.513.376,1.938,1.938,0,0,1-.82-.308l-1.265-.547q-.786-.41-.786-.718a.83.83,0,0,1,.205-.41,65.333,65.333,0,0,0,4.717-6.938A126.94,126.94,0,0,0,167-36.675h-9.365l-9.4.137a.423.423,0,0,1-.479-.479v-2.393q0-.547.479-.547l9.4.137h10.63q2.085-5.093,4-11.211a18.71,18.71,0,0,0,.752-5.024q1.914.308,3.486.684.854.205.854.718a1.853,1.853,0,0,1-.479,1.06,9.153,9.153,0,0,0-1.265,2.939Q174.314-46.348,171.853-39.819Zm-1.265,3.145a128.385,128.385,0,0,1-6.938,14.355A147.28,147.28,0,0,1,180.808-14.7q7.69-8.579,10.151-21.978Zm77.347,10.151H229.444l-9.365.137a.423.423,0,0,1-.479-.479v-2.529a.423.423,0,0,1,.479-.479l9.365.137h18.491a50.208,50.208,0,0,0-.615-8.989q2.6.444,3.281.649a102.47,102.47,0,0,0,15.791-12.271H236.861l-9.912.137q-.513,0-.513-.479v-2.461q0-.479.513-.479l9.912.137h29.976a2.856,2.856,0,0,0,1.23-.205,1.581,1.581,0,0,1,.649-.137q.547,0,1.606.991,1.606,1.436,1.606,2.085a1.211,1.211,0,0,1-.786,1.06,10.978,10.978,0,0,0-2.29,1.538A92.652,92.652,0,0,1,251.353-35v5.264h18.354l9.365-.137a.423.423,0,0,1,.479.479v2.529a.423.423,0,0,1-.479.479l-9.365-.137H251.353v12.749l.068,9.5a9.353,9.353,0,0,1-.684,4,6.342,6.342,0,0,1-1.47,1.812q-1.709,1.709-8.34,1.709-.581,0-3.691-.034a2.147,2.147,0,0,1-1.06-.137,2.139,2.139,0,0,1-.342-.991,7.572,7.572,0,0,0-1.2-2.7,84.607,84.607,0,0,0,9.16.41q4.136,0,4.136-4.546Zm86.234-4.067h-7.69a119.29,119.29,0,0,1-.923,13.228q-1.641,13.091-7.622,20.781-.444.615-.615.615t-.786-.615a6.549,6.549,0,0,0-2.153-1.265,26.9,26.9,0,0,0,6.016-10.288A57.747,57.747,0,0,0,322.548-18.7q.923-6.87.923-24.78l-.137-9.3a.423.423,0,0,1,.479-.479l7.827.137h8.989l7.759-.137a.423.423,0,0,1,.479.479l-.137,7.007v11.382l.137,6.87a.423.423,0,0,1-.479.479h-2.256a.423.423,0,0,1-.479-.479v-3.076h-8.477Q339.912-8.135,353,1.4a5.618,5.618,0,0,0-1.88,1.675q-.513.752-.718.752-.171,0-.752-.547Q337.006-7.28,334.169-30.591Zm-7.622-2.8h19.106V-50.244H326.616v7.007Q326.616-36.333,326.547-33.394Zm-18.628,1.265v7.9h2.8l6.7-.137q.513,0,.513.41v.137q-.034.581-.171,1.982-.1,1.094-.137,1.743-.82,15.107-3.281,19.414A6.191,6.191,0,0,1,308.466,2.8q-1.47,0-3.965-.137-.684-.068-.82-.239a2.134,2.134,0,0,1-.308-.957,5.861,5.861,0,0,0-.786-2.153,46,46,0,0,0,5.264.41,4.149,4.149,0,0,0,3.862-2.017q2.324-3.726,3.008-19.346H301.767l-7.554.137a.423.423,0,0,1-.479-.479l.137-7.861v-16.03l-.137-8.306a.423.423,0,0,1,.479-.479l7.554.137h9.5l6.938-.137a.423.423,0,0,1,.479.479v2.051a.423.423,0,0,1-.479.479l-6.938-.137h-3.35v7.246h1.606l6.8-.137a.423.423,0,0,1,.479.479v1.982q0,.41-.479.41l-6.8-.137h-1.606v7.212h1.606l6.8-.137a.423.423,0,0,1,.479.479v1.914a.423.423,0,0,1-.479.479l-6.8-.137Zm-11.177,0v7.9h8.374v-7.9Zm0-2.6h8.374v-7.212h-8.374Zm0-9.81h8.374v-7.246h-8.374ZM301.7-5.947q0,.547-.718.752l-.957.376a3.078,3.078,0,0,1-.615.137q-.239,0-.239-.444a55.624,55.624,0,0,0-1.23-10.972,1.439,1.439,0,0,1-.034-.239q0-.239.718-.479l.752-.205a4.194,4.194,0,0,1,.547-.068q.239,0,.308.308A74.351,74.351,0,0,1,301.7-5.947ZM294.35-17.363l.923.273a.666.666,0,0,1,.547.718q-.752,9.126-3.281,14.355-.171.308-.308.308a1.752,1.752,0,0,1-.615-.308l-.991-.718q-.649-.444-.649-.649a.806.806,0,0,1,.1-.342,36.691,36.691,0,0,0,3.213-13.433q.068-.41.273-.41A4.249,4.249,0,0,1,294.35-17.363Zm9.878-.137a1.29,1.29,0,0,1,.444-.137q.205,0,.308.342a50.561,50.561,0,0,1,2.29,9.16,1,1,0,0,1,.034.239q0,.273-.649.547l-.684.273a2.617,2.617,0,0,1-.684.239q-.171,0-.239-.376a44.656,44.656,0,0,0-2.017-9.365,1.54,1.54,0,0,1-.068-.308q0-.205.615-.41Zm4.478-.786a1.567,1.567,0,0,1,.479-.137q.205,0,.342.273a30.933,30.933,0,0,1,2.666,6.938.934.934,0,0,1,.034.205q0,.273-.444.513l-.786.342a1.923,1.923,0,0,1-.581.205q-.171,0-.239-.342a30.96,30.96,0,0,0-2.529-7.075.787.787,0,0,1-.1-.308q0-.205.581-.376Zm79.4-10.425-9.878.137q-.513,0-.513-.547v-2.187q0-.479.513-.479l9.878.137h24.78l9.844-.137q.513,0,.513.479v2.188q0,.547-.513.547l-9.844-.137H398.152A260.265,260.265,0,0,1,389.266-4q13.535-1.572,24.37-3.418a105.188,105.188,0,0,0-6.8-9.092.739.739,0,0,1-.171-.376q0-.205.752-.615l.957-.581a1.986,1.986,0,0,1,.649-.308q.137,0,.342.273A108.154,108.154,0,0,1,422.044.137a.664.664,0,0,1,.137.342q0,.239-.854.786l-1.094.615a3.572,3.572,0,0,1-.991.479q-.205,0-.342-.376-1.914-3.931-3.726-6.87-15.791,2.8-32.334,4.819A8.552,8.552,0,0,0,379.9.581a2.475,2.475,0,0,1-1.128.479q-.444,0-.752-.786-.479-1.2-1.128-3.486,1.06.034,2.017.034a50.984,50.984,0,0,0,5.127-.239l1.606-.137a213.827,213.827,0,0,0,8.75-25.156ZM375.286-57.7a18.783,18.783,0,0,1,3.418,1.333q.718.376.718.718,0,.376-.581.82a7.963,7.963,0,0,0-1.4,2.529,113.731,113.731,0,0,1-4.956,11.074V-6.665l.137,11.006a.423.423,0,0,1-.479.479h-2.461a.423.423,0,0,1-.479-.479l.137-11.006v-18.32q0-5.64.205-11.006a77.158,77.158,0,0,1-7.28,10.288q-.479.581-.718.581t-.615-.649a4.147,4.147,0,0,0-1.538-1.538,73.925,73.925,0,0,0,14.834-25.6A16.517,16.517,0,0,0,375.286-57.7Zm17.227,10.664-9.331.137a.423.423,0,0,1-.479-.479v-2.256a.423.423,0,0,1,.479-.479l9.331.137H408.3l9.263-.137a.423.423,0,0,1,.479.479v2.256a.423.423,0,0,1-.479.479l-9.263-.137Z" transform="translate(2249 1267)" fill="#414141"/><path d="M-61.94,0H-76.846V-2.078l7.875-8.75a18.709,18.709,0,0,0,2.414-3.227,5.385,5.385,0,0,0,.664-2.57,4.082,4.082,0,0,0-1.078-2.922,3.77,3.77,0,0,0-2.875-1.141A4.464,4.464,0,0,0-73.2-19.461a4.685,4.685,0,0,0-1.2,3.414h-2.891a6.71,6.71,0,0,1,2.023-5.078,7.5,7.5,0,0,1,5.414-1.937A7.208,7.208,0,0,1-64.83-21.4a5.676,5.676,0,0,1,1.844,4.43q0,3.359-4.281,8l-6.094,6.609H-61.94Zm19.184-9.7q0,5.078-1.734,7.547A6.168,6.168,0,0,1-49.912.313,6.213,6.213,0,0,1-55.3-2.1q-1.75-2.414-1.812-7.211v-3.859q0-5.016,1.734-7.453a6.216,6.216,0,0,1,5.438-2.437,6.273,6.273,0,0,1,5.406,2.352q1.734,2.352,1.781,7.258Zm-2.891-3.953a10.592,10.592,0,0,0-1.031-5.352,3.55,3.55,0,0,0-3.266-1.68,3.5,3.5,0,0,0-3.234,1.672,10.342,10.342,0,0,0-1.047,5.141V-9.25A10.762,10.762,0,0,0-53.154-3.8a3.543,3.543,0,0,0,3.242,1.758A3.494,3.494,0,0,0-46.732-3.7a10.372,10.372,0,0,0,1.086-5.219ZM-22.29,0H-37.2V-2.078l7.875-8.75a18.709,18.709,0,0,0,2.414-3.227,5.385,5.385,0,0,0,.664-2.57,4.082,4.082,0,0,0-1.078-2.922A3.77,3.77,0,0,0-30.2-20.687a4.464,4.464,0,0,0-3.352,1.227,4.685,4.685,0,0,0-1.2,3.414h-2.891a6.71,6.71,0,0,1,2.023-5.078A7.5,7.5,0,0,1-30.2-23.062,7.208,7.208,0,0,1-25.181-21.4a5.676,5.676,0,0,1,1.844,4.43q0,3.359-4.281,8l-6.094,6.609H-22.29ZM-5.169-7.641h3.156v2.359H-5.169V0H-8.075V-5.281H-18.434v-1.7L-8.247-22.75h3.078Zm-9.984,0h7.078V-18.8l-.344.625ZM2.812-1.516a1.81,1.81,0,0,1,.445-1.25,1.7,1.7,0,0,1,1.336-.5,1.748,1.748,0,0,1,1.352.5,1.774,1.774,0,0,1,.461,1.25,1.678,1.678,0,0,1-.461,1.2A1.779,1.779,0,0,1,4.594.172,1.727,1.727,0,0,1,3.258-.312,1.711,1.711,0,0,1,2.812-1.516ZM22.231,0H19.325V-19.266L13.5-17.125V-19.75l8.281-3.109h.453ZM32.915-1.516a1.81,1.81,0,0,1,.445-1.25,1.7,1.7,0,0,1,1.336-.5,1.748,1.748,0,0,1,1.352.5,1.774,1.774,0,0,1,.461,1.25,1.678,1.678,0,0,1-.461,1.2A1.779,1.779,0,0,1,34.7.172,1.727,1.727,0,0,1,33.36-.312,1.711,1.711,0,0,1,32.915-1.516ZM52.334,0H49.427V-19.266L43.6-17.125V-19.75l8.281-3.109h.453ZM74.862-7.641h3.156v2.359H74.862V0H71.955V-5.281H61.6v-1.7L71.783-22.75h3.078Zm-9.984,0h7.078V-18.8l-.344.625Z" transform="translate(2473 1176)" fill-opacity="0" fill="#557ec0"/></g></g></svg>