<svg xmlns="http://www.w3.org/2000/svg" xmlns:xlink="http://www.w3.org/1999/xlink" width="2102.137" height="288.391" viewBox="0 0 2102.137 288.391"><defs><clipPath id="a"><path d="M-3519.228,6823.122l2017.613-45.385,84.524-243.005Z" transform="translate(5659.703 1248.974)" fill="#fff"/></clipPath></defs><g transform="translate(-2140.475 -7783.705)"><path d="M2140.475,8072.1l2100.754-2.323V7785.051Z" fill="#fff"/><g clip-path="url(#a)"><path d="M-3519.228,6823.122l2017.613-45.385,84.524-243.005Z" transform="translate(5659.703 1248.974)" fill="#fff"/><g transform="translate(4603.522 1251.974)"><path d="M40.944,55.02,103.775,28.9l963.739,1890.452Z" transform="matrix(-0.358, 0.934, -0.934, -0.358, -291.696, 6511.208)" fill="#a7c724"/><path d="M0,0H0L29.979-13.98l983.231,1825.49Z" transform="translate(-395.943 6667.27) rotate(115)" fill="#f2e320"/><path d="M0,0H34.66L963.739,1890.452,365.553,717.062Z" transform="matrix(-0.358, 0.934, -0.934, -0.358, -355.872, 6597.732)" fill="#3b315e"/><path d="M7.037,21.659,51.5,4.593,829.227,1896.951Z" transform="matrix(-0.358, 0.934, -0.934, -0.358, -398.008, 6725.639)" fill="#e82582"/></g></g></g></svg>