<svg xmlns="http://www.w3.org/2000/svg" xmlns:xlink="http://www.w3.org/1999/xlink" width="1920" height="443" viewBox="0 0 1920 443"><defs><clipPath id="a"><rect width="1920" height="443" transform="translate(3688 -349)" fill="#fff" stroke="#707070" stroke-width="1"/></clipPath></defs><g transform="translate(-3688 349)" clip-path="url(#a)"><g transform="translate(3805.434 -21.24)"><path d="M492.921,660.328H500.2L888.773,282.673Z" transform="matrix(0.995, -0.105, 0.105, 0.995, 634.587, -457.358)" fill="#abcd03"/><path d="M-395.116-208.78V891.436H1595.318V-208.78" transform="matrix(0.995, -0.105, 0.105, 0.995, 197.388, -642.491)" fill="none" fill-rule="evenodd"/><path d="M-395.116-208.78V891.436H1595.318V-208.78" transform="matrix(0.995, -0.105, 0.105, 0.995, 197.388, -642.491)" fill="none" fill-rule="evenodd"/><path d="M-395.116-208.78V891.436H1595.318V-208.78" transform="matrix(0.995, -0.105, 0.105, 0.995, 197.388, -642.491)" fill="none" fill-rule="evenodd"/><path d="M-395.116-208.78V891.436H1595.318V-208.78" transform="matrix(0.995, -0.105, 0.105, 0.995, 197.388, -642.491)" fill="none" fill-rule="evenodd"/><path d="M-395.116-208.78V891.436H1595.318V-208.78" transform="matrix(0.995, -0.105, 0.105, 0.995, 197.388, -642.491)" fill="none" fill-rule="evenodd"/><path d="M681.56,660.328h5.152L800.521,282.673Z" transform="matrix(0.995, -0.105, 0.105, 0.995, 722.355, -466.583)" fill="#f0e900"/><path d="M-395.116-208.78V891.436H1595.318V-208.78" transform="matrix(0.995, -0.105, 0.105, 0.995, 197.388, -642.491)" fill="none" fill-rule="evenodd"/><path d="M-395.116-208.78V891.436H1595.318V-208.78" transform="matrix(0.995, -0.105, 0.105, 0.995, 197.388, -642.491)" fill="none" fill-rule="evenodd"/><path d="M-395.116-208.78V891.436H1595.318V-208.78" transform="matrix(0.995, -0.105, 0.105, 0.995, 197.388, -642.491)" fill="none" fill-rule="evenodd"/><path d="M-395.116-208.78V891.436H1595.318V-208.78" transform="matrix(0.995, -0.105, 0.105, 0.995, 197.388, -642.491)" fill="none" fill-rule="evenodd"/><path d="M-395.116-208.78V891.436H1595.318V-208.78" transform="matrix(0.995, -0.105, 0.105, 0.995, 197.388, -642.491)" fill="none" fill-rule="evenodd"/><path d="M-395.116-208.78V891.436H1595.318V-208.78" transform="matrix(0.995, -0.105, 0.105, 0.995, 197.388, -642.491)" fill="none" fill-rule="evenodd"/><path d="M575.657,660.328H600.99L850.066,282.673Z" transform="matrix(0.995, -0.105, 0.105, 0.995, 673.082, -461.404)" fill="#f0e900"/><path d="M-395.116-208.78V891.436H1595.318V-208.78" transform="matrix(0.995, -0.105, 0.105, 0.995, 197.388, -642.491)" fill="none" fill-rule="evenodd"/><path d="M592.916,660.328h13.47L841.992,282.673Z" transform="matrix(0.995, -0.105, 0.105, 0.995, 681.112, -462.248)" fill="#1f286f"/><path d="M-395.116-208.78V891.436H1595.318V-208.78" transform="matrix(0.995, -0.105, 0.105, 0.995, 197.388, -642.491)" fill="none" fill-rule="evenodd"/><path d="M631.442,660.328h6.924l185.6-377.656Z" transform="matrix(0.995, -0.105, 0.105, 0.995, 699.037, -464.132)" fill="#abcd03"/><path d="M-395.116-208.78V891.436H1595.318V-208.78" transform="matrix(0.995, -0.105, 0.105, 0.995, 197.388, -642.491)" fill="none" fill-rule="evenodd"/><path d="M647.027,660.328h14.722L816.677,282.673Z" transform="matrix(0.995, -0.105, 0.105, 0.995, 706.288, -464.894)" fill="#e4007f"/><path d="M-395.116-208.78V891.436H1595.318V-208.78" transform="matrix(0.995, -0.105, 0.105, 0.995, 197.388, -642.491)" fill="none" fill-rule="evenodd"/><path d="M615.021,660.328h24.1L831.651,282.673Z" transform="matrix(0.995, -0.105, 0.105, 0.995, 691.396, -463.329)" fill="#557ec0"/><path d="M-395.116-208.78V891.436H1595.318V-208.78" transform="matrix(0.995, -0.105, 0.105, 0.995, 197.388, -642.491)" fill="none" fill-rule="evenodd"/><path d="M-395.116-208.78V891.436H1595.318V-208.78" transform="matrix(0.995, -0.105, 0.105, 0.995, 197.388, -642.491)" fill="none" fill-rule="evenodd"/><path d="M-395.116-208.78V891.436H1595.318V-208.78" transform="matrix(0.995, -0.105, 0.105, 0.995, 197.388, -642.491)" fill="none" fill-rule="evenodd"/><path d="M-395.116-208.78V891.436H1595.318V-208.78" transform="matrix(0.995, -0.105, 0.105, 0.995, 197.388, -642.491)" fill="none" fill-rule="evenodd"/><path d="M-395.116-208.78V891.436H1595.318V-208.78" transform="matrix(0.995, -0.105, 0.105, 0.995, 197.388, -642.491)" fill="none" fill-rule="evenodd"/><path d="M-395.116-208.78V891.436H1595.318V-208.78" transform="matrix(0.995, -0.105, 0.105, 0.995, 197.388, -642.491)" fill="none" fill-rule="evenodd"/><path d="M121.665,660.328h33.328l907.466-377.656Z" transform="matrix(0.995, -0.105, 0.105, 0.995, 461.853, -439.203)" fill="#e4007f"/><path d="M-395.116-208.78V891.436H1595.318V-208.78" transform="matrix(0.995, -0.105, 0.105, 0.995, 197.388, -642.491)" fill="none" fill-rule="evenodd"/><path d="M113.09,660.328h12.586L1066.47,282.673Z" transform="matrix(0.995, -0.105, 0.105, 0.995, 457.863, -438.784)" fill="#f0e900"/><path d="M-395.116-208.78V891.436H1595.318V-208.78" transform="matrix(0.995, -0.105, 0.105, 0.995, 197.388, -642.491)" fill="none" fill-rule="evenodd"/><path d="M15.023,660.328H47.464L1112.349,282.673Z" transform="matrix(0.995, -0.105, 0.105, 0.995, 412.236, -433.988)" fill="#f0e900"/><path d="M-395.116-208.78V891.436H1595.318V-208.78" transform="matrix(0.995, -0.105, 0.105, 0.995, 197.388, -642.491)" fill="none" fill-rule="evenodd"/><path d="M181.571,660.328h45.207l807.654-377.656Z" transform="matrix(0.995, -0.105, 0.105, 0.995, 489.726, -442.133)" fill="#557ec0"/><path d="M-395.116-208.78V891.436H1595.318V-208.78" transform="matrix(0.995, -0.105, 0.105, 0.995, 197.388, -642.491)" fill="none" fill-rule="evenodd"/><path d="M212.37,660.328h32.092l775.563-377.656Z" transform="matrix(0.995, -0.105, 0.105, 0.995, 504.055, -443.639)" fill="#1f286f"/><path d="M-395.116-208.78V891.436H1595.318V-208.78" transform="matrix(0.995, -0.105, 0.105, 0.995, 197.388, -642.491)" fill="none" fill-rule="evenodd"/><path d="M-395.116-208.78V891.436H1595.318V-208.78" transform="matrix(0.995, -0.105, 0.105, 0.995, 197.388, -642.491)" fill="none" fill-rule="evenodd"/><path d="M-395.116-208.78V891.436H1595.318V-208.78" transform="matrix(0.995, -0.105, 0.105, 0.995, 197.388, -642.491)" fill="none" fill-rule="evenodd"/><rect width="1409.029" height="792.512" transform="matrix(0.995, -0.105, 0.105, 0.995, 391.43, -564.708)" fill="none"/><rect width="1409" height="793" transform="matrix(0.995, -0.105, 0.105, 0.995, 391.328, -565.188)" fill="none"/><path d="M762.606,329.476h0l290.55-140.763v-6.127Z" transform="matrix(0.995, -0.105, 0.105, 0.995, 755.171, -517.093)" fill="#f0e900"/><path d="M1053.155,368.145h0v-6.127l-290.55-79.346Z" transform="matrix(0.995, -0.105, 0.105, 0.995, 760.063, -470.546)" fill="#e4007f"/><path d="M1053.155,390.545h0V376.035l-290.55-93.362Z" transform="matrix(0.995, -0.105, 0.105, 0.995, 760.063, -470.546)" fill="#f0e900"/><path d="M762.606,412.048h0l290.55-398.771V6.011Z" transform="matrix(0.995, -0.105, 0.105, 0.995, 746.54, -599.213)" fill="#e4007f"/><path d="M762.606,385.636h0L1053.155,92.8V62.492Z" transform="matrix(0.995, -0.105, 0.105, 0.995, 749.301, -572.946)" fill="#f0e900"/><path d="M762.606,355.786h0l290.55-221.076v-8.384Z" transform="matrix(0.995, -0.105, 0.105, 0.995, 752.421, -543.259)" fill="#557ec0"/><path d="M762.606,375.978h0l290.55-284.923V83.145Z" transform="matrix(0.995, -0.105, 0.105, 0.995, 750.31, -563.341)" fill="#e4007f"/><path d="M762.606,362.361h0l290.55-229.46V112.264Z" transform="matrix(0.995, -0.105, 0.105, 0.995, 751.733, -549.798)" fill="#1f286f"/><path d="M762.606,365.087h0l290.55-250.1v-8.556Z" transform="matrix(0.995, -0.105, 0.105, 0.995, 751.448, -552.51)" fill="#abcd03"/><path d="M-395.116-107.565h0L1304.225,476.318-395.116-131.427Z" transform="matrix(0.995, -0.105, 0.105, 0.995, 201.169, -606.516)" fill="#557ec0"/><path d="M-395.116-101.947h0L1304.225,468.715-395.116-115.168Z" transform="matrix(0.995, -0.105, 0.105, 0.995, 201.964, -598.955)" fill="#e4007f"/><path d="M-395.116-83.686h0L1304.225,457.16-395.116-90.458Z" transform="matrix(0.995, -0.105, 0.105, 0.995, 203.172, -587.463)" fill="#1f286f"/><path d="M-395.116-87.019h0L1304.225,460.6-395.116-97.811Z" transform="matrix(0.995, -0.105, 0.105, 0.995, 202.812, -590.883)" fill="#f0e900"/><path d="M-395.116-37.574h0L1304.225,436.5-395.116-46.281Z" transform="matrix(0.995, -0.105, 0.105, 0.995, 205.331, -566.918)" fill="#abcd03"/><path d="M-395.116-209.22h0v8.061L1304.225,512.7Z" transform="matrix(0.995, -0.105, 0.105, 0.995, 197.366, -642.695)" fill="#f0e900"/><path d="M-395.116-186.3h0L1304.225,503.86-395.116-190.324Z" transform="matrix(0.995, -0.105, 0.105, 0.995, 198.29, -633.908)" fill="#1f286f"/></g></g></svg>