<svg xmlns="http://www.w3.org/2000/svg" xmlns:xlink="http://www.w3.org/1999/xlink" width="279.496" height="109.848" viewBox="0 0 279.496 109.848"><defs><clipPath id="a"><rect width="279.496" height="69.511" fill="#fff"/></clipPath><clipPath id="b"><path d="M0,0V70.4H280.409V0" transform="translate(0 0)" fill="#fff" clip-rule="evenodd"/></clipPath></defs><g transform="translate(607.525 -4166.967)"><g transform="translate(-607.525 4207.304)"><g transform="translate(0 0)"><g clip-path="url(#a)"><g transform="translate(0 0)"><g clip-path="url(#b)"><path d="M52.061-.321h0c-10.869,0-19.564,6.7-23.368,16.112H0V68.564H15.541V30.822h16.3V68.564H47.6V34.932a6.98,6.98,0,0,0-1.847-4.758A8.958,8.958,0,1,1,61.3,24.009a8.375,8.375,0,0,1-2.5,6.056c-4.348,4.325,1.847,6.165,1.847,12V68.564H76.731V24.118C76.731,10.059,65.754-.321,52.061-.321Z" transform="translate(0 -0.003)" fill="#fff"/></g></g><g transform="translate(0 0)"><g clip-path="url(#b)"><path d="M124.067,30.243h0V68.417h7.607V30.351c0-4.758,2.175-7.244,7.282-7.244V15.644C129.718,15.644,124.067,21.916,124.067,30.243Z" transform="translate(1.139 0.144)" fill="#fff"/></g></g><g transform="translate(0 0)"><g clip-path="url(#b)"><path d="M109.219,54.684h0c0,4.108-4.674,7.028-8.912,7.028s-8.913-2.92-8.913-7.028V15.644H84v38.5c0,8.219,6.631,15.248,16.3,15.248s16.3-7.029,16.3-15.248v-38.5h-7.389Z" transform="translate(0.771 0.144)" fill="#fff"/></g></g><g transform="translate(0 0)"><g clip-path="url(#b)"><path d="M162.944,15.644H146.428v7.571h17.282c3.043,0,6.3,3.242,6.3,6.92V36.3H154.468c-8.692,0-15,7.028-15,13.734v4.108a14.089,14.089,0,0,0,14.017,14.275h10.01c8.475,0,14.008-7.462,14.008-15.14V30.459A14.732,14.732,0,0,0,162.944,15.644Zm.55,45.2H153.7a6.2,6.2,0,0,1-6.4-6.381V50.034c0-3.677,3.26-6.381,6.954-6.381l15.761.108V54.033A6.665,6.665,0,0,1,163.494,60.847Z" transform="translate(1.281 0.144)" fill="#fff"/></g></g><g transform="translate(0 0)"><g clip-path="url(#b)"><path d="M192.842,4.929h-7.388V68.515h7.388V22.881h9.895V15.743h-9.895Z" transform="translate(1.703 0.045)" fill="#fff"/></g></g><g transform="translate(0 0)"><g clip-path="url(#b)"><path d="M261.838,60.847h0a6.486,6.486,0,0,1-6.635-6.489V29.811a6.575,6.575,0,0,1,6.635-6.6h16.08V15.644H262.924c-9.46,0-15.327,7.571-15.327,16.006V52.413c0,9.624,5.867,16,16.08,16h14.241v-7.57Z" transform="translate(2.273 0.144)" fill="#fff"/></g></g><g transform="translate(0 0)"><g clip-path="url(#b)"><path d="M228.2,15.644h-9.88c-6.3,0-13.807,6.38-13.807,14.815V53.925a14.745,14.745,0,0,0,14.559,14.492H238.1v-7.57H219.076c-2.927,0-7.055-3.46-7.055-7.138V46.248H228.1c8.258,0,14.126-6.381,14.126-13.193V29.378C242.227,21.483,236.041,15.644,228.2,15.644Zm6.635,16.439h0v.757c0,3.676-3.362,6.163-7.07,6.163H212.021V30.459c0-3.675,3.695-7.244,7.388-7.244h9.011c3.709,0,6.418,2.054,6.418,5.731Z" transform="translate(1.878 0.144)" fill="#fff"/></g></g></g></g></g><path d="M8.68-17.088v-2.269h4.778v2.269Zm13.377-2.269v2.269h-4.9v-2.269Zm-10.541-8.48h7.555V-26.2H11.517ZM28.955-12.609H17.16v-1.762h8.719V-22.1H17.16v-1.463h5.584v-4.27h5.7v-3.016h-5.7v-2.18H19.071v2.18H11.517v-2.18H8.023v2.18H2.35v3.016H8.023v4.27h5.434V-22.1H5.1v7.734h8.361v1.762H1.872v3.225H13.458v4.27h3.7v-4.27H28.955ZM41.5-27.18a22.319,22.319,0,0,1-1.1,3.285l1.971.418H36.509L38-23.9a11.773,11.773,0,0,0-1.015-3.285Zm-.388,11.914h4.927v-2.986H41.108v-2.3h5.2v-2.926H43.288c.418-.9.9-2.09,1.433-3.374l-1.732-.328h3.076v-2.9H41.108v-2.717H37.674v2.717H32.658v2.9H36l-1.821.418a13.462,13.462,0,0,1,.9,3.285H32.329v2.926h5.345v2.3H32.419v2.986h4.539A19.591,19.591,0,0,1,31.583-9.5,13.123,13.123,0,0,1,33.882-7a21.092,21.092,0,0,0,3.792-4.21v6h3.434v-6.36a27.944,27.944,0,0,1,2.18,2.329l2.06-2.538c-.687-.537-3.165-2.508-4.24-3.255ZM59.86-23.209H50.544v-4.18a48.388,48.388,0,0,0,9.167-2.747l-2.837-2.6a34.839,34.839,0,0,1-7.584,2.628l-2.09-.6v10.361c0,4.121-.358,9.2-3.792,12.84a8.183,8.183,0,0,1,2.538,2.419c3.942-4.091,4.569-10.391,4.6-14.84h3.046v14.6h3.434v-14.6H59.86Zm9.884,10.093c-1.1,0-2.3-1.463-2.3-4.449a9.272,9.272,0,0,1,7.495-8.57,47.465,47.465,0,0,1-1.583,7.166C72.162-14.968,70.968-13.116,69.743-13.116Zm8.122,6.6c7.465-1.135,11.287-5.554,11.287-11.765,0-6.45-4.628-11.556-11.944-11.556-7.674,0-13.616,5.853-13.616,12.661,0,4.987,2.777,8.6,6.032,8.6,3.225,0,5.793-3.643,7.555-9.615a64.264,64.264,0,0,0,1.762-8.032c3.971.687,6.181,3.732,6.181,7.823,0,4.3-2.926,7.017-6.718,7.913-.776.179-1.612.328-2.747.478Zm24.814-26.068v3.314h7.465a25.543,25.543,0,0,0,4.569,7.734H99.245a28.049,28.049,0,0,0,3.583-7.137L99.1-29.6a18.843,18.843,0,0,1-6.211,9.257,32.865,32.865,0,0,1,2.986,2.628,20.833,20.833,0,0,0,2.239-2.329v1.821h4.419c-1.075,5.046-3.613,8.51-8.122,10.421a18.735,18.735,0,0,1,2.807,2.717c4.867-2.538,7.793-6.778,9.167-13.138H112.2c-.328,6-.717,8.63-1.4,9.286a1.5,1.5,0,0,1-1.224.418c-.717,0-2.3-.03-3.941-.179A8.214,8.214,0,0,1,106.8-5.2a39.667,39.667,0,0,0,4.389-.06,3.9,3.9,0,0,0,2.777-1.374c1.015-1.254,1.523-4.688,1.941-13.377v-.269a18.039,18.039,0,0,0,2.926,2.3,14.7,14.7,0,0,1,2.508-3.285c-4.3-2.239-7.256-6.689-8.51-11.317ZM135.316-9.862v-17.2h-2.538v12.78h-1.344V-32.645h-2.9v18.364h-1.284v-12.78H124.6V-8.7h2.658v-2.687h5.524v1.523Zm11.227-9.346a16.6,16.6,0,0,1-3.285,5.554,17.367,17.367,0,0,1-3.076-5.554Zm1.941-3.225-.567.149H145.08v-3.494h6.062v-3.135H145.08v-4.121h-3.464v4.121h-5.942v3.135h5.942v3.494h-5.4v3.076h3.344l-2.538.657a24.121,24.121,0,0,0,3.732,7.137,19.608,19.608,0,0,1-7.405,3.255A11.882,11.882,0,0,1,135.2-5.174a24.4,24.4,0,0,0,7.883-3.762,18.653,18.653,0,0,0,6.778,3.762A13.142,13.142,0,0,1,152.1-8.219a17.828,17.828,0,0,1-6.42-3.076,21.821,21.821,0,0,0,5.046-10.332Zm26.545,5.255H161.324V-20.97h13.706Zm3.613-7.077h-8.719v-2.837h10.69v-3.314h-10.69v-2.628H166.31v8.779H157.95v10.361h20.693ZM157.532-5.263a19.068,19.068,0,0,0,3.882-6.569l-3.434-.836a16.444,16.444,0,0,1-3.732,5.823Zm5.345-6.36a42.741,42.741,0,0,1,.6,6.271l3.613-.448a40,40,0,0,0-.836-6.151Zm6.091.03a37,37,0,0,1,2.09,6.091l3.434-.9a32.41,32.41,0,0,0-2.269-5.912Zm6.062-.179a33.02,33.02,0,0,1,3.673,6.42l3.434-1.314a34.9,34.9,0,0,0-3.912-6.241Z" transform="translate(-558.178 4200)" fill="#fff"/></g></svg>