<svg xmlns="http://www.w3.org/2000/svg" xmlns:xlink="http://www.w3.org/1999/xlink" width="365.05" height="143.473" viewBox="0 0 365.05 143.473"><defs><clipPath id="a"><rect width="365.05" height="90.789" fill="#5a77b0"/></clipPath><clipPath id="b"><path d="M0,0V91.948H366.242V0" transform="translate(0 0)" fill="#5a77b0" clip-rule="evenodd"/></clipPath></defs><g transform="translate(607.525 -4166.967)"><g transform="translate(-525.337 4240.092)"><g transform="translate(-82.188 -20.44)"><g clip-path="url(#a)"><g transform="translate(0 0)"><g clip-path="url(#b)"><path d="M68-.321h0c-14.2,0-25.553,8.756-30.52,21.043H0V89.649H20.3V40.355H41.592V89.649H62.176V45.723a9.116,9.116,0,0,0-2.412-6.215,11.7,11.7,0,1,1,20.3-8.051,10.938,10.938,0,0,1-3.264,7.91c-5.678,5.649,2.412,8.052,2.412,15.679v34.6h21.008V31.6C100.219,13.237,85.882-.321,68-.321Z" transform="translate(0 -0.102)" fill="#5a77b0"/></g></g><g transform="translate(0 0)"><g clip-path="url(#b)"><path d="M124.067,34.712h0v49.86H134V34.853c0-6.215,2.84-9.461,9.511-9.461V15.644C131.448,15.644,124.067,23.836,124.067,34.712Z" transform="translate(39.465 4.976)" fill="#5a77b0"/></g></g><g transform="translate(0 0)"><g clip-path="url(#b)"><path d="M116.938,66.634h0c0,5.366-6.1,9.179-11.64,9.179S93.657,72,93.657,66.634V15.644H84V65.927c0,10.735,8.661,19.915,21.3,19.915s21.291-9.181,21.291-19.915V15.644h-9.651Z" transform="translate(26.721 4.976)" fill="#5a77b0"/></g></g><g transform="translate(0 0)"><g clip-path="url(#b)"><path d="M170.13,15.644H148.559v9.888h22.572c3.974,0,8.231,4.235,8.231,9.038v8.052h-20.3c-11.353,0-19.593,9.179-19.593,17.938v5.366a18.4,18.4,0,0,0,18.307,18.644h13.074c11.069,0,18.3-9.746,18.3-19.774v-29.8A19.241,19.241,0,0,0,170.13,15.644Zm.718,59.04H158.057a8.1,8.1,0,0,1-8.363-8.334V60.561c0-4.8,4.257-8.334,9.083-8.334l20.586.141V65.784A8.7,8.7,0,0,1,170.848,74.684Z" transform="translate(44.363 4.976)" fill="#5a77b0"/></g></g><g transform="translate(0 0)"><g clip-path="url(#b)"><path d="M195.1,4.929h-9.65v83.05h9.65v-59.6h12.923V19.053H195.1Z" transform="translate(58.992 1.568)" fill="#5a77b0"/></g></g><g transform="translate(0 0)"><g clip-path="url(#b)"><path d="M266.2,74.684h0a8.472,8.472,0,0,1-8.666-8.475V34.147a8.588,8.588,0,0,1,8.666-8.615h21V15.644H267.616c-12.356,0-20.019,9.888-20.019,20.9V63.667c0,12.569,7.663,20.9,21,20.9h18.6V74.684Z" transform="translate(78.759 4.976)" fill="#5a77b0"/></g></g><g transform="translate(0 0)"><g clip-path="url(#b)"><path d="M235.454,15.644h-12.9c-8.231,0-18.033,8.333-18.033,19.35v30.65a19.258,19.258,0,0,0,19.016,18.928h24.843V74.684H223.533c-3.822,0-9.215-4.52-9.215-9.323V55.616h21c10.786,0,18.449-8.334,18.449-17.231v-4.8C253.77,23.27,245.69,15.644,235.454,15.644Zm8.666,21.47h0V38.1c0,4.8-4.391,8.05-9.235,8.05H214.318V34.994c0-4.8,4.826-9.461,9.65-9.461h11.769c4.844,0,8.383,2.682,8.383,7.485Z" transform="translate(65.055 4.976)" fill="#5a77b0"/></g></g></g></g></g><path d="M10.764-12.207v-2.964H17v2.964Zm17.472-2.964v2.964h-6.4v-2.964ZM14.469-26.247h9.867V-24.1H14.469ZM37.245-6.357H21.84v-2.3H33.228v-10.1H21.84V-20.67h7.293v-5.577h7.449v-3.939H29.133v-2.847h-4.8v2.847H14.469v-2.847H9.906v2.847H2.5v3.939h7.41v5.577H17v1.911H6.084v10.1H17v2.3H1.872v4.212H17V3.432H21.84V-2.145H37.245Zm16.38-19.032a29.151,29.151,0,0,1-1.443,4.29l2.574.546H47.112l1.95-.546a15.377,15.377,0,0,0-1.326-4.29ZM53.118-9.828h6.435v-3.9H53.118v-3H59.9v-3.822H55.965c.546-1.17,1.17-2.73,1.872-4.407l-2.262-.429h4.017v-3.783H53.118v-3.549H48.633v3.549H42.081v3.783h4.368l-2.379.546a17.583,17.583,0,0,1,1.17,4.29H41.652v3.822h6.981v3H41.769v3.9H47.7A25.587,25.587,0,0,1,40.677-2.3a17.14,17.14,0,0,1,3,3.276,27.548,27.548,0,0,0,4.953-5.5V3.315h4.485V-4.992A36.5,36.5,0,0,1,55.965-1.95l2.691-3.315c-.9-.7-4.134-3.276-5.538-4.251ZM77.61-20.2H65.442v-5.46A63.2,63.2,0,0,0,77.415-29.25l-3.7-3.393A45.5,45.5,0,0,1,63.8-29.211l-2.73-.78v13.533c0,5.382-.468,12.012-4.953,16.77a10.688,10.688,0,0,1,3.315,3.159C64.584-1.872,65.4-10.1,65.442-15.912H69.42V3.159H73.9V-15.912H77.61ZM90.519-7.02c-1.443,0-3-1.911-3-5.811,0-4.251,3.393-9.867,9.789-11.193a61.993,61.993,0,0,1-2.067,9.36C93.678-9.438,92.118-7.02,90.519-7.02ZM101.127,1.6c9.75-1.482,14.742-7.254,14.742-15.366,0-8.424-6.045-15.093-15.6-15.093-10.023,0-17.784,7.644-17.784,16.536,0,6.513,3.627,11.232,7.878,11.232,4.212,0,7.566-4.758,9.867-12.558a83.933,83.933,0,0,0,2.3-10.491c5.187.9,8.073,4.875,8.073,10.218,0,5.616-3.822,9.165-8.775,10.335-1.014.234-2.106.429-3.588.624Zm32.409-34.047v4.329h9.75a33.361,33.361,0,0,0,5.967,10.1h-20.2a36.634,36.634,0,0,0,4.68-9.321l-4.875-1.209a24.611,24.611,0,0,1-8.112,12.09,42.925,42.925,0,0,1,3.9,3.432,27.21,27.21,0,0,0,2.925-3.042v2.379h5.772c-1.4,6.591-4.719,11.115-10.608,13.611A24.47,24.47,0,0,1,126.4,3.471c6.357-3.315,10.179-8.853,11.973-17.16h7.605c-.429,7.839-.936,11.271-1.833,12.129a1.965,1.965,0,0,1-1.6.546c-.936,0-3-.039-5.148-.234a10.728,10.728,0,0,1,1.521,4.563,51.809,51.809,0,0,0,5.733-.078,5.1,5.1,0,0,0,3.627-1.794C149.6-.2,150.267-4.68,150.813-16.029v-.351a23.561,23.561,0,0,0,3.822,3,19.193,19.193,0,0,1,3.276-4.29c-5.616-2.925-9.477-8.736-11.115-14.781ZM176.163-2.769V-25.233h-3.315V-8.541h-1.755V-32.526H167.31V-8.541h-1.677V-25.233h-3.471V-1.248h3.471v-3.51h7.215v1.989Zm14.664-12.207a21.679,21.679,0,0,1-4.29,7.254,22.684,22.684,0,0,1-4.017-7.254Zm2.535-4.212-.741.195h-3.705v-4.563h7.917v-4.1h-7.917v-5.382h-4.524v5.382h-7.761v4.1h7.761v4.563h-7.059v4.017H181.7l-3.315.858A31.5,31.5,0,0,0,183.261-4.8a25.611,25.611,0,0,1-9.672,4.251,15.519,15.519,0,0,1,2.418,3.9A31.866,31.866,0,0,0,186.3-1.56a24.363,24.363,0,0,0,8.853,4.914,17.164,17.164,0,0,1,2.925-3.978A23.285,23.285,0,0,1,189.7-4.641a28.5,28.5,0,0,0,6.591-13.494Zm34.671,6.864h-17.9v-4.953h17.9Zm4.719-9.243H221.364v-3.7h13.962V-29.6H221.364v-3.432h-4.719v11.466h-10.92V-8.034h27.027Zm-27.573,24.8a24.9,24.9,0,0,0,5.07-8.58l-4.485-1.092a21.477,21.477,0,0,1-4.875,7.605ZM212.16-5.07a55.824,55.824,0,0,1,.78,8.19l4.719-.585A52.249,52.249,0,0,0,216.567-5.5Zm7.956.039a48.327,48.327,0,0,1,2.73,7.956l4.485-1.17a42.331,42.331,0,0,0-2.964-7.722Zm7.917-.234a43.126,43.126,0,0,1,4.8,8.385L237.315,1.4a45.576,45.576,0,0,0-5.109-8.151Z" transform="translate(-542.5 4200)" fill="#5a77b0"/></g></svg>