<svg xmlns="http://www.w3.org/2000/svg" width="200" height="200" viewBox="0 0 200 200"><g transform="translate(-9002 -4843)"><path d="M100,0A100,100,0,1,1,0,100,100,100,0,0,1,100,0Z" transform="translate(9002 4843)" fill="#fff"/><path d="M100,10a90,90,0,1,0,90,90,90.1,90.1,0,0,0-90-90m0-10A100,100,0,1,1,0,100,100,100,0,0,1,100,0Z" transform="translate(9002 4843)" fill="#f20344"/><path d="M-45.066-21.924a12.269,12.269,0,0,1-3.48.435h-9.686a34.423,34.423,0,0,1-3.712-.232v4.988c.812-.058,2.407-.232,3.712-.232h9.019a21.266,21.266,0,0,1-4.06,6.554A32.338,32.338,0,0,1-65.134-2.262l3.654,3.8A38.857,38.857,0,0,0-50.837-6.38a57.577,57.577,0,0,1,6.931,7.946l4.031-3.509a77.261,77.261,0,0,0-7.888-8.091,44.948,44.948,0,0,0,4.379-7.656,16.249,16.249,0,0,1,1.189-2.117Zm29.9,10.817a95.879,95.879,0,0,0-11.977-4.379v-3.973a34.479,34.479,0,0,1,.29-3.77h-5.481a20.259,20.259,0,0,1,.348,3.77V-2.9a32.556,32.556,0,0,1-.348,4.379h5.51c-.145-1.305-.319-3.6-.319-4.379v-7.453a90.443,90.443,0,0,1,9.976,4.147Zm5.161,2.726c1.189-.087,3.364-.174,5.017-.174H7.41c1.189,0,2.813.145,3.567.174V-13.92c-.841.058-2.262.2-3.567.2h-12.4c-1.421,0-3.857-.116-5.017-.2ZM17.936-22.533a22.4,22.4,0,0,1,.116,2.291v9.831c0,.9-.116,2.146-.145,2.726h5.22c-.058-.754-.116-1.972-.116-2.7v-9.86c0-1.044.058-1.566.116-2.291Zm13.311-.261a22.94,22.94,0,0,1,.2,3.132v6c0,4-.406,6.061-2.349,8.12A13.626,13.626,0,0,1,21.967-2L25.65,1.885a18.117,18.117,0,0,0,7.105-4.176c2.2-2.32,3.567-5.22,3.567-11.049v-6.322c0-1.276.058-2.262.116-3.132ZM42.426-8.381c1.189-.087,3.364-.174,5.017-.174h11.4c1.189,0,2.813.145,3.567.174V-13.92c-.841.058-2.262.2-3.567.2h-11.4c-1.421,0-3.857-.116-5.017-.2Z" transform="translate(9103.134 4913)" fill="#f20344"/><path d="M-3.984-24.985q0,12.534-5.188,19.175T-24.363.83q-9.878,0-15.107-6.516t-5.354-18.677V-35.486q0-12.659,5.25-19.216t15.128-6.558q9.878,0,15.107,6.5t5.354,18.656ZM-15.979-37.215q0-7.52-2.054-10.947a6.943,6.943,0,0,0-6.412-3.427,6.82,6.82,0,0,0-6.246,3.261q-2.013,3.261-2.137,10.2v14.707q0,7.395,2.013,10.988A6.851,6.851,0,0,0-24.363-8.84a6.736,6.736,0,0,0,6.35-3.448q1.951-3.448,2.034-10.552ZM33.245,0H21.25V-46.235L6.931-41.794v-9.753l25.027-8.965h1.287Z" transform="translate(9102 4994)" fill="#f20344"/></g></svg>