<?xml version="1.0" encoding="UTF-8"?>
<svg id="_レイヤー_2" data-name="レイヤー_2" xmlns="http://www.w3.org/2000/svg" viewBox="0 0 550 470.78">
  <defs>
    <style>
      .cls-1 {
        fill: #fff;
      }

      .cls-2 {
        fill: #404040;
      }

      .cls-3 {
        fill: #c00;
      }

      .cls-4 {
        isolation: isolate;
      }

      .cls-5 {
        fill: #677ec7;
      }

      .cls-6 {
        fill: #707070;
      }
    </style>
  </defs>
  <g id="_レイヤー_1-2" data-name="レイヤー_1">
    <g>
      <g>
        <path class="cls-6" d="M550,45.26H42.08v-1h507.92v1Z"/>
        <path class="cls-6" d="M548.73,82.47h-2v-1h2v1ZM544.73,82.47h-2v-1h2v1ZM540.73,82.47h-2v-1h2v1ZM536.73,82.47h-2v-1h2v1ZM532.73,82.47h-2v-1h2v1ZM528.73,82.47h-2v-1h2v1ZM524.73,82.47h-2v-1h2v1ZM520.73,82.47h-2v-1h2v1ZM516.73,82.47h-2v-1h2v1ZM512.73,82.47h-2v-1h2v1ZM508.73,82.47h-2v-1h2v1ZM504.73,82.47h-2v-1h2v1ZM500.73,82.47h-2v-1h2v1ZM496.73,82.47h-2v-1h2v1ZM492.73,82.47h-2v-1h2v1ZM488.73,82.47h-2v-1h2v1ZM484.73,82.47h-2v-1h2v1ZM480.73,82.47h-2v-1h2v1ZM476.73,82.47h-2v-1h2v1ZM472.73,82.47h-2v-1h2v1ZM468.73,82.47h-2v-1h2v1ZM464.73,82.47h-2v-1h2v1ZM460.73,82.47h-2v-1h2v1ZM456.73,82.47h-2v-1h2v1ZM452.73,82.47h-2v-1h2v1ZM448.73,82.47h-2v-1h2v1ZM444.73,82.47h-2v-1h2v1ZM440.73,82.47h-2v-1h2v1ZM436.73,82.47h-2v-1h2v1ZM432.73,82.47h-2v-1h2v1ZM428.73,82.47h-2v-1h2v1ZM424.73,82.47h-2v-1h2v1ZM420.73,82.47h-2v-1h2v1ZM416.73,82.47h-2v-1h2v1ZM412.73,82.47h-2v-1h2v1ZM408.73,82.47h-2v-1h2v1ZM404.73,82.47h-2v-1h2v1ZM400.73,82.47h-2v-1h2v1ZM396.73,82.47h-2v-1h2v1ZM392.73,82.47h-2v-1h2v1ZM388.73,82.47h-2v-1h2v1ZM384.73,82.47h-2v-1h2v1ZM380.73,82.47h-2v-1h2v1ZM376.73,82.47h-2v-1h2v1ZM372.73,82.47h-2v-1h2v1ZM368.73,82.47h-2v-1h2v1ZM364.73,82.47h-2v-1h2v1ZM360.73,82.47h-2v-1h2v1ZM356.73,82.47h-2v-1h2v1ZM352.73,82.47h-2v-1h2v1ZM348.73,82.47h-2v-1h2v1ZM344.73,82.47h-2v-1h2v1ZM340.73,82.47h-2v-1h2v1ZM336.73,82.47h-2v-1h2v1ZM332.73,82.47h-2v-1h2v1ZM328.73,82.47h-2v-1h2v1ZM324.73,82.47h-2v-1h2v1ZM320.73,82.47h-2v-1h2v1ZM316.73,82.47h-2v-1h2v1ZM312.73,82.47h-2v-1h2v1ZM308.73,82.47h-2v-1h2v1ZM304.73,82.47h-2v-1h2v1ZM300.73,82.47h-2v-1h2v1ZM296.73,82.47h-2v-1h2v1ZM292.73,82.47h-2v-1h2v1ZM288.73,82.47h-2v-1h2v1ZM284.73,82.47h-2v-1h2v1ZM280.73,82.47h-2v-1h2v1ZM276.73,82.47h-2v-1h2v1ZM272.73,82.47h-2v-1h2v1ZM268.73,82.47h-2v-1h2v1ZM264.73,82.47h-2v-1h2v1ZM260.73,82.47h-2v-1h2v1ZM256.73,82.47h-2v-1h2v1ZM252.73,82.47h-2v-1h2v1ZM248.73,82.47h-2v-1h2v1ZM244.73,82.47h-2v-1h2v1ZM240.73,82.47h-2v-1h2v1ZM236.73,82.47h-2v-1h2v1ZM232.73,82.47h-2v-1h2v1ZM228.73,82.47h-2v-1h2v1ZM224.73,82.47h-2v-1h2v1ZM220.73,82.47h-2v-1h2v1ZM216.73,82.47h-2v-1h2v1ZM212.73,82.47h-2v-1h2v1ZM208.73,82.47h-2v-1h2v1ZM204.73,82.47h-2v-1h2v1ZM200.73,82.47h-2v-1h2v1ZM196.73,82.47h-2v-1h2v1ZM192.73,82.47h-2v-1h2v1ZM188.73,82.47h-2v-1h2v1ZM184.73,82.47h-2v-1h2v1ZM180.73,82.47h-2v-1h2v1ZM176.73,82.47h-2v-1h2v1ZM172.73,82.47h-2v-1h2v1ZM168.73,82.47h-2v-1h2v1ZM164.73,82.47h-2v-1h2v1ZM160.73,82.47h-2v-1h2v1ZM156.73,82.47h-2v-1h2v1ZM152.73,82.47h-2v-1h2v1ZM148.73,82.47h-2v-1h2v1ZM144.73,82.47h-2v-1h2v1ZM140.73,82.47h-2v-1h2v1ZM136.73,82.47h-2v-1h2v1ZM132.73,82.47h-2v-1h2v1ZM128.73,82.47h-2v-1h2v1ZM124.73,82.47h-2v-1h2v1ZM120.73,82.47h-2v-1h2v1ZM116.73,82.47h-2v-1h2v1ZM112.73,82.47h-2v-1h2v1ZM108.73,82.47h-2v-1h2v1ZM104.73,82.47h-2v-1h2v1ZM100.73,82.47h-2v-1h2v1ZM96.73,82.47h-2v-1h2v1ZM92.73,82.47h-2v-1h2v1ZM88.73,82.47h-2v-1h2v1ZM84.73,82.47h-2v-1h2v1ZM80.73,82.47h-2v-1h2v1ZM76.73,82.47h-2v-1h2v1ZM72.73,82.47h-2v-1h2v1ZM68.73,82.47h-2v-1h2v1ZM64.73,82.47h-2v-1h2v1ZM60.73,82.47h-2v-1h2v1ZM56.73,82.47h-2v-1h2v1ZM52.73,82.47h-2v-1h2v1ZM48.73,82.47h-2v-1h2v1Z"/>
        <path class="cls-6" d="M548.73,153.62h-2v-1h2v1ZM544.73,153.62h-2v-1h2v1ZM540.73,153.62h-2v-1h2v1ZM536.73,153.62h-2v-1h2v1ZM532.73,153.62h-2v-1h2v1ZM528.73,153.62h-2v-1h2v1ZM524.73,153.62h-2v-1h2v1ZM520.73,153.62h-2v-1h2v1ZM516.73,153.62h-2v-1h2v1ZM512.73,153.62h-2v-1h2v1ZM508.73,153.62h-2v-1h2v1ZM504.73,153.62h-2v-1h2v1ZM500.73,153.62h-2v-1h2v1ZM496.73,153.62h-2v-1h2v1ZM492.73,153.62h-2v-1h2v1ZM488.73,153.62h-2v-1h2v1ZM484.73,153.62h-2v-1h2v1ZM480.73,153.62h-2v-1h2v1ZM476.73,153.62h-2v-1h2v1ZM472.73,153.62h-2v-1h2v1ZM468.73,153.62h-2v-1h2v1ZM464.73,153.62h-2v-1h2v1ZM460.73,153.62h-2v-1h2v1ZM456.73,153.62h-2v-1h2v1ZM452.73,153.62h-2v-1h2v1ZM448.73,153.62h-2v-1h2v1ZM444.73,153.62h-2v-1h2v1ZM440.73,153.62h-2v-1h2v1ZM436.73,153.62h-2v-1h2v1ZM432.73,153.62h-2v-1h2v1ZM428.73,153.62h-2v-1h2v1ZM424.73,153.62h-2v-1h2v1ZM420.73,153.62h-2v-1h2v1ZM416.73,153.62h-2v-1h2v1ZM412.73,153.62h-2v-1h2v1ZM408.73,153.62h-2v-1h2v1ZM404.73,153.62h-2v-1h2v1ZM400.73,153.62h-2v-1h2v1ZM396.73,153.62h-2v-1h2v1ZM392.73,153.62h-2v-1h2v1ZM388.73,153.62h-2v-1h2v1ZM384.73,153.62h-2v-1h2v1ZM380.73,153.62h-2v-1h2v1ZM376.73,153.62h-2v-1h2v1ZM372.73,153.62h-2v-1h2v1ZM368.73,153.62h-2v-1h2v1ZM364.73,153.62h-2v-1h2v1ZM360.73,153.62h-2v-1h2v1ZM356.73,153.62h-2v-1h2v1ZM352.73,153.62h-2v-1h2v1ZM348.73,153.62h-2v-1h2v1ZM344.73,153.62h-2v-1h2v1ZM340.73,153.62h-2v-1h2v1ZM336.73,153.62h-2v-1h2v1ZM332.73,153.62h-2v-1h2v1ZM328.73,153.62h-2v-1h2v1ZM324.73,153.62h-2v-1h2v1ZM320.73,153.62h-2v-1h2v1ZM316.73,153.62h-2v-1h2v1ZM312.73,153.62h-2v-1h2v1ZM308.73,153.62h-2v-1h2v1ZM304.73,153.62h-2v-1h2v1ZM300.73,153.62h-2v-1h2v1ZM296.73,153.62h-2v-1h2v1ZM292.73,153.62h-2v-1h2v1ZM288.73,153.62h-2v-1h2v1ZM284.73,153.62h-2v-1h2v1ZM280.73,153.62h-2v-1h2v1ZM276.73,153.62h-2v-1h2v1ZM272.73,153.62h-2v-1h2v1ZM268.73,153.62h-2v-1h2v1ZM264.73,153.62h-2v-1h2v1ZM260.73,153.62h-2v-1h2v1ZM256.73,153.62h-2v-1h2v1ZM252.73,153.62h-2v-1h2v1ZM248.73,153.62h-2v-1h2v1ZM244.73,153.62h-2v-1h2v1ZM240.73,153.62h-2v-1h2v1ZM236.73,153.62h-2v-1h2v1ZM232.73,153.62h-2v-1h2v1ZM228.73,153.62h-2v-1h2v1ZM224.73,153.62h-2v-1h2v1ZM220.73,153.62h-2v-1h2v1ZM216.73,153.62h-2v-1h2v1ZM212.73,153.62h-2v-1h2v1ZM208.73,153.62h-2v-1h2v1ZM204.73,153.62h-2v-1h2v1ZM200.73,153.62h-2v-1h2v1ZM196.73,153.62h-2v-1h2v1ZM192.73,153.62h-2v-1h2v1ZM188.73,153.62h-2v-1h2v1ZM184.73,153.62h-2v-1h2v1ZM180.73,153.62h-2v-1h2v1ZM176.73,153.62h-2v-1h2v1ZM172.73,153.62h-2v-1h2v1ZM168.73,153.62h-2v-1h2v1ZM164.73,153.62h-2v-1h2v1ZM160.73,153.62h-2v-1h2v1ZM156.73,153.62h-2v-1h2v1ZM152.73,153.62h-2v-1h2v1ZM148.73,153.62h-2v-1h2v1ZM144.73,153.62h-2v-1h2v1ZM140.73,153.62h-2v-1h2v1ZM136.73,153.62h-2v-1h2v1ZM132.73,153.62h-2v-1h2v1ZM128.73,153.62h-2v-1h2v1ZM124.73,153.62h-2v-1h2v1ZM120.73,153.62h-2v-1h2v1ZM116.73,153.62h-2v-1h2v1ZM112.73,153.62h-2v-1h2v1ZM108.73,153.62h-2v-1h2v1ZM104.73,153.62h-2v-1h2v1ZM100.73,153.62h-2v-1h2v1ZM96.73,153.62h-2v-1h2v1ZM92.73,153.62h-2v-1h2v1ZM88.73,153.62h-2v-1h2v1ZM84.73,153.62h-2v-1h2v1ZM80.73,153.62h-2v-1h2v1ZM76.73,153.62h-2v-1h2v1ZM72.73,153.62h-2v-1h2v1ZM68.73,153.62h-2v-1h2v1ZM64.73,153.62h-2v-1h2v1ZM60.73,153.62h-2v-1h2v1ZM56.73,153.62h-2v-1h2v1ZM52.73,153.62h-2v-1h2v1ZM48.73,153.62h-2v-1h2v1Z"/>
        <path class="cls-6" d="M548.73,225.89h-2v-1h2v1ZM544.73,225.89h-2v-1h2v1ZM540.73,225.89h-2v-1h2v1ZM536.73,225.89h-2v-1h2v1ZM532.73,225.89h-2v-1h2v1ZM528.73,225.89h-2v-1h2v1ZM524.73,225.89h-2v-1h2v1ZM520.73,225.89h-2v-1h2v1ZM516.73,225.89h-2v-1h2v1ZM512.73,225.89h-2v-1h2v1ZM508.73,225.89h-2v-1h2v1ZM504.73,225.89h-2v-1h2v1ZM500.73,225.89h-2v-1h2v1ZM496.73,225.89h-2v-1h2v1ZM492.73,225.89h-2v-1h2v1ZM488.73,225.89h-2v-1h2v1ZM484.73,225.89h-2v-1h2v1ZM480.73,225.89h-2v-1h2v1ZM476.73,225.89h-2v-1h2v1ZM472.73,225.89h-2v-1h2v1ZM468.73,225.89h-2v-1h2v1ZM464.73,225.89h-2v-1h2v1ZM460.73,225.89h-2v-1h2v1ZM456.73,225.89h-2v-1h2v1ZM452.73,225.89h-2v-1h2v1ZM448.73,225.89h-2v-1h2v1ZM444.73,225.89h-2v-1h2v1ZM440.73,225.89h-2v-1h2v1ZM436.73,225.89h-2v-1h2v1ZM432.73,225.89h-2v-1h2v1ZM428.73,225.89h-2v-1h2v1ZM424.73,225.89h-2v-1h2v1ZM420.73,225.89h-2v-1h2v1ZM416.73,225.89h-2v-1h2v1ZM412.73,225.89h-2v-1h2v1ZM408.73,225.89h-2v-1h2v1ZM404.73,225.89h-2v-1h2v1ZM400.73,225.89h-2v-1h2v1ZM396.73,225.89h-2v-1h2v1ZM392.73,225.89h-2v-1h2v1ZM388.73,225.89h-2v-1h2v1ZM384.73,225.89h-2v-1h2v1ZM380.73,225.89h-2v-1h2v1ZM376.73,225.89h-2v-1h2v1ZM372.73,225.89h-2v-1h2v1ZM368.73,225.89h-2v-1h2v1ZM364.73,225.89h-2v-1h2v1ZM360.73,225.89h-2v-1h2v1ZM356.73,225.89h-2v-1h2v1ZM352.73,225.89h-2v-1h2v1ZM348.73,225.89h-2v-1h2v1ZM344.73,225.89h-2v-1h2v1ZM340.73,225.89h-2v-1h2v1ZM336.73,225.89h-2v-1h2v1ZM332.73,225.89h-2v-1h2v1ZM328.73,225.89h-2v-1h2v1ZM324.73,225.89h-2v-1h2v1ZM320.73,225.89h-2v-1h2v1ZM316.73,225.89h-2v-1h2v1ZM312.73,225.89h-2v-1h2v1ZM308.73,225.89h-2v-1h2v1ZM304.73,225.89h-2v-1h2v1ZM300.73,225.89h-2v-1h2v1ZM296.73,225.89h-2v-1h2v1ZM292.73,225.89h-2v-1h2v1ZM288.73,225.89h-2v-1h2v1ZM284.73,225.89h-2v-1h2v1ZM280.73,225.89h-2v-1h2v1ZM276.73,225.89h-2v-1h2v1ZM272.73,225.89h-2v-1h2v1ZM268.73,225.89h-2v-1h2v1ZM264.73,225.89h-2v-1h2v1ZM260.73,225.89h-2v-1h2v1ZM256.73,225.89h-2v-1h2v1ZM252.73,225.89h-2v-1h2v1ZM248.73,225.89h-2v-1h2v1ZM244.73,225.89h-2v-1h2v1ZM240.73,225.89h-2v-1h2v1ZM236.73,225.89h-2v-1h2v1ZM232.73,225.89h-2v-1h2v1ZM228.73,225.89h-2v-1h2v1ZM224.73,225.89h-2v-1h2v1ZM220.73,225.89h-2v-1h2v1ZM216.73,225.89h-2v-1h2v1ZM212.73,225.89h-2v-1h2v1ZM208.73,225.89h-2v-1h2v1ZM204.73,225.89h-2v-1h2v1ZM200.73,225.89h-2v-1h2v1ZM196.73,225.89h-2v-1h2v1ZM192.73,225.89h-2v-1h2v1ZM188.73,225.89h-2v-1h2v1ZM184.73,225.89h-2v-1h2v1ZM180.73,225.89h-2v-1h2v1ZM176.73,225.89h-2v-1h2v1ZM172.73,225.89h-2v-1h2v1ZM168.73,225.89h-2v-1h2v1ZM164.73,225.89h-2v-1h2v1ZM160.73,225.89h-2v-1h2v1ZM156.73,225.89h-2v-1h2v1ZM152.73,225.89h-2v-1h2v1ZM148.73,225.89h-2v-1h2v1ZM144.73,225.89h-2v-1h2v1ZM140.73,225.89h-2v-1h2v1ZM136.73,225.89h-2v-1h2v1ZM132.73,225.89h-2v-1h2v1ZM128.73,225.89h-2v-1h2v1ZM124.73,225.89h-2v-1h2v1ZM120.73,225.89h-2v-1h2v1ZM116.73,225.89h-2v-1h2v1ZM112.73,225.89h-2v-1h2v1ZM108.73,225.89h-2v-1h2v1ZM104.73,225.89h-2v-1h2v1ZM100.73,225.89h-2v-1h2v1ZM96.73,225.89h-2v-1h2v1ZM92.73,225.89h-2v-1h2v1ZM88.73,225.89h-2v-1h2v1ZM84.73,225.89h-2v-1h2v1ZM80.73,225.89h-2v-1h2v1ZM76.73,225.89h-2v-1h2v1ZM72.73,225.89h-2v-1h2v1ZM68.73,225.89h-2v-1h2v1ZM64.73,225.89h-2v-1h2v1ZM60.73,225.89h-2v-1h2v1ZM56.73,225.89h-2v-1h2v1ZM52.73,225.89h-2v-1h2v1ZM48.73,225.89h-2v-1h2v1Z"/>
        <path class="cls-6" d="M548.73,298.16h-2v-1h2v1ZM544.73,298.16h-2v-1h2v1ZM540.73,298.16h-2v-1h2v1ZM536.73,298.16h-2v-1h2v1ZM532.73,298.16h-2v-1h2v1ZM528.73,298.16h-2v-1h2v1ZM524.73,298.16h-2v-1h2v1ZM520.73,298.16h-2v-1h2v1ZM516.73,298.16h-2v-1h2v1ZM512.73,298.16h-2v-1h2v1ZM508.73,298.16h-2v-1h2v1ZM504.73,298.16h-2v-1h2v1ZM500.73,298.16h-2v-1h2v1ZM496.73,298.16h-2v-1h2v1ZM492.73,298.16h-2v-1h2v1ZM488.73,298.16h-2v-1h2v1ZM484.73,298.16h-2v-1h2v1ZM480.73,298.16h-2v-1h2v1ZM476.73,298.16h-2v-1h2v1ZM472.73,298.16h-2v-1h2v1ZM468.73,298.16h-2v-1h2v1ZM464.73,298.16h-2v-1h2v1ZM460.73,298.16h-2v-1h2v1ZM456.73,298.16h-2v-1h2v1ZM452.73,298.16h-2v-1h2v1ZM448.73,298.16h-2v-1h2v1ZM444.73,298.16h-2v-1h2v1ZM440.73,298.16h-2v-1h2v1ZM436.73,298.16h-2v-1h2v1ZM432.73,298.16h-2v-1h2v1ZM428.73,298.16h-2v-1h2v1ZM424.73,298.16h-2v-1h2v1ZM420.73,298.16h-2v-1h2v1ZM416.73,298.16h-2v-1h2v1ZM412.73,298.16h-2v-1h2v1ZM408.73,298.16h-2v-1h2v1ZM404.73,298.16h-2v-1h2v1ZM400.73,298.16h-2v-1h2v1ZM396.73,298.16h-2v-1h2v1ZM392.73,298.16h-2v-1h2v1ZM388.73,298.16h-2v-1h2v1ZM384.73,298.16h-2v-1h2v1ZM380.73,298.16h-2v-1h2v1ZM376.73,298.16h-2v-1h2v1ZM372.73,298.16h-2v-1h2v1ZM368.73,298.16h-2v-1h2v1ZM364.73,298.16h-2v-1h2v1ZM360.73,298.16h-2v-1h2v1ZM356.73,298.16h-2v-1h2v1ZM352.73,298.16h-2v-1h2v1ZM348.73,298.16h-2v-1h2v1ZM344.73,298.16h-2v-1h2v1ZM340.73,298.16h-2v-1h2v1ZM336.73,298.16h-2v-1h2v1ZM332.73,298.16h-2v-1h2v1ZM328.73,298.16h-2v-1h2v1ZM324.73,298.16h-2v-1h2v1ZM320.73,298.16h-2v-1h2v1ZM316.73,298.16h-2v-1h2v1ZM312.73,298.16h-2v-1h2v1ZM308.73,298.16h-2v-1h2v1ZM304.73,298.16h-2v-1h2v1ZM300.73,298.16h-2v-1h2v1ZM296.73,298.16h-2v-1h2v1ZM292.73,298.16h-2v-1h2v1ZM288.73,298.16h-2v-1h2v1ZM284.73,298.16h-2v-1h2v1ZM280.73,298.16h-2v-1h2v1ZM276.73,298.16h-2v-1h2v1ZM272.73,298.16h-2v-1h2v1ZM268.73,298.16h-2v-1h2v1ZM264.73,298.16h-2v-1h2v1ZM260.73,298.16h-2v-1h2v1ZM256.73,298.16h-2v-1h2v1ZM252.73,298.16h-2v-1h2v1ZM248.73,298.16h-2v-1h2v1ZM244.73,298.16h-2v-1h2v1ZM240.73,298.16h-2v-1h2v1ZM236.73,298.16h-2v-1h2v1ZM232.73,298.16h-2v-1h2v1ZM228.73,298.16h-2v-1h2v1ZM224.73,298.16h-2v-1h2v1ZM220.73,298.16h-2v-1h2v1ZM216.73,298.16h-2v-1h2v1ZM212.73,298.16h-2v-1h2v1ZM208.73,298.16h-2v-1h2v1ZM204.73,298.16h-2v-1h2v1ZM200.73,298.16h-2v-1h2v1ZM196.73,298.16h-2v-1h2v1ZM192.73,298.16h-2v-1h2v1ZM188.73,298.16h-2v-1h2v1ZM184.73,298.16h-2v-1h2v1ZM180.73,298.16h-2v-1h2v1ZM176.73,298.16h-2v-1h2v1ZM172.73,298.16h-2v-1h2v1ZM168.73,298.16h-2v-1h2v1ZM164.73,298.16h-2v-1h2v1ZM160.73,298.16h-2v-1h2v1ZM156.73,298.16h-2v-1h2v1ZM152.73,298.16h-2v-1h2v1ZM148.73,298.16h-2v-1h2v1ZM144.73,298.16h-2v-1h2v1ZM140.73,298.16h-2v-1h2v1ZM136.73,298.16h-2v-1h2v1ZM132.73,298.16h-2v-1h2v1ZM128.73,298.16h-2v-1h2v1ZM124.73,298.16h-2v-1h2v1ZM120.73,298.16h-2v-1h2v1ZM116.73,298.16h-2v-1h2v1ZM112.73,298.16h-2v-1h2v1ZM108.73,298.16h-2v-1h2v1ZM104.73,298.16h-2v-1h2v1ZM100.73,298.16h-2v-1h2v1ZM96.73,298.16h-2v-1h2v1ZM92.73,298.16h-2v-1h2v1ZM88.73,298.16h-2v-1h2v1ZM84.73,298.16h-2v-1h2v1ZM80.73,298.16h-2v-1h2v1ZM76.73,298.16h-2v-1h2v1ZM72.73,298.16h-2v-1h2v1ZM68.73,298.16h-2v-1h2v1ZM64.73,298.16h-2v-1h2v1ZM60.73,298.16h-2v-1h2v1ZM56.73,298.16h-2v-1h2v1ZM52.73,298.16h-2v-1h2v1ZM48.73,298.16h-2v-1h2v1Z"/>
        <path class="cls-6" d="M548.73,370.34h-2v-1h2v1ZM544.73,370.34h-2v-1h2v1ZM540.73,370.34h-2v-1h2v1ZM536.73,370.34h-2v-1h2v1ZM532.73,370.34h-2v-1h2v1ZM528.73,370.34h-2v-1h2v1ZM524.73,370.34h-2v-1h2v1ZM520.73,370.34h-2v-1h2v1ZM516.73,370.34h-2v-1h2v1ZM512.73,370.34h-2v-1h2v1ZM508.73,370.34h-2v-1h2v1ZM504.73,370.34h-2v-1h2v1ZM500.73,370.34h-2v-1h2v1ZM496.73,370.34h-2v-1h2v1ZM492.73,370.34h-2v-1h2v1ZM488.73,370.34h-2v-1h2v1ZM484.73,370.34h-2v-1h2v1ZM480.73,370.34h-2v-1h2v1ZM476.73,370.34h-2v-1h2v1ZM472.73,370.34h-2v-1h2v1ZM468.73,370.34h-2v-1h2v1ZM464.73,370.34h-2v-1h2v1ZM460.73,370.34h-2v-1h2v1ZM456.73,370.34h-2v-1h2v1ZM452.73,370.34h-2v-1h2v1ZM448.73,370.34h-2v-1h2v1ZM444.73,370.34h-2v-1h2v1ZM440.73,370.34h-2v-1h2v1ZM436.73,370.34h-2v-1h2v1ZM432.73,370.34h-2v-1h2v1ZM428.73,370.34h-2v-1h2v1ZM424.73,370.34h-2v-1h2v1ZM420.73,370.34h-2v-1h2v1ZM416.73,370.34h-2v-1h2v1ZM412.73,370.34h-2v-1h2v1ZM408.73,370.34h-2v-1h2v1ZM404.73,370.34h-2v-1h2v1ZM400.73,370.34h-2v-1h2v1ZM396.73,370.34h-2v-1h2v1ZM392.73,370.34h-2v-1h2v1ZM388.73,370.34h-2v-1h2v1ZM384.73,370.34h-2v-1h2v1ZM380.73,370.34h-2v-1h2v1ZM376.73,370.34h-2v-1h2v1ZM372.73,370.34h-2v-1h2v1ZM368.73,370.34h-2v-1h2v1ZM364.73,370.34h-2v-1h2v1ZM360.73,370.34h-2v-1h2v1ZM356.73,370.34h-2v-1h2v1ZM352.73,370.34h-2v-1h2v1ZM348.73,370.34h-2v-1h2v1ZM344.73,370.34h-2v-1h2v1ZM340.73,370.34h-2v-1h2v1ZM336.73,370.34h-2v-1h2v1ZM332.73,370.34h-2v-1h2v1ZM328.73,370.34h-2v-1h2v1ZM324.73,370.34h-2v-1h2v1ZM320.73,370.34h-2v-1h2v1ZM316.73,370.34h-2v-1h2v1ZM312.73,370.34h-2v-1h2v1ZM308.73,370.34h-2v-1h2v1ZM304.73,370.34h-2v-1h2v1ZM300.73,370.34h-2v-1h2v1ZM296.73,370.34h-2v-1h2v1ZM292.73,370.34h-2v-1h2v1ZM288.73,370.34h-2v-1h2v1ZM284.73,370.34h-2v-1h2v1ZM280.73,370.34h-2v-1h2v1ZM276.73,370.34h-2v-1h2v1ZM272.73,370.34h-2v-1h2v1ZM268.73,370.34h-2v-1h2v1ZM264.73,370.34h-2v-1h2v1ZM260.73,370.34h-2v-1h2v1ZM256.73,370.34h-2v-1h2v1ZM252.73,370.34h-2v-1h2v1ZM248.73,370.34h-2v-1h2v1ZM244.73,370.34h-2v-1h2v1ZM240.73,370.34h-2v-1h2v1ZM236.73,370.34h-2v-1h2v1ZM232.73,370.34h-2v-1h2v1ZM228.73,370.34h-2v-1h2v1ZM224.73,370.34h-2v-1h2v1ZM220.73,370.34h-2v-1h2v1ZM216.73,370.34h-2v-1h2v1ZM212.73,370.34h-2v-1h2v1ZM208.73,370.34h-2v-1h2v1ZM204.73,370.34h-2v-1h2v1ZM200.73,370.34h-2v-1h2v1ZM196.73,370.34h-2v-1h2v1ZM192.73,370.34h-2v-1h2v1ZM188.73,370.34h-2v-1h2v1ZM184.73,370.34h-2v-1h2v1ZM180.73,370.34h-2v-1h2v1ZM176.73,370.34h-2v-1h2v1ZM172.73,370.34h-2v-1h2v1ZM168.73,370.34h-2v-1h2v1ZM164.73,370.34h-2v-1h2v1ZM160.73,370.34h-2v-1h2v1ZM156.73,370.34h-2v-1h2v1ZM152.73,370.34h-2v-1h2v1ZM148.73,370.34h-2v-1h2v1ZM144.73,370.34h-2v-1h2v1ZM140.73,370.34h-2v-1h2v1ZM136.73,370.34h-2v-1h2v1ZM132.73,370.34h-2v-1h2v1ZM128.73,370.34h-2v-1h2v1ZM124.73,370.34h-2v-1h2v1ZM120.73,370.34h-2v-1h2v1ZM116.73,370.34h-2v-1h2v1ZM112.73,370.34h-2v-1h2v1ZM108.73,370.34h-2v-1h2v1ZM104.73,370.34h-2v-1h2v1ZM100.73,370.34h-2v-1h2v1ZM96.73,370.34h-2v-1h2v1ZM92.73,370.34h-2v-1h2v1ZM88.73,370.34h-2v-1h2v1ZM84.73,370.34h-2v-1h2v1ZM80.73,370.34h-2v-1h2v1ZM76.73,370.34h-2v-1h2v1ZM72.73,370.34h-2v-1h2v1ZM68.73,370.34h-2v-1h2v1ZM64.73,370.34h-2v-1h2v1ZM60.73,370.34h-2v-1h2v1ZM56.73,370.34h-2v-1h2v1ZM52.73,370.34h-2v-1h2v1ZM48.73,370.34h-2v-1h2v1Z"/>
        <path class="cls-6" d="M550,116.45H42.08v-1h507.92v1Z"/>
        <path class="cls-6" d="M550,260.99H42.08v-1h507.92v1Z"/>
        <path class="cls-6" d="M550,188.72H42.08v-1h507.92v1Z"/>
        <path class="cls-6" d="M550,333.26H42.08v-1h507.92v1Z"/>
        <path class="cls-6" d="M550,406H42.08v-1h507.92v1Z"/>
        <g class="cls-4">
          <g class="cls-4">
            <path class="cls-2" d="M10.53,13.53c.02-.24.02-.5.02-.78H3.71c-.58,0-1.44.04-1.93.09v-2.14c.52.04,1.2.09,1.87.09h6.92v-6.21H3.83c-.63,0-1.44.03-1.86.06v-2.08c.55.06,1.33.09,1.86.09h7.54c.43,0,1.06-.01,1.32-.03-.02.35-.04.95-.04,1.38v7.77c0,.52.03,1.32.06,1.77h-2.17Z"/>
            <path class="cls-2" d="M21.5,9.83c2.55-1.51,4.51-3.81,5.46-5.83l1.17,2.12c-1.14,2.03-3.13,4.09-5.55,5.55-1.51.92-3.45,1.75-5.56,2.12l-1.26-1.98c2.34-.33,4.29-1.09,5.75-1.96ZM21.5,4.97l-1.53,1.57c-.78-.84-2.65-2.47-3.75-3.24l1.41-1.5c1.05.71,3,2.26,3.87,3.17Z"/>
            <path class="cls-2" d="M32.57,10.83c0,.65.3.81.98.95.45.06,1.06.09,1.74.09,1.56,0,3.99-.2,5.22-.53v2.19c-1.41.21-3.69.31-5.34.31-.97,0-1.88-.07-2.52-.18-1.31-.22-2.06-.95-2.06-2.23V3.26c0-.33-.04-1.09-.12-1.56h2.22c-.08.47-.12,1.14-.12,1.56v2.83c1.77-.44,3.85-1.1,5.19-1.67.54-.21,1.05-.45,1.63-.81l.81,1.91c-.58.24-1.26.53-1.75.71-1.52.6-3.93,1.35-5.88,1.83v2.77ZM39.14,3.62c-.3-.61-.77-1.5-1.17-2.07l1.18-.5c.38.55.92,1.5,1.2,2.05l-1.21.51ZM40.92.38c.41.55.95,1.51,1.21,2.04l-1.18.51c-.31-.63-.79-1.5-1.22-2.07l1.19-.48Z"/>
            <path class="cls-2" d="M43.38,10.35c.58.04,1.29.1,1.88.1h8.61c.51,0,1.14-.04,1.65-.1v2.29c-.52-.06-1.2-.09-1.65-.09h-8.61c-.58,0-1.32.04-1.88.09v-2.29ZM44.64,3.02c.54.06,1.25.09,1.75.09h6.21c.6,0,1.24-.04,1.67-.09v2.17c-.44-.01-1.14-.06-1.67-.06h-6.19c-.57,0-1.26.03-1.77.06v-2.17Z"/>
            <path class="cls-2" d="M69.02,10.85c.54,0,1.02-.06,1.4-.12v2.17c-.42-.06-1.05-.08-1.4-.08h-9.88c-.45,0-.97.01-1.47.08v-2.17c.46.09,1,.12,1.47.12h3.81v-6.12h-2.9c-.4,0-1.05.03-1.42.06v-2.05c.39.06,1,.09,1.42.09h8.16c.45,0,.98-.04,1.41-.09v2.05c-.45-.03-.98-.06-1.41-.06h-3.16v6.12h3.97Z"/>
            <path class="cls-2" d="M78.05,9.83c2.55-1.51,4.51-3.81,5.46-5.83l1.17,2.12c-1.14,2.03-3.13,4.09-5.55,5.55-1.51.92-3.45,1.75-5.56,2.12l-1.26-1.98c2.34-.33,4.29-1.09,5.75-1.96ZM78.05,4.97l-1.53,1.57c-.78-.84-2.65-2.47-3.75-3.24l1.41-1.5c1.05.71,3,2.26,3.87,3.17Z"/>
            <path class="cls-2" d="M96.51,3.03c-.12.17-.39.63-.52.93-.51,1.17-1.35,2.77-2.35,4.12,1.49,1.29,3.3,3.21,4.19,4.29l-1.71,1.49c-.98-1.35-2.37-2.88-3.78-4.25-1.59,1.68-3.58,3.24-5.64,4.21l-1.54-1.62c2.41-.92,4.74-2.73,6.15-4.3.99-1.12,1.91-2.61,2.23-3.67h-5.08c-.63,0-1.46.09-1.77.11v-2.13c.4.06,1.32.1,1.77.1h5.28c.66,0,1.26-.09,1.56-.2l1.23.92Z"/>
            <path class="cls-2" d="M110.63,3.03c-.12.17-.39.63-.52.93-.51,1.17-1.35,2.77-2.35,4.12,1.49,1.29,3.3,3.21,4.19,4.29l-1.71,1.49c-.98-1.35-2.37-2.88-3.78-4.25-1.59,1.68-3.58,3.24-5.64,4.21l-1.54-1.62c2.41-.92,4.74-2.73,6.15-4.3.99-1.12,1.91-2.61,2.23-3.67h-5.08c-.63,0-1.46.09-1.77.11v-2.13c.4.06,1.32.1,1.77.1h5.28c.66,0,1.26-.09,1.56-.2l1.23.92Z"/>
            <path class="cls-2" d="M123.44,9.75c-1.54-.81-3.79-1.68-5.42-2.23v4.25c0,.43.08,1.48.14,2.08h-2.34c.09-.58.15-1.48.15-2.08V3.15c0-.54-.04-1.29-.15-1.81h2.34c-.06.52-.14,1.18-.14,1.81v2.21c2.01.58,4.89,1.65,6.27,2.33l-.85,2.07Z"/>
            <path class="cls-2" d="M139.23,3.05c-.16.19-.45.55-.58.78-.7,1.17-2.13,3.06-3.61,4.11l-1.54-1.25c1.2-.74,2.37-2.05,2.76-2.79h-7.81c-.63,0-1.12.04-1.83.11V1.92c.57.09,1.2.15,1.83.15h8.08c.42,0,1.25-.04,1.52-.13l1.2,1.11ZM133.11,5.07c0,3.72-.07,6.78-4.17,8.97l-1.74-1.42c.48-.17,1.02-.42,1.57-.83,1.91-1.32,2.27-2.91,2.27-5.37,0-.47-.03-.87-.1-1.35h2.17Z"/>
            <path class="cls-2" d="M146.46,12.06c.57-.08.99-.15,1.38-.24,1.9-.45,3.37-1.82,3.37-3.97s-1.11-3.58-3.1-3.93c-.21,1.26-.47,2.64-.89,4.03-.88,3-2.17,4.83-3.79,4.83s-3.03-1.82-3.03-4.32c0-3.42,2.98-6.36,6.84-6.36s6,2.57,6,5.8-1.92,5.34-5.67,5.91l-1.11-1.75ZM145.31,7.56c.35-1.09.62-2.37.79-3.6-2.46.51-3.76,2.67-3.76,4.3,0,1.5.6,2.23,1.15,2.23.62,0,1.21-.93,1.81-2.94Z"/>
            <path class="cls-2" d="M156.78,5.24c-.27.2-.54.39-.84.58-.27-.42-.85-1-1.24-1.29,1.96-1.14,3.3-2.7,4.02-4.11l1.91.36c-.15.26-.31.53-.48.78h3.3l.28-.08,1.22.77c-.3.54-.72,1.17-1.17,1.74h3.13v5.67h-4.81c.56.32,1.08.66,1.41.98l-1.17,1.21c-.54-.56-1.67-1.28-2.62-1.73l.46-.46h-3.66v-1.42h8.64v-.75h-8.11v-1.33h8.11v-.74h-8.37v-.18ZM154.7,13.02c.97-.62,1.68-1.62,2.02-2.67l1.59.57c-.4,1.23-1.04,2.4-2.15,3.13l-1.47-1.03ZM159.12,2.97c-.29.34-.6.69-.93,1.02h3.48c.25-.31.52-.67.75-1.02h-3.3ZM162.93,12.81c.51,0,.62-.18.69-1.41.31.27,1.05.51,1.53.62-.2,1.86-.68,2.31-2.06,2.31h-2.17c-1.83,0-2.25-.46-2.25-1.93v-1.79h1.74v1.75c0,.41.1.45.72.45h1.8ZM166.11,10.16c.96.86,2.11,2.1,2.61,2.99l-1.6.93c-.42-.86-1.53-2.16-2.49-3.11l1.48-.81Z"/>
            <path class="cls-2" d="M174.65,8.54c-.44.13-.88.25-1.33.39v3.57c0,.88-.15,1.37-.63,1.63-.5.3-1.2.36-2.23.36-.05-.48-.27-1.25-.5-1.74.58.03,1.2.03,1.4.02.18,0,.25-.06.25-.29v-3.08l-1.67.45-.38-1.72c.57-.12,1.27-.29,2.04-.47v-2.7h-1.74v-1.63h1.74V.51h1.71v2.82h1.15v1.63h-1.15v2.28l1.14-.3.19,1.59ZM176.64,6.36c0,2.34-.29,5.87-1.88,8.1-.3-.3-1.04-.79-1.44-.99,1.47-2.04,1.62-5.02,1.62-7.12v-3.46h3.44V.51h1.77v2.37h3.31v1.62h-6.82v1.86ZM182.19,14.45c-.06-.41-.16-.87-.3-1.37-1.98.23-4.05.46-5.59.63l-.3-1.65,1.15-.09c.52-1.91,1.05-4.62,1.29-6.72l1.86.28c-.38,2.12-.92,4.49-1.42,6.29.82-.09,1.69-.17,2.55-.25-.31-.93-.71-1.89-1.11-2.75l1.51-.48c.9,1.77,1.77,4.05,2.02,5.55l-1.67.55Z"/>
            <path class="cls-2" d="M193.08,6.36c.99,2.92,2.81,5.28,5.61,6.42-.45.38-1.03,1.17-1.32,1.68-2.71-1.27-4.45-3.46-5.62-6.36-.81,2.5-2.43,4.84-5.61,6.38-.29-.5-.81-1.14-1.33-1.52,3.43-1.53,4.86-4.02,5.44-6.6h-5.16v-1.84h5.46c.15-1.41.14-2.78.15-4h1.95c-.02,1.23-.03,2.61-.18,4h5.9v1.84h-5.28Z"/>
            <path class="cls-2" d="M202.31,7.5c0-3.21,1.33-5.61,2.95-7.2l1.42.63c-1.5,1.62-2.68,3.69-2.68,6.57s1.19,4.95,2.68,6.57l-1.42.63c-1.62-1.59-2.95-3.99-2.95-7.2Z"/>
            <path class="cls-2" d="M207.93,11.42h2.38v-7.02h-2.01v-1.37c1.11-.21,1.88-.5,2.58-.93h1.63v9.31h2.08v1.79h-6.67v-1.79Z"/>
            <path class="cls-2" d="M217.47,10.83c.4.44,1.09.78,1.75.78,1.24,0,2.28-.95,2.37-3.74-.57.75-1.51,1.22-2.28,1.22-1.84,0-3.18-1.14-3.18-3.5s1.59-3.71,3.49-3.71c2.1,0,3.99,1.65,3.99,5.5,0,4.2-2.05,6.01-4.26,6.01-1.38,0-2.38-.58-3.04-1.26l1.16-1.32ZM221.57,6.33c-.19-2.02-.96-2.77-1.9-2.77-.83,0-1.5.67-1.5,2.04s.61,1.92,1.57,1.92c.6,0,1.29-.33,1.83-1.19Z"/>
            <path class="cls-2" d="M225.08,10.44c0-1.42.87-2.34,1.9-2.89v-.08c-.85-.62-1.47-1.46-1.47-2.64,0-1.78,1.41-2.92,3.34-2.92s3.22,1.19,3.22,2.96c0,1.09-.69,2.01-1.42,2.54v.08c1.02.55,1.86,1.46,1.86,2.97,0,1.68-1.48,2.97-3.73,2.97-2.11,0-3.7-1.23-3.7-2.97ZM230.46,10.37c0-1.16-1.02-1.63-2.46-2.22-.6.48-1.02,1.23-1.02,2.05,0,1,.83,1.65,1.86,1.65.93,0,1.62-.53,1.62-1.49ZM230.28,5c0-.9-.54-1.54-1.47-1.54-.75,0-1.35.5-1.35,1.38,0,1.05.85,1.56,2.02,2.03.54-.57.79-1.2.79-1.86Z"/>
            <path class="cls-2" d="M233.6,11.87l1.03-1.39c.66.64,1.47,1.14,2.48,1.14,1.12,0,1.89-.55,1.89-1.54,0-1.09-.64-1.77-3.06-1.77v-1.59c2.04,0,2.7-.7,2.7-1.69,0-.87-.54-1.38-1.48-1.4-.79.02-1.44.39-2.1.99l-1.12-1.35c.96-.84,2.02-1.37,3.33-1.37,2.15,0,3.6,1.05,3.6,2.96,0,1.2-.68,2.07-1.86,2.54v.07c1.26.35,2.22,1.28,2.22,2.73,0,2.04-1.79,3.22-3.9,3.22-1.75,0-2.94-.66-3.72-1.54Z"/>
            <path class="cls-2" d="M256.41,11.31h-5.13v3.21h-1.85v-3.21h-6.75v-1.71h2.37v-3.93h4.38v-1.8h-3.21c-.62,1.07-1.33,2.03-2.04,2.73-.35-.3-1.11-.9-1.54-1.16,1.35-1.14,2.5-3.06,3.15-4.99l1.81.46c-.14.42-.3.82-.5,1.23h8.47v1.72h-4.3v1.8h3.96v1.65h-3.96v2.28h5.13v1.71ZM249.44,9.6v-2.28h-2.59v2.28h2.59Z"/>
            <path class="cls-2" d="M263.87,8.15c-.65-.67-1.19-1.08-2.23-1.08-.96,0-1.81.74-2.38,1.8l-1.65-.9c1-1.86,2.47-2.76,4.08-2.76,1.42,0,2.52.54,3.54,1.65.65.69,1.2,1.08,2.23,1.08.96,0,1.81-.74,2.38-1.8l1.65.9c-1,1.86-2.47,2.76-4.08,2.76-1.43,0-2.52-.54-3.54-1.65Z"/>
            <path class="cls-2" d="M272.69,11.92c3.01-2.7,4.8-4.78,4.8-6.49,0-1.12-.62-1.8-1.67-1.8-.81,0-1.48.52-2.04,1.14l-1.2-1.2c1.02-1.08,2.01-1.68,3.52-1.68,2.1,0,3.5,1.35,3.5,3.42s-1.67,4.17-3.69,6.15c.56-.06,1.29-.12,1.8-.12h2.41v1.86h-7.44v-1.28Z"/>
            <path class="cls-2" d="M281.54,7.61c0-3.84,1.5-5.71,3.76-5.71s3.75,1.89,3.75,5.71-1.5,5.8-3.75,5.8-3.76-1.98-3.76-5.8ZM286.97,7.61c0-3.1-.72-4-1.67-4s-1.68.9-1.68,4,.72,4.08,1.68,4.08,1.67-.96,1.67-4.08Z"/>
            <path class="cls-2" d="M290.37,7.61c0-3.84,1.5-5.71,3.76-5.71s3.75,1.89,3.75,5.71-1.5,5.8-3.75,5.8-3.76-1.98-3.76-5.8ZM295.8,7.61c0-3.1-.72-4-1.67-4s-1.68.9-1.68,4,.72,4.08,1.68,4.08,1.67-.96,1.67-4.08Z"/>
            <path class="cls-2" d="M299.25,10.44c0-1.42.87-2.34,1.91-2.89v-.08c-.86-.62-1.47-1.46-1.47-2.64,0-1.78,1.41-2.92,3.35-2.92s3.22,1.19,3.22,2.96c0,1.09-.69,2.01-1.43,2.54v.08c1.02.55,1.86,1.46,1.86,2.97,0,1.68-1.49,2.97-3.74,2.97-2.11,0-3.7-1.23-3.7-2.97ZM304.64,10.37c0-1.16-1.02-1.63-2.46-2.22-.6.48-1.02,1.23-1.02,2.05,0,1,.82,1.65,1.86,1.65.93,0,1.62-.53,1.62-1.49ZM304.46,5c0-.9-.54-1.54-1.47-1.54-.75,0-1.35.5-1.35,1.38,0,1.05.85,1.56,2.02,2.03.54-.57.79-1.2.79-1.86Z"/>
            <path class="cls-2" d="M321.75,11.31h-5.13v3.21h-1.84v-3.21h-6.75v-1.71h2.37v-3.93h4.38v-1.8h-3.21c-.62,1.07-1.33,2.03-2.04,2.73-.35-.3-1.11-.9-1.54-1.16,1.35-1.14,2.5-3.06,3.15-4.99l1.81.46c-.13.42-.3.82-.5,1.23h8.47v1.72h-4.3v1.8h3.96v1.65h-3.96v2.28h5.13v1.71ZM314.78,9.6v-2.28h-2.6v2.28h2.6Z"/>
            <path class="cls-2" d="M326.78,7.5c0,3.21-1.33,5.61-2.96,7.2l-1.42-.63c1.5-1.62,2.68-3.69,2.68-6.57s-1.18-4.95-2.68-6.57l1.42-.63c1.62,1.59,2.96,3.99,2.96,7.2Z"/>
          </g>
        </g>
        <g class="cls-4">
          <g class="cls-4">
            <path class="cls-6" d="M51.98,425.28h1.91v-5.61h-1.61v-1.09c.89-.17,1.5-.4,2.06-.74h1.31v7.45h1.67v1.43h-5.34v-1.43Z"/>
            <path class="cls-6" d="M59.62,424.81c.32.35.88.62,1.4.62,1,0,1.82-.76,1.9-2.99-.46.6-1.21.97-1.82.97-1.48,0-2.54-.91-2.54-2.79s1.27-2.96,2.79-2.96c1.68,0,3.19,1.32,3.19,4.4,0,3.36-1.64,4.81-3.41,4.81-1.1,0-1.91-.47-2.43-1.01l.92-1.05ZM62.89,421.21c-.16-1.62-.77-2.22-1.52-2.22-.66,0-1.2.54-1.2,1.63s.49,1.54,1.26,1.54c.48,0,1.03-.26,1.46-.95Z"/>
            <path class="cls-6" d="M65.7,424.5c0-1.14.7-1.87,1.52-2.31v-.06c-.68-.49-1.18-1.16-1.18-2.11,0-1.43,1.13-2.34,2.67-2.34s2.58.95,2.58,2.36c0,.88-.55,1.61-1.14,2.03v.06c.82.44,1.49,1.16,1.49,2.37,0,1.34-1.19,2.38-2.99,2.38-1.69,0-2.96-.98-2.96-2.38ZM70,424.44c0-.92-.82-1.31-1.97-1.78-.48.38-.82.98-.82,1.64,0,.8.66,1.32,1.49,1.32.74,0,1.29-.42,1.29-1.19ZM69.86,420.14c0-.72-.43-1.24-1.18-1.24-.6,0-1.08.4-1.08,1.1,0,.84.68,1.25,1.62,1.62.43-.46.64-.96.64-1.49Z"/>
            <path class="cls-6" d="M72.52,425.63l.83-1.12c.53.52,1.18.91,1.98.91.9,0,1.51-.44,1.51-1.24,0-.88-.52-1.42-2.45-1.42v-1.27c1.63,0,2.16-.56,2.16-1.36,0-.7-.43-1.1-1.19-1.12-.64.01-1.15.31-1.68.79l-.9-1.08c.77-.67,1.62-1.09,2.66-1.09,1.71,0,2.88.84,2.88,2.36,0,.96-.54,1.66-1.49,2.03v.06c1.01.28,1.77,1.02,1.77,2.18,0,1.63-1.43,2.58-3.12,2.58-1.4,0-2.35-.53-2.97-1.24Z"/>
            <path class="cls-6" d="M90.76,425.19h-4.1v2.57h-1.48v-2.57h-5.4v-1.37h1.9v-3.14h3.5v-1.44h-2.57c-.49.85-1.07,1.62-1.63,2.18-.28-.24-.89-.72-1.24-.92,1.08-.91,2-2.45,2.52-3.99l1.45.37c-.11.34-.24.66-.4.98h6.78v1.38h-3.44v1.44h3.17v1.32h-3.17v1.82h4.1v1.37ZM85.18,423.82v-1.82h-2.07v1.82h2.07Z"/>
          </g>
        </g>
        <g class="cls-4">
          <g class="cls-4">
            <path class="cls-6" d="M30.46,406.23c0-3.07,1.2-4.57,3.01-4.57s3,1.51,3,4.57-1.2,4.64-3,4.64-3.01-1.58-3.01-4.64ZM34.8,406.23c0-2.48-.58-3.2-1.33-3.2s-1.34.72-1.34,3.2.58,3.26,1.34,3.26,1.33-.77,1.33-3.26Z"/>
          </g>
        </g>
        <g class="cls-4">
          <g class="cls-4">
            <path class="cls-6" d="M1.64,335.41h1.91v-5.61h-1.61v-1.09c.89-.17,1.5-.4,2.06-.74h1.31v7.45h1.67v1.43H1.64v-1.43Z"/>
            <path class="cls-6" d="M8.26,332.36c0-3.07,1.2-4.57,3.01-4.57s3,1.51,3,4.57-1.2,4.64-3,4.64-3.01-1.58-3.01-4.64ZM12.6,332.36c0-2.48-.58-3.2-1.33-3.2s-1.34.72-1.34,3.2.58,3.26,1.34,3.26,1.33-.77,1.33-3.26Z"/>
            <path class="cls-6" d="M15.32,332.36c0-3.07,1.2-4.57,3.01-4.57s3,1.51,3,4.57-1.2,4.64-3,4.64-3.01-1.58-3.01-4.64ZM19.67,332.36c0-2.48-.58-3.2-1.33-3.2s-1.34.72-1.34,3.2.58,3.26,1.34,3.26,1.33-.77,1.33-3.26Z"/>
            <path class="cls-6" d="M22.39,332.36c0-3.07,1.2-4.57,3.01-4.57s3,1.51,3,4.57-1.2,4.64-3,4.64-3.01-1.58-3.01-4.64ZM26.73,332.36c0-2.48-.58-3.2-1.33-3.2s-1.34.72-1.34,3.2.58,3.26,1.34,3.26,1.33-.77,1.33-3.26Z"/>
            <path class="cls-6" d="M29.46,332.36c0-3.07,1.2-4.57,3.01-4.57s3,1.51,3,4.57-1.2,4.64-3,4.64-3.01-1.58-3.01-4.64ZM33.8,332.36c0-2.48-.58-3.2-1.33-3.2s-1.34.72-1.34,3.2.58,3.26,1.34,3.26,1.33-.77,1.33-3.26Z"/>
          </g>
        </g>
        <g class="cls-4">
          <g class="cls-4">
            <path class="cls-6" d="M.97,190.93l.83-1.12c.53.52,1.18.91,1.98.91.9,0,1.51-.44,1.51-1.24,0-.88-.52-1.42-2.45-1.42v-1.27c1.63,0,2.16-.56,2.16-1.36,0-.7-.43-1.1-1.19-1.12-.64.01-1.15.31-1.68.79l-.9-1.08c.77-.67,1.62-1.09,2.66-1.09,1.71,0,2.88.84,2.88,2.36,0,.96-.54,1.66-1.49,2.03v.06c1.01.28,1.77,1.02,1.77,2.18,0,1.63-1.43,2.58-3.12,2.58-1.4,0-2.35-.53-2.97-1.24Z"/>
            <path class="cls-6" d="M8.26,187.52c0-3.07,1.2-4.57,3.01-4.57s3,1.51,3,4.57-1.2,4.64-3,4.64-3.01-1.58-3.01-4.64ZM12.6,187.52c0-2.48-.58-3.2-1.33-3.2s-1.34.72-1.34,3.2.58,3.26,1.34,3.26,1.33-.77,1.33-3.26Z"/>
            <path class="cls-6" d="M15.32,187.52c0-3.07,1.2-4.57,3.01-4.57s3,1.51,3,4.57-1.2,4.64-3,4.64-3.01-1.58-3.01-4.64ZM19.67,187.52c0-2.48-.58-3.2-1.33-3.2s-1.34.72-1.34,3.2.58,3.26,1.34,3.26,1.33-.77,1.33-3.26Z"/>
            <path class="cls-6" d="M22.39,187.52c0-3.07,1.2-4.57,3.01-4.57s3,1.51,3,4.57-1.2,4.64-3,4.64-3.01-1.58-3.01-4.64ZM26.73,187.52c0-2.48-.58-3.2-1.33-3.2s-1.34.72-1.34,3.2.58,3.26,1.34,3.26,1.33-.77,1.33-3.26Z"/>
            <path class="cls-6" d="M29.46,187.52c0-3.07,1.2-4.57,3.01-4.57s3,1.51,3,4.57-1.2,4.64-3,4.64-3.01-1.58-3.01-4.64ZM33.8,187.52c0-2.48-.58-3.2-1.33-3.2s-1.34.72-1.34,3.2.58,3.26,1.34,3.26,1.33-.77,1.33-3.26Z"/>
          </g>
        </g>
        <g class="cls-4">
          <g class="cls-4">
            <path class="cls-6" d="M1.18,264.89c2.41-2.16,3.84-3.83,3.84-5.19,0-.9-.49-1.44-1.33-1.44-.65,0-1.19.42-1.63.91l-.96-.96c.82-.86,1.61-1.34,2.82-1.34,1.68,0,2.79,1.08,2.79,2.73s-1.33,3.33-2.95,4.92c.44-.05,1.03-.1,1.44-.1h1.93v1.49H1.18v-1.02Z"/>
            <path class="cls-6" d="M8.26,261.44c0-3.07,1.2-4.57,3.01-4.57s3,1.51,3,4.57-1.2,4.64-3,4.64-3.01-1.58-3.01-4.64ZM12.6,261.44c0-2.48-.58-3.2-1.33-3.2s-1.34.72-1.34,3.2.58,3.26,1.34,3.26,1.33-.77,1.33-3.26Z"/>
            <path class="cls-6" d="M15.32,261.44c0-3.07,1.2-4.57,3.01-4.57s3,1.51,3,4.57-1.2,4.64-3,4.64-3.01-1.58-3.01-4.64ZM19.67,261.44c0-2.48-.58-3.2-1.33-3.2s-1.34.72-1.34,3.2.58,3.26,1.34,3.26,1.33-.77,1.33-3.26Z"/>
            <path class="cls-6" d="M22.39,261.44c0-3.07,1.2-4.57,3.01-4.57s3,1.51,3,4.57-1.2,4.64-3,4.64-3.01-1.58-3.01-4.64ZM26.73,261.44c0-2.48-.58-3.2-1.33-3.2s-1.34.72-1.34,3.2.58,3.26,1.34,3.26,1.33-.77,1.33-3.26Z"/>
            <path class="cls-6" d="M29.46,261.44c0-3.07,1.2-4.57,3.01-4.57s3,1.51,3,4.57-1.2,4.64-3,4.64-3.01-1.58-3.01-4.64ZM33.8,261.44c0-2.48-.58-3.2-1.33-3.2s-1.34.72-1.34,3.2.58,3.26,1.34,3.26,1.33-.77,1.33-3.26Z"/>
          </g>
        </g>
        <g class="cls-4">
          <g class="cls-4">
            <path class="cls-6" d="M7.39,118.77h-1.06v2.3h-1.64v-2.3H.91v-1.2l3.31-5.37h2.11v5.23h1.06v1.34ZM4.69,117.43v-1.81c0-.52.05-1.32.07-1.83h-.05c-.22.47-.46.96-.71,1.44l-1.38,2.21h2.06Z"/>
            <path class="cls-6" d="M8.26,116.6c0-3.07,1.2-4.57,3.01-4.57s3,1.51,3,4.57-1.2,4.64-3,4.64-3.01-1.58-3.01-4.64ZM12.6,116.6c0-2.48-.58-3.2-1.33-3.2s-1.34.72-1.34,3.2.58,3.26,1.34,3.26,1.33-.77,1.33-3.26Z"/>
            <path class="cls-6" d="M15.32,116.6c0-3.07,1.2-4.57,3.01-4.57s3,1.51,3,4.57-1.2,4.64-3,4.64-3.01-1.58-3.01-4.64ZM19.67,116.6c0-2.48-.58-3.2-1.33-3.2s-1.34.72-1.34,3.2.58,3.26,1.34,3.26,1.33-.77,1.33-3.26Z"/>
            <path class="cls-6" d="M22.39,116.6c0-3.07,1.2-4.57,3.01-4.57s3,1.51,3,4.57-1.2,4.64-3,4.64-3.01-1.58-3.01-4.64ZM26.73,116.6c0-2.48-.58-3.2-1.33-3.2s-1.34.72-1.34,3.2.58,3.26,1.34,3.26,1.33-.77,1.33-3.26Z"/>
            <path class="cls-6" d="M29.46,116.6c0-3.07,1.2-4.57,3.01-4.57s3,1.51,3,4.57-1.2,4.64-3,4.64-3.01-1.58-3.01-4.64ZM33.8,116.6c0-2.48-.58-3.2-1.33-3.2s-1.34.72-1.34,3.2.58,3.26,1.34,3.26,1.33-.77,1.33-3.26Z"/>
          </g>
        </g>
        <g class="cls-4">
          <g class="cls-4">
            <path class="cls-6" d="M.97,49.16l.82-1.13c.5.49,1.13.9,1.96.9.92,0,1.57-.59,1.57-1.63s-.6-1.61-1.5-1.61c-.53,0-.82.13-1.33.47l-.8-.53.24-4.31h4.75v1.47h-3.23l-.17,1.88c.35-.17.66-.25,1.07-.25,1.49,0,2.73.89,2.73,2.82s-1.46,3.12-3.11,3.12c-1.4,0-2.34-.55-3-1.21Z"/>
            <path class="cls-6" d="M8.26,45.73c0-3.07,1.2-4.57,3.01-4.57s3,1.51,3,4.57-1.2,4.64-3,4.64-3.01-1.58-3.01-4.64ZM12.6,45.73c0-2.48-.58-3.2-1.33-3.2s-1.34.72-1.34,3.2.58,3.26,1.34,3.26,1.33-.77,1.33-3.26Z"/>
            <path class="cls-6" d="M15.32,45.73c0-3.07,1.2-4.57,3.01-4.57s3,1.51,3,4.57-1.2,4.64-3,4.64-3.01-1.58-3.01-4.64ZM19.67,45.73c0-2.48-.58-3.2-1.33-3.2s-1.34.72-1.34,3.2.58,3.26,1.34,3.26,1.33-.77,1.33-3.26Z"/>
            <path class="cls-6" d="M22.39,45.73c0-3.07,1.2-4.57,3.01-4.57s3,1.51,3,4.57-1.2,4.64-3,4.64-3.01-1.58-3.01-4.64ZM26.73,45.73c0-2.48-.58-3.2-1.33-3.2s-1.34.72-1.34,3.2.58,3.26,1.34,3.26,1.33-.77,1.33-3.26Z"/>
            <path class="cls-6" d="M29.46,45.73c0-3.07,1.2-4.57,3.01-4.57s3,1.51,3,4.57-1.2,4.64-3,4.64-3.01-1.58-3.01-4.64ZM33.8,45.73c0-2.48-.58-3.2-1.33-3.2s-1.34.72-1.34,3.2.58,3.26,1.34,3.26,1.33-.77,1.33-3.26Z"/>
          </g>
        </g>
        <g class="cls-4">
          <g class="cls-4">
            <path class="cls-6" d="M177.78,425.28h1.91v-5.61h-1.61v-1.09c.89-.17,1.5-.4,2.06-.74h1.31v7.45h1.67v1.43h-5.34v-1.43Z"/>
            <path class="cls-6" d="M185.41,424.81c.32.35.88.62,1.4.62,1,0,1.82-.76,1.9-2.99-.46.6-1.21.97-1.82.97-1.48,0-2.54-.91-2.54-2.79s1.27-2.96,2.79-2.96c1.68,0,3.19,1.32,3.19,4.4,0,3.36-1.64,4.81-3.41,4.81-1.1,0-1.91-.47-2.43-1.01l.92-1.05ZM188.68,421.21c-.16-1.62-.77-2.22-1.52-2.22-.66,0-1.2.54-1.2,1.63s.49,1.54,1.26,1.54c.48,0,1.03-.26,1.46-.95Z"/>
            <path class="cls-6" d="M192.48,424.81c.32.35.88.62,1.4.62,1,0,1.82-.76,1.9-2.99-.46.6-1.21.97-1.82.97-1.48,0-2.54-.91-2.54-2.79s1.27-2.96,2.79-2.96c1.68,0,3.19,1.32,3.19,4.4,0,3.36-1.64,4.81-3.41,4.81-1.1,0-1.91-.47-2.43-1.01l.92-1.05ZM195.75,421.21c-.16-1.62-.77-2.22-1.52-2.22-.66,0-1.2.54-1.2,1.63s.49,1.54,1.26,1.54c.48,0,1.03-.26,1.46-.95Z"/>
            <path class="cls-6" d="M198.53,422.23c0-3.07,1.2-4.57,3.01-4.57s3,1.51,3,4.57-1.2,4.64-3,4.64-3.01-1.58-3.01-4.64ZM202.87,422.23c0-2.48-.58-3.2-1.33-3.2s-1.34.72-1.34,3.2.58,3.26,1.34,3.26,1.33-.77,1.33-3.26Z"/>
            <path class="cls-6" d="M216.56,425.19h-4.1v2.57h-1.48v-2.57h-5.4v-1.37h1.9v-3.14h3.5v-1.44h-2.57c-.49.85-1.07,1.62-1.63,2.18-.28-.24-.89-.72-1.24-.92,1.08-.91,2-2.45,2.52-3.99l1.45.37c-.11.34-.24.66-.4.98h6.78v1.38h-3.44v1.44h3.17v1.32h-3.17v1.82h4.1v1.37ZM210.98,423.82v-1.82h-2.07v1.82h2.07Z"/>
          </g>
        </g>
        <g class="cls-4">
          <g class="cls-4">
            <path class="cls-6" d="M366.09,425.68c2.41-2.16,3.84-3.83,3.84-5.19,0-.9-.49-1.44-1.33-1.44-.65,0-1.19.42-1.63.91l-.96-.96c.82-.86,1.61-1.34,2.82-1.34,1.68,0,2.79,1.08,2.79,2.73s-1.33,3.33-2.95,4.92c.44-.05,1.03-.1,1.44-.1h1.93v1.49h-5.95v-1.02Z"/>
            <path class="cls-6" d="M373.17,422.23c0-3.07,1.2-4.57,3.01-4.57s3,1.51,3,4.57-1.2,4.64-3,4.64-3.01-1.58-3.01-4.64ZM377.51,422.23c0-2.48-.58-3.2-1.33-3.2s-1.34.72-1.34,3.2.58,3.26,1.34,3.26,1.33-.77,1.33-3.26Z"/>
            <path class="cls-6" d="M380.24,422.23c0-3.07,1.2-4.57,3.01-4.57s3,1.51,3,4.57-1.2,4.64-3,4.64-3.01-1.58-3.01-4.64ZM384.58,422.23c0-2.48-.58-3.2-1.33-3.2s-1.34.72-1.34,3.2.58,3.26,1.34,3.26,1.33-.77,1.33-3.26Z"/>
            <path class="cls-6" d="M387.31,422.23c0-3.07,1.2-4.57,3.01-4.57s3,1.51,3,4.57-1.2,4.64-3,4.64-3.01-1.58-3.01-4.64ZM391.65,422.23c0-2.48-.58-3.2-1.33-3.2s-1.34.72-1.34,3.2.58,3.26,1.34,3.26,1.33-.77,1.33-3.26Z"/>
            <path class="cls-6" d="M405.33,425.19h-4.1v2.57h-1.48v-2.57h-5.4v-1.37h1.89v-3.14h3.5v-1.44h-2.57c-.49.85-1.07,1.62-1.63,2.18-.28-.24-.89-.72-1.24-.92,1.08-.91,2-2.45,2.52-3.99l1.45.37c-.11.34-.24.66-.4.98h6.78v1.38h-3.44v1.44h3.17v1.32h-3.17v1.82h4.1v1.37ZM399.76,423.82v-1.82h-2.07v1.82h2.07Z"/>
          </g>
        </g>
        <g class="cls-4">
          <g class="cls-4">
            <path class="cls-6" d="M508.92,425.68c2.41-2.16,3.84-3.83,3.84-5.19,0-.9-.49-1.44-1.33-1.44-.65,0-1.19.42-1.63.91l-.96-.96c.82-.86,1.61-1.34,2.82-1.34,1.68,0,2.79,1.08,2.79,2.73s-1.33,3.33-2.95,4.92c.44-.05,1.03-.1,1.44-.1h1.93v1.49h-5.95v-1.02Z"/>
            <path class="cls-6" d="M516,422.23c0-3.07,1.2-4.57,3.01-4.57s3,1.51,3,4.57-1.2,4.64-3,4.64-3.01-1.58-3.01-4.64ZM520.34,422.23c0-2.48-.58-3.2-1.33-3.2s-1.34.72-1.34,3.2.58,3.26,1.34,3.26,1.33-.77,1.33-3.26Z"/>
            <path class="cls-6" d="M523.07,422.23c0-3.07,1.2-4.57,3.01-4.57s3,1.51,3,4.57-1.2,4.64-3,4.64-3.01-1.58-3.01-4.64ZM527.41,422.23c0-2.48-.58-3.2-1.33-3.2s-1.34.72-1.34,3.2.58,3.26,1.34,3.26,1.33-.77,1.33-3.26Z"/>
            <path class="cls-6" d="M530.17,424.5c0-1.14.7-1.87,1.52-2.31v-.06c-.68-.49-1.17-1.16-1.17-2.11,0-1.43,1.13-2.34,2.67-2.34s2.58.95,2.58,2.36c0,.88-.55,1.61-1.14,2.03v.06c.82.44,1.49,1.16,1.49,2.37,0,1.34-1.19,2.38-2.99,2.38-1.69,0-2.96-.98-2.96-2.38ZM534.48,424.44c0-.92-.82-1.31-1.97-1.78-.48.38-.82.98-.82,1.64,0,.8.66,1.32,1.49,1.32.74,0,1.29-.42,1.29-1.19ZM534.33,420.14c0-.72-.43-1.24-1.17-1.24-.6,0-1.08.4-1.08,1.1,0,.84.68,1.25,1.62,1.62.43-.46.64-.96.64-1.49Z"/>
            <path class="cls-6" d="M548.17,425.19h-4.1v2.57h-1.48v-2.57h-5.4v-1.37h1.89v-3.14h3.5v-1.44h-2.57c-.49.85-1.07,1.62-1.63,2.18-.28-.24-.89-.72-1.24-.92,1.08-.91,2-2.45,2.52-3.99l1.45.37c-.11.34-.24.66-.4.98h6.78v1.38h-3.44v1.44h3.17v1.32h-3.17v1.82h4.1v1.37ZM542.59,423.82v-1.82h-2.07v1.82h2.07Z"/>
          </g>
        </g>
        <path class="cls-6" d="M47.23,411.18h-1V44.76h1v366.42Z"/>
        <rect class="cls-5" x="52" y="359.7" width="16" height="46"/>
        <rect class="cls-5" x="167.81" y="286.7" width="15" height="119"/>
        <rect class="cls-5" x="283.68" y="194.7" width="15" height="211"/>
        <rect class="cls-5" x="398.56" y="117.7" width="16" height="288"/>
        <rect class="cls-5" x="90" y="351.7" width="16" height="54"/>
        <rect class="cls-5" x="205.77" y="266.7" width="15" height="139"/>
        <rect class="cls-5" x="322.64" y="160.7" width="15" height="245"/>
        <rect class="cls-5" x="437.51" y="109.7" width="16" height="296"/>
        <rect class="cls-5" x="72" y="359.7" width="15" height="46"/>
        <rect class="cls-5" x="186.79" y="280.7" width="16" height="125"/>
        <rect class="cls-5" x="302.66" y="179.7" width="16" height="226"/>
        <rect class="cls-5" x="418.53" y="112.7" width="15" height="293"/>
        <rect class="cls-5" x="109.88" y="336.7" width="15" height="69"/>
        <rect class="cls-5" x="225.75" y="250.7" width="15" height="155"/>
        <rect class="cls-5" x="340.62" y="143.7" width="16" height="262"/>
        <rect class="cls-5" x="456.4" y="107.7" width="15" height="298"/>
        <rect class="cls-5" x="147.84" y="322.7" width="15" height="83"/>
        <rect class="cls-5" x="263.71" y="214.7" width="15" height="191"/>
        <rect class="cls-5" x="380.58" y="129.7" width="15" height="276"/>
        <rect class="cls-5" x="495.4" y="95.7" width="16" height="310"/>
        <rect class="cls-5" x="534.4" y="84.7" width="15" height="321"/>
        <rect class="cls-5" x="128.86" y="353.7" width="16" height="52"/>
        <rect class="cls-5" x="244.73" y="240.7" width="15" height="165"/>
        <rect class="cls-5" x="360.6" y="133.7" width="15" height="272"/>
        <rect class="cls-5" x="476.4" y="97.7" width="15" height="308"/>
        <rect class="cls-5" x="514.4" y="93.7" width="16" height="312"/>
        <path class="cls-5" d="M195.34,413.25h-1v-8.27h1v8.27Z"/>
        <path class="cls-5" d="M59.11,413.25h-1v-8.27h1v8.27Z"/>
        <path class="cls-5" d="M388.4,413.25h-1v-8.27h1v8.27Z"/>
        <path class="cls-5" d="M542.23,413.25h-1v-8.27h1v8.27Z"/>
        <g class="cls-4">
          <g class="cls-4">
            <path class="cls-2" d="M76.08,454.17v4.92h-.91v-.72h-7.48v.74h-.89v-4.94h.89v3.32h3.2v-4.09h-3.63v-4.1h.89v3.24h2.75v-4.31h.91v4.31h2.88v-3.24h.92v4.1h-3.8v4.09h3.37v-3.32h.91Z"/>
            <path class="cls-2" d="M88.87,455.48v.85h-10.95v-.85h1.2v-5.86h2.55v-1.46h.84v1.46h1.75v-1.48h.85v1.48h2.66v5.86h1.09ZM82.33,457.05c-.92.78-2.4,1.59-3.62,2.09-.17-.18-.48-.48-.67-.65,1.24-.46,2.72-1.27,3.44-1.94l.85.5ZM79.98,450.44v2h1.69v-2h-1.69ZM79.98,455.48h1.69v-2.21h-1.69v2.21ZM82.51,450.44v2h1.75v-2h-1.75ZM84.27,453.27h-1.75v2.21h1.75v-2.21ZM85.14,456.52c1.27.61,2.65,1.38,3.49,1.95l-.79.6c-.77-.56-2.07-1.34-3.32-1.98l.62-.58ZM85.12,450.44v2h1.77v-2h-1.77ZM85.12,455.48h1.77v-2.21h-1.77v2.21Z"/>
            <path class="cls-2" d="M91.49,450.78c0-.55.43-.9.91-.9s.91.35.91.9-.43.9-.91.9-.91-.35-.91-.9ZM91.49,456.65c0-.55.43-.91.91-.91s.91.36.91.91-.43.9-.91.9-.91-.36-.91-.9Z"/>
            <path class="cls-2" d="M106.87,453.04v.97h-10.89v-.97h10.89Z"/>
            <path class="cls-2" d="M112.37,453.87v4.34c0,.41-.08.64-.36.77-.28.12-.7.13-1.38.13-.04-.19-.16-.53-.26-.72h1.06c.14,0,.2-.04.2-.18v-4.26c-.74.08-1.48.17-2.15.24,0,1.52-.13,3.59-1,4.92-.12-.13-.44-.32-.62-.41.79-1.26.89-3.02.89-4.44l-.78.08-.1-.74.88-.08v-3.71h1.04c.17-.5.36-1.17.43-1.64l.96.19c-.19.49-.4,1.02-.58,1.45h1.76v3.33l.55-.06v.71s-.55.07-.55.07ZM109.48,453.45c.66-.06,1.39-.14,2.15-.22v-2.7h-2.15v2.92ZM110.46,451.03c.32.48.6,1.15.7,1.59l-.61.25c-.08-.46-.35-1.13-.64-1.63l.55-.22ZM110.76,457.26h-.58v-2.81h.58v2.81ZM118.33,453.55c-.37,1.45-1.04,2.61-1.89,3.51.73.6,1.61,1.06,2.61,1.32-.18.17-.43.52-.55.73-1.03-.31-1.93-.82-2.67-1.49-.79.67-1.72,1.18-2.7,1.51-.08-.22-.31-.56-.48-.74.94-.28,1.82-.74,2.58-1.38-.66-.76-1.18-1.66-1.55-2.69l.67-.16h-1.13v-.8h4.4l.16-.02.55.2ZM114.67,450.2c0,.92-.2,2.09-1.16,2.85-.13-.16-.46-.43-.64-.53.86-.67,1-1.58,1-2.35v-1.54h3.45v2.75c0,.23,0,.36.05.4.05.05.12.06.2.06h.32c.11,0,.22-.01.26-.05.05-.02.1-.11.12-.25.02-.17.04-.52.05-.97.16.14.44.28.65.35,0,.43-.04.95-.11,1.12-.07.2-.19.32-.35.4-.13.07-.36.1-.54.1h-.6c-.22,0-.48-.05-.65-.19-.16-.16-.22-.35-.22-1v-1.92h-1.85v.78ZM114.4,454.17c.32.86.8,1.64,1.42,2.3.61-.64,1.1-1.42,1.43-2.3h-2.84Z"/>
            <path class="cls-2" d="M124.38,455.67c-.31-.35-.97-1.02-1.51-1.52v4.96h-.88v-4.64c-.6.59-1.22,1.09-1.84,1.49-.1-.23-.32-.64-.47-.8,1.43-.83,2.93-2.34,3.75-3.93h-3.33v-.82h1.88v-2.23h.88v2.23h1.04l.16-.04.5.34c-.37.92-.92,1.81-1.55,2.62.55.44,1.61,1.37,1.91,1.63l-.55.72ZM130.99,457.9v.88h-6.72v-.88h3.03v-4.98h-2.57v-.86h2.57v-3.8h.89v3.8h2.55v.86h-2.55v4.98h2.79Z"/>
            <path class="cls-2" d="M142.4,448.73v10.39h-.91v-.54h-8.18v.54h-.89v-10.39h9.98ZM141.49,457.72v-8.14h-8.18v8.14h8.18ZM141,452.32h-1.63v3.89c0,.48-.12.72-.48.85-.34.13-.91.13-1.82.13-.04-.23-.16-.55-.28-.78.68.02,1.32.02,1.5.01.18,0,.24-.05.24-.23v-3.87h-4.58v-.78h4.58v-1.52h.84v1.52h1.63v.78ZM135.48,452.91c.61.65,1.24,1.55,1.48,2.17l-.7.38c-.22-.62-.83-1.56-1.43-2.22l.65-.34Z"/>
            <path class="cls-2" d="M146.27,453.37c-.5-.38-1.54-.89-2.36-1.18l.47-.68c.8.26,1.85.72,2.37,1.1l-.48.76ZM147.15,455.12c-.6,1.26-1.39,2.73-2.06,3.85l-.76-.58c.61-.93,1.5-2.48,2.15-3.85l.67.58ZM146.87,450.21c-.49-.42-1.5-.98-2.33-1.31l.48-.66c.83.3,1.85.8,2.35,1.24l-.5.73ZM154.14,459.14c-.12-.3-.29-.65-.5-1.02-2.31.18-4.73.34-6.38.44l-.13-.89,1-.05c.5-1.02,1.08-2.47,1.44-3.61h-2.45v-.85h3.33v-2.2h-2.73v-.84h2.73v-1.96h.91v1.96h2.84v.84h-2.84v2.2h3.41v.85h-4.15c-.44,1.14-1.01,2.51-1.54,3.55,1.24-.06,2.66-.14,4.08-.24-.38-.59-.82-1.19-1.24-1.7l.76-.4c.9,1.06,1.88,2.5,2.29,3.44l-.83.47Z"/>
            <path class="cls-2" d="M161.77,448.53c-.01.16-.01.35-.02.55.11,1.58.76,7.12,5.26,9.19-.25.19-.53.49-.66.73-3.09-1.46-4.41-4.53-4.99-6.93-.53,2.4-1.76,5.29-4.8,6.93-.16-.22-.44-.49-.72-.68,4.86-2.48,4.86-8.2,4.94-9.79h.98Z"/>
            <path class="cls-2" d="M180.04,448.99v9.94h-.94v-.73h-5.95v.78h-.9v-9.99h7.78ZM173.15,449.87v3.24h5.95v-3.24h-5.95ZM179.1,457.32v-3.35h-5.95v3.35h5.95Z"/>
            <path class="cls-2" d="M189.1,451.57c1,2.05,2.72,3.96,4.61,4.87-.22.18-.53.53-.66.78-1.81-1-3.42-2.82-4.5-4.89v3.67h2.28v.89h-2.28v2.23h-.92v-2.23h-2.34v-.89h2.34v-3.67c-1.1,2.08-2.72,3.89-4.49,4.91-.13-.22-.43-.55-.64-.72,1.82-.95,3.56-2.89,4.57-4.94h-4.16v-.89h4.71v-2.51h.92v2.51h4.75v.89h-4.2Z"/>
            <path class="cls-2" d="M203.52,450.22c-.08.17-.13.37-.18.6-.26,1.26-.84,3.19-1.79,4.43-1.09,1.4-2.52,2.52-4.73,3.21l-.82-.9c2.33-.59,3.67-1.61,4.68-2.89.85-1.09,1.42-2.76,1.57-3.91h-6.13c-.48,0-.89.02-1.2.04v-1.05c.34.04.8.07,1.2.07h6.02c.18,0,.41,0,.64-.06l.73.47Z"/>
            <path class="cls-2" d="M213.76,452.43c-.06.11-.13.26-.16.35-.32,1.19-.86,2.43-1.75,3.41-1.26,1.38-2.77,2.09-4.29,2.51l-.74-.85c1.7-.35,3.2-1.13,4.22-2.2.73-.77,1.21-1.79,1.43-2.65h-6.37c-.29,0-.74.01-1.16.04v-1.01c.43.05.84.07,1.16.07h6.32c.28,0,.53-.02.66-.1l.68.43ZM206,449.26c.31.05.7.06,1.08.06h4.71c.38,0,.8-.01,1.09-.06v1c-.29-.02-.7-.04-1.1-.04h-4.7c-.37,0-.76.01-1.08.04v-1Z"/>
            <path class="cls-2" d="M220.3,455.69c1.85-1.16,3.31-2.94,4.01-4.41l.58,1.02c-.83,1.5-2.22,3.13-4.03,4.26-1.2.77-2.71,1.5-4.71,1.87l-.64-.98c2.1-.31,3.66-1.04,4.8-1.75ZM219.59,451.89l-.76.76c-.6-.62-2.1-1.91-2.99-2.51l.68-.73c.85.56,2.39,1.81,3.06,2.48Z"/>
            <path class="cls-2" d="M234.72,452.77c.26,0,.7-.02.95-.05v1c-.26-.02-.62-.05-.92-.05h-3.35c-.13,2.24-1.01,3.83-3.07,5.03l-.94-.66c1.88-.88,2.88-2.22,3.02-4.37h-3.56c-.38,0-.79.02-1.07.05v-1c.26.02.68.05,1.04.05h3.61v-2.18c-1.21.12-2.57.16-3.49.17l-.24-.89c.91.04,2.73-.01,4.03-.18,1.09-.16,2.51-.44,3.09-.7l.64.83-.68.18c-.59.16-1.51.34-2.37.47v2.3h3.31Z"/>
            <path class="cls-2" d="M245.28,452.5c-.5,1.02-1.74,2.7-2.55,3.5l-.85-.42c.74-.65,1.65-1.75,2.06-2.47-.28.05-1.98.38-3.63.72.48,1.73,1.07,3.85,1.22,4.37.07.23.19.6.26.82l-1.02.26c-.04-.26-.1-.58-.18-.86-.16-.54-.73-2.67-1.2-4.39-1.13.23-2.11.42-2.43.49l-.24-.91c.34-.02.64-.07,1-.13.17-.02.73-.13,1.46-.26-.18-.64-.32-1.15-.4-1.38-.08-.3-.18-.54-.28-.72l1.02-.25c.04.2.1.47.17.77l.38,1.42c1.7-.32,3.74-.72,4.15-.82.14-.04.34-.08.46-.14l.6.42Z"/>
            <path class="cls-2" d="M255.66,449.55c-.83.84-1.98,1.82-3.21,2.6v5.13c0,.46.02,1.04.07,1.28h-1.18c.04-.23.07-.83.07-1.28v-4.53c-1.28.71-2.94,1.4-4.51,1.87l-.55-.94c2-.47,4.04-1.38,5.36-2.21,1.22-.75,2.48-1.8,3.15-2.65l.79.72Z"/>
            <path class="cls-2" d="M264.97,450.39c-.07.1-.23.36-.3.52-.41,1.04-1.16,2.45-2.02,3.53,1.26,1.08,2.72,2.64,3.5,3.57l-.84.73c-.8-1.07-2.07-2.47-3.3-3.57-1.28,1.39-2.9,2.7-4.68,3.5l-.77-.79c1.93-.75,3.71-2.18,4.94-3.56.82-.92,1.69-2.35,1.99-3.35h-4.68c-.42,0-1.08.05-1.21.06v-1.08c.17.02.85.07,1.21.07h4.63c.4,0,.71-.04.9-.1l.61.47ZM265.02,450.37c-.24-.48-.64-1.19-.96-1.65l.64-.28c.3.44.74,1.18.97,1.64l-.65.29ZM266.05,448.02c.32.44.78,1.19,1.01,1.63l-.65.29c-.26-.52-.66-1.2-.98-1.64l.62-.28Z"/>
            <path class="cls-2" d="M276.67,452.77c.26,0,.7-.02.95-.05v1c-.26-.02-.62-.05-.92-.05h-3.35c-.13,2.24-1.01,3.83-3.07,5.03l-.94-.66c1.88-.88,2.88-2.22,3.02-4.37h-3.56c-.38,0-.79.02-1.07.05v-1c.26.02.68.05,1.04.05h3.61v-2.18c-1.21.12-2.57.16-3.49.17l-.24-.89c.91.04,2.73-.01,4.03-.18,1.09-.16,2.51-.44,3.09-.7l.64.83-.68.18c-.59.16-1.51.34-2.37.47v2.3h3.31Z"/>
            <path class="cls-2" d="M286.31,457.34c.29,0,.56-.02.8-.06v1.01c-.24-.02-.61-.04-.8-.04h-6.63c-.26,0-.58.01-.86.04v-1.01c.28.04.6.06.86.06h2.76v-4.41h-2.21c-.19,0-.58.01-.83.04v-.96c.25.04.64.05.83.05h5.52c.3,0,.6-.02.85-.05v.96c-.26-.02-.58-.04-.85-.04h-2.34v4.41h2.9Z"/>
            <path class="cls-2" d="M289.03,453.01c.36.02,1,.06,1.67.06h6.57c.6,0,1.03-.04,1.3-.06v1.18c-.24-.01-.74-.06-1.28-.06h-6.58c-.66,0-1.29.02-1.67.06v-1.18Z"/>
            <path class="cls-2" d="M304.92,455.69c1.85-1.16,3.31-2.94,4.01-4.41l.58,1.02c-.83,1.5-2.22,3.13-4.03,4.26-1.2.77-2.71,1.5-4.71,1.87l-.64-.98c2.1-.31,3.66-1.04,4.8-1.75ZM304.21,451.89l-.76.76c-.6-.62-2.1-1.91-2.99-2.51l.68-.73c.85.56,2.39,1.81,3.06,2.48Z"/>
            <path class="cls-2" d="M312.6,452.14v6.96h-.84v-6.96h-1.49v-.82h1.49v-3.15h.84v3.15h1.42v.82h-1.42ZM317.05,454.42s0,.24-.01.36c-.1,2.72-.19,3.68-.43,4.01-.16.2-.34.28-.59.3-.2.02-.55.02-.89.01-.01-.22-.08-.53-.19-.71.34.02.6.02.74.02.13,0,.22-.02.29-.12.14-.2.24-1,.31-3.15h-.96c-.19,1.68-.66,3.06-1.74,3.99-.11-.17-.34-.43-.5-.55.94-.78,1.32-1.99,1.48-3.44h-1.14v-.72h1.21c.02-.4.04-.82.05-1.24h.78c-.01.42-.04.84-.06,1.24h1.66ZM317.47,450.2c-.41,1.33-1.26,2.29-2.96,2.93-.08-.18-.29-.48-.46-.62,1.46-.5,2.19-1.27,2.57-2.3h-2.1v-.73h2.3c.08-.41.13-.84.16-1.31h.83c-.02.47-.08.9-.16,1.31h2.97s-.01.23-.04.35c-.16,1.76-.31,2.5-.59,2.77-.19.2-.4.28-.71.3-.26.01-.74.01-1.25-.01-.02-.24-.11-.55-.24-.77.5.05.97.06,1.16.06.17,0,.26-.01.36-.11.18-.16.29-.66.41-1.86h-2.27ZM321.1,454.42s0,.25-.01.36c-.08,2.72-.17,3.68-.42,4.01-.16.19-.34.28-.59.3-.23.02-.6.02-.98.01-.02-.23-.1-.54-.19-.73.36.02.67.02.82.02s.23,0,.3-.11c.14-.2.23-.98.3-3.14h-1.07c-.2,1.69-.67,3.05-1.82,3.96-.11-.17-.32-.43-.52-.56,1-.76,1.39-1.93,1.56-3.39h-1.09v-.72h1.16c.02-.4.04-.82.05-1.25h.79c-.01.43-.04.85-.06,1.25h1.78Z"/>
            <path class="cls-2" d="M328.12,448.19c1.26,1.76,3.35,3.32,5.23,4.1-.2.22-.42.53-.58.79-1.85-.9-3.95-2.5-5.06-4.04-.97,1.44-2.92,3.08-4.95,4.09-.1-.2-.32-.53-.52-.71,2.05-.98,4.04-2.71,4.96-4.23h.91ZM322.87,454.15h9.86v.83h-5.62c-.42.89-.94,1.92-1.42,2.76,1.49-.05,3.18-.11,4.86-.18-.49-.56-1.06-1.15-1.58-1.62l.76-.41c1.1.95,2.27,2.24,2.82,3.13l-.8.49c-.14-.24-.32-.52-.55-.8-2.94.14-6.04.28-8.1.35l-.12-.88c.52-.01,1.12-.02,1.76-.05.46-.83.97-1.92,1.29-2.79h-3.15v-.83ZM330.58,451.87v.82h-5.67v-.82h5.67Z"/>
            <path class="cls-2" d="M354.25,458.31c.01-.13.01-.38.02-.67h-5.87c-.49,0-1.03.02-1.36.05v-1.08c.31.02.83.06,1.33.06h5.89v-5.66h-5.75c-.44,0-1.03.02-1.32.04v-1.07c.4.05.92.07,1.31.07h5.91c.29,0,.65-.01.89-.02-.01.28-.04.65-.04.94v6.19c0,.43.04.97.05,1.16h-1.08Z"/>
            <path class="cls-2" d="M362.98,455.69c1.85-1.16,3.31-2.94,4.01-4.41l.58,1.02c-.83,1.5-2.22,3.13-4.03,4.26-1.2.77-2.71,1.5-4.71,1.87l-.64-.98c2.1-.31,3.66-1.04,4.8-1.75ZM362.27,451.89l-.75.76c-.6-.62-2.1-1.91-2.99-2.51l.68-.73c.85.56,2.39,1.81,3.06,2.48Z"/>
            <path class="cls-2" d="M370.79,456.51c0,.61.25.77.84.89.37.06,1,.1,1.58.1,1.27,0,3.11-.12,4.1-.38v1.09c-1.04.16-2.84.25-4.15.25-.71,0-1.43-.04-1.92-.12-.92-.17-1.44-.59-1.44-1.56v-6.6c0-.29-.01-.7-.07-.97h1.12c-.04.28-.06.64-.06.97v2.71c1.42-.35,3.31-.92,4.56-1.46.37-.16.72-.34,1.05-.54l.42.96c-.34.14-.77.34-1.13.47-1.34.54-3.42,1.17-4.91,1.56v2.64ZM376.57,450.74c-.24-.49-.65-1.21-.97-1.67l.64-.26c.3.42.73,1.15.98,1.63l-.65.3ZM377.56,448.32c.31.44.78,1.19,1.01,1.63l-.65.3c-.26-.53-.66-1.2-1-1.66l.63-.28Z"/>
            <path class="cls-2" d="M379.59,456.33c.41.04.83.06,1.26.06h7.18c.36,0,.74-.01,1.09-.06v1.15c-.36-.04-.77-.06-1.09-.06h-7.18c-.43,0-.85.04-1.26.06v-1.15ZM380.62,450.39c.38.04.79.06,1.17.06h5.15c.43,0,.85-.02,1.19-.06v1.08c-.34-.02-.79-.04-1.19-.04h-5.13c-.42,0-.82.01-1.19.04v-1.08Z"/>
            <path class="cls-2" d="M399.65,456.7c.36,0,.68-.04,1-.07v1.09c-.32-.05-.76-.05-1-.05h-7.93c-.32,0-.68.01-1.06.05v-1.09c.36.05.73.07,1.06.07h3.38v-5.52h-2.7c-.23,0-.71.01-1.01.05v-1.06c.31.05.77.07,1.01.07h6.6c.36,0,.73-.04,1.02-.07v1.06c-.3-.04-.68-.05-1.02-.05h-2.88v5.52h3.53Z"/>
            <path class="cls-2" d="M407.23,455.69c1.85-1.16,3.31-2.94,4.01-4.41l.58,1.02c-.83,1.5-2.22,3.13-4.03,4.26-1.2.77-2.71,1.5-4.71,1.87l-.64-.98c2.1-.31,3.66-1.04,4.8-1.75ZM406.53,451.89l-.76.76c-.6-.62-2.1-1.91-2.99-2.51l.68-.73c.85.56,2.39,1.81,3.06,2.48Z"/>
            <path class="cls-2" d="M420.83,450.18c-.07.1-.23.36-.3.53-.41,1.03-1.16,2.43-2.01,3.51,1.26,1.08,2.72,2.64,3.5,3.57l-.84.73c-.8-1.06-2.07-2.47-3.3-3.56-1.28,1.38-2.9,2.7-4.68,3.5l-.77-.8c1.93-.75,3.71-2.18,4.94-3.56.82-.92,1.69-2.35,1.99-3.33h-4.68c-.42,0-1.08.05-1.21.06v-1.09c.17.02.85.08,1.21.08h4.63c.4,0,.71-.05.9-.11l.61.47Z"/>
            <path class="cls-2" d="M431.62,450.18c-.07.1-.23.36-.3.53-.41,1.03-1.16,2.43-2.01,3.51,1.26,1.08,2.72,2.64,3.5,3.57l-.84.73c-.8-1.06-2.07-2.47-3.3-3.56-1.28,1.38-2.9,2.7-4.68,3.5l-.77-.8c1.93-.75,3.71-2.18,4.94-3.56.82-.92,1.69-2.35,1.99-3.33h-4.68c-.42,0-1.08.05-1.21.06v-1.09c.17.02.85.08,1.21.08h4.63c.4,0,.71-.05.9-.11l.61.47Z"/>
            <path class="cls-2" d="M441.37,455.12c-1.31-.71-3.38-1.51-4.71-1.93v3.96c.01.38.04,1.02.08,1.42h-1.15c.05-.38.07-.97.07-1.42v-6.98c0-.34-.02-.88-.1-1.25h1.18c-.04.37-.08.89-.08,1.25v1.95c1.58.48,3.85,1.34,5.12,1.98l-.41,1.02Z"/>
            <path class="cls-2" d="M453.38,450.09c-.08.12-.24.3-.32.43-.48.82-1.62,2.36-2.99,3.31l-.79-.64c1.1-.65,2.23-1.94,2.62-2.69h-6.82c-.44,0-.89.02-1.37.07v-1.08c.42.05.92.1,1.37.1h6.88c.23,0,.66-.04.84-.07l.59.56ZM448.6,451.68c0,3.25-.29,5.45-3.35,6.97l-.88-.72c.32-.11.73-.3,1.07-.53,1.86-1.14,2.12-2.85,2.12-4.86,0-.29-.01-.55-.05-.86h1.08Z"/>
            <path class="cls-2" d="M455.72,455.11c-.17,1.13-.46,2.28-.85,3.05-.14-.11-.5-.28-.7-.34.4-.73.65-1.8.78-2.85l.77.14ZM457.03,454.15v4.99h-.79v-4.94c-.68.04-1.33.07-1.88.11l-.07-.79.79-.04c.25-.32.53-.71.79-1.1-.37-.54-1-1.21-1.55-1.7l.46-.58c.12.1.23.2.35.31.41-.67.83-1.57,1.08-2.23l.78.31c-.41.79-.91,1.74-1.36,2.41.26.26.5.54.7.78.47-.74.9-1.51,1.21-2.15l.75.34c-.68,1.14-1.59,2.54-2.39,3.57l1.78-.07c-.17-.37-.36-.76-.56-1.08l.62-.25c.49.77.97,1.8,1.13,2.45l-.67.3c-.05-.2-.12-.44-.22-.7l-.95.06ZM458.15,457.29c-.12-.6-.42-1.5-.73-2.2l.65-.22c.32.68.65,1.6.77,2.18l-.68.23ZM461.04,454.06c-.11,2.6-.49,4.22-2.63,5.1-.08-.19-.32-.5-.5-.66,1.91-.74,2.19-2.13,2.28-4.44h.85ZM459.7,452.74c.31-.64.65-1.5.86-2.19h-1.97v-.82h2.71v-1.57h.9v1.57h2.9v.82h-3.53c-.3.7-.65,1.5-.97,2.15.91-.06,1.93-.12,2.94-.18-.28-.41-.59-.8-.88-1.15l.7-.36c.74.85,1.56,1.99,1.93,2.73l-.74.43c-.12-.26-.3-.58-.52-.92-1.92.16-3.92.29-5.31.38l-.08-.83,1.06-.06ZM464.35,458.24c.25,0,.3-.19.34-1.5.17.14.52.29.74.35-.06,1.55-.28,1.94-1,1.94h-1.02c-.83,0-1.01-.25-1.01-1.14v-3.84h.83v3.84c0,.31.04.35.3.35h.82Z"/>
            <path class="cls-2" d="M471.05,450.88h-4.72v-.73h4.72v.73ZM470.57,458.43h-2.9v.55h-.79v-4.02h3.69v3.47ZM466.89,451.77h3.72v.71h-3.72v-.71ZM466.89,453.35h3.72v.72h-3.72v-.72ZM470.61,449.3h-3.66v-.72h3.66v.72ZM467.67,455.69v2.01h2.1v-2.01h-2.1ZM477.42,453.12h-2.69v6h-.89v-6h-2.81v-.88h2.81v-4.04h.89v4.04h2.69v.88Z"/>
            <path class="cls-2" d="M487.36,452.5c.25,0,.65-.01.94-.05v.98c-.26-.01-.65-.02-.94-.02h-3.26c-.04,1.29-.23,2.39-.71,3.27-.43.8-1.34,1.67-2.36,2.19l-.89-.66c.94-.38,1.8-1.08,2.27-1.83.53-.84.66-1.85.7-2.97h-3.59c-.37,0-.72,0-1.04.02v-.98c.32.02.67.05,1.04.05h7.84ZM480.99,450.39c-.4,0-.79.01-1.1.04v-1c.35.04.71.07,1.09.07h4.15c.34,0,.77-.02,1.12-.07v1c-.35-.02-.77-.04-1.12-.04h-4.14ZM487.2,450.39c-.24-.49-.65-1.21-.97-1.66l.64-.28c.3.43.73,1.15.98,1.64l-.65.29ZM488.19,447.98c.31.43.78,1.19,1.01,1.63l-.65.29c-.26-.53-.65-1.2-1-1.65l.64-.26Z"/>
            <path class="cls-2" d="M490.2,453.01c.36.02,1,.06,1.67.06h6.57c.6,0,1.03-.04,1.29-.06v1.18c-.24-.01-.74-.06-1.28-.06h-6.58c-.66,0-1.3.02-1.67.06v-1.18Z"/>
            <path class="cls-2" d="M510.78,450.51c-.1.17-.2.46-.28.65-.3,1.06-.91,2.39-1.75,3.56.46.29.86.56,1.16.78l-.66.86c-.29-.23-.68-.52-1.14-.83-1.08,1.24-2.59,2.41-4.7,3.19l-.86-.74c2.09-.64,3.65-1.79,4.74-2.99-.95-.61-1.95-1.21-2.63-1.58l.61-.71c.7.36,1.7.94,2.64,1.5.73-1.02,1.32-2.25,1.55-3.2h-4.08c-.77,1.07-1.83,2.24-3.18,3.15l-.8-.62c2.06-1.27,3.31-3.07,3.85-4.16.12-.22.3-.65.38-.96l1.08.35c-.19.31-.41.72-.53.95-.07.14-.16.29-.25.44h3.27c.32,0,.59-.04.79-.12l.78.48Z"/>
          </g>
        </g>
      </g>
      <rect class="cls-3" x="18.92" y="238.6" width="333.07" height="6" transform="translate(-109.45 165.48) rotate(-38.02)"/>
      <path class="cls-3" d="M326.01,130.32l-6.91,18.21-12.22-14.55,19.13-3.65Z"/>
      <rect class="cls-1" x="71" y="100.2" width="163" height="73"/>
      <path class="cls-5" d="M72,101.2v71h161v-71H72M71,100.2h163v73H71v-73Z"/>
      <g class="cls-4">
        <g class="cls-4">
          <path class="cls-2" d="M84.12,119.96h2.09v-6.66h-1.72v-.95c.9-.17,1.53-.39,2.08-.73h1.13v8.33h1.87v1.24h-5.46v-1.24Z"/>
          <path class="cls-2" d="M91.93,119.43c.38.43.96.71,1.57.71,1.16,0,2.16-.94,2.25-3.67-.56.69-1.38,1.12-2.11,1.12-1.6,0-2.68-1-2.68-3,0-1.9,1.3-3.15,2.85-3.15,1.83,0,3.31,1.48,3.31,4.64,0,3.77-1.72,5.28-3.56,5.28-1.1,0-1.89-.44-2.44-1.01l.81-.92ZM95.73,115.35c-.14-1.88-.86-2.74-1.9-2.74-.82,0-1.47.74-1.47,1.99s.55,1.92,1.55,1.92c.58,0,1.25-.34,1.82-1.17Z"/>
          <path class="cls-2" d="M98.42,118.82c0-1.26.83-2.11,1.72-2.57v-.07c-.71-.51-1.29-1.22-1.29-2.24,0-1.5,1.16-2.47,2.73-2.47,1.66,0,2.7,1.04,2.7,2.54,0,.98-.66,1.81-1.26,2.25v.07c.86.49,1.61,1.23,1.61,2.54,0,1.42-1.25,2.51-3.09,2.51s-3.12-1.07-3.12-2.55ZM103.21,118.82c0-1.17-1.05-1.61-2.35-2.15-.66.46-1.12,1.17-1.12,2,0,.95.79,1.61,1.82,1.61s1.65-.57,1.65-1.47ZM103.02,114.1c0-.88-.53-1.55-1.47-1.55-.78,0-1.36.53-1.36,1.39,0,1.04.91,1.52,1.98,1.94.57-.53.86-1.14.86-1.78Z"/>
          <path class="cls-2" d="M105.59,120.06l.73-.96c.56.57,1.27,1.05,2.26,1.05,1.08,0,1.82-.6,1.82-1.59,0-1.07-.68-1.76-2.83-1.76v-1.1c1.89,0,2.51-.71,2.51-1.68,0-.85-.56-1.38-1.47-1.39-.74.01-1.36.38-1.91.91l-.78-.94c.75-.68,1.64-1.16,2.74-1.16,1.72,0,2.93.88,2.93,2.47,0,1.11-.64,1.87-1.65,2.25v.07c1.1.27,1.98,1.1,1.98,2.39,0,1.73-1.44,2.74-3.2,2.74-1.51,0-2.48-.6-3.12-1.31Z"/>
          <path class="cls-2" d="M125,119.35h-4.56v2.87h-1.25v-2.87h-5.92v-1.17h2.09v-3.43h3.82v-1.79h-2.98c-.56.96-1.21,1.82-1.87,2.47-.23-.21-.75-.6-1.05-.78,1.2-1.03,2.24-2.68,2.83-4.41l1.22.32c-.16.4-.34.83-.51,1.22h7.53v1.17h-3.93v1.79h3.63v1.13h-3.63v2.3h4.56v1.17ZM119.19,118.18v-2.3h-2.61v2.3h2.61Z"/>
          <path class="cls-2" d="M131.27,111.05c-.06.27-.13.6-.18.88-.08.39-.2,1.01-.31,1.6.53-.04.99-.07,1.29-.07,1.25,0,2.2.52,2.2,2.31,0,1.52-.19,3.56-.74,4.67-.42.87-1.08,1.12-1.99,1.12-.48,0-1.1-.09-1.52-.2l-.22-1.35c.52.16,1.24.27,1.59.27.46,0,.82-.12,1.05-.61.39-.81.57-2.42.57-3.76,0-1.1-.49-1.29-1.31-1.29-.26,0-.69.03-1.17.07-.48,1.9-1.39,4.85-2.65,6.9l-1.34-.53c1.27-1.72,2.2-4.49,2.65-6.23-.58.07-1.1.12-1.39.16-.34.04-.92.12-1.29.18l-.12-1.4c.43.03.81.01,1.23,0,.42-.01,1.1-.07,1.83-.13.18-.95.31-1.92.3-2.76l1.52.16ZM135.7,112.33c.79,1.08,1.9,3.47,2.31,4.68l-1.27.61c-.36-1.37-1.34-3.67-2.25-4.77l1.21-.52Z"/>
          <path class="cls-2" d="M140.98,116.7c1.2-.96,2.55-1.4,3.99-1.4,2.09,0,3.42,1.29,3.42,2.81,0,2.33-1.98,3.99-6.99,3.58l-.4-1.34c3.98.51,5.99-.56,5.99-2.26,0-.95-.88-1.61-2.12-1.61-1.6,0-2.93.58-3.8,1.61-.21.25-.33.47-.43.69l-1.2-.29c.25-1.21.57-3.84.65-5.29l1.38.18c-.17.81-.39,2.54-.49,3.33ZM141.59,110.93c1.16.36,3.93.87,5.06.99l-.3,1.26c-1.26-.17-4.1-.75-5.08-1.01l.33-1.24Z"/>
          <path class="cls-2" d="M150.61,119.96h2.09v-6.66h-1.72v-.95c.9-.17,1.53-.39,2.08-.73h1.13v8.33h1.87v1.24h-5.46v-1.24Z"/>
          <path class="cls-2" d="M157.26,120.09l.71-.97c.55.55,1.24,1.03,2.24,1.03,1.08,0,1.9-.77,1.9-2.04s-.73-2-1.82-2c-.61,0-.98.18-1.53.55l-.73-.48.29-4.54h4.85v1.26h-3.55l-.22,2.46c.4-.21.79-.34,1.31-.34,1.6,0,2.91.95,2.91,3.04s-1.55,3.32-3.22,3.32c-1.51,0-2.46-.61-3.13-1.27Z"/>
          <path class="cls-2" d="M176.68,119.35h-4.56v2.87h-1.25v-2.87h-5.92v-1.17h2.09v-3.43h3.82v-1.79h-2.98c-.56.96-1.21,1.82-1.87,2.47-.23-.21-.75-.6-1.05-.78,1.2-1.03,2.24-2.68,2.83-4.41l1.22.32c-.16.4-.34.83-.51,1.22h7.53v1.17h-3.93v1.79h3.63v1.13h-3.63v2.3h4.56v1.17ZM170.87,118.18v-2.3h-2.61v2.3h2.61Z"/>
          <path class="cls-2" d="M179.68,115.34v6.89h-1.2v-11.42h4.8v4.52h-3.6ZM179.68,111.72v.9h2.46v-.9h-2.46ZM182.14,114.44v-.96h-2.46v.96h2.46ZM189.22,120.72c0,.69-.14,1.08-.61,1.29-.46.2-1.17.21-2.26.21-.05-.32-.22-.84-.38-1.18h-3.51v.65h-1.11v-5.45h4.88v4.76c.64.03,1.26.01,1.47.01.23-.01.3-.08.3-.3v-5.34h-3.69v-4.55h4.91v9.91ZM182.46,117.14v1.01h2.64v-1.01h-2.64ZM185.1,120.12v-1.08h-2.64v1.08h2.64ZM185.47,111.72v.9h2.54v-.9h-2.54ZM188,114.47v-.99h-2.54v.99h2.54Z"/>
          <path class="cls-2" d="M192.08,112.44c.94-.09,3.24-.31,5.6-.51,1.37-.12,2.67-.2,3.54-.22v1.31c-.7,0-1.82.01-2.5.18-1.7.52-2.83,2.34-2.83,3.86,0,2.35,2.18,3.12,4.3,3.22l-.47,1.38c-2.52-.13-5.16-1.48-5.16-4.32,0-1.95,1.13-3.51,2.17-4.17-1.12.12-4.28.43-5.72.74l-.13-1.42c.49-.01.94-.04,1.2-.07ZM200.48,116.23l-.81.36c-.31-.66-.65-1.26-1.04-1.82l.78-.34c.31.45.79,1.25,1.07,1.79ZM201.96,115.64l-.79.39c-.34-.66-.68-1.24-1.09-1.79l.78-.35c.31.44.82,1.22,1.1,1.75Z"/>
        </g>
        <g class="cls-4">
          <path class="cls-2" d="M92.04,141.4c0-.18.01-.43.01-.7h-6.16c-.53,0-1.18.03-1.56.05v-1.47c.38.03.95.06,1.51.06h6.23v-5.8h-6.07c-.51,0-1.17.03-1.51.04v-1.43c.46.04,1.08.08,1.51.08h6.46c.35,0,.81-.01,1.04-.03-.01.29-.03.75-.03,1.09v6.72c0,.45.03,1.09.05,1.38h-1.48Z"/>
          <path class="cls-2" d="M101.42,138.39c2.09-1.29,3.72-3.24,4.51-4.9l.79,1.42c-.94,1.68-2.54,3.46-4.56,4.71-1.31.81-2.96,1.57-4.98,1.94l-.87-1.34c2.17-.33,3.86-1.05,5.11-1.82ZM100.98,134.23l-1.03,1.05c-.68-.69-2.29-2.09-3.25-2.76l.95-1.01c.92.61,2.6,1.96,3.33,2.72Z"/>
          <path class="cls-2" d="M110.26,139.26c0,.62.27.78.88.91.39.07,1,.09,1.62.09,1.36,0,3.41-.14,4.47-.43v1.5c-1.17.17-3.12.26-4.55.26-.81,0-1.59-.04-2.13-.13-1.05-.19-1.65-.71-1.65-1.81v-7.12c0-.3-.03-.83-.09-1.17h1.52c-.05.34-.08.81-.08,1.17v2.73c1.53-.38,3.48-.99,4.75-1.52.43-.17.83-.36,1.26-.64l.57,1.31c-.43.17-.95.4-1.36.55-1.39.56-3.58,1.22-5.21,1.65v2.65ZM116.28,133.01c-.27-.52-.69-1.3-1.04-1.79l.83-.35c.33.47.79,1.27,1.05,1.78l-.85.36ZM117.55,130.32c.34.48.83,1.3,1.07,1.77l-.85.36c-.27-.56-.69-1.3-1.05-1.78l.83-.35Z"/>
          <path class="cls-2" d="M119.62,138.98c.47.04.99.08,1.47.08h7.64c.42,0,.88-.03,1.3-.08v1.57c-.43-.04-.94-.06-1.3-.06h-7.64c-.48,0-1.01.03-1.47.06v-1.57ZM120.73,132.58c.43.04.95.06,1.38.06h5.49c.49,0,1-.03,1.35-.06v1.48c-.36-.03-.91-.05-1.35-.05h-5.47c-.47,0-.98.03-1.39.05v-1.48Z"/>
          <path class="cls-2" d="M141.38,139.39c.42,0,.79-.05,1.13-.09v1.48c-.35-.04-.86-.05-1.13-.05h-8.58c-.38,0-.79.01-1.21.05v-1.48c.39.07.83.09,1.21.09h3.5v-5.68h-2.74c-.29,0-.82.01-1.14.05v-1.42c.34.04.85.07,1.14.07h7.11c.4,0,.82-.03,1.17-.07v1.42c-.36-.04-.79-.05-1.17-.05h-2.95v5.68h3.67Z"/>
          <path class="cls-2" d="M149.37,138.39c2.09-1.29,3.72-3.24,4.51-4.9l.79,1.42c-.94,1.68-2.54,3.46-4.56,4.71-1.31.81-2.96,1.57-4.98,1.94l-.87-1.34c2.17-.33,3.86-1.05,5.11-1.82ZM148.92,134.23l-1.03,1.05c-.68-.69-2.29-2.09-3.25-2.76l.95-1.01c.92.61,2.6,1.96,3.33,2.72Z"/>
          <path class="cls-2" d="M164.52,132.45c-.09.13-.29.46-.38.68-.46,1.07-1.22,2.54-2.13,3.71,1.34,1.14,2.91,2.82,3.72,3.81l-1.16,1.01c-.85-1.17-2.15-2.6-3.43-3.8-1.39,1.48-3.13,2.87-5.01,3.73l-1.05-1.09c2.11-.81,4.06-2.37,5.34-3.81.88-.99,1.76-2.42,2.07-3.43h-4.77c-.51,0-1.21.07-1.42.08v-1.47c.26.04,1.01.09,1.42.09h4.82c.48,0,.91-.05,1.13-.13l.84.62Z"/>
          <path class="cls-2" d="M176.21,132.45c-.09.13-.29.46-.38.68-.46,1.07-1.22,2.54-2.13,3.71,1.34,1.14,2.91,2.82,3.72,3.81l-1.16,1.01c-.85-1.17-2.15-2.6-3.43-3.8-1.39,1.48-3.13,2.87-5.01,3.73l-1.05-1.09c2.11-.81,4.06-2.37,5.34-3.81.88-.99,1.75-2.42,2.07-3.43h-4.77c-.51,0-1.21.07-1.42.08v-1.47c.26.04,1.01.09,1.42.09h4.82c.48,0,.91-.05,1.13-.13l.84.62Z"/>
          <path class="cls-2" d="M186.57,138.01c-1.38-.74-3.48-1.56-4.91-2.03v4.02c0,.4.04,1.2.1,1.66h-1.6c.06-.46.1-1.16.1-1.66v-7.51c0-.42-.04-1.01-.12-1.46h1.6c-.04.43-.09,1-.09,1.46v2.03c1.72.52,4.2,1.44,5.5,2.08l-.58,1.42Z"/>
          <path class="cls-2" d="M199.74,132.41c-.12.14-.33.39-.43.55-.56.95-1.79,2.6-3.19,3.59l-1.08-.87c1.13-.66,2.28-1.95,2.65-2.69h-7.14c-.51,0-.96.04-1.52.08v-1.44c.48.06,1.01.12,1.52.12h7.27c.3,0,.88-.04,1.09-.09l.82.77ZM194.49,134.14c0,3.39-.19,5.89-3.61,7.64l-1.2-.97c.38-.13.83-.34,1.25-.64,1.86-1.2,2.16-2.83,2.16-4.99,0-.35-.01-.66-.08-1.04h1.48Z"/>
          <path class="cls-2" d="M206.08,140.41c.46-.04.83-.1,1.14-.18,1.65-.38,3.12-1.57,3.12-3.65,0-1.87-1.12-3.34-3.09-3.59-.18,1.16-.42,2.41-.77,3.61-.78,2.63-1.85,4.1-3.13,4.1s-2.44-1.44-2.44-3.59c0-2.86,2.54-5.34,5.76-5.34s5.06,2.16,5.06,4.86-1.73,4.56-4.88,5l-.77-1.22ZM205.18,136.33c.32-1.01.57-2.18.7-3.32-2.31.38-3.67,2.39-3.67,3.98,0,1.48.66,2.16,1.18,2.16.56,0,1.18-.83,1.78-2.82Z"/>
        </g>
        <g class="cls-4">
          <path class="cls-2" d="M95.36,151.88v1.17h-9.58v2.13c0,2.03-.2,5.04-1.33,7.03-.22-.19-.75-.56-1.03-.69,1.05-1.85,1.14-4.49,1.14-6.34v-3.3h4.68v-1.59h1.26v1.59h4.85ZM90.97,154.67h4.21v1.08h-4.21v1.66h3.39v4.8h-1.23v-.47h-5.17v.48h-1.18v-4.81h2.98v-4.13h1.22v1.39ZM93.13,158.48h-5.17v2.18h5.17v-2.18Z"/>
          <path class="cls-2" d="M105.67,153.1v1.05h2.48v6.86c0,.49-.08.81-.38.99-.32.17-.74.2-1.39.2-.03-.3-.18-.77-.32-1.04.4.01.75.01.87.01s.17-.04.17-.17v-1.62h-1.43v2.73h-1.08v-2.73h-1.34v2.81h-1.05v-8.03h2.39v-1.05h-2.7v-.44l-.74.91c-.36-.59-1.11-1.52-1.79-2.18-.48.83-1.16,1.83-2.11,2.72h1.55v-1.2h1.09v1.2h1.61v.95h-1.61v1.13h1.92v.99h-5.02v-.99h2v-1.13h-1.55v-.95l-.16.14c-.17-.25-.55-.62-.78-.79,1.09-.95,1.89-2.17,2.31-3.16h1.07c.78.68,1.73,1.62,2.2,2.3v-.56h2.7v-1.75h1.08v1.75h1.85c-.33-.36-.99-.85-1.53-1.17l.68-.56c.57.3,1.26.77,1.6,1.12l-.69.61h.81v1.07h-2.7ZM97.17,157.92h4.38v3.99h-1.1v-.44h-2.21v.68h-1.07v-4.23ZM98.24,158.91v1.57h2.21v-1.57h-2.21ZM103.25,155.18v1.11h1.34v-1.11h-1.34ZM104.59,158.39v-1.12h-1.34v1.12h1.34ZM105.67,155.18v1.11h1.43v-1.11h-1.43ZM107.1,158.39v-1.12h-1.43v1.12h1.43Z"/>
          <path class="cls-2" d="M120.7,153.78c-.3,2.01-.75,3.68-1.51,5.03.61,1.03,1.4,1.85,2.41,2.37-.27.23-.66.7-.85,1.04-.94-.56-1.69-1.33-2.3-2.27-.74.95-1.69,1.72-2.89,2.33-.09-.2-.27-.51-.46-.77l-.43.44c-.36-.33-.87-.66-1.44-1-.75.6-1.78,1-3.16,1.29-.08-.33-.3-.77-.52-1,1.13-.17,1.99-.44,2.63-.87-.34-.17-.68-.34-1.03-.49l-.17.3-1.05-.33c.29-.48.62-1.1.98-1.75h-1.39v-1h1.89c.18-.35.34-.7.48-1.03l.31.07v-1.51c-.62.68-1.39,1.29-2.12,1.7-.14-.27-.42-.68-.64-.91.87-.35,1.81-1.08,2.43-1.86h-2.25v-.98h1.17c-.1-.45-.43-1.13-.74-1.64l.87-.36c.36.49.7,1.17.83,1.62l-.86.38h1.3v-2.29h1.12v2.29h2.55v.98h-2.48c.58.33,1.85,1.1,2.17,1.34l-.65.84c-.31-.3-1-.84-1.59-1.29v1.78h-.65l.35.08c-.12.25-.25.51-.38.78h3.28v1h-1.07c-.17.81-.43,1.48-.82,2.03.49.27.95.56,1.31.82,1.04-.56,1.83-1.29,2.46-2.18-.44-.92-.77-1.98-1.04-3.12-.25.48-.51.94-.81,1.33-.18-.22-.69-.65-.96-.84,1.08-1.35,1.74-3.54,2.08-5.82l1.22.18c-.13.74-.27,1.47-.46,2.17h3.63v1.14h-.77ZM112.13,158.08c-.17.3-.33.61-.48.9.45.18.92.38,1.36.6.31-.4.52-.9.68-1.5h-1.56ZM115.66,150.93c-.42.58-.83,1.21-1.16,1.61l-.81-.36c.31-.46.71-1.17.92-1.68l1.04.43ZM117.52,153.78c.23,1.33.55,2.57,1,3.67.44-1.04.74-2.26.94-3.67h-1.94Z"/>
          <path class="cls-2" d="M127.67,151.11c-.06.27-.14.6-.19.88-.06.39-.18,1.01-.3,1.6.52-.04.99-.06,1.29-.06,1.24,0,2.18.52,2.18,2.31,0,1.52-.2,3.56-.73,4.67-.43.87-1.09,1.12-1.99,1.12-.49,0-1.1-.09-1.53-.19l-.22-1.35c.53.16,1.24.27,1.59.27.46,0,.82-.12,1.05-.61.39-.81.57-2.42.57-3.76,0-1.11-.49-1.29-1.31-1.29-.26,0-.69.03-1.17.06-.47,1.9-1.38,4.85-2.65,6.9l-1.34-.53c1.29-1.72,2.21-4.48,2.67-6.23-.58.06-1.1.12-1.4.16-.34.04-.91.12-1.27.18l-.13-1.4c.44.03.81.01,1.25,0,.42-.01,1.1-.06,1.82-.13.18-.95.31-1.92.31-2.76l1.52.16ZM132.3,152.79c.78,1.17,1.73,3.25,2.12,4.35l-1.29.61c-.36-1.38-1.34-3.64-2.25-4.73l1.21-.53c.06.09.13.18.21.29-.26-.52-.68-1.3-1.04-1.79l.85-.35c.32.47.79,1.29,1.05,1.79l-.86.36ZM133.8,152.23c-.27-.56-.69-1.3-1.07-1.79l.85-.35c.34.48.83,1.3,1.08,1.78l-.86.36Z"/>
          <path class="cls-2" d="M136.87,157.91c-.17,1.22-.47,2.48-.87,3.32-.19-.14-.68-.36-.92-.46.39-.78.64-1.92.77-3.04l1.03.18ZM139.28,154.44c.53.84,1.07,1.95,1.25,2.67l-.92.44c-.05-.21-.13-.46-.23-.73l-.96.06v5.36h-1.08v-5.29c-.74.04-1.43.08-2.03.12l-.1-1.07.91-.03c.25-.31.49-.65.75-1.01-.4-.57-1.07-1.27-1.64-1.82l.58-.81c.12.1.23.21.35.31.4-.71.83-1.65,1.07-2.35l1.09.39c-.47.88-1.01,1.91-1.48,2.61.25.26.47.52.64.75.51-.78.98-1.59,1.31-2.26l1.03.44c-.74,1.18-1.72,2.61-2.59,3.69l1.73-.06c-.17-.36-.35-.72-.55-1.04l.87-.38ZM139.6,157.66c.35.78.7,1.79.85,2.46l-.96.34c-.12-.68-.47-1.7-.79-2.5l.91-.3ZM146.93,153.14c-.22,5.73-.39,7.76-.94,8.42-.31.43-.64.55-1.14.6-.44.07-1.24.05-2,.01-.03-.35-.17-.87-.4-1.21.85.07,1.62.08,1.94.08.27,0,.42-.05.56-.22.42-.42.62-2.34.79-7.11h-3.96c-.35.66-.74,1.26-1.14,1.74-.23-.21-.78-.56-1.07-.73.99-1.05,1.79-2.74,2.25-4.45l1.23.29c-.19.68-.44,1.35-.71,1.99h4.6v.58ZM142.94,158.92c-.26-.79-.98-2.05-1.66-2.99l.98-.48c.7.88,1.47,2.12,1.75,2.92l-1.07.55Z"/>
          <path class="cls-2" d="M153.6,153.39c-.35-.42-.94-.71-1.5-.71-1.22,0-2.24.92-2.3,3.65.56-.69,1.39-1.11,2.08-1.11,1.61,0,2.69.99,2.69,3.02,0,1.9-1.3,3.13-2.86,3.13-1.82,0-3.3-1.52-3.3-4.77,0-3.68,1.73-5.15,3.61-5.15,1.07,0,1.85.46,2.39,1.03l-.82.91ZM153.19,158.24c0-1.24-.55-1.92-1.57-1.92-.56,0-1.21.3-1.78,1.12.16,1.9.85,2.8,1.87,2.8.83,0,1.48-.75,1.48-1.99Z"/>
          <path class="cls-2" d="M159.6,150.68c-.35.92-.79,1.86-1.29,2.74v8.78h-1.14v-6.98c-.36.49-.74.95-1.12,1.35-.12-.29-.47-.94-.66-1.22,1.22-1.21,2.38-3.11,3.08-5l1.13.34ZM167.67,155.05v1.13h-8.63v-1.13h2.16c-.08-.53-.35-1.37-.61-2l1.04-.26c.33.62.6,1.47.69,2l-.98.26h3.94l-.92-.19c.25-.56.55-1.44.7-2.07l1.22.25c-.3.73-.58,1.5-.86,2.01h2.25ZM162.78,151.68v-1.39h1.23v1.39h3.38v1.09h-7.87v-1.09h3.25ZM160.17,157.27h6.62v4.89h-1.23v-.51h-4.2v.57h-1.18v-4.95ZM161.35,158.37v2.16h4.2v-2.16h-4.2Z"/>
          <path class="cls-2" d="M171.66,151.37c-.09.25-.22.75-.27.99-.22,1.05-.64,3.47-.64,4.85,0,.46.03.88.09,1.35.2-.52.46-1.14.65-1.61l.68.52c-.35.98-.81,2.35-.92,3-.04.17-.08.44-.07.59,0,.13.01.32.03.48l-1.17.08c-.26-.9-.49-2.42-.49-4.16,0-1.92.42-4.11.56-5.13.05-.33.1-.73.12-1.07l1.44.12ZM174.62,157.66c-.1.44-.16.79-.16,1.14,0,.59.43,1.04,1.99,1.04,1.16,0,2.13-.1,3.21-.34l.03,1.38c-.81.16-1.87.26-3.26.26-2.18,0-3.2-.75-3.2-2,0-.51.1-1.03.22-1.59l1.17.1ZM179.29,152.29v1.33c-1.47.14-3.9.16-5.4,0v-1.31c1.47.22,4.06.17,5.4-.01Z"/>
          <path class="cls-2" d="M185.28,157.5l.25,1.11c-1.38.56-2.85,1.14-4,1.59l-.43-1.22c.47-.14,1.04-.34,1.66-.56v-3.86h-1.4v-1.14h1.4v-2.95h1.13v2.95h1.3v1.14h-1.3v3.46l1.39-.51ZM192.72,152.11v4.48h-7.15v-4.48h1.4c-.18-.44-.49-1.01-.79-1.46l1.03-.36c.38.51.81,1.22.95,1.68l-.38.14h2.54l-.32-.1c.31-.49.68-1.24.87-1.75l1.25.34c-.34.55-.69,1.09-1,1.52h1.61ZM186.14,157.26h6.11v4.94h-1.16v-.42h-3.83v.43h-1.12v-4.95ZM186.66,153.91h1.87v-.87h-1.87v.87ZM186.66,155.69h1.87v-.91h-1.87v.91ZM187.26,158.24v.82h3.83v-.82h-3.83ZM191.1,160.81v-.86h-3.83v.86h3.83ZM191.58,153.04h-1.92v.87h1.92v-.87ZM191.58,154.78h-1.92v.91h1.92v-.91Z"/>
          <path class="cls-2" d="M200.1,152.67s0,.43-.01.58c-.1,5.62-.19,7.54-.6,8.12-.26.38-.51.51-.92.57-.36.05-.94.05-1.53.03-.01-.36-.14-.88-.35-1.21.57.03,1.09.04,1.31.04.21,0,.32-.03.44-.22.27-.35.38-2.05.48-6.73h-1.69c-.12,3.47-.56,6.47-2.28,8.37-.19-.27-.61-.68-.9-.86,1.53-1.69,1.9-4.37,1.99-7.51h-1.65v-1.18h1.68c.01-.71.01-1.44.01-2.2h1.2c0,.74,0,1.48-.01,2.2h2.83ZM205.53,151.84v10.06h-1.22v-.83h-2.13v.94h-1.16v-10.17h4.51ZM204.3,159.91v-6.9h-2.13v6.9h2.13Z"/>
        </g>
      </g>
    </g>
  </g>
</svg>